%TF.GenerationSoftware,KiCad,Pcbnew,(6.0.7)*%
%TF.CreationDate,2022-10-20T15:16:30+05:30*%
%TF.ProjectId,lornode,6c6f726e-6f64-4652-9e6b-696361645f70,rev?*%
%TF.SameCoordinates,Original*%
%TF.FileFunction,Drillmap*%
%TF.FilePolarity,Positive*%
%FSLAX45Y45*%
G04 Gerber Fmt 4.5, Leading zero omitted, Abs format (unit mm)*
G04 Created by KiCad (PCBNEW (6.0.7)) date 2022-10-20 15:16:30*
%MOMM*%
%LPD*%
G01*
G04 APERTURE LIST*
%ADD10C,0.200000*%
%ADD11C,0.030000*%
%ADD12C,0.065000*%
%ADD13C,0.100000*%
%ADD14C,0.120000*%
%ADD15C,0.320000*%
G04 APERTURE END LIST*
D10*
X15430500Y-4572000D02*
G75*
G03*
X15113000Y-4889500I0J-317500D01*
G01*
X15430500Y-4572000D02*
X19132834Y-4572986D01*
X15113986Y-11619514D02*
X15113000Y-4889500D01*
X15113986Y-11619514D02*
G75*
G03*
X15431486Y-11937014I317504J4D01*
G01*
X19450334Y-4890486D02*
G75*
G03*
X19132834Y-4572986I-317504J-4D01*
G01*
X19132834Y-11937014D02*
X15431486Y-11937014D01*
X19132834Y-11937014D02*
G75*
G03*
X19450334Y-11619514I-4J317504D01*
G01*
X19450334Y-4890486D02*
X19450334Y-11619514D01*
D11*
X15702520Y-7112240D02*
X15732520Y-7142240D01*
X15732520Y-7112240D02*
X15702520Y-7142240D01*
X15705988Y-6722692D02*
X15735988Y-6752692D01*
X15735988Y-6722692D02*
X15705988Y-6752692D01*
X15788880Y-6751560D02*
X15818880Y-6781560D01*
X15818880Y-6751560D02*
X15788880Y-6781560D01*
X15849840Y-10226280D02*
X15879840Y-10256280D01*
X15879840Y-10226280D02*
X15849840Y-10256280D01*
X15880320Y-6858240D02*
X15910320Y-6888240D01*
X15910320Y-6858240D02*
X15880320Y-6888240D01*
X15900640Y-7264640D02*
X15930640Y-7294640D01*
X15930640Y-7264640D02*
X15900640Y-7294640D01*
X15905720Y-8011400D02*
X15935720Y-8041400D01*
X15935720Y-8011400D02*
X15905720Y-8041400D01*
X15941280Y-7605000D02*
X15971280Y-7635000D01*
X15971280Y-7605000D02*
X15941280Y-7635000D01*
X15941280Y-9753840D02*
X15971280Y-9783840D01*
X15971280Y-9753840D02*
X15941280Y-9783840D01*
X16007320Y-8113000D02*
X16037320Y-8143000D01*
X16037320Y-8113000D02*
X16007320Y-8143000D01*
X16007320Y-8377160D02*
X16037320Y-8407160D01*
X16037320Y-8377160D02*
X16007320Y-8407160D01*
X16032720Y-7472920D02*
X16062720Y-7502920D01*
X16062720Y-7472920D02*
X16032720Y-7502920D01*
X16047960Y-5506960D02*
X16077960Y-5536960D01*
X16077960Y-5506960D02*
X16047960Y-5536960D01*
X16129240Y-7478000D02*
X16159240Y-7508000D01*
X16159240Y-7478000D02*
X16129240Y-7508000D01*
X16149560Y-11181320D02*
X16179560Y-11211320D01*
X16179560Y-11181320D02*
X16149560Y-11211320D01*
X16168348Y-6504693D02*
X16198348Y-6534693D01*
X16198348Y-6504693D02*
X16168348Y-6534693D01*
X16189864Y-11811029D02*
X16219864Y-11841029D01*
X16219864Y-11811029D02*
X16189864Y-11841029D01*
X16190200Y-11364200D02*
X16220200Y-11394200D01*
X16220200Y-11364200D02*
X16190200Y-11394200D01*
X16190200Y-11516600D02*
X16220200Y-11546600D01*
X16220200Y-11516600D02*
X16190200Y-11546600D01*
X16190200Y-11669000D02*
X16220200Y-11699000D01*
X16220200Y-11669000D02*
X16190200Y-11699000D01*
X16195280Y-8240000D02*
X16225280Y-8270000D01*
X16225280Y-8240000D02*
X16195280Y-8270000D01*
X16195280Y-8367000D02*
X16225280Y-8397000D01*
X16225280Y-8367000D02*
X16195280Y-8397000D01*
X16215600Y-6644880D02*
X16245600Y-6674880D01*
X16245600Y-6644880D02*
X16215600Y-6674880D01*
X16228300Y-6119100D02*
X16258300Y-6149100D01*
X16258300Y-6119100D02*
X16228300Y-6149100D01*
X16230840Y-9637000D02*
X16260840Y-9667000D01*
X16260840Y-9637000D02*
X16230840Y-9667000D01*
X16241000Y-11211800D02*
X16271000Y-11241800D01*
X16271000Y-11211800D02*
X16241000Y-11241800D01*
X16275027Y-8245696D02*
X16305027Y-8275696D01*
X16305027Y-8245696D02*
X16275027Y-8275696D01*
X16291800Y-9261080D02*
X16321800Y-9291080D01*
X16321800Y-9261080D02*
X16291800Y-9291080D01*
X16383240Y-9250920D02*
X16413240Y-9280920D01*
X16413240Y-9250920D02*
X16383240Y-9280920D01*
X16418800Y-6487400D02*
X16448800Y-6517400D01*
X16448800Y-6487400D02*
X16418800Y-6517400D01*
X16424567Y-6651797D02*
X16454567Y-6681797D01*
X16454567Y-6651797D02*
X16424567Y-6681797D01*
X16469600Y-5557760D02*
X16499600Y-5587760D01*
X16499600Y-5557760D02*
X16469600Y-5587760D01*
X16489920Y-7559280D02*
X16519920Y-7589280D01*
X16519920Y-7559280D02*
X16489920Y-7589280D01*
X16495000Y-5941300D02*
X16525000Y-5971300D01*
X16525000Y-5941300D02*
X16495000Y-5971300D01*
X16507700Y-7020800D02*
X16537700Y-7050800D01*
X16537700Y-7020800D02*
X16507700Y-7050800D01*
X16530560Y-8275560D02*
X16560560Y-8305560D01*
X16560560Y-8275560D02*
X16530560Y-8305560D01*
X16533100Y-6741400D02*
X16563100Y-6771400D01*
X16563100Y-6741400D02*
X16533100Y-6771400D01*
X16533100Y-6830300D02*
X16563100Y-6860300D01*
X16563100Y-6830300D02*
X16533100Y-6860300D01*
X16571200Y-11145760D02*
X16601200Y-11175760D01*
X16601200Y-11145760D02*
X16571200Y-11175760D01*
X16575626Y-7558291D02*
X16605626Y-7588291D01*
X16605626Y-7558291D02*
X16575626Y-7588291D01*
X16596746Y-7008079D02*
X16626746Y-7038079D01*
X16626746Y-7008079D02*
X16596746Y-7038079D01*
X16601680Y-10653000D02*
X16631680Y-10683000D01*
X16631680Y-10653000D02*
X16601680Y-10683000D01*
X16601680Y-10774920D02*
X16631680Y-10804920D01*
X16631680Y-10774920D02*
X16601680Y-10804920D01*
X16609300Y-5954000D02*
X16639300Y-5984000D01*
X16639300Y-5954000D02*
X16609300Y-5984000D01*
X16647400Y-8499080D02*
X16677400Y-8529080D01*
X16677400Y-8499080D02*
X16647400Y-8529080D01*
X16658520Y-9622720D02*
X16688520Y-9652720D01*
X16688520Y-9622720D02*
X16658520Y-9652720D01*
X16672800Y-7549120D02*
X16702800Y-7579120D01*
X16702800Y-7549120D02*
X16672800Y-7579120D01*
X16672800Y-8798800D02*
X16702800Y-8828800D01*
X16702800Y-8798800D02*
X16672800Y-8828800D01*
X16728894Y-7013647D02*
X16758894Y-7043647D01*
X16758894Y-7013647D02*
X16728894Y-7043647D01*
X16749000Y-11161000D02*
X16779000Y-11191000D01*
X16779000Y-11161000D02*
X16749000Y-11191000D01*
X16799800Y-8783560D02*
X16829800Y-8813560D01*
X16829800Y-8783560D02*
X16799800Y-8813560D01*
X16818780Y-5998380D02*
X16848780Y-6028380D01*
X16848780Y-5998380D02*
X16818780Y-6028380D01*
X16876000Y-8372080D02*
X16906000Y-8402080D01*
X16906000Y-8372080D02*
X16876000Y-8402080D01*
X16881080Y-9682720D02*
X16911080Y-9712720D01*
X16911080Y-9682720D02*
X16881080Y-9712720D01*
X16882420Y-6062020D02*
X16912420Y-6092020D01*
X16912420Y-6062020D02*
X16882420Y-6092020D01*
X16888700Y-6614400D02*
X16918700Y-6644400D01*
X16918700Y-6614400D02*
X16888700Y-6644400D01*
X16888700Y-6703300D02*
X16918700Y-6733300D01*
X16918700Y-6703300D02*
X16888700Y-6733300D01*
X16888700Y-6804900D02*
X16918700Y-6834900D01*
X16918700Y-6804900D02*
X16888700Y-6834900D01*
X16906480Y-9560800D02*
X16936480Y-9590800D01*
X16936480Y-9560800D02*
X16906480Y-9590800D01*
X16914100Y-7097000D02*
X16944100Y-7127000D01*
X16944100Y-7097000D02*
X16914100Y-7127000D01*
X16952200Y-11161000D02*
X16982200Y-11191000D01*
X16982200Y-11161000D02*
X16952200Y-11191000D01*
X16957280Y-5491720D02*
X16987280Y-5521720D01*
X16987280Y-5491720D02*
X16957280Y-5521720D01*
X16967440Y-8372080D02*
X16997440Y-8402080D01*
X16997440Y-8372080D02*
X16967440Y-8402080D01*
X16972520Y-9687800D02*
X17002520Y-9717800D01*
X17002520Y-9687800D02*
X16972520Y-9717800D01*
X16977600Y-6449300D02*
X17007600Y-6479300D01*
X17007600Y-6449300D02*
X16977600Y-6479300D01*
X16990300Y-6614400D02*
X17020300Y-6644400D01*
X17020300Y-6614400D02*
X16990300Y-6644400D01*
X16990300Y-6703300D02*
X17020300Y-6733300D01*
X17020300Y-6703300D02*
X16990300Y-6733300D01*
X16990300Y-6804900D02*
X17020300Y-6834900D01*
X17020300Y-6804900D02*
X16990300Y-6834900D01*
X17053800Y-6474700D02*
X17083800Y-6504700D01*
X17083800Y-6474700D02*
X17053800Y-6504700D01*
X17053800Y-8372080D02*
X17083800Y-8402080D01*
X17083800Y-8372080D02*
X17053800Y-8402080D01*
X17058880Y-9687800D02*
X17088880Y-9717800D01*
X17088880Y-9687800D02*
X17058880Y-9717800D01*
X17063960Y-5512040D02*
X17093960Y-5542040D01*
X17093960Y-5512040D02*
X17063960Y-5542040D01*
X17140160Y-7528800D02*
X17170160Y-7558800D01*
X17170160Y-7528800D02*
X17140160Y-7558800D01*
X17155400Y-11161000D02*
X17185400Y-11191000D01*
X17185400Y-11161000D02*
X17155400Y-11191000D01*
X17307800Y-6423900D02*
X17337800Y-6453900D01*
X17337800Y-6423900D02*
X17307800Y-6453900D01*
X17345900Y-6652500D02*
X17375900Y-6682500D01*
X17375900Y-6652500D02*
X17345900Y-6682500D01*
X17345900Y-6754100D02*
X17375900Y-6784100D01*
X17375900Y-6754100D02*
X17345900Y-6784100D01*
X17358600Y-7033500D02*
X17388600Y-7063500D01*
X17388600Y-7033500D02*
X17358600Y-7063500D01*
X17358600Y-11161000D02*
X17388600Y-11191000D01*
X17388600Y-11161000D02*
X17358600Y-11191000D01*
X17429697Y-5170327D02*
X17459697Y-5200327D01*
X17459697Y-5170327D02*
X17429697Y-5200327D01*
X17500840Y-7874240D02*
X17530840Y-7904240D01*
X17530840Y-7874240D02*
X17500840Y-7904240D01*
X17511000Y-11161000D02*
X17541000Y-11191000D01*
X17541000Y-11161000D02*
X17511000Y-11191000D01*
X17519697Y-5170327D02*
X17549697Y-5200327D01*
X17549697Y-5170327D02*
X17519697Y-5200327D01*
X17714200Y-9565880D02*
X17744200Y-9595880D01*
X17744200Y-9565880D02*
X17714200Y-9595880D01*
X17739600Y-6131800D02*
X17769600Y-6161800D01*
X17769600Y-6131800D02*
X17739600Y-6161800D01*
X17765000Y-6919200D02*
X17795000Y-6949200D01*
X17795000Y-6919200D02*
X17765000Y-6949200D01*
X17765000Y-11161000D02*
X17795000Y-11191000D01*
X17795000Y-11161000D02*
X17765000Y-11191000D01*
X17790400Y-5517120D02*
X17820400Y-5547120D01*
X17820400Y-5517120D02*
X17790400Y-5547120D01*
X17800560Y-7569440D02*
X17830560Y-7599440D01*
X17830560Y-7569440D02*
X17800560Y-7599440D01*
X17828500Y-6131800D02*
X17858500Y-6161800D01*
X17858500Y-6131800D02*
X17828500Y-6161800D01*
X17846280Y-9550640D02*
X17876280Y-9580640D01*
X17876280Y-9550640D02*
X17846280Y-9580640D01*
X17892000Y-5506960D02*
X17922000Y-5536960D01*
X17922000Y-5506960D02*
X17892000Y-5536960D01*
X17917400Y-10891760D02*
X17947400Y-10921760D01*
X17947400Y-10891760D02*
X17917400Y-10921760D01*
X17932640Y-6924280D02*
X17962640Y-6954280D01*
X17962640Y-6924280D02*
X17932640Y-6954280D01*
X17952960Y-11013680D02*
X17982960Y-11043680D01*
X17982960Y-11013680D02*
X17952960Y-11043680D01*
X17968200Y-6735300D02*
X17998200Y-6765300D01*
X17998200Y-6735300D02*
X17968200Y-6765300D01*
X17968200Y-11150840D02*
X17998200Y-11180840D01*
X17998200Y-11150840D02*
X17968200Y-11180840D01*
X18069800Y-6893800D02*
X18099800Y-6923800D01*
X18099800Y-6893800D02*
X18069800Y-6923800D01*
X18110440Y-9245840D02*
X18140440Y-9275840D01*
X18140440Y-9245840D02*
X18110440Y-9275840D01*
X18140920Y-9088360D02*
X18170920Y-9118360D01*
X18170920Y-9088360D02*
X18140920Y-9118360D01*
X18181560Y-8427960D02*
X18211560Y-8457960D01*
X18211560Y-8427960D02*
X18181560Y-8457960D01*
X18184100Y-7236700D02*
X18214100Y-7266700D01*
X18214100Y-7236700D02*
X18184100Y-7266700D01*
X18196800Y-7389100D02*
X18226800Y-7419100D01*
X18226800Y-7389100D02*
X18196800Y-7419100D01*
X18201880Y-9245840D02*
X18231880Y-9275840D01*
X18231880Y-9245840D02*
X18201880Y-9275840D01*
X18285700Y-6411200D02*
X18315700Y-6441200D01*
X18315700Y-6411200D02*
X18285700Y-6441200D01*
X18304227Y-6969306D02*
X18334227Y-6999306D01*
X18334227Y-6969306D02*
X18304227Y-6999306D01*
X18323800Y-11364200D02*
X18353800Y-11394200D01*
X18353800Y-11364200D02*
X18323800Y-11394200D01*
X18323800Y-11516600D02*
X18353800Y-11546600D01*
X18353800Y-11516600D02*
X18323800Y-11546600D01*
X18323800Y-11669000D02*
X18353800Y-11699000D01*
X18353800Y-11669000D02*
X18323800Y-11699000D01*
X18323800Y-11821400D02*
X18353800Y-11851400D01*
X18353800Y-11821400D02*
X18323800Y-11851400D01*
X18336500Y-4861800D02*
X18366500Y-4891800D01*
X18366500Y-4861800D02*
X18336500Y-4891800D01*
X18336500Y-5026900D02*
X18366500Y-5056900D01*
X18366500Y-5026900D02*
X18336500Y-5056900D01*
X18344120Y-6644880D02*
X18374120Y-6674880D01*
X18374120Y-6644880D02*
X18344120Y-6674880D01*
X18364440Y-8727680D02*
X18394440Y-8757680D01*
X18394440Y-8727680D02*
X18364440Y-8757680D01*
X18450800Y-11211800D02*
X18480800Y-11241800D01*
X18480800Y-11211800D02*
X18450800Y-11241800D01*
X18547320Y-11008600D02*
X18577320Y-11038600D01*
X18577320Y-11008600D02*
X18547320Y-11038600D01*
X18598120Y-6807440D02*
X18628120Y-6837440D01*
X18628120Y-6807440D02*
X18598120Y-6837440D01*
X18643840Y-10663160D02*
X18673840Y-10693160D01*
X18673840Y-10663160D02*
X18643840Y-10693160D01*
X18684480Y-8549880D02*
X18714480Y-8579880D01*
X18714480Y-8549880D02*
X18684480Y-8579880D01*
X18699720Y-6451840D02*
X18729720Y-6481840D01*
X18729720Y-6451840D02*
X18699720Y-6481840D01*
X18704800Y-9803630D02*
X18734800Y-9833630D01*
X18734800Y-9803630D02*
X18704800Y-9833630D01*
X18750520Y-10353280D02*
X18780520Y-10383280D01*
X18780520Y-10353280D02*
X18750520Y-10383280D01*
X18766930Y-10200880D02*
X18796930Y-10230880D01*
X18796930Y-10200880D02*
X18766930Y-10230880D01*
X18770840Y-10038320D02*
X18800840Y-10068320D01*
X18800840Y-10038320D02*
X18770840Y-10068320D01*
X18822838Y-7100852D02*
X18852838Y-7130852D01*
X18852838Y-7100852D02*
X18822838Y-7130852D01*
X18841960Y-6670280D02*
X18871960Y-6700280D01*
X18871960Y-6670280D02*
X18841960Y-6700280D01*
X18872440Y-6553440D02*
X18902440Y-6583440D01*
X18902440Y-6553440D02*
X18872440Y-6583440D01*
X18918160Y-7523720D02*
X18948160Y-7553720D01*
X18948160Y-7523720D02*
X18918160Y-7553720D01*
X18971500Y-7076680D02*
X19001500Y-7106680D01*
X19001500Y-7076680D02*
X18971500Y-7106680D01*
X19309320Y-6624560D02*
X19339320Y-6654560D01*
X19339320Y-6624560D02*
X19309320Y-6654560D01*
X19309320Y-6743940D02*
X19339320Y-6773940D01*
X19339320Y-6743940D02*
X19309320Y-6773940D01*
D12*
X17051500Y-4868350D02*
G75*
G03*
X17051500Y-4868350I-32500J0D01*
G01*
D10*
X17051500Y-4898350D02*
X17051500Y-4838350D01*
X16986500Y-4898350D02*
X16986500Y-4838350D01*
X17051500Y-4838350D02*
G75*
G03*
X16986500Y-4838350I-32500J0D01*
G01*
X16986500Y-4898350D02*
G75*
G03*
X17051500Y-4898350I32500J0D01*
G01*
D12*
X17051500Y-5286350D02*
G75*
G03*
X17051500Y-5286350I-32500J0D01*
G01*
D10*
X17051500Y-5341350D02*
X17051500Y-5231350D01*
X16986500Y-5341350D02*
X16986500Y-5231350D01*
X17051500Y-5231350D02*
G75*
G03*
X16986500Y-5231350I-32500J0D01*
G01*
X16986500Y-5341350D02*
G75*
G03*
X17051500Y-5341350I32500J0D01*
G01*
D12*
X17915500Y-4868350D02*
G75*
G03*
X17915500Y-4868350I-32500J0D01*
G01*
D10*
X17915500Y-4898350D02*
X17915500Y-4838350D01*
X17850500Y-4898350D02*
X17850500Y-4838350D01*
X17915500Y-4838350D02*
G75*
G03*
X17850500Y-4838350I-32500J0D01*
G01*
X17850500Y-4898350D02*
G75*
G03*
X17915500Y-4898350I32500J0D01*
G01*
D12*
X17915500Y-5286350D02*
G75*
G03*
X17915500Y-5286350I-32500J0D01*
G01*
D10*
X17915500Y-5341350D02*
X17915500Y-5231350D01*
X17850500Y-5341350D02*
X17850500Y-5231350D01*
X17915500Y-5231350D02*
G75*
G03*
X17850500Y-5231350I-32500J0D01*
G01*
X17850500Y-5341350D02*
G75*
G03*
X17915500Y-5341350I32500J0D01*
G01*
D13*
X15455900Y-5639600D02*
X15455900Y-5739600D01*
X15405900Y-5689600D02*
X15505900Y-5689600D01*
X15455900Y-5893600D02*
X15455900Y-5993600D01*
X15405900Y-5943600D02*
X15505900Y-5943600D01*
X15455900Y-6147600D02*
X15455900Y-6247600D01*
X15405900Y-6197600D02*
X15505900Y-6197600D01*
X15455900Y-6528600D02*
X15455900Y-6628600D01*
X15405900Y-6578600D02*
X15505900Y-6578600D01*
X15455900Y-6782600D02*
X15455900Y-6882600D01*
X15405900Y-6832600D02*
X15505900Y-6832600D01*
X15455900Y-7036600D02*
X15455900Y-7136600D01*
X15405900Y-7086600D02*
X15505900Y-7086600D01*
X15455900Y-7290600D02*
X15455900Y-7390600D01*
X15405900Y-7340600D02*
X15505900Y-7340600D01*
X15455900Y-7544600D02*
X15455900Y-7644600D01*
X15405900Y-7594600D02*
X15505900Y-7594600D01*
X15455900Y-7798600D02*
X15455900Y-7898600D01*
X15405900Y-7848600D02*
X15505900Y-7848600D01*
X15455900Y-8052600D02*
X15455900Y-8152600D01*
X15405900Y-8102600D02*
X15505900Y-8102600D01*
X15455900Y-8306600D02*
X15455900Y-8406600D01*
X15405900Y-8356600D02*
X15505900Y-8356600D01*
X15455900Y-8560600D02*
X15455900Y-8660600D01*
X15405900Y-8610600D02*
X15505900Y-8610600D01*
X15455900Y-8814600D02*
X15455900Y-8914600D01*
X15405900Y-8864600D02*
X15505900Y-8864600D01*
X15455900Y-9068600D02*
X15455900Y-9168600D01*
X15405900Y-9118600D02*
X15505900Y-9118600D01*
X15455900Y-9322600D02*
X15455900Y-9422600D01*
X15405900Y-9372600D02*
X15505900Y-9372600D01*
X15455900Y-9576600D02*
X15455900Y-9676600D01*
X15405900Y-9626600D02*
X15505900Y-9626600D01*
X15455900Y-9830600D02*
X15455900Y-9930600D01*
X15405900Y-9880600D02*
X15505900Y-9880600D01*
X15455900Y-10084600D02*
X15455900Y-10184600D01*
X15405900Y-10134600D02*
X15505900Y-10134600D01*
X15455900Y-10338600D02*
X15455900Y-10438600D01*
X15405900Y-10388600D02*
X15505900Y-10388600D01*
X15455900Y-10592600D02*
X15455900Y-10692600D01*
X15405900Y-10642600D02*
X15505900Y-10642600D01*
X15455900Y-10846600D02*
X15455900Y-10946600D01*
X15405900Y-10896600D02*
X15505900Y-10896600D01*
X15709900Y-5639600D02*
X15709900Y-5739600D01*
X15659900Y-5689600D02*
X15759900Y-5689600D01*
X15709900Y-5893600D02*
X15709900Y-5993600D01*
X15659900Y-5943600D02*
X15759900Y-5943600D01*
X15709900Y-6147600D02*
X15709900Y-6247600D01*
X15659900Y-6197600D02*
X15759900Y-6197600D01*
X19090640Y-7288600D02*
X19090640Y-7388600D01*
X19040640Y-7338600D02*
X19140640Y-7338600D01*
X19090640Y-7542600D02*
X19090640Y-7642600D01*
X19040640Y-7592600D02*
X19140640Y-7592600D01*
X19090640Y-7796600D02*
X19090640Y-7896600D01*
X19040640Y-7846600D02*
X19140640Y-7846600D01*
X19090640Y-8050600D02*
X19090640Y-8150600D01*
X19040640Y-8100600D02*
X19140640Y-8100600D01*
X19090640Y-8304600D02*
X19090640Y-8404600D01*
X19040640Y-8354600D02*
X19140640Y-8354600D01*
X19090640Y-8558600D02*
X19090640Y-8658600D01*
X19040640Y-8608600D02*
X19140640Y-8608600D01*
X19090640Y-8812600D02*
X19090640Y-8912600D01*
X19040640Y-8862600D02*
X19140640Y-8862600D01*
X19090640Y-9066600D02*
X19090640Y-9166600D01*
X19040640Y-9116600D02*
X19140640Y-9116600D01*
X19090640Y-9320600D02*
X19090640Y-9420600D01*
X19040640Y-9370600D02*
X19140640Y-9370600D01*
X19090640Y-9574600D02*
X19090640Y-9674600D01*
X19040640Y-9624600D02*
X19140640Y-9624600D01*
X19090640Y-9828600D02*
X19090640Y-9928600D01*
X19040640Y-9878600D02*
X19140640Y-9878600D01*
X19090640Y-10082600D02*
X19090640Y-10182600D01*
X19040640Y-10132600D02*
X19140640Y-10132600D01*
X19090640Y-10336600D02*
X19090640Y-10436600D01*
X19040640Y-10386600D02*
X19140640Y-10386600D01*
X19090640Y-10590600D02*
X19090640Y-10690600D01*
X19040640Y-10640600D02*
X19140640Y-10640600D01*
X19090640Y-10844600D02*
X19090640Y-10944600D01*
X19040640Y-10894600D02*
X19140640Y-10894600D01*
D14*
X16352027Y-5122427D02*
X16352027Y-5037573D01*
X16267173Y-5037573D01*
X16267173Y-5122427D01*
X16352027Y-5122427D01*
X16702027Y-5122427D02*
X16702027Y-5037573D01*
X16617173Y-5037573D01*
X16617173Y-5122427D01*
X16702027Y-5122427D01*
X18895427Y-5734827D02*
X18895427Y-5649973D01*
X18810573Y-5649973D01*
X18810573Y-5734827D01*
X18895427Y-5734827D01*
X18895427Y-6084827D02*
X18895427Y-5999973D01*
X18810573Y-5999973D01*
X18810573Y-6084827D01*
X18895427Y-6084827D01*
D15*
X15656400Y-5163800D02*
X15816400Y-5003800D01*
X15656400Y-4843800D01*
X15496400Y-5003800D01*
X15656400Y-5163800D01*
X15656400Y-11666200D02*
X15816400Y-11506200D01*
X15656400Y-11346200D01*
X15496400Y-11506200D01*
X15656400Y-11666200D01*
X18923000Y-5163800D02*
X19083000Y-5003800D01*
X18923000Y-4843800D01*
X18763000Y-5003800D01*
X18923000Y-5163800D01*
X18923000Y-11666200D02*
X19083000Y-11506200D01*
X18923000Y-11346200D01*
X18763000Y-11506200D01*
X18923000Y-11666200D01*
D10*
X15360619Y-12257490D02*
X15360619Y-12057490D01*
X15408238Y-12057490D01*
X15436809Y-12067014D01*
X15455857Y-12086061D01*
X15465381Y-12105109D01*
X15474905Y-12143204D01*
X15474905Y-12171775D01*
X15465381Y-12209871D01*
X15455857Y-12228918D01*
X15436809Y-12247966D01*
X15408238Y-12257490D01*
X15360619Y-12257490D01*
X15560619Y-12257490D02*
X15560619Y-12124156D01*
X15560619Y-12162252D02*
X15570143Y-12143204D01*
X15579667Y-12133680D01*
X15598714Y-12124156D01*
X15617762Y-12124156D01*
X15684428Y-12257490D02*
X15684428Y-12124156D01*
X15684428Y-12057490D02*
X15674905Y-12067014D01*
X15684428Y-12076537D01*
X15693952Y-12067014D01*
X15684428Y-12057490D01*
X15684428Y-12076537D01*
X15808238Y-12257490D02*
X15789190Y-12247966D01*
X15779667Y-12228918D01*
X15779667Y-12057490D01*
X15913000Y-12257490D02*
X15893952Y-12247966D01*
X15884428Y-12228918D01*
X15884428Y-12057490D01*
X16141571Y-12257490D02*
X16141571Y-12057490D01*
X16208238Y-12200347D01*
X16274905Y-12057490D01*
X16274905Y-12257490D01*
X16455857Y-12257490D02*
X16455857Y-12152728D01*
X16446333Y-12133680D01*
X16427286Y-12124156D01*
X16389190Y-12124156D01*
X16370143Y-12133680D01*
X16455857Y-12247966D02*
X16436809Y-12257490D01*
X16389190Y-12257490D01*
X16370143Y-12247966D01*
X16360619Y-12228918D01*
X16360619Y-12209871D01*
X16370143Y-12190823D01*
X16389190Y-12181299D01*
X16436809Y-12181299D01*
X16455857Y-12171775D01*
X16551095Y-12124156D02*
X16551095Y-12324156D01*
X16551095Y-12133680D02*
X16570143Y-12124156D01*
X16608238Y-12124156D01*
X16627286Y-12133680D01*
X16636809Y-12143204D01*
X16646333Y-12162252D01*
X16646333Y-12219394D01*
X16636809Y-12238442D01*
X16627286Y-12247966D01*
X16608238Y-12257490D01*
X16570143Y-12257490D01*
X16551095Y-12247966D01*
X16732048Y-12238442D02*
X16741571Y-12247966D01*
X16732048Y-12257490D01*
X16722524Y-12247966D01*
X16732048Y-12238442D01*
X16732048Y-12257490D01*
X16732048Y-12133680D02*
X16741571Y-12143204D01*
X16732048Y-12152728D01*
X16722524Y-12143204D01*
X16732048Y-12133680D01*
X16732048Y-12152728D01*
D11*
X15073000Y-12572014D02*
X15103000Y-12602014D01*
X15103000Y-12572014D02*
X15073000Y-12602014D01*
D10*
X15398714Y-12477490D02*
X15417762Y-12477490D01*
X15436809Y-12487014D01*
X15446333Y-12496537D01*
X15455857Y-12515585D01*
X15465381Y-12553680D01*
X15465381Y-12601299D01*
X15455857Y-12639394D01*
X15446333Y-12658442D01*
X15436809Y-12667966D01*
X15417762Y-12677490D01*
X15398714Y-12677490D01*
X15379667Y-12667966D01*
X15370143Y-12658442D01*
X15360619Y-12639394D01*
X15351095Y-12601299D01*
X15351095Y-12553680D01*
X15360619Y-12515585D01*
X15370143Y-12496537D01*
X15379667Y-12487014D01*
X15398714Y-12477490D01*
X15551095Y-12658442D02*
X15560619Y-12667966D01*
X15551095Y-12677490D01*
X15541571Y-12667966D01*
X15551095Y-12658442D01*
X15551095Y-12677490D01*
X15627286Y-12477490D02*
X15751095Y-12477490D01*
X15684428Y-12553680D01*
X15713000Y-12553680D01*
X15732048Y-12563204D01*
X15741571Y-12572728D01*
X15751095Y-12591775D01*
X15751095Y-12639394D01*
X15741571Y-12658442D01*
X15732048Y-12667966D01*
X15713000Y-12677490D01*
X15655857Y-12677490D01*
X15636809Y-12667966D01*
X15627286Y-12658442D01*
X15874905Y-12477490D02*
X15893952Y-12477490D01*
X15913000Y-12487014D01*
X15922524Y-12496537D01*
X15932048Y-12515585D01*
X15941571Y-12553680D01*
X15941571Y-12601299D01*
X15932048Y-12639394D01*
X15922524Y-12658442D01*
X15913000Y-12667966D01*
X15893952Y-12677490D01*
X15874905Y-12677490D01*
X15855857Y-12667966D01*
X15846333Y-12658442D01*
X15836809Y-12639394D01*
X15827286Y-12601299D01*
X15827286Y-12553680D01*
X15836809Y-12515585D01*
X15846333Y-12496537D01*
X15855857Y-12487014D01*
X15874905Y-12477490D01*
X16065381Y-12477490D02*
X16084428Y-12477490D01*
X16103476Y-12487014D01*
X16113000Y-12496537D01*
X16122524Y-12515585D01*
X16132048Y-12553680D01*
X16132048Y-12601299D01*
X16122524Y-12639394D01*
X16113000Y-12658442D01*
X16103476Y-12667966D01*
X16084428Y-12677490D01*
X16065381Y-12677490D01*
X16046333Y-12667966D01*
X16036809Y-12658442D01*
X16027286Y-12639394D01*
X16017762Y-12601299D01*
X16017762Y-12553680D01*
X16027286Y-12515585D01*
X16036809Y-12496537D01*
X16046333Y-12487014D01*
X16065381Y-12477490D01*
X16217762Y-12677490D02*
X16217762Y-12544156D01*
X16217762Y-12563204D02*
X16227286Y-12553680D01*
X16246333Y-12544156D01*
X16274905Y-12544156D01*
X16293952Y-12553680D01*
X16303476Y-12572728D01*
X16303476Y-12677490D01*
X16303476Y-12572728D02*
X16313000Y-12553680D01*
X16332048Y-12544156D01*
X16360619Y-12544156D01*
X16379667Y-12553680D01*
X16389190Y-12572728D01*
X16389190Y-12677490D01*
X16484428Y-12677490D02*
X16484428Y-12544156D01*
X16484428Y-12563204D02*
X16493952Y-12553680D01*
X16513000Y-12544156D01*
X16541571Y-12544156D01*
X16560619Y-12553680D01*
X16570143Y-12572728D01*
X16570143Y-12677490D01*
X16570143Y-12572728D02*
X16579667Y-12553680D01*
X16598714Y-12544156D01*
X16627286Y-12544156D01*
X16646333Y-12553680D01*
X16655857Y-12572728D01*
X16655857Y-12677490D01*
X17046333Y-12467966D02*
X16874905Y-12725109D01*
X17303476Y-12477490D02*
X17322524Y-12477490D01*
X17341571Y-12487014D01*
X17351095Y-12496537D01*
X17360619Y-12515585D01*
X17370143Y-12553680D01*
X17370143Y-12601299D01*
X17360619Y-12639394D01*
X17351095Y-12658442D01*
X17341571Y-12667966D01*
X17322524Y-12677490D01*
X17303476Y-12677490D01*
X17284429Y-12667966D01*
X17274905Y-12658442D01*
X17265381Y-12639394D01*
X17255857Y-12601299D01*
X17255857Y-12553680D01*
X17265381Y-12515585D01*
X17274905Y-12496537D01*
X17284429Y-12487014D01*
X17303476Y-12477490D01*
X17455857Y-12658442D02*
X17465381Y-12667966D01*
X17455857Y-12677490D01*
X17446333Y-12667966D01*
X17455857Y-12658442D01*
X17455857Y-12677490D01*
X17589190Y-12477490D02*
X17608238Y-12477490D01*
X17627286Y-12487014D01*
X17636810Y-12496537D01*
X17646333Y-12515585D01*
X17655857Y-12553680D01*
X17655857Y-12601299D01*
X17646333Y-12639394D01*
X17636810Y-12658442D01*
X17627286Y-12667966D01*
X17608238Y-12677490D01*
X17589190Y-12677490D01*
X17570143Y-12667966D01*
X17560619Y-12658442D01*
X17551095Y-12639394D01*
X17541571Y-12601299D01*
X17541571Y-12553680D01*
X17551095Y-12515585D01*
X17560619Y-12496537D01*
X17570143Y-12487014D01*
X17589190Y-12477490D01*
X17846333Y-12677490D02*
X17732048Y-12677490D01*
X17789190Y-12677490D02*
X17789190Y-12477490D01*
X17770143Y-12506061D01*
X17751095Y-12525109D01*
X17732048Y-12534633D01*
X18036810Y-12677490D02*
X17922524Y-12677490D01*
X17979667Y-12677490D02*
X17979667Y-12477490D01*
X17960619Y-12506061D01*
X17941571Y-12525109D01*
X17922524Y-12534633D01*
X18151095Y-12563204D02*
X18132048Y-12553680D01*
X18122524Y-12544156D01*
X18113000Y-12525109D01*
X18113000Y-12515585D01*
X18122524Y-12496537D01*
X18132048Y-12487014D01*
X18151095Y-12477490D01*
X18189190Y-12477490D01*
X18208238Y-12487014D01*
X18217762Y-12496537D01*
X18227286Y-12515585D01*
X18227286Y-12525109D01*
X18217762Y-12544156D01*
X18208238Y-12553680D01*
X18189190Y-12563204D01*
X18151095Y-12563204D01*
X18132048Y-12572728D01*
X18122524Y-12582252D01*
X18113000Y-12601299D01*
X18113000Y-12639394D01*
X18122524Y-12658442D01*
X18132048Y-12667966D01*
X18151095Y-12677490D01*
X18189190Y-12677490D01*
X18208238Y-12667966D01*
X18217762Y-12658442D01*
X18227286Y-12639394D01*
X18227286Y-12601299D01*
X18217762Y-12582252D01*
X18208238Y-12572728D01*
X18189190Y-12563204D01*
X18303476Y-12477490D02*
X18303476Y-12515585D01*
X18379667Y-12477490D02*
X18379667Y-12515585D01*
X18674905Y-12753680D02*
X18665381Y-12744156D01*
X18646333Y-12715585D01*
X18636810Y-12696537D01*
X18627286Y-12667966D01*
X18617762Y-12620347D01*
X18617762Y-12582252D01*
X18627286Y-12534633D01*
X18636810Y-12506061D01*
X18646333Y-12487014D01*
X18665381Y-12458442D01*
X18674905Y-12448918D01*
X18855857Y-12677490D02*
X18741571Y-12677490D01*
X18798714Y-12677490D02*
X18798714Y-12477490D01*
X18779667Y-12506061D01*
X18760619Y-12525109D01*
X18741571Y-12534633D01*
X18922524Y-12477490D02*
X19046333Y-12477490D01*
X18979667Y-12553680D01*
X19008238Y-12553680D01*
X19027286Y-12563204D01*
X19036810Y-12572728D01*
X19046333Y-12591775D01*
X19046333Y-12639394D01*
X19036810Y-12658442D01*
X19027286Y-12667966D01*
X19008238Y-12677490D01*
X18951095Y-12677490D01*
X18932048Y-12667966D01*
X18922524Y-12658442D01*
X19236810Y-12677490D02*
X19122524Y-12677490D01*
X19179667Y-12677490D02*
X19179667Y-12477490D01*
X19160619Y-12506061D01*
X19141571Y-12525109D01*
X19122524Y-12534633D01*
X19474905Y-12677490D02*
X19474905Y-12477490D01*
X19560619Y-12677490D02*
X19560619Y-12572728D01*
X19551095Y-12553680D01*
X19532048Y-12544156D01*
X19503476Y-12544156D01*
X19484429Y-12553680D01*
X19474905Y-12563204D01*
X19684429Y-12677490D02*
X19665381Y-12667966D01*
X19655857Y-12658442D01*
X19646333Y-12639394D01*
X19646333Y-12582252D01*
X19655857Y-12563204D01*
X19665381Y-12553680D01*
X19684429Y-12544156D01*
X19713000Y-12544156D01*
X19732048Y-12553680D01*
X19741571Y-12563204D01*
X19751095Y-12582252D01*
X19751095Y-12639394D01*
X19741571Y-12658442D01*
X19732048Y-12667966D01*
X19713000Y-12677490D01*
X19684429Y-12677490D01*
X19865381Y-12677490D02*
X19846333Y-12667966D01*
X19836810Y-12648918D01*
X19836810Y-12477490D01*
X20017762Y-12667966D02*
X19998714Y-12677490D01*
X19960619Y-12677490D01*
X19941571Y-12667966D01*
X19932048Y-12648918D01*
X19932048Y-12572728D01*
X19941571Y-12553680D01*
X19960619Y-12544156D01*
X19998714Y-12544156D01*
X20017762Y-12553680D01*
X20027286Y-12572728D01*
X20027286Y-12591775D01*
X19932048Y-12610823D01*
X20103476Y-12667966D02*
X20122524Y-12677490D01*
X20160619Y-12677490D01*
X20179667Y-12667966D01*
X20189190Y-12648918D01*
X20189190Y-12639394D01*
X20179667Y-12620347D01*
X20160619Y-12610823D01*
X20132048Y-12610823D01*
X20113000Y-12601299D01*
X20103476Y-12582252D01*
X20103476Y-12572728D01*
X20113000Y-12553680D01*
X20132048Y-12544156D01*
X20160619Y-12544156D01*
X20179667Y-12553680D01*
X20255857Y-12753680D02*
X20265381Y-12744156D01*
X20284429Y-12715585D01*
X20293952Y-12696537D01*
X20303476Y-12667966D01*
X20313000Y-12620347D01*
X20313000Y-12582252D01*
X20303476Y-12534633D01*
X20293952Y-12506061D01*
X20284429Y-12487014D01*
X20265381Y-12458442D01*
X20255857Y-12448918D01*
D12*
X15103000Y-12851014D02*
G75*
G03*
X15103000Y-12851014I-32500J0D01*
G01*
D10*
X15398714Y-12741490D02*
X15417762Y-12741490D01*
X15436809Y-12751014D01*
X15446333Y-12760537D01*
X15455857Y-12779585D01*
X15465381Y-12817680D01*
X15465381Y-12865299D01*
X15455857Y-12903394D01*
X15446333Y-12922442D01*
X15436809Y-12931966D01*
X15417762Y-12941490D01*
X15398714Y-12941490D01*
X15379667Y-12931966D01*
X15370143Y-12922442D01*
X15360619Y-12903394D01*
X15351095Y-12865299D01*
X15351095Y-12817680D01*
X15360619Y-12779585D01*
X15370143Y-12760537D01*
X15379667Y-12751014D01*
X15398714Y-12741490D01*
X15551095Y-12922442D02*
X15560619Y-12931966D01*
X15551095Y-12941490D01*
X15541571Y-12931966D01*
X15551095Y-12922442D01*
X15551095Y-12941490D01*
X15732048Y-12741490D02*
X15693952Y-12741490D01*
X15674905Y-12751014D01*
X15665381Y-12760537D01*
X15646333Y-12789109D01*
X15636809Y-12827204D01*
X15636809Y-12903394D01*
X15646333Y-12922442D01*
X15655857Y-12931966D01*
X15674905Y-12941490D01*
X15713000Y-12941490D01*
X15732048Y-12931966D01*
X15741571Y-12922442D01*
X15751095Y-12903394D01*
X15751095Y-12855775D01*
X15741571Y-12836728D01*
X15732048Y-12827204D01*
X15713000Y-12817680D01*
X15674905Y-12817680D01*
X15655857Y-12827204D01*
X15646333Y-12836728D01*
X15636809Y-12855775D01*
X15932048Y-12741490D02*
X15836809Y-12741490D01*
X15827286Y-12836728D01*
X15836809Y-12827204D01*
X15855857Y-12817680D01*
X15903476Y-12817680D01*
X15922524Y-12827204D01*
X15932048Y-12836728D01*
X15941571Y-12855775D01*
X15941571Y-12903394D01*
X15932048Y-12922442D01*
X15922524Y-12931966D01*
X15903476Y-12941490D01*
X15855857Y-12941490D01*
X15836809Y-12931966D01*
X15827286Y-12922442D01*
X16065381Y-12741490D02*
X16084428Y-12741490D01*
X16103476Y-12751014D01*
X16113000Y-12760537D01*
X16122524Y-12779585D01*
X16132048Y-12817680D01*
X16132048Y-12865299D01*
X16122524Y-12903394D01*
X16113000Y-12922442D01*
X16103476Y-12931966D01*
X16084428Y-12941490D01*
X16065381Y-12941490D01*
X16046333Y-12931966D01*
X16036809Y-12922442D01*
X16027286Y-12903394D01*
X16017762Y-12865299D01*
X16017762Y-12817680D01*
X16027286Y-12779585D01*
X16036809Y-12760537D01*
X16046333Y-12751014D01*
X16065381Y-12741490D01*
X16217762Y-12941490D02*
X16217762Y-12808156D01*
X16217762Y-12827204D02*
X16227286Y-12817680D01*
X16246333Y-12808156D01*
X16274905Y-12808156D01*
X16293952Y-12817680D01*
X16303476Y-12836728D01*
X16303476Y-12941490D01*
X16303476Y-12836728D02*
X16313000Y-12817680D01*
X16332048Y-12808156D01*
X16360619Y-12808156D01*
X16379667Y-12817680D01*
X16389190Y-12836728D01*
X16389190Y-12941490D01*
X16484428Y-12941490D02*
X16484428Y-12808156D01*
X16484428Y-12827204D02*
X16493952Y-12817680D01*
X16513000Y-12808156D01*
X16541571Y-12808156D01*
X16560619Y-12817680D01*
X16570143Y-12836728D01*
X16570143Y-12941490D01*
X16570143Y-12836728D02*
X16579667Y-12817680D01*
X16598714Y-12808156D01*
X16627286Y-12808156D01*
X16646333Y-12817680D01*
X16655857Y-12836728D01*
X16655857Y-12941490D01*
X17046333Y-12731966D02*
X16874905Y-12989109D01*
X17303476Y-12741490D02*
X17322524Y-12741490D01*
X17341571Y-12751014D01*
X17351095Y-12760537D01*
X17360619Y-12779585D01*
X17370143Y-12817680D01*
X17370143Y-12865299D01*
X17360619Y-12903394D01*
X17351095Y-12922442D01*
X17341571Y-12931966D01*
X17322524Y-12941490D01*
X17303476Y-12941490D01*
X17284429Y-12931966D01*
X17274905Y-12922442D01*
X17265381Y-12903394D01*
X17255857Y-12865299D01*
X17255857Y-12817680D01*
X17265381Y-12779585D01*
X17274905Y-12760537D01*
X17284429Y-12751014D01*
X17303476Y-12741490D01*
X17455857Y-12922442D02*
X17465381Y-12931966D01*
X17455857Y-12941490D01*
X17446333Y-12931966D01*
X17455857Y-12922442D01*
X17455857Y-12941490D01*
X17589190Y-12741490D02*
X17608238Y-12741490D01*
X17627286Y-12751014D01*
X17636810Y-12760537D01*
X17646333Y-12779585D01*
X17655857Y-12817680D01*
X17655857Y-12865299D01*
X17646333Y-12903394D01*
X17636810Y-12922442D01*
X17627286Y-12931966D01*
X17608238Y-12941490D01*
X17589190Y-12941490D01*
X17570143Y-12931966D01*
X17560619Y-12922442D01*
X17551095Y-12903394D01*
X17541571Y-12865299D01*
X17541571Y-12817680D01*
X17551095Y-12779585D01*
X17560619Y-12760537D01*
X17570143Y-12751014D01*
X17589190Y-12741490D01*
X17732048Y-12760537D02*
X17741571Y-12751014D01*
X17760619Y-12741490D01*
X17808238Y-12741490D01*
X17827286Y-12751014D01*
X17836810Y-12760537D01*
X17846333Y-12779585D01*
X17846333Y-12798633D01*
X17836810Y-12827204D01*
X17722524Y-12941490D01*
X17846333Y-12941490D01*
X18027286Y-12741490D02*
X17932048Y-12741490D01*
X17922524Y-12836728D01*
X17932048Y-12827204D01*
X17951095Y-12817680D01*
X17998714Y-12817680D01*
X18017762Y-12827204D01*
X18027286Y-12836728D01*
X18036810Y-12855775D01*
X18036810Y-12903394D01*
X18027286Y-12922442D01*
X18017762Y-12931966D01*
X17998714Y-12941490D01*
X17951095Y-12941490D01*
X17932048Y-12931966D01*
X17922524Y-12922442D01*
X18208238Y-12741490D02*
X18170143Y-12741490D01*
X18151095Y-12751014D01*
X18141571Y-12760537D01*
X18122524Y-12789109D01*
X18113000Y-12827204D01*
X18113000Y-12903394D01*
X18122524Y-12922442D01*
X18132048Y-12931966D01*
X18151095Y-12941490D01*
X18189190Y-12941490D01*
X18208238Y-12931966D01*
X18217762Y-12922442D01*
X18227286Y-12903394D01*
X18227286Y-12855775D01*
X18217762Y-12836728D01*
X18208238Y-12827204D01*
X18189190Y-12817680D01*
X18151095Y-12817680D01*
X18132048Y-12827204D01*
X18122524Y-12836728D01*
X18113000Y-12855775D01*
X18303476Y-12741490D02*
X18303476Y-12779585D01*
X18379667Y-12741490D02*
X18379667Y-12779585D01*
X18674905Y-13017680D02*
X18665381Y-13008156D01*
X18646333Y-12979585D01*
X18636810Y-12960537D01*
X18627286Y-12931966D01*
X18617762Y-12884347D01*
X18617762Y-12846252D01*
X18627286Y-12798633D01*
X18636810Y-12770061D01*
X18646333Y-12751014D01*
X18665381Y-12722442D01*
X18674905Y-12712918D01*
X18789190Y-12741490D02*
X18808238Y-12741490D01*
X18827286Y-12751014D01*
X18836810Y-12760537D01*
X18846333Y-12779585D01*
X18855857Y-12817680D01*
X18855857Y-12865299D01*
X18846333Y-12903394D01*
X18836810Y-12922442D01*
X18827286Y-12931966D01*
X18808238Y-12941490D01*
X18789190Y-12941490D01*
X18770143Y-12931966D01*
X18760619Y-12922442D01*
X18751095Y-12903394D01*
X18741571Y-12865299D01*
X18741571Y-12817680D01*
X18751095Y-12779585D01*
X18760619Y-12760537D01*
X18770143Y-12751014D01*
X18789190Y-12741490D01*
X19093952Y-12941490D02*
X19093952Y-12741490D01*
X19179667Y-12941490D02*
X19179667Y-12836728D01*
X19170143Y-12817680D01*
X19151095Y-12808156D01*
X19122524Y-12808156D01*
X19103476Y-12817680D01*
X19093952Y-12827204D01*
X19303476Y-12941490D02*
X19284429Y-12931966D01*
X19274905Y-12922442D01*
X19265381Y-12903394D01*
X19265381Y-12846252D01*
X19274905Y-12827204D01*
X19284429Y-12817680D01*
X19303476Y-12808156D01*
X19332048Y-12808156D01*
X19351095Y-12817680D01*
X19360619Y-12827204D01*
X19370143Y-12846252D01*
X19370143Y-12903394D01*
X19360619Y-12922442D01*
X19351095Y-12931966D01*
X19332048Y-12941490D01*
X19303476Y-12941490D01*
X19484429Y-12941490D02*
X19465381Y-12931966D01*
X19455857Y-12912918D01*
X19455857Y-12741490D01*
X19636810Y-12931966D02*
X19617762Y-12941490D01*
X19579667Y-12941490D01*
X19560619Y-12931966D01*
X19551095Y-12912918D01*
X19551095Y-12836728D01*
X19560619Y-12817680D01*
X19579667Y-12808156D01*
X19617762Y-12808156D01*
X19636810Y-12817680D01*
X19646333Y-12836728D01*
X19646333Y-12855775D01*
X19551095Y-12874823D01*
X19722524Y-12931966D02*
X19741571Y-12941490D01*
X19779667Y-12941490D01*
X19798714Y-12931966D01*
X19808238Y-12912918D01*
X19808238Y-12903394D01*
X19798714Y-12884347D01*
X19779667Y-12874823D01*
X19751095Y-12874823D01*
X19732048Y-12865299D01*
X19722524Y-12846252D01*
X19722524Y-12836728D01*
X19732048Y-12817680D01*
X19751095Y-12808156D01*
X19779667Y-12808156D01*
X19798714Y-12817680D01*
X20046333Y-12865299D02*
X20198714Y-12865299D01*
X20122524Y-12941490D02*
X20122524Y-12789109D01*
X20532048Y-12808156D02*
X20532048Y-12941490D01*
X20484429Y-12731966D02*
X20436810Y-12874823D01*
X20560619Y-12874823D01*
X20779667Y-12931966D02*
X20798714Y-12941490D01*
X20836810Y-12941490D01*
X20855857Y-12931966D01*
X20865381Y-12912918D01*
X20865381Y-12903394D01*
X20855857Y-12884347D01*
X20836810Y-12874823D01*
X20808238Y-12874823D01*
X20789190Y-12865299D01*
X20779667Y-12846252D01*
X20779667Y-12836728D01*
X20789190Y-12817680D01*
X20808238Y-12808156D01*
X20836810Y-12808156D01*
X20855857Y-12817680D01*
X20979667Y-12941490D02*
X20960619Y-12931966D01*
X20951095Y-12912918D01*
X20951095Y-12741490D01*
X21084429Y-12941490D02*
X21065381Y-12931966D01*
X21055857Y-12922442D01*
X21046333Y-12903394D01*
X21046333Y-12846252D01*
X21055857Y-12827204D01*
X21065381Y-12817680D01*
X21084429Y-12808156D01*
X21113000Y-12808156D01*
X21132048Y-12817680D01*
X21141571Y-12827204D01*
X21151095Y-12846252D01*
X21151095Y-12903394D01*
X21141571Y-12922442D01*
X21132048Y-12931966D01*
X21113000Y-12941490D01*
X21084429Y-12941490D01*
X21208238Y-12808156D02*
X21284429Y-12808156D01*
X21236810Y-12741490D02*
X21236810Y-12912918D01*
X21246333Y-12931966D01*
X21265381Y-12941490D01*
X21284429Y-12941490D01*
X21341571Y-12931966D02*
X21360619Y-12941490D01*
X21398714Y-12941490D01*
X21417762Y-12931966D01*
X21427286Y-12912918D01*
X21427286Y-12903394D01*
X21417762Y-12884347D01*
X21398714Y-12874823D01*
X21370143Y-12874823D01*
X21351095Y-12865299D01*
X21341571Y-12846252D01*
X21341571Y-12836728D01*
X21351095Y-12817680D01*
X21370143Y-12808156D01*
X21398714Y-12808156D01*
X21417762Y-12817680D01*
X21493952Y-13017680D02*
X21503476Y-13008156D01*
X21522524Y-12979585D01*
X21532048Y-12960537D01*
X21541571Y-12931966D01*
X21551095Y-12884347D01*
X21551095Y-12846252D01*
X21541571Y-12798633D01*
X21532048Y-12770061D01*
X21522524Y-12751014D01*
X21503476Y-12722442D01*
X21493952Y-12712918D01*
D13*
X15053000Y-13065014D02*
X15053000Y-13165014D01*
X15003000Y-13115014D02*
X15103000Y-13115014D01*
D10*
X15465381Y-13205490D02*
X15351095Y-13205490D01*
X15408238Y-13205490D02*
X15408238Y-13005490D01*
X15389190Y-13034061D01*
X15370143Y-13053109D01*
X15351095Y-13062633D01*
X15551095Y-13186442D02*
X15560619Y-13195966D01*
X15551095Y-13205490D01*
X15541571Y-13195966D01*
X15551095Y-13186442D01*
X15551095Y-13205490D01*
X15684428Y-13005490D02*
X15703476Y-13005490D01*
X15722524Y-13015014D01*
X15732048Y-13024537D01*
X15741571Y-13043585D01*
X15751095Y-13081680D01*
X15751095Y-13129299D01*
X15741571Y-13167394D01*
X15732048Y-13186442D01*
X15722524Y-13195966D01*
X15703476Y-13205490D01*
X15684428Y-13205490D01*
X15665381Y-13195966D01*
X15655857Y-13186442D01*
X15646333Y-13167394D01*
X15636809Y-13129299D01*
X15636809Y-13081680D01*
X15646333Y-13043585D01*
X15655857Y-13024537D01*
X15665381Y-13015014D01*
X15684428Y-13005490D01*
X15874905Y-13005490D02*
X15893952Y-13005490D01*
X15913000Y-13015014D01*
X15922524Y-13024537D01*
X15932048Y-13043585D01*
X15941571Y-13081680D01*
X15941571Y-13129299D01*
X15932048Y-13167394D01*
X15922524Y-13186442D01*
X15913000Y-13195966D01*
X15893952Y-13205490D01*
X15874905Y-13205490D01*
X15855857Y-13195966D01*
X15846333Y-13186442D01*
X15836809Y-13167394D01*
X15827286Y-13129299D01*
X15827286Y-13081680D01*
X15836809Y-13043585D01*
X15846333Y-13024537D01*
X15855857Y-13015014D01*
X15874905Y-13005490D01*
X16065381Y-13005490D02*
X16084428Y-13005490D01*
X16103476Y-13015014D01*
X16113000Y-13024537D01*
X16122524Y-13043585D01*
X16132048Y-13081680D01*
X16132048Y-13129299D01*
X16122524Y-13167394D01*
X16113000Y-13186442D01*
X16103476Y-13195966D01*
X16084428Y-13205490D01*
X16065381Y-13205490D01*
X16046333Y-13195966D01*
X16036809Y-13186442D01*
X16027286Y-13167394D01*
X16017762Y-13129299D01*
X16017762Y-13081680D01*
X16027286Y-13043585D01*
X16036809Y-13024537D01*
X16046333Y-13015014D01*
X16065381Y-13005490D01*
X16217762Y-13205490D02*
X16217762Y-13072156D01*
X16217762Y-13091204D02*
X16227286Y-13081680D01*
X16246333Y-13072156D01*
X16274905Y-13072156D01*
X16293952Y-13081680D01*
X16303476Y-13100728D01*
X16303476Y-13205490D01*
X16303476Y-13100728D02*
X16313000Y-13081680D01*
X16332048Y-13072156D01*
X16360619Y-13072156D01*
X16379667Y-13081680D01*
X16389190Y-13100728D01*
X16389190Y-13205490D01*
X16484428Y-13205490D02*
X16484428Y-13072156D01*
X16484428Y-13091204D02*
X16493952Y-13081680D01*
X16513000Y-13072156D01*
X16541571Y-13072156D01*
X16560619Y-13081680D01*
X16570143Y-13100728D01*
X16570143Y-13205490D01*
X16570143Y-13100728D02*
X16579667Y-13081680D01*
X16598714Y-13072156D01*
X16627286Y-13072156D01*
X16646333Y-13081680D01*
X16655857Y-13100728D01*
X16655857Y-13205490D01*
X17046333Y-12995966D02*
X16874905Y-13253109D01*
X17303476Y-13005490D02*
X17322524Y-13005490D01*
X17341571Y-13015014D01*
X17351095Y-13024537D01*
X17360619Y-13043585D01*
X17370143Y-13081680D01*
X17370143Y-13129299D01*
X17360619Y-13167394D01*
X17351095Y-13186442D01*
X17341571Y-13195966D01*
X17322524Y-13205490D01*
X17303476Y-13205490D01*
X17284429Y-13195966D01*
X17274905Y-13186442D01*
X17265381Y-13167394D01*
X17255857Y-13129299D01*
X17255857Y-13081680D01*
X17265381Y-13043585D01*
X17274905Y-13024537D01*
X17284429Y-13015014D01*
X17303476Y-13005490D01*
X17455857Y-13186442D02*
X17465381Y-13195966D01*
X17455857Y-13205490D01*
X17446333Y-13195966D01*
X17455857Y-13186442D01*
X17455857Y-13205490D01*
X17589190Y-13005490D02*
X17608238Y-13005490D01*
X17627286Y-13015014D01*
X17636810Y-13024537D01*
X17646333Y-13043585D01*
X17655857Y-13081680D01*
X17655857Y-13129299D01*
X17646333Y-13167394D01*
X17636810Y-13186442D01*
X17627286Y-13195966D01*
X17608238Y-13205490D01*
X17589190Y-13205490D01*
X17570143Y-13195966D01*
X17560619Y-13186442D01*
X17551095Y-13167394D01*
X17541571Y-13129299D01*
X17541571Y-13081680D01*
X17551095Y-13043585D01*
X17560619Y-13024537D01*
X17570143Y-13015014D01*
X17589190Y-13005490D01*
X17722524Y-13005490D02*
X17846333Y-13005490D01*
X17779667Y-13081680D01*
X17808238Y-13081680D01*
X17827286Y-13091204D01*
X17836810Y-13100728D01*
X17846333Y-13119775D01*
X17846333Y-13167394D01*
X17836810Y-13186442D01*
X17827286Y-13195966D01*
X17808238Y-13205490D01*
X17751095Y-13205490D01*
X17732048Y-13195966D01*
X17722524Y-13186442D01*
X17941571Y-13205490D02*
X17979667Y-13205490D01*
X17998714Y-13195966D01*
X18008238Y-13186442D01*
X18027286Y-13157871D01*
X18036810Y-13119775D01*
X18036810Y-13043585D01*
X18027286Y-13024537D01*
X18017762Y-13015014D01*
X17998714Y-13005490D01*
X17960619Y-13005490D01*
X17941571Y-13015014D01*
X17932048Y-13024537D01*
X17922524Y-13043585D01*
X17922524Y-13091204D01*
X17932048Y-13110252D01*
X17941571Y-13119775D01*
X17960619Y-13129299D01*
X17998714Y-13129299D01*
X18017762Y-13119775D01*
X18027286Y-13110252D01*
X18036810Y-13091204D01*
X18208238Y-13072156D02*
X18208238Y-13205490D01*
X18160619Y-12995966D02*
X18113000Y-13138823D01*
X18236810Y-13138823D01*
X18303476Y-13005490D02*
X18303476Y-13043585D01*
X18379667Y-13005490D02*
X18379667Y-13043585D01*
X18674905Y-13281680D02*
X18665381Y-13272156D01*
X18646333Y-13243585D01*
X18636810Y-13224537D01*
X18627286Y-13195966D01*
X18617762Y-13148347D01*
X18617762Y-13110252D01*
X18627286Y-13062633D01*
X18636810Y-13034061D01*
X18646333Y-13015014D01*
X18665381Y-12986442D01*
X18674905Y-12976918D01*
X18732048Y-13005490D02*
X18855857Y-13005490D01*
X18789190Y-13081680D01*
X18817762Y-13081680D01*
X18836810Y-13091204D01*
X18846333Y-13100728D01*
X18855857Y-13119775D01*
X18855857Y-13167394D01*
X18846333Y-13186442D01*
X18836810Y-13195966D01*
X18817762Y-13205490D01*
X18760619Y-13205490D01*
X18741571Y-13195966D01*
X18732048Y-13186442D01*
X18951095Y-13205490D02*
X18989190Y-13205490D01*
X19008238Y-13195966D01*
X19017762Y-13186442D01*
X19036810Y-13157871D01*
X19046333Y-13119775D01*
X19046333Y-13043585D01*
X19036810Y-13024537D01*
X19027286Y-13015014D01*
X19008238Y-13005490D01*
X18970143Y-13005490D01*
X18951095Y-13015014D01*
X18941571Y-13024537D01*
X18932048Y-13043585D01*
X18932048Y-13091204D01*
X18941571Y-13110252D01*
X18951095Y-13119775D01*
X18970143Y-13129299D01*
X19008238Y-13129299D01*
X19027286Y-13119775D01*
X19036810Y-13110252D01*
X19046333Y-13091204D01*
X19284429Y-13205490D02*
X19284429Y-13005490D01*
X19370143Y-13205490D02*
X19370143Y-13100728D01*
X19360619Y-13081680D01*
X19341571Y-13072156D01*
X19313000Y-13072156D01*
X19293952Y-13081680D01*
X19284429Y-13091204D01*
X19493952Y-13205490D02*
X19474905Y-13195966D01*
X19465381Y-13186442D01*
X19455857Y-13167394D01*
X19455857Y-13110252D01*
X19465381Y-13091204D01*
X19474905Y-13081680D01*
X19493952Y-13072156D01*
X19522524Y-13072156D01*
X19541571Y-13081680D01*
X19551095Y-13091204D01*
X19560619Y-13110252D01*
X19560619Y-13167394D01*
X19551095Y-13186442D01*
X19541571Y-13195966D01*
X19522524Y-13205490D01*
X19493952Y-13205490D01*
X19674905Y-13205490D02*
X19655857Y-13195966D01*
X19646333Y-13176918D01*
X19646333Y-13005490D01*
X19827286Y-13195966D02*
X19808238Y-13205490D01*
X19770143Y-13205490D01*
X19751095Y-13195966D01*
X19741571Y-13176918D01*
X19741571Y-13100728D01*
X19751095Y-13081680D01*
X19770143Y-13072156D01*
X19808238Y-13072156D01*
X19827286Y-13081680D01*
X19836810Y-13100728D01*
X19836810Y-13119775D01*
X19741571Y-13138823D01*
X19913000Y-13195966D02*
X19932048Y-13205490D01*
X19970143Y-13205490D01*
X19989190Y-13195966D01*
X19998714Y-13176918D01*
X19998714Y-13167394D01*
X19989190Y-13148347D01*
X19970143Y-13138823D01*
X19941571Y-13138823D01*
X19922524Y-13129299D01*
X19913000Y-13110252D01*
X19913000Y-13100728D01*
X19922524Y-13081680D01*
X19941571Y-13072156D01*
X19970143Y-13072156D01*
X19989190Y-13081680D01*
X20065381Y-13281680D02*
X20074905Y-13272156D01*
X20093952Y-13243585D01*
X20103476Y-13224537D01*
X20113000Y-13195966D01*
X20122524Y-13148347D01*
X20122524Y-13110252D01*
X20113000Y-13062633D01*
X20103476Y-13034061D01*
X20093952Y-13015014D01*
X20074905Y-12986442D01*
X20065381Y-12976918D01*
D14*
X15085427Y-13421440D02*
X15085427Y-13336587D01*
X15000573Y-13336587D01*
X15000573Y-13421440D01*
X15085427Y-13421440D01*
D10*
X15465381Y-13469490D02*
X15351095Y-13469490D01*
X15408238Y-13469490D02*
X15408238Y-13269490D01*
X15389190Y-13298061D01*
X15370143Y-13317109D01*
X15351095Y-13326633D01*
X15551095Y-13450442D02*
X15560619Y-13459966D01*
X15551095Y-13469490D01*
X15541571Y-13459966D01*
X15551095Y-13450442D01*
X15551095Y-13469490D01*
X15636809Y-13288537D02*
X15646333Y-13279014D01*
X15665381Y-13269490D01*
X15713000Y-13269490D01*
X15732048Y-13279014D01*
X15741571Y-13288537D01*
X15751095Y-13307585D01*
X15751095Y-13326633D01*
X15741571Y-13355204D01*
X15627286Y-13469490D01*
X15751095Y-13469490D01*
X15874905Y-13269490D02*
X15893952Y-13269490D01*
X15913000Y-13279014D01*
X15922524Y-13288537D01*
X15932048Y-13307585D01*
X15941571Y-13345680D01*
X15941571Y-13393299D01*
X15932048Y-13431394D01*
X15922524Y-13450442D01*
X15913000Y-13459966D01*
X15893952Y-13469490D01*
X15874905Y-13469490D01*
X15855857Y-13459966D01*
X15846333Y-13450442D01*
X15836809Y-13431394D01*
X15827286Y-13393299D01*
X15827286Y-13345680D01*
X15836809Y-13307585D01*
X15846333Y-13288537D01*
X15855857Y-13279014D01*
X15874905Y-13269490D01*
X16065381Y-13269490D02*
X16084428Y-13269490D01*
X16103476Y-13279014D01*
X16113000Y-13288537D01*
X16122524Y-13307585D01*
X16132048Y-13345680D01*
X16132048Y-13393299D01*
X16122524Y-13431394D01*
X16113000Y-13450442D01*
X16103476Y-13459966D01*
X16084428Y-13469490D01*
X16065381Y-13469490D01*
X16046333Y-13459966D01*
X16036809Y-13450442D01*
X16027286Y-13431394D01*
X16017762Y-13393299D01*
X16017762Y-13345680D01*
X16027286Y-13307585D01*
X16036809Y-13288537D01*
X16046333Y-13279014D01*
X16065381Y-13269490D01*
X16217762Y-13469490D02*
X16217762Y-13336156D01*
X16217762Y-13355204D02*
X16227286Y-13345680D01*
X16246333Y-13336156D01*
X16274905Y-13336156D01*
X16293952Y-13345680D01*
X16303476Y-13364728D01*
X16303476Y-13469490D01*
X16303476Y-13364728D02*
X16313000Y-13345680D01*
X16332048Y-13336156D01*
X16360619Y-13336156D01*
X16379667Y-13345680D01*
X16389190Y-13364728D01*
X16389190Y-13469490D01*
X16484428Y-13469490D02*
X16484428Y-13336156D01*
X16484428Y-13355204D02*
X16493952Y-13345680D01*
X16513000Y-13336156D01*
X16541571Y-13336156D01*
X16560619Y-13345680D01*
X16570143Y-13364728D01*
X16570143Y-13469490D01*
X16570143Y-13364728D02*
X16579667Y-13345680D01*
X16598714Y-13336156D01*
X16627286Y-13336156D01*
X16646333Y-13345680D01*
X16655857Y-13364728D01*
X16655857Y-13469490D01*
X17046333Y-13259966D02*
X16874905Y-13517109D01*
X17303476Y-13269490D02*
X17322524Y-13269490D01*
X17341571Y-13279014D01*
X17351095Y-13288537D01*
X17360619Y-13307585D01*
X17370143Y-13345680D01*
X17370143Y-13393299D01*
X17360619Y-13431394D01*
X17351095Y-13450442D01*
X17341571Y-13459966D01*
X17322524Y-13469490D01*
X17303476Y-13469490D01*
X17284429Y-13459966D01*
X17274905Y-13450442D01*
X17265381Y-13431394D01*
X17255857Y-13393299D01*
X17255857Y-13345680D01*
X17265381Y-13307585D01*
X17274905Y-13288537D01*
X17284429Y-13279014D01*
X17303476Y-13269490D01*
X17455857Y-13450442D02*
X17465381Y-13459966D01*
X17455857Y-13469490D01*
X17446333Y-13459966D01*
X17455857Y-13450442D01*
X17455857Y-13469490D01*
X17589190Y-13269490D02*
X17608238Y-13269490D01*
X17627286Y-13279014D01*
X17636810Y-13288537D01*
X17646333Y-13307585D01*
X17655857Y-13345680D01*
X17655857Y-13393299D01*
X17646333Y-13431394D01*
X17636810Y-13450442D01*
X17627286Y-13459966D01*
X17608238Y-13469490D01*
X17589190Y-13469490D01*
X17570143Y-13459966D01*
X17560619Y-13450442D01*
X17551095Y-13431394D01*
X17541571Y-13393299D01*
X17541571Y-13345680D01*
X17551095Y-13307585D01*
X17560619Y-13288537D01*
X17570143Y-13279014D01*
X17589190Y-13269490D01*
X17827286Y-13336156D02*
X17827286Y-13469490D01*
X17779667Y-13259966D02*
X17732048Y-13402823D01*
X17855857Y-13402823D01*
X17913000Y-13269490D02*
X18046333Y-13269490D01*
X17960619Y-13469490D01*
X18113000Y-13288537D02*
X18122524Y-13279014D01*
X18141571Y-13269490D01*
X18189190Y-13269490D01*
X18208238Y-13279014D01*
X18217762Y-13288537D01*
X18227286Y-13307585D01*
X18227286Y-13326633D01*
X18217762Y-13355204D01*
X18103476Y-13469490D01*
X18227286Y-13469490D01*
X18303476Y-13269490D02*
X18303476Y-13307585D01*
X18379667Y-13269490D02*
X18379667Y-13307585D01*
X18674905Y-13545680D02*
X18665381Y-13536156D01*
X18646333Y-13507585D01*
X18636810Y-13488537D01*
X18627286Y-13459966D01*
X18617762Y-13412347D01*
X18617762Y-13374252D01*
X18627286Y-13326633D01*
X18636810Y-13298061D01*
X18646333Y-13279014D01*
X18665381Y-13250442D01*
X18674905Y-13240918D01*
X18836810Y-13336156D02*
X18836810Y-13469490D01*
X18789190Y-13259966D02*
X18741571Y-13402823D01*
X18865381Y-13402823D01*
X19093952Y-13469490D02*
X19093952Y-13269490D01*
X19179667Y-13469490D02*
X19179667Y-13364728D01*
X19170143Y-13345680D01*
X19151095Y-13336156D01*
X19122524Y-13336156D01*
X19103476Y-13345680D01*
X19093952Y-13355204D01*
X19303476Y-13469490D02*
X19284429Y-13459966D01*
X19274905Y-13450442D01*
X19265381Y-13431394D01*
X19265381Y-13374252D01*
X19274905Y-13355204D01*
X19284429Y-13345680D01*
X19303476Y-13336156D01*
X19332048Y-13336156D01*
X19351095Y-13345680D01*
X19360619Y-13355204D01*
X19370143Y-13374252D01*
X19370143Y-13431394D01*
X19360619Y-13450442D01*
X19351095Y-13459966D01*
X19332048Y-13469490D01*
X19303476Y-13469490D01*
X19484429Y-13469490D02*
X19465381Y-13459966D01*
X19455857Y-13440918D01*
X19455857Y-13269490D01*
X19636810Y-13459966D02*
X19617762Y-13469490D01*
X19579667Y-13469490D01*
X19560619Y-13459966D01*
X19551095Y-13440918D01*
X19551095Y-13364728D01*
X19560619Y-13345680D01*
X19579667Y-13336156D01*
X19617762Y-13336156D01*
X19636810Y-13345680D01*
X19646333Y-13364728D01*
X19646333Y-13383775D01*
X19551095Y-13402823D01*
X19722524Y-13459966D02*
X19741571Y-13469490D01*
X19779667Y-13469490D01*
X19798714Y-13459966D01*
X19808238Y-13440918D01*
X19808238Y-13431394D01*
X19798714Y-13412347D01*
X19779667Y-13402823D01*
X19751095Y-13402823D01*
X19732048Y-13393299D01*
X19722524Y-13374252D01*
X19722524Y-13364728D01*
X19732048Y-13345680D01*
X19751095Y-13336156D01*
X19779667Y-13336156D01*
X19798714Y-13345680D01*
X19874905Y-13545680D02*
X19884429Y-13536156D01*
X19903476Y-13507585D01*
X19913000Y-13488537D01*
X19922524Y-13459966D01*
X19932048Y-13412347D01*
X19932048Y-13374252D01*
X19922524Y-13326633D01*
X19913000Y-13298061D01*
X19903476Y-13279014D01*
X19884429Y-13250442D01*
X19874905Y-13240918D01*
X15003000Y-13743014D02*
X15103000Y-13643014D01*
X15003000Y-13543014D01*
X14903000Y-13643014D01*
X15003000Y-13743014D01*
X15341571Y-13533490D02*
X15465381Y-13533490D01*
X15398714Y-13609680D01*
X15427286Y-13609680D01*
X15446333Y-13619204D01*
X15455857Y-13628728D01*
X15465381Y-13647775D01*
X15465381Y-13695394D01*
X15455857Y-13714442D01*
X15446333Y-13723966D01*
X15427286Y-13733490D01*
X15370143Y-13733490D01*
X15351095Y-13723966D01*
X15341571Y-13714442D01*
X15551095Y-13714442D02*
X15560619Y-13723966D01*
X15551095Y-13733490D01*
X15541571Y-13723966D01*
X15551095Y-13714442D01*
X15551095Y-13733490D01*
X15636809Y-13552537D02*
X15646333Y-13543014D01*
X15665381Y-13533490D01*
X15713000Y-13533490D01*
X15732048Y-13543014D01*
X15741571Y-13552537D01*
X15751095Y-13571585D01*
X15751095Y-13590633D01*
X15741571Y-13619204D01*
X15627286Y-13733490D01*
X15751095Y-13733490D01*
X15874905Y-13533490D02*
X15893952Y-13533490D01*
X15913000Y-13543014D01*
X15922524Y-13552537D01*
X15932048Y-13571585D01*
X15941571Y-13609680D01*
X15941571Y-13657299D01*
X15932048Y-13695394D01*
X15922524Y-13714442D01*
X15913000Y-13723966D01*
X15893952Y-13733490D01*
X15874905Y-13733490D01*
X15855857Y-13723966D01*
X15846333Y-13714442D01*
X15836809Y-13695394D01*
X15827286Y-13657299D01*
X15827286Y-13609680D01*
X15836809Y-13571585D01*
X15846333Y-13552537D01*
X15855857Y-13543014D01*
X15874905Y-13533490D01*
X16065381Y-13533490D02*
X16084428Y-13533490D01*
X16103476Y-13543014D01*
X16113000Y-13552537D01*
X16122524Y-13571585D01*
X16132048Y-13609680D01*
X16132048Y-13657299D01*
X16122524Y-13695394D01*
X16113000Y-13714442D01*
X16103476Y-13723966D01*
X16084428Y-13733490D01*
X16065381Y-13733490D01*
X16046333Y-13723966D01*
X16036809Y-13714442D01*
X16027286Y-13695394D01*
X16017762Y-13657299D01*
X16017762Y-13609680D01*
X16027286Y-13571585D01*
X16036809Y-13552537D01*
X16046333Y-13543014D01*
X16065381Y-13533490D01*
X16217762Y-13733490D02*
X16217762Y-13600156D01*
X16217762Y-13619204D02*
X16227286Y-13609680D01*
X16246333Y-13600156D01*
X16274905Y-13600156D01*
X16293952Y-13609680D01*
X16303476Y-13628728D01*
X16303476Y-13733490D01*
X16303476Y-13628728D02*
X16313000Y-13609680D01*
X16332048Y-13600156D01*
X16360619Y-13600156D01*
X16379667Y-13609680D01*
X16389190Y-13628728D01*
X16389190Y-13733490D01*
X16484428Y-13733490D02*
X16484428Y-13600156D01*
X16484428Y-13619204D02*
X16493952Y-13609680D01*
X16513000Y-13600156D01*
X16541571Y-13600156D01*
X16560619Y-13609680D01*
X16570143Y-13628728D01*
X16570143Y-13733490D01*
X16570143Y-13628728D02*
X16579667Y-13609680D01*
X16598714Y-13600156D01*
X16627286Y-13600156D01*
X16646333Y-13609680D01*
X16655857Y-13628728D01*
X16655857Y-13733490D01*
X17046333Y-13523966D02*
X16874905Y-13781109D01*
X17303476Y-13533490D02*
X17322524Y-13533490D01*
X17341571Y-13543014D01*
X17351095Y-13552537D01*
X17360619Y-13571585D01*
X17370143Y-13609680D01*
X17370143Y-13657299D01*
X17360619Y-13695394D01*
X17351095Y-13714442D01*
X17341571Y-13723966D01*
X17322524Y-13733490D01*
X17303476Y-13733490D01*
X17284429Y-13723966D01*
X17274905Y-13714442D01*
X17265381Y-13695394D01*
X17255857Y-13657299D01*
X17255857Y-13609680D01*
X17265381Y-13571585D01*
X17274905Y-13552537D01*
X17284429Y-13543014D01*
X17303476Y-13533490D01*
X17455857Y-13714442D02*
X17465381Y-13723966D01*
X17455857Y-13733490D01*
X17446333Y-13723966D01*
X17455857Y-13714442D01*
X17455857Y-13733490D01*
X17655857Y-13733490D02*
X17541571Y-13733490D01*
X17598714Y-13733490D02*
X17598714Y-13533490D01*
X17579667Y-13562061D01*
X17560619Y-13581109D01*
X17541571Y-13590633D01*
X17732048Y-13552537D02*
X17741571Y-13543014D01*
X17760619Y-13533490D01*
X17808238Y-13533490D01*
X17827286Y-13543014D01*
X17836810Y-13552537D01*
X17846333Y-13571585D01*
X17846333Y-13590633D01*
X17836810Y-13619204D01*
X17722524Y-13733490D01*
X17846333Y-13733490D01*
X18017762Y-13533490D02*
X17979667Y-13533490D01*
X17960619Y-13543014D01*
X17951095Y-13552537D01*
X17932048Y-13581109D01*
X17922524Y-13619204D01*
X17922524Y-13695394D01*
X17932048Y-13714442D01*
X17941571Y-13723966D01*
X17960619Y-13733490D01*
X17998714Y-13733490D01*
X18017762Y-13723966D01*
X18027286Y-13714442D01*
X18036810Y-13695394D01*
X18036810Y-13647775D01*
X18027286Y-13628728D01*
X18017762Y-13619204D01*
X17998714Y-13609680D01*
X17960619Y-13609680D01*
X17941571Y-13619204D01*
X17932048Y-13628728D01*
X17922524Y-13647775D01*
X18160619Y-13533490D02*
X18179667Y-13533490D01*
X18198714Y-13543014D01*
X18208238Y-13552537D01*
X18217762Y-13571585D01*
X18227286Y-13609680D01*
X18227286Y-13657299D01*
X18217762Y-13695394D01*
X18208238Y-13714442D01*
X18198714Y-13723966D01*
X18179667Y-13733490D01*
X18160619Y-13733490D01*
X18141571Y-13723966D01*
X18132048Y-13714442D01*
X18122524Y-13695394D01*
X18113000Y-13657299D01*
X18113000Y-13609680D01*
X18122524Y-13571585D01*
X18132048Y-13552537D01*
X18141571Y-13543014D01*
X18160619Y-13533490D01*
X18303476Y-13533490D02*
X18303476Y-13571585D01*
X18379667Y-13533490D02*
X18379667Y-13571585D01*
X18674905Y-13809680D02*
X18665381Y-13800156D01*
X18646333Y-13771585D01*
X18636810Y-13752537D01*
X18627286Y-13723966D01*
X18617762Y-13676347D01*
X18617762Y-13638252D01*
X18627286Y-13590633D01*
X18636810Y-13562061D01*
X18646333Y-13543014D01*
X18665381Y-13514442D01*
X18674905Y-13504918D01*
X18836810Y-13600156D02*
X18836810Y-13733490D01*
X18789190Y-13523966D02*
X18741571Y-13666823D01*
X18865381Y-13666823D01*
X19093952Y-13733490D02*
X19093952Y-13533490D01*
X19179667Y-13733490D02*
X19179667Y-13628728D01*
X19170143Y-13609680D01*
X19151095Y-13600156D01*
X19122524Y-13600156D01*
X19103476Y-13609680D01*
X19093952Y-13619204D01*
X19303476Y-13733490D02*
X19284429Y-13723966D01*
X19274905Y-13714442D01*
X19265381Y-13695394D01*
X19265381Y-13638252D01*
X19274905Y-13619204D01*
X19284429Y-13609680D01*
X19303476Y-13600156D01*
X19332048Y-13600156D01*
X19351095Y-13609680D01*
X19360619Y-13619204D01*
X19370143Y-13638252D01*
X19370143Y-13695394D01*
X19360619Y-13714442D01*
X19351095Y-13723966D01*
X19332048Y-13733490D01*
X19303476Y-13733490D01*
X19484429Y-13733490D02*
X19465381Y-13723966D01*
X19455857Y-13704918D01*
X19455857Y-13533490D01*
X19636810Y-13723966D02*
X19617762Y-13733490D01*
X19579667Y-13733490D01*
X19560619Y-13723966D01*
X19551095Y-13704918D01*
X19551095Y-13628728D01*
X19560619Y-13609680D01*
X19579667Y-13600156D01*
X19617762Y-13600156D01*
X19636810Y-13609680D01*
X19646333Y-13628728D01*
X19646333Y-13647775D01*
X19551095Y-13666823D01*
X19722524Y-13723966D02*
X19741571Y-13733490D01*
X19779667Y-13733490D01*
X19798714Y-13723966D01*
X19808238Y-13704918D01*
X19808238Y-13695394D01*
X19798714Y-13676347D01*
X19779667Y-13666823D01*
X19751095Y-13666823D01*
X19732048Y-13657299D01*
X19722524Y-13638252D01*
X19722524Y-13628728D01*
X19732048Y-13609680D01*
X19751095Y-13600156D01*
X19779667Y-13600156D01*
X19798714Y-13609680D01*
X19874905Y-13809680D02*
X19884429Y-13800156D01*
X19903476Y-13771585D01*
X19913000Y-13752537D01*
X19922524Y-13723966D01*
X19932048Y-13676347D01*
X19932048Y-13638252D01*
X19922524Y-13590633D01*
X19913000Y-13562061D01*
X19903476Y-13543014D01*
X19884429Y-13514442D01*
X19874905Y-13504918D01*
M02*
