M48
; DRILL file {KiCad (6.0.7)} date Thu Oct 20 15:16:30 2022
; FORMAT={-:-/ absolute / metric / decimal}
; #@! TF.CreationDate,2022-10-20T15:16:30+05:30
; #@! TF.GenerationSoftware,Kicad,Pcbnew,(6.0.7)
; #@! TF.FileFunction,Plated,1,2,PTH
FMAT,2
METRIC
; #@! TA.AperFunction,Plated,PTH,ViaDrill
T1C0.300
; #@! TA.AperFunction,Plated,PTH,ComponentDrill
T2C0.650
; #@! TA.AperFunction,Plated,PTH,ComponentDrill
T3C1.000
; #@! TA.AperFunction,Plated,PTH,ComponentDrill
T4C1.200
; #@! TA.AperFunction,Plated,PTH,ComponentDrill
T5C3.200
%
G90
G05
T1
X157.175Y-71.272
X157.21Y-67.377
X158.039Y-67.666
X158.648Y-102.413
X158.953Y-68.732
X159.156Y-72.796
X159.207Y-80.264
X159.563Y-76.2
X159.563Y-97.688
X160.223Y-81.28
X160.223Y-83.922
X160.477Y-74.879
X160.63Y-55.22
X161.442Y-74.93
X161.646Y-111.963
X161.833Y-65.197
X162.049Y-118.26
X162.052Y-113.792
X162.052Y-115.316
X162.052Y-116.84
X162.103Y-82.55
X162.103Y-83.82
X162.306Y-66.599
X162.433Y-61.341
X162.458Y-96.52
X162.56Y-112.268
X162.9Y-82.607
X163.068Y-92.761
X163.982Y-92.659
X164.338Y-65.024
X164.396Y-66.668
X164.846Y-55.728
X165.049Y-75.743
X165.1Y-59.563
X165.227Y-70.358
X165.456Y-82.906
X165.481Y-67.564
X165.481Y-68.453
X165.862Y-111.608
X165.906Y-75.733
X166.117Y-70.231
X166.167Y-106.68
X166.167Y-107.899
X166.243Y-59.69
X166.624Y-85.141
X166.735Y-96.377
X166.878Y-75.641
X166.878Y-88.138
X167.439Y-70.286
X167.64Y-111.76
X168.148Y-87.986
X168.338Y-60.134
X168.91Y-83.871
X168.961Y-96.977
X168.974Y-60.77
X169.037Y-66.294
X169.037Y-67.183
X169.037Y-68.199
X169.215Y-95.758
X169.291Y-71.12
X169.672Y-111.76
X169.723Y-55.067
X169.824Y-83.871
X169.875Y-97.028
X169.926Y-64.643
X170.053Y-66.294
X170.053Y-67.183
X170.053Y-68.199
X170.688Y-64.897
X170.688Y-83.871
X170.739Y-97.028
X170.79Y-55.27
X171.552Y-75.438
X171.704Y-111.76
X173.228Y-64.389
X173.609Y-66.675
X173.609Y-67.691
X173.736Y-70.485
X173.736Y-111.76
X174.447Y-51.853
X175.158Y-78.892
X175.26Y-111.76
X175.347Y-51.853
X177.292Y-95.809
X177.546Y-61.468
X177.8Y-69.342
X177.8Y-111.76
X178.054Y-55.321
X178.156Y-75.844
X178.435Y-61.468
X178.613Y-95.656
X179.07Y-55.22
X179.324Y-109.068
X179.476Y-69.393
X179.68Y-110.287
X179.832Y-67.503
X179.832Y-111.658
X180.848Y-69.088
X181.254Y-92.608
X181.559Y-91.034
X181.966Y-84.43
X181.991Y-72.517
X182.118Y-74.041
X182.169Y-92.608
X183.007Y-64.262
X183.192Y-69.843
X183.388Y-113.792
X183.388Y-115.316
X183.388Y-116.84
X183.388Y-118.364
X183.515Y-48.768
X183.515Y-50.419
X183.591Y-66.599
X183.794Y-87.427
X184.658Y-112.268
X185.623Y-110.236
X186.131Y-68.224
X186.588Y-106.782
X186.995Y-85.649
X187.147Y-64.668
X187.198Y-98.186
X187.655Y-103.683
X187.819Y-102.159
X187.858Y-100.533
X188.378Y-71.159
X188.57Y-66.853
X188.874Y-65.684
X189.332Y-75.387
X189.865Y-70.917
X193.243Y-66.396
X193.243Y-67.589
T3
X154.559Y-56.896
X154.559Y-59.436
X154.559Y-61.976
X154.559Y-65.786
X154.559Y-68.326
X154.559Y-70.866
X154.559Y-73.406
X154.559Y-75.946
X154.559Y-78.486
X154.559Y-81.026
X154.559Y-83.566
X154.559Y-86.106
X154.559Y-88.646
X154.559Y-91.186
X154.559Y-93.726
X154.559Y-96.266
X154.559Y-98.806
X154.559Y-101.346
X154.559Y-103.886
X154.559Y-106.426
X154.559Y-108.966
X157.099Y-56.896
X157.099Y-59.436
X157.099Y-61.976
X190.906Y-73.386
X190.906Y-75.926
X190.906Y-78.466
X190.906Y-81.006
X190.906Y-83.546
X190.906Y-86.086
X190.906Y-88.626
X190.906Y-91.166
X190.906Y-93.706
X190.906Y-96.246
X190.906Y-98.786
X190.906Y-101.326
X190.906Y-103.866
X190.906Y-106.406
X190.906Y-108.946
T4
X163.096Y-50.8
X166.596Y-50.8
X188.53Y-56.924
X188.53Y-60.424
T5
X156.564Y-50.038
X156.564Y-115.062
X189.23Y-50.038
X189.23Y-115.062
T2
X170.19Y-48.983G85X170.19Y-48.383
G05
X170.19Y-53.413G85X170.19Y-52.313
G05
X178.83Y-48.983G85X178.83Y-48.383
G05
X178.83Y-53.413G85X178.83Y-52.313
G05
T0
M30
