G04 #@! TF.GenerationSoftware,KiCad,Pcbnew,(6.0.7)*
G04 #@! TF.CreationDate,2022-10-20T15:16:28+05:30*
G04 #@! TF.ProjectId,lornode,6c6f726e-6f64-4652-9e6b-696361645f70,rev?*
G04 #@! TF.SameCoordinates,Original*
G04 #@! TF.FileFunction,Legend,Bot*
G04 #@! TF.FilePolarity,Positive*
%FSLAX46Y46*%
G04 Gerber Fmt 4.6, Leading zero omitted, Abs format (unit mm)*
G04 Created by KiCad (PCBNEW (6.0.7)) date 2022-10-20 15:16:28*
%MOMM*%
%LPD*%
G01*
G04 APERTURE LIST*
%ADD10C,0.120000*%
%ADD11C,0.396874*%
%ADD12O,1.700000X1.700000*%
%ADD13R,1.700000X1.700000*%
%ADD14C,6.400000*%
%ADD15O,1.050000X2.100000*%
%ADD16C,0.700000*%
%ADD17C,2.400000*%
%ADD18R,2.400000X2.400000*%
G04 APERTURE END LIST*
D10*
G36*
X179167350Y-85349351D02*
G01*
X179158572Y-85383159D01*
X179148128Y-85414902D01*
X179142268Y-85429987D01*
X179135977Y-85444542D01*
X179129249Y-85458561D01*
X179122079Y-85472039D01*
X179114463Y-85484971D01*
X179106396Y-85497353D01*
X179097872Y-85509179D01*
X179088887Y-85520444D01*
X179079436Y-85531144D01*
X179069513Y-85541274D01*
X179059114Y-85550827D01*
X179048234Y-85559801D01*
X179036868Y-85568189D01*
X179025010Y-85575987D01*
X179012657Y-85583189D01*
X178999802Y-85589792D01*
X178986442Y-85595789D01*
X178972570Y-85601175D01*
X178958182Y-85605947D01*
X178943274Y-85610098D01*
X178927840Y-85613625D01*
X178911874Y-85616521D01*
X178895374Y-85618783D01*
X178878332Y-85620404D01*
X178860745Y-85621380D01*
X178842607Y-85621707D01*
X178823843Y-85621352D01*
X178805649Y-85620292D01*
X178788018Y-85618540D01*
X178770944Y-85616104D01*
X178754421Y-85612997D01*
X178738442Y-85609228D01*
X178723001Y-85604807D01*
X178708092Y-85599747D01*
X178693710Y-85594056D01*
X178679847Y-85587745D01*
X178666497Y-85580826D01*
X178653654Y-85573308D01*
X178641313Y-85565202D01*
X178629467Y-85556519D01*
X178618109Y-85547270D01*
X178607233Y-85537464D01*
X178596834Y-85527112D01*
X178586905Y-85516225D01*
X178577440Y-85504813D01*
X178568432Y-85492888D01*
X178559876Y-85480459D01*
X178551765Y-85467537D01*
X178536854Y-85440256D01*
X178523650Y-85411129D01*
X178512102Y-85380241D01*
X178502162Y-85347677D01*
X178493780Y-85313520D01*
X179174500Y-85313520D01*
X179167350Y-85349351D01*
G37*
X179167350Y-85349351D02*
X179158572Y-85383159D01*
X179148128Y-85414902D01*
X179142268Y-85429987D01*
X179135977Y-85444542D01*
X179129249Y-85458561D01*
X179122079Y-85472039D01*
X179114463Y-85484971D01*
X179106396Y-85497353D01*
X179097872Y-85509179D01*
X179088887Y-85520444D01*
X179079436Y-85531144D01*
X179069513Y-85541274D01*
X179059114Y-85550827D01*
X179048234Y-85559801D01*
X179036868Y-85568189D01*
X179025010Y-85575987D01*
X179012657Y-85583189D01*
X178999802Y-85589792D01*
X178986442Y-85595789D01*
X178972570Y-85601175D01*
X178958182Y-85605947D01*
X178943274Y-85610098D01*
X178927840Y-85613625D01*
X178911874Y-85616521D01*
X178895374Y-85618783D01*
X178878332Y-85620404D01*
X178860745Y-85621380D01*
X178842607Y-85621707D01*
X178823843Y-85621352D01*
X178805649Y-85620292D01*
X178788018Y-85618540D01*
X178770944Y-85616104D01*
X178754421Y-85612997D01*
X178738442Y-85609228D01*
X178723001Y-85604807D01*
X178708092Y-85599747D01*
X178693710Y-85594056D01*
X178679847Y-85587745D01*
X178666497Y-85580826D01*
X178653654Y-85573308D01*
X178641313Y-85565202D01*
X178629467Y-85556519D01*
X178618109Y-85547270D01*
X178607233Y-85537464D01*
X178596834Y-85527112D01*
X178586905Y-85516225D01*
X178577440Y-85504813D01*
X178568432Y-85492888D01*
X178559876Y-85480459D01*
X178551765Y-85467537D01*
X178536854Y-85440256D01*
X178523650Y-85411129D01*
X178512102Y-85380241D01*
X178502162Y-85347677D01*
X178493780Y-85313520D01*
X179174500Y-85313520D01*
X179167350Y-85349351D01*
D11*
X164688063Y-90602847D02*
X164676014Y-90484890D01*
D10*
G36*
X174824289Y-89988813D02*
G01*
X174824957Y-90016809D01*
X174826936Y-90044266D01*
X174830186Y-90071161D01*
X174834667Y-90097471D01*
X174840342Y-90123174D01*
X174847171Y-90148246D01*
X174855115Y-90172664D01*
X174864135Y-90196405D01*
X174874192Y-90219448D01*
X174885247Y-90241767D01*
X174897260Y-90263342D01*
X174910193Y-90284148D01*
X174924006Y-90304163D01*
X174938661Y-90323363D01*
X174954118Y-90341727D01*
X174970339Y-90359230D01*
X174987284Y-90375850D01*
X175004914Y-90391565D01*
X175023191Y-90406350D01*
X175042074Y-90420183D01*
X175061526Y-90433042D01*
X175081506Y-90444903D01*
X175101977Y-90455743D01*
X175122898Y-90465540D01*
X175144231Y-90474270D01*
X175165936Y-90481910D01*
X175187976Y-90488438D01*
X175210310Y-90493830D01*
X175232899Y-90498064D01*
X175255705Y-90501117D01*
X175278688Y-90502965D01*
X175301809Y-90503587D01*
X175324154Y-90503201D01*
X175345472Y-90502092D01*
X175365768Y-90500327D01*
X175385047Y-90497978D01*
X175403314Y-90495112D01*
X175420574Y-90491800D01*
X175436832Y-90488110D01*
X175452093Y-90484113D01*
X175466361Y-90479878D01*
X175479642Y-90475475D01*
X175503263Y-90466439D01*
X175522994Y-90457562D01*
X175538876Y-90449400D01*
X175684503Y-90666147D01*
X175666702Y-90679008D01*
X175648777Y-90690932D01*
X175630605Y-90701932D01*
X175612060Y-90712025D01*
X175593019Y-90721226D01*
X175573358Y-90729548D01*
X175552953Y-90737006D01*
X175531679Y-90743617D01*
X175509414Y-90749394D01*
X175486032Y-90754352D01*
X175461410Y-90758507D01*
X175435424Y-90761873D01*
X175407949Y-90764465D01*
X175378862Y-90766298D01*
X175348039Y-90767387D01*
X175315356Y-90767747D01*
X175278696Y-90766411D01*
X175242423Y-90762455D01*
X175206607Y-90755960D01*
X175171316Y-90747003D01*
X175136621Y-90735666D01*
X175102591Y-90722027D01*
X175069295Y-90706165D01*
X175036802Y-90688160D01*
X175005183Y-90668091D01*
X174974506Y-90646038D01*
X174944841Y-90622080D01*
X174916258Y-90596297D01*
X174888826Y-90568767D01*
X174862614Y-90539570D01*
X174837692Y-90508786D01*
X174814129Y-90476493D01*
X174800582Y-90733880D01*
X174526262Y-90733880D01*
X174526262Y-89040547D01*
X174824289Y-89040547D01*
X174824289Y-89988813D01*
G37*
X174824289Y-89988813D02*
X174824957Y-90016809D01*
X174826936Y-90044266D01*
X174830186Y-90071161D01*
X174834667Y-90097471D01*
X174840342Y-90123174D01*
X174847171Y-90148246D01*
X174855115Y-90172664D01*
X174864135Y-90196405D01*
X174874192Y-90219448D01*
X174885247Y-90241767D01*
X174897260Y-90263342D01*
X174910193Y-90284148D01*
X174924006Y-90304163D01*
X174938661Y-90323363D01*
X174954118Y-90341727D01*
X174970339Y-90359230D01*
X174987284Y-90375850D01*
X175004914Y-90391565D01*
X175023191Y-90406350D01*
X175042074Y-90420183D01*
X175061526Y-90433042D01*
X175081506Y-90444903D01*
X175101977Y-90455743D01*
X175122898Y-90465540D01*
X175144231Y-90474270D01*
X175165936Y-90481910D01*
X175187976Y-90488438D01*
X175210310Y-90493830D01*
X175232899Y-90498064D01*
X175255705Y-90501117D01*
X175278688Y-90502965D01*
X175301809Y-90503587D01*
X175324154Y-90503201D01*
X175345472Y-90502092D01*
X175365768Y-90500327D01*
X175385047Y-90497978D01*
X175403314Y-90495112D01*
X175420574Y-90491800D01*
X175436832Y-90488110D01*
X175452093Y-90484113D01*
X175466361Y-90479878D01*
X175479642Y-90475475D01*
X175503263Y-90466439D01*
X175522994Y-90457562D01*
X175538876Y-90449400D01*
X175684503Y-90666147D01*
X175666702Y-90679008D01*
X175648777Y-90690932D01*
X175630605Y-90701932D01*
X175612060Y-90712025D01*
X175593019Y-90721226D01*
X175573358Y-90729548D01*
X175552953Y-90737006D01*
X175531679Y-90743617D01*
X175509414Y-90749394D01*
X175486032Y-90754352D01*
X175461410Y-90758507D01*
X175435424Y-90761873D01*
X175407949Y-90764465D01*
X175378862Y-90766298D01*
X175348039Y-90767387D01*
X175315356Y-90767747D01*
X175278696Y-90766411D01*
X175242423Y-90762455D01*
X175206607Y-90755960D01*
X175171316Y-90747003D01*
X175136621Y-90735666D01*
X175102591Y-90722027D01*
X175069295Y-90706165D01*
X175036802Y-90688160D01*
X175005183Y-90668091D01*
X174974506Y-90646038D01*
X174944841Y-90622080D01*
X174916258Y-90596297D01*
X174888826Y-90568767D01*
X174862614Y-90539570D01*
X174837692Y-90508786D01*
X174814129Y-90476493D01*
X174800582Y-90733880D01*
X174526262Y-90733880D01*
X174526262Y-89040547D01*
X174824289Y-89040547D01*
X174824289Y-89988813D01*
D11*
X166250565Y-92767858D02*
X166250565Y-92767858D01*
X168375341Y-93035404D02*
X163967714Y-92639932D01*
D10*
G36*
X181525866Y-90159628D02*
G01*
X181515360Y-90201373D01*
X181503296Y-90241967D01*
X181489689Y-90281370D01*
X181474555Y-90319543D01*
X181457909Y-90356445D01*
X181439767Y-90392038D01*
X181420143Y-90426282D01*
X181399055Y-90459137D01*
X181376517Y-90490563D01*
X181352544Y-90520520D01*
X181327152Y-90548969D01*
X181300358Y-90575871D01*
X181272175Y-90601185D01*
X181242620Y-90624872D01*
X181211708Y-90646892D01*
X181179455Y-90667205D01*
X181145876Y-90685772D01*
X181110987Y-90702553D01*
X181074802Y-90717509D01*
X181037339Y-90730599D01*
X180998611Y-90741784D01*
X180958635Y-90751025D01*
X180917426Y-90758281D01*
X180875000Y-90763513D01*
X180831372Y-90766682D01*
X180786558Y-90767747D01*
X180740445Y-90766643D01*
X180695464Y-90763364D01*
X180651639Y-90757955D01*
X180608989Y-90750463D01*
X180567538Y-90740934D01*
X180527307Y-90729416D01*
X180488317Y-90715954D01*
X180450590Y-90700595D01*
X180414148Y-90683386D01*
X180379013Y-90664373D01*
X180345206Y-90643603D01*
X180312749Y-90621121D01*
X180281663Y-90596975D01*
X180251971Y-90571212D01*
X180223695Y-90543877D01*
X180196855Y-90515017D01*
X180171473Y-90484678D01*
X180147572Y-90452908D01*
X180125173Y-90419753D01*
X180104297Y-90385258D01*
X180084966Y-90349472D01*
X180067203Y-90312439D01*
X180051029Y-90274208D01*
X180036464Y-90234823D01*
X180023532Y-90194332D01*
X180012254Y-90152782D01*
X180002652Y-90110218D01*
X179994746Y-90066687D01*
X179988622Y-90022680D01*
X180278558Y-90022680D01*
X180288357Y-90076154D01*
X180301233Y-90127257D01*
X180317164Y-90175839D01*
X180336131Y-90221753D01*
X180346747Y-90243662D01*
X180358115Y-90264848D01*
X180370231Y-90285293D01*
X180383095Y-90304977D01*
X180396702Y-90323883D01*
X180411051Y-90341991D01*
X180426140Y-90359283D01*
X180441965Y-90375740D01*
X180458524Y-90391344D01*
X180475815Y-90406076D01*
X180493835Y-90419918D01*
X180512582Y-90432850D01*
X180532053Y-90444855D01*
X180552246Y-90455914D01*
X180573159Y-90466007D01*
X180594788Y-90475118D01*
X180617131Y-90483226D01*
X180640187Y-90490313D01*
X180663952Y-90496361D01*
X180688424Y-90501351D01*
X180713600Y-90505265D01*
X180739478Y-90508083D01*
X180766056Y-90509788D01*
X180793331Y-90510360D01*
X180819980Y-90509807D01*
X180845950Y-90508157D01*
X180871235Y-90505426D01*
X180895831Y-90501629D01*
X180919732Y-90496779D01*
X180942933Y-90490893D01*
X180965430Y-90483985D01*
X180987218Y-90476070D01*
X181008291Y-90467163D01*
X181028645Y-90457278D01*
X181048274Y-90446431D01*
X181067175Y-90434636D01*
X181085341Y-90421909D01*
X181102768Y-90408264D01*
X181119451Y-90393716D01*
X181135384Y-90378280D01*
X181150564Y-90361971D01*
X181164985Y-90344804D01*
X181178641Y-90326793D01*
X181191529Y-90307954D01*
X181203643Y-90288301D01*
X181214978Y-90267850D01*
X181225529Y-90246614D01*
X181235291Y-90224610D01*
X181244260Y-90201852D01*
X181252429Y-90178354D01*
X181259796Y-90154133D01*
X181266353Y-90129201D01*
X181272097Y-90103576D01*
X181277022Y-90077270D01*
X181284398Y-90022680D01*
X180278558Y-90022680D01*
X179988622Y-90022680D01*
X179988560Y-90022236D01*
X179984114Y-89976911D01*
X179981431Y-89930760D01*
X179980531Y-89883827D01*
X179981421Y-89836914D01*
X179984077Y-89790818D01*
X179988479Y-89745585D01*
X179994607Y-89701258D01*
X180002442Y-89657880D01*
X180011964Y-89615497D01*
X180023153Y-89574152D01*
X180035988Y-89533889D01*
X180050451Y-89494752D01*
X180066521Y-89456785D01*
X180084179Y-89420033D01*
X180103404Y-89384538D01*
X180124177Y-89350346D01*
X180146478Y-89317500D01*
X180170287Y-89286045D01*
X180195585Y-89256024D01*
X180222351Y-89227481D01*
X180250565Y-89200460D01*
X180280208Y-89175006D01*
X180311260Y-89151163D01*
X180343702Y-89128973D01*
X180377512Y-89108483D01*
X180412672Y-89089735D01*
X180449161Y-89072773D01*
X180486960Y-89057642D01*
X180526049Y-89044386D01*
X180566408Y-89033048D01*
X180608017Y-89023673D01*
X180650856Y-89016305D01*
X180694906Y-89010987D01*
X180740147Y-89007764D01*
X180786558Y-89006680D01*
X180845215Y-89008377D01*
X180901804Y-89013427D01*
X180956319Y-89021771D01*
X181008755Y-89033350D01*
X181059108Y-89048104D01*
X181107372Y-89065973D01*
X181153542Y-89086899D01*
X181197614Y-89110820D01*
X181239583Y-89137679D01*
X181279443Y-89167415D01*
X181317190Y-89199968D01*
X181352819Y-89235280D01*
X181386324Y-89273291D01*
X181417701Y-89313941D01*
X181446945Y-89357170D01*
X181474051Y-89402920D01*
X181264078Y-89548547D01*
X181238737Y-89510787D01*
X181213436Y-89476183D01*
X181188056Y-89444635D01*
X181162478Y-89416043D01*
X181149577Y-89402825D01*
X181136582Y-89390309D01*
X181123477Y-89378483D01*
X181110249Y-89367334D01*
X181096882Y-89356849D01*
X181083361Y-89347017D01*
X181069671Y-89337825D01*
X181055798Y-89329260D01*
X181041726Y-89321311D01*
X181027441Y-89313964D01*
X181012928Y-89307208D01*
X180998172Y-89301029D01*
X180983157Y-89295416D01*
X180967870Y-89290356D01*
X180952295Y-89285837D01*
X180936418Y-89281847D01*
X180903695Y-89275401D01*
X180869584Y-89270920D01*
X180833965Y-89268303D01*
X180796718Y-89267453D01*
X180767588Y-89268065D01*
X180739254Y-89269888D01*
X180711718Y-89272901D01*
X180684984Y-89277084D01*
X180659054Y-89282419D01*
X180633930Y-89288885D01*
X180609614Y-89296462D01*
X180586109Y-89305130D01*
X180563419Y-89314870D01*
X180541544Y-89325662D01*
X180520487Y-89337485D01*
X180500252Y-89350321D01*
X180480840Y-89364149D01*
X180462255Y-89378949D01*
X180444497Y-89394702D01*
X180427571Y-89411387D01*
X180411478Y-89428985D01*
X180396221Y-89447476D01*
X180381803Y-89466840D01*
X180368225Y-89487058D01*
X180355491Y-89508109D01*
X180343602Y-89529973D01*
X180332562Y-89552631D01*
X180322373Y-89576063D01*
X180313037Y-89600250D01*
X180304556Y-89625170D01*
X180296934Y-89650805D01*
X180290173Y-89677134D01*
X180279242Y-89731797D01*
X180271784Y-89789000D01*
X181551944Y-89789000D01*
X181553055Y-89801694D01*
X181553890Y-89814347D01*
X181554488Y-89826922D01*
X181554889Y-89839377D01*
X181555257Y-89863771D01*
X181555310Y-89887213D01*
X181551997Y-89981934D01*
X181547580Y-90022680D01*
X181542141Y-90072845D01*
X181525866Y-90159628D01*
G37*
X181525866Y-90159628D02*
X181515360Y-90201373D01*
X181503296Y-90241967D01*
X181489689Y-90281370D01*
X181474555Y-90319543D01*
X181457909Y-90356445D01*
X181439767Y-90392038D01*
X181420143Y-90426282D01*
X181399055Y-90459137D01*
X181376517Y-90490563D01*
X181352544Y-90520520D01*
X181327152Y-90548969D01*
X181300358Y-90575871D01*
X181272175Y-90601185D01*
X181242620Y-90624872D01*
X181211708Y-90646892D01*
X181179455Y-90667205D01*
X181145876Y-90685772D01*
X181110987Y-90702553D01*
X181074802Y-90717509D01*
X181037339Y-90730599D01*
X180998611Y-90741784D01*
X180958635Y-90751025D01*
X180917426Y-90758281D01*
X180875000Y-90763513D01*
X180831372Y-90766682D01*
X180786558Y-90767747D01*
X180740445Y-90766643D01*
X180695464Y-90763364D01*
X180651639Y-90757955D01*
X180608989Y-90750463D01*
X180567538Y-90740934D01*
X180527307Y-90729416D01*
X180488317Y-90715954D01*
X180450590Y-90700595D01*
X180414148Y-90683386D01*
X180379013Y-90664373D01*
X180345206Y-90643603D01*
X180312749Y-90621121D01*
X180281663Y-90596975D01*
X180251971Y-90571212D01*
X180223695Y-90543877D01*
X180196855Y-90515017D01*
X180171473Y-90484678D01*
X180147572Y-90452908D01*
X180125173Y-90419753D01*
X180104297Y-90385258D01*
X180084966Y-90349472D01*
X180067203Y-90312439D01*
X180051029Y-90274208D01*
X180036464Y-90234823D01*
X180023532Y-90194332D01*
X180012254Y-90152782D01*
X180002652Y-90110218D01*
X179994746Y-90066687D01*
X179988622Y-90022680D01*
X180278558Y-90022680D01*
X180288357Y-90076154D01*
X180301233Y-90127257D01*
X180317164Y-90175839D01*
X180336131Y-90221753D01*
X180346747Y-90243662D01*
X180358115Y-90264848D01*
X180370231Y-90285293D01*
X180383095Y-90304977D01*
X180396702Y-90323883D01*
X180411051Y-90341991D01*
X180426140Y-90359283D01*
X180441965Y-90375740D01*
X180458524Y-90391344D01*
X180475815Y-90406076D01*
X180493835Y-90419918D01*
X180512582Y-90432850D01*
X180532053Y-90444855D01*
X180552246Y-90455914D01*
X180573159Y-90466007D01*
X180594788Y-90475118D01*
X180617131Y-90483226D01*
X180640187Y-90490313D01*
X180663952Y-90496361D01*
X180688424Y-90501351D01*
X180713600Y-90505265D01*
X180739478Y-90508083D01*
X180766056Y-90509788D01*
X180793331Y-90510360D01*
X180819980Y-90509807D01*
X180845950Y-90508157D01*
X180871235Y-90505426D01*
X180895831Y-90501629D01*
X180919732Y-90496779D01*
X180942933Y-90490893D01*
X180965430Y-90483985D01*
X180987218Y-90476070D01*
X181008291Y-90467163D01*
X181028645Y-90457278D01*
X181048274Y-90446431D01*
X181067175Y-90434636D01*
X181085341Y-90421909D01*
X181102768Y-90408264D01*
X181119451Y-90393716D01*
X181135384Y-90378280D01*
X181150564Y-90361971D01*
X181164985Y-90344804D01*
X181178641Y-90326793D01*
X181191529Y-90307954D01*
X181203643Y-90288301D01*
X181214978Y-90267850D01*
X181225529Y-90246614D01*
X181235291Y-90224610D01*
X181244260Y-90201852D01*
X181252429Y-90178354D01*
X181259796Y-90154133D01*
X181266353Y-90129201D01*
X181272097Y-90103576D01*
X181277022Y-90077270D01*
X181284398Y-90022680D01*
X180278558Y-90022680D01*
X179988622Y-90022680D01*
X179988560Y-90022236D01*
X179984114Y-89976911D01*
X179981431Y-89930760D01*
X179980531Y-89883827D01*
X179981421Y-89836914D01*
X179984077Y-89790818D01*
X179988479Y-89745585D01*
X179994607Y-89701258D01*
X180002442Y-89657880D01*
X180011964Y-89615497D01*
X180023153Y-89574152D01*
X180035988Y-89533889D01*
X180050451Y-89494752D01*
X180066521Y-89456785D01*
X180084179Y-89420033D01*
X180103404Y-89384538D01*
X180124177Y-89350346D01*
X180146478Y-89317500D01*
X180170287Y-89286045D01*
X180195585Y-89256024D01*
X180222351Y-89227481D01*
X180250565Y-89200460D01*
X180280208Y-89175006D01*
X180311260Y-89151163D01*
X180343702Y-89128973D01*
X180377512Y-89108483D01*
X180412672Y-89089735D01*
X180449161Y-89072773D01*
X180486960Y-89057642D01*
X180526049Y-89044386D01*
X180566408Y-89033048D01*
X180608017Y-89023673D01*
X180650856Y-89016305D01*
X180694906Y-89010987D01*
X180740147Y-89007764D01*
X180786558Y-89006680D01*
X180845215Y-89008377D01*
X180901804Y-89013427D01*
X180956319Y-89021771D01*
X181008755Y-89033350D01*
X181059108Y-89048104D01*
X181107372Y-89065973D01*
X181153542Y-89086899D01*
X181197614Y-89110820D01*
X181239583Y-89137679D01*
X181279443Y-89167415D01*
X181317190Y-89199968D01*
X181352819Y-89235280D01*
X181386324Y-89273291D01*
X181417701Y-89313941D01*
X181446945Y-89357170D01*
X181474051Y-89402920D01*
X181264078Y-89548547D01*
X181238737Y-89510787D01*
X181213436Y-89476183D01*
X181188056Y-89444635D01*
X181162478Y-89416043D01*
X181149577Y-89402825D01*
X181136582Y-89390309D01*
X181123477Y-89378483D01*
X181110249Y-89367334D01*
X181096882Y-89356849D01*
X181083361Y-89347017D01*
X181069671Y-89337825D01*
X181055798Y-89329260D01*
X181041726Y-89321311D01*
X181027441Y-89313964D01*
X181012928Y-89307208D01*
X180998172Y-89301029D01*
X180983157Y-89295416D01*
X180967870Y-89290356D01*
X180952295Y-89285837D01*
X180936418Y-89281847D01*
X180903695Y-89275401D01*
X180869584Y-89270920D01*
X180833965Y-89268303D01*
X180796718Y-89267453D01*
X180767588Y-89268065D01*
X180739254Y-89269888D01*
X180711718Y-89272901D01*
X180684984Y-89277084D01*
X180659054Y-89282419D01*
X180633930Y-89288885D01*
X180609614Y-89296462D01*
X180586109Y-89305130D01*
X180563419Y-89314870D01*
X180541544Y-89325662D01*
X180520487Y-89337485D01*
X180500252Y-89350321D01*
X180480840Y-89364149D01*
X180462255Y-89378949D01*
X180444497Y-89394702D01*
X180427571Y-89411387D01*
X180411478Y-89428985D01*
X180396221Y-89447476D01*
X180381803Y-89466840D01*
X180368225Y-89487058D01*
X180355491Y-89508109D01*
X180343602Y-89529973D01*
X180332562Y-89552631D01*
X180322373Y-89576063D01*
X180313037Y-89600250D01*
X180304556Y-89625170D01*
X180296934Y-89650805D01*
X180290173Y-89677134D01*
X180279242Y-89731797D01*
X180271784Y-89789000D01*
X181551944Y-89789000D01*
X181553055Y-89801694D01*
X181553890Y-89814347D01*
X181554488Y-89826922D01*
X181554889Y-89839377D01*
X181555257Y-89863771D01*
X181555310Y-89887213D01*
X181551997Y-89981934D01*
X181547580Y-90022680D01*
X181542141Y-90072845D01*
X181525866Y-90159628D01*
D11*
X166250565Y-92767858D02*
X166143734Y-92723254D01*
X168375328Y-93035404D02*
X168295307Y-93040828D01*
D10*
G36*
X177175784Y-90164564D02*
G01*
X177173095Y-90203502D01*
X177168667Y-90241100D01*
X177162541Y-90277361D01*
X177154760Y-90312291D01*
X177145368Y-90345893D01*
X177134408Y-90378171D01*
X177121921Y-90409130D01*
X177107950Y-90438775D01*
X177092539Y-90467110D01*
X177075731Y-90494138D01*
X177057567Y-90519865D01*
X177038091Y-90544295D01*
X177017346Y-90567432D01*
X176995375Y-90589280D01*
X176972219Y-90609843D01*
X176947923Y-90629127D01*
X176922528Y-90647136D01*
X176896078Y-90663873D01*
X176868615Y-90679343D01*
X176840182Y-90693550D01*
X176810822Y-90706500D01*
X176780578Y-90718195D01*
X176749493Y-90728641D01*
X176717608Y-90737842D01*
X176684968Y-90745802D01*
X176651615Y-90752525D01*
X176617591Y-90758017D01*
X176547704Y-90765320D01*
X176475649Y-90767747D01*
X176416474Y-90766370D01*
X176359596Y-90762290D01*
X176305010Y-90755580D01*
X176252711Y-90746315D01*
X176202694Y-90734570D01*
X176154954Y-90720419D01*
X176109486Y-90703937D01*
X176066286Y-90685197D01*
X176025347Y-90664274D01*
X175986666Y-90641243D01*
X175950237Y-90616178D01*
X175916055Y-90589153D01*
X175884116Y-90560243D01*
X175854414Y-90529522D01*
X175826944Y-90497066D01*
X175801702Y-90462947D01*
X176008289Y-90280067D01*
X176027933Y-90307806D01*
X176048763Y-90333863D01*
X176070774Y-90358224D01*
X176082221Y-90369763D01*
X176093961Y-90380873D01*
X176105993Y-90391551D01*
X176118318Y-90401796D01*
X176130934Y-90411605D01*
X176143841Y-90420977D01*
X176157039Y-90429910D01*
X176170526Y-90438403D01*
X176184301Y-90446452D01*
X176198366Y-90454057D01*
X176212717Y-90461215D01*
X176227356Y-90467925D01*
X176242282Y-90474185D01*
X176257493Y-90479993D01*
X176272990Y-90485346D01*
X176288771Y-90490244D01*
X176304837Y-90494685D01*
X176321185Y-90498665D01*
X176337817Y-90502185D01*
X176354730Y-90505241D01*
X176389402Y-90509957D01*
X176425194Y-90512797D01*
X176462103Y-90513747D01*
X176504770Y-90512429D01*
X176546266Y-90508442D01*
X176586374Y-90501736D01*
X176624874Y-90492263D01*
X176661548Y-90479971D01*
X176679133Y-90472753D01*
X176696179Y-90464812D01*
X176712659Y-90456142D01*
X176728547Y-90446736D01*
X176743815Y-90436589D01*
X176758435Y-90425693D01*
X176772381Y-90414044D01*
X176785624Y-90401634D01*
X176798139Y-90388458D01*
X176809896Y-90374510D01*
X176820870Y-90359782D01*
X176831033Y-90344270D01*
X176840358Y-90327966D01*
X176848817Y-90310864D01*
X176856382Y-90292959D01*
X176863028Y-90274244D01*
X176868726Y-90254713D01*
X176873449Y-90234360D01*
X176877170Y-90213178D01*
X176879862Y-90191162D01*
X176881497Y-90168304D01*
X176882048Y-90144600D01*
X176882048Y-89944787D01*
X176573863Y-89995587D01*
X176519358Y-90003733D01*
X176466952Y-90009797D01*
X176416621Y-90013839D01*
X176368341Y-90015920D01*
X176322087Y-90016101D01*
X176277836Y-90014443D01*
X176235563Y-90011007D01*
X176195244Y-90005853D01*
X176156854Y-89999041D01*
X176120371Y-89990634D01*
X176085768Y-89980691D01*
X176053023Y-89969274D01*
X176022112Y-89956443D01*
X175993009Y-89942258D01*
X175965690Y-89926782D01*
X175940132Y-89910073D01*
X175916311Y-89892194D01*
X175894202Y-89873205D01*
X175873780Y-89853167D01*
X175855023Y-89832140D01*
X175837905Y-89810186D01*
X175822402Y-89787365D01*
X175808491Y-89763737D01*
X175796146Y-89739364D01*
X175776062Y-89688626D01*
X175761956Y-89635634D01*
X175753634Y-89580877D01*
X175751563Y-89538387D01*
X176055702Y-89538387D01*
X176056065Y-89553879D01*
X176057176Y-89569214D01*
X176059068Y-89584356D01*
X176061775Y-89599267D01*
X176065330Y-89613911D01*
X176069767Y-89628249D01*
X176075119Y-89642245D01*
X176081420Y-89655862D01*
X176088703Y-89669062D01*
X176097002Y-89681807D01*
X176106350Y-89694062D01*
X176116781Y-89705789D01*
X176128329Y-89716950D01*
X176141026Y-89727508D01*
X176154906Y-89737426D01*
X176170002Y-89746667D01*
X176186349Y-89755193D01*
X176203980Y-89762968D01*
X176222927Y-89769955D01*
X176243226Y-89776115D01*
X176264908Y-89781412D01*
X176288008Y-89785809D01*
X176312559Y-89789268D01*
X176338595Y-89791752D01*
X176366148Y-89793224D01*
X176395254Y-89793647D01*
X176425944Y-89792983D01*
X176458253Y-89791196D01*
X176492213Y-89788248D01*
X176527859Y-89784102D01*
X176565225Y-89778721D01*
X176604342Y-89772067D01*
X176882048Y-89724653D01*
X176882048Y-89531613D01*
X176851852Y-89504724D01*
X176820976Y-89478743D01*
X176789455Y-89453784D01*
X176757324Y-89429961D01*
X176724617Y-89407387D01*
X176691370Y-89386179D01*
X176657617Y-89366448D01*
X176623392Y-89348310D01*
X176588731Y-89331879D01*
X176553668Y-89317268D01*
X176518238Y-89304592D01*
X176482475Y-89293965D01*
X176446415Y-89285501D01*
X176410092Y-89279313D01*
X176373540Y-89275518D01*
X176336795Y-89274227D01*
X176321091Y-89274533D01*
X176305733Y-89275445D01*
X176290733Y-89276953D01*
X176276100Y-89279049D01*
X176261844Y-89281722D01*
X176247975Y-89284965D01*
X176234503Y-89288766D01*
X176221437Y-89293118D01*
X176208788Y-89298011D01*
X176196566Y-89303434D01*
X176184781Y-89309380D01*
X176173442Y-89315839D01*
X176162559Y-89322802D01*
X176152143Y-89330258D01*
X176142203Y-89338200D01*
X176132749Y-89346617D01*
X176123791Y-89355500D01*
X176115339Y-89364841D01*
X176107404Y-89374629D01*
X176099994Y-89384856D01*
X176093119Y-89395512D01*
X176086791Y-89406587D01*
X176081018Y-89418073D01*
X176075811Y-89429961D01*
X176071179Y-89442240D01*
X176067132Y-89454902D01*
X176063681Y-89467937D01*
X176060835Y-89481336D01*
X176058605Y-89495090D01*
X176056999Y-89509189D01*
X176056028Y-89523625D01*
X176055702Y-89538387D01*
X175751563Y-89538387D01*
X175750903Y-89524840D01*
X175751534Y-89496835D01*
X175753410Y-89469350D01*
X175756509Y-89442409D01*
X175760805Y-89416037D01*
X175766274Y-89390258D01*
X175772892Y-89365096D01*
X175780635Y-89340575D01*
X175789479Y-89316719D01*
X175799399Y-89293553D01*
X175810372Y-89271101D01*
X175822373Y-89249386D01*
X175835377Y-89228434D01*
X175849362Y-89208268D01*
X175864302Y-89188913D01*
X175880174Y-89170392D01*
X175896952Y-89152730D01*
X175914614Y-89135951D01*
X175933135Y-89120080D01*
X175952490Y-89105140D01*
X175972656Y-89091155D01*
X175993608Y-89078150D01*
X176015323Y-89066149D01*
X176037775Y-89055177D01*
X176060941Y-89045256D01*
X176084796Y-89036413D01*
X176109317Y-89028670D01*
X176134480Y-89022051D01*
X176160259Y-89016582D01*
X176186631Y-89012286D01*
X176213572Y-89009188D01*
X176241057Y-89007311D01*
X176269062Y-89006680D01*
X176310366Y-89007975D01*
X176351685Y-89011800D01*
X176392954Y-89018066D01*
X176434109Y-89026683D01*
X176475086Y-89037562D01*
X176515819Y-89050614D01*
X176556245Y-89065750D01*
X176596299Y-89082880D01*
X176635916Y-89101915D01*
X176675032Y-89122766D01*
X176713583Y-89145343D01*
X176751503Y-89169558D01*
X176788730Y-89195320D01*
X176825197Y-89222540D01*
X176860840Y-89251130D01*
X176895596Y-89281000D01*
X176912529Y-89040547D01*
X177176689Y-89040547D01*
X177176689Y-90124280D01*
X177175784Y-90164564D01*
G37*
X177175784Y-90164564D02*
X177173095Y-90203502D01*
X177168667Y-90241100D01*
X177162541Y-90277361D01*
X177154760Y-90312291D01*
X177145368Y-90345893D01*
X177134408Y-90378171D01*
X177121921Y-90409130D01*
X177107950Y-90438775D01*
X177092539Y-90467110D01*
X177075731Y-90494138D01*
X177057567Y-90519865D01*
X177038091Y-90544295D01*
X177017346Y-90567432D01*
X176995375Y-90589280D01*
X176972219Y-90609843D01*
X176947923Y-90629127D01*
X176922528Y-90647136D01*
X176896078Y-90663873D01*
X176868615Y-90679343D01*
X176840182Y-90693550D01*
X176810822Y-90706500D01*
X176780578Y-90718195D01*
X176749493Y-90728641D01*
X176717608Y-90737842D01*
X176684968Y-90745802D01*
X176651615Y-90752525D01*
X176617591Y-90758017D01*
X176547704Y-90765320D01*
X176475649Y-90767747D01*
X176416474Y-90766370D01*
X176359596Y-90762290D01*
X176305010Y-90755580D01*
X176252711Y-90746315D01*
X176202694Y-90734570D01*
X176154954Y-90720419D01*
X176109486Y-90703937D01*
X176066286Y-90685197D01*
X176025347Y-90664274D01*
X175986666Y-90641243D01*
X175950237Y-90616178D01*
X175916055Y-90589153D01*
X175884116Y-90560243D01*
X175854414Y-90529522D01*
X175826944Y-90497066D01*
X175801702Y-90462947D01*
X176008289Y-90280067D01*
X176027933Y-90307806D01*
X176048763Y-90333863D01*
X176070774Y-90358224D01*
X176082221Y-90369763D01*
X176093961Y-90380873D01*
X176105993Y-90391551D01*
X176118318Y-90401796D01*
X176130934Y-90411605D01*
X176143841Y-90420977D01*
X176157039Y-90429910D01*
X176170526Y-90438403D01*
X176184301Y-90446452D01*
X176198366Y-90454057D01*
X176212717Y-90461215D01*
X176227356Y-90467925D01*
X176242282Y-90474185D01*
X176257493Y-90479993D01*
X176272990Y-90485346D01*
X176288771Y-90490244D01*
X176304837Y-90494685D01*
X176321185Y-90498665D01*
X176337817Y-90502185D01*
X176354730Y-90505241D01*
X176389402Y-90509957D01*
X176425194Y-90512797D01*
X176462103Y-90513747D01*
X176504770Y-90512429D01*
X176546266Y-90508442D01*
X176586374Y-90501736D01*
X176624874Y-90492263D01*
X176661548Y-90479971D01*
X176679133Y-90472753D01*
X176696179Y-90464812D01*
X176712659Y-90456142D01*
X176728547Y-90446736D01*
X176743815Y-90436589D01*
X176758435Y-90425693D01*
X176772381Y-90414044D01*
X176785624Y-90401634D01*
X176798139Y-90388458D01*
X176809896Y-90374510D01*
X176820870Y-90359782D01*
X176831033Y-90344270D01*
X176840358Y-90327966D01*
X176848817Y-90310864D01*
X176856382Y-90292959D01*
X176863028Y-90274244D01*
X176868726Y-90254713D01*
X176873449Y-90234360D01*
X176877170Y-90213178D01*
X176879862Y-90191162D01*
X176881497Y-90168304D01*
X176882048Y-90144600D01*
X176882048Y-89944787D01*
X176573863Y-89995587D01*
X176519358Y-90003733D01*
X176466952Y-90009797D01*
X176416621Y-90013839D01*
X176368341Y-90015920D01*
X176322087Y-90016101D01*
X176277836Y-90014443D01*
X176235563Y-90011007D01*
X176195244Y-90005853D01*
X176156854Y-89999041D01*
X176120371Y-89990634D01*
X176085768Y-89980691D01*
X176053023Y-89969274D01*
X176022112Y-89956443D01*
X175993009Y-89942258D01*
X175965690Y-89926782D01*
X175940132Y-89910073D01*
X175916311Y-89892194D01*
X175894202Y-89873205D01*
X175873780Y-89853167D01*
X175855023Y-89832140D01*
X175837905Y-89810186D01*
X175822402Y-89787365D01*
X175808491Y-89763737D01*
X175796146Y-89739364D01*
X175776062Y-89688626D01*
X175761956Y-89635634D01*
X175753634Y-89580877D01*
X175751563Y-89538387D01*
X176055702Y-89538387D01*
X176056065Y-89553879D01*
X176057176Y-89569214D01*
X176059068Y-89584356D01*
X176061775Y-89599267D01*
X176065330Y-89613911D01*
X176069767Y-89628249D01*
X176075119Y-89642245D01*
X176081420Y-89655862D01*
X176088703Y-89669062D01*
X176097002Y-89681807D01*
X176106350Y-89694062D01*
X176116781Y-89705789D01*
X176128329Y-89716950D01*
X176141026Y-89727508D01*
X176154906Y-89737426D01*
X176170002Y-89746667D01*
X176186349Y-89755193D01*
X176203980Y-89762968D01*
X176222927Y-89769955D01*
X176243226Y-89776115D01*
X176264908Y-89781412D01*
X176288008Y-89785809D01*
X176312559Y-89789268D01*
X176338595Y-89791752D01*
X176366148Y-89793224D01*
X176395254Y-89793647D01*
X176425944Y-89792983D01*
X176458253Y-89791196D01*
X176492213Y-89788248D01*
X176527859Y-89784102D01*
X176565225Y-89778721D01*
X176604342Y-89772067D01*
X176882048Y-89724653D01*
X176882048Y-89531613D01*
X176851852Y-89504724D01*
X176820976Y-89478743D01*
X176789455Y-89453784D01*
X176757324Y-89429961D01*
X176724617Y-89407387D01*
X176691370Y-89386179D01*
X176657617Y-89366448D01*
X176623392Y-89348310D01*
X176588731Y-89331879D01*
X176553668Y-89317268D01*
X176518238Y-89304592D01*
X176482475Y-89293965D01*
X176446415Y-89285501D01*
X176410092Y-89279313D01*
X176373540Y-89275518D01*
X176336795Y-89274227D01*
X176321091Y-89274533D01*
X176305733Y-89275445D01*
X176290733Y-89276953D01*
X176276100Y-89279049D01*
X176261844Y-89281722D01*
X176247975Y-89284965D01*
X176234503Y-89288766D01*
X176221437Y-89293118D01*
X176208788Y-89298011D01*
X176196566Y-89303434D01*
X176184781Y-89309380D01*
X176173442Y-89315839D01*
X176162559Y-89322802D01*
X176152143Y-89330258D01*
X176142203Y-89338200D01*
X176132749Y-89346617D01*
X176123791Y-89355500D01*
X176115339Y-89364841D01*
X176107404Y-89374629D01*
X176099994Y-89384856D01*
X176093119Y-89395512D01*
X176086791Y-89406587D01*
X176081018Y-89418073D01*
X176075811Y-89429961D01*
X176071179Y-89442240D01*
X176067132Y-89454902D01*
X176063681Y-89467937D01*
X176060835Y-89481336D01*
X176058605Y-89495090D01*
X176056999Y-89509189D01*
X176056028Y-89523625D01*
X176055702Y-89538387D01*
X175751563Y-89538387D01*
X175750903Y-89524840D01*
X175751534Y-89496835D01*
X175753410Y-89469350D01*
X175756509Y-89442409D01*
X175760805Y-89416037D01*
X175766274Y-89390258D01*
X175772892Y-89365096D01*
X175780635Y-89340575D01*
X175789479Y-89316719D01*
X175799399Y-89293553D01*
X175810372Y-89271101D01*
X175822373Y-89249386D01*
X175835377Y-89228434D01*
X175849362Y-89208268D01*
X175864302Y-89188913D01*
X175880174Y-89170392D01*
X175896952Y-89152730D01*
X175914614Y-89135951D01*
X175933135Y-89120080D01*
X175952490Y-89105140D01*
X175972656Y-89091155D01*
X175993608Y-89078150D01*
X176015323Y-89066149D01*
X176037775Y-89055177D01*
X176060941Y-89045256D01*
X176084796Y-89036413D01*
X176109317Y-89028670D01*
X176134480Y-89022051D01*
X176160259Y-89016582D01*
X176186631Y-89012286D01*
X176213572Y-89009188D01*
X176241057Y-89007311D01*
X176269062Y-89006680D01*
X176310366Y-89007975D01*
X176351685Y-89011800D01*
X176392954Y-89018066D01*
X176434109Y-89026683D01*
X176475086Y-89037562D01*
X176515819Y-89050614D01*
X176556245Y-89065750D01*
X176596299Y-89082880D01*
X176635916Y-89101915D01*
X176675032Y-89122766D01*
X176713583Y-89145343D01*
X176751503Y-89169558D01*
X176788730Y-89195320D01*
X176825197Y-89222540D01*
X176860840Y-89251130D01*
X176895596Y-89281000D01*
X176912529Y-89040547D01*
X177176689Y-89040547D01*
X177176689Y-90124280D01*
X177175784Y-90164564D01*
D11*
X164688041Y-90023853D02*
X164706834Y-89912932D01*
X164676014Y-90484890D02*
X164669842Y-90367685D01*
X165937754Y-92613973D02*
X165838898Y-92549953D01*
X164924641Y-91421975D02*
X164831324Y-91192394D01*
X162776838Y-94202468D02*
X168375341Y-93035404D01*
X166039414Y-92671850D02*
X165937754Y-92613973D01*
X164764387Y-89698595D02*
X164803440Y-89595835D01*
D10*
G36*
X165468682Y-87452200D02*
G01*
X165468682Y-84277200D01*
X166214278Y-84277200D01*
X166214278Y-86817200D01*
X166725664Y-86817200D01*
X171340590Y-86817200D01*
X171862137Y-86817200D01*
X173162617Y-85052747D01*
X173162617Y-86817200D01*
X173670616Y-86817200D01*
X173670616Y-85123867D01*
X173977491Y-85123867D01*
X173978565Y-85169896D01*
X173981762Y-85215239D01*
X173987040Y-85259846D01*
X173994358Y-85303664D01*
X174003675Y-85346645D01*
X174014951Y-85388736D01*
X174028144Y-85429887D01*
X174043213Y-85470048D01*
X174060118Y-85509166D01*
X174078818Y-85547192D01*
X174099271Y-85584074D01*
X174121437Y-85619762D01*
X174145275Y-85654205D01*
X174170744Y-85687352D01*
X174197803Y-85719151D01*
X174226411Y-85749554D01*
X174256527Y-85778507D01*
X174288110Y-85805961D01*
X174321119Y-85831865D01*
X174355514Y-85856167D01*
X174391253Y-85878818D01*
X174428296Y-85899766D01*
X174466601Y-85918960D01*
X174506128Y-85936349D01*
X174546836Y-85951883D01*
X174588683Y-85965511D01*
X174631629Y-85977182D01*
X174675633Y-85986845D01*
X174720654Y-85994449D01*
X174766652Y-85999944D01*
X174813584Y-86003277D01*
X174861410Y-86004400D01*
X174908939Y-86003277D01*
X174955611Y-85999944D01*
X175001384Y-85994449D01*
X175046215Y-85986845D01*
X175090062Y-85977182D01*
X175132880Y-85965511D01*
X175174629Y-85951883D01*
X175215264Y-85936349D01*
X175254744Y-85918960D01*
X175293024Y-85899766D01*
X175330064Y-85878818D01*
X175365819Y-85856167D01*
X175400247Y-85831865D01*
X175433305Y-85805961D01*
X175464950Y-85778507D01*
X175495141Y-85749554D01*
X175523832Y-85719151D01*
X175550983Y-85687352D01*
X175576551Y-85654205D01*
X175600491Y-85619762D01*
X175622762Y-85584074D01*
X175643321Y-85547192D01*
X175662125Y-85509166D01*
X175679132Y-85470048D01*
X175694298Y-85429887D01*
X175707580Y-85388736D01*
X175718937Y-85346645D01*
X175728325Y-85303664D01*
X175735701Y-85259846D01*
X175741022Y-85215239D01*
X175744246Y-85169896D01*
X175745331Y-85123867D01*
X175951960Y-85123867D01*
X175952897Y-85169896D01*
X175955686Y-85215239D01*
X175960295Y-85259846D01*
X175966690Y-85303664D01*
X175974840Y-85346645D01*
X175984709Y-85388736D01*
X175996267Y-85429887D01*
X176009480Y-85470048D01*
X176024315Y-85509166D01*
X176040740Y-85547192D01*
X176058721Y-85584074D01*
X176078226Y-85619762D01*
X176099221Y-85654205D01*
X176121674Y-85687352D01*
X176145553Y-85719151D01*
X176170823Y-85749554D01*
X176197453Y-85778507D01*
X176225409Y-85805961D01*
X176254659Y-85831865D01*
X176285170Y-85856167D01*
X176316908Y-85878818D01*
X176349841Y-85899766D01*
X176383937Y-85918960D01*
X176419161Y-85936349D01*
X176455482Y-85951883D01*
X176492867Y-85965511D01*
X176531282Y-85977182D01*
X176570695Y-85986845D01*
X176611072Y-85994449D01*
X176652382Y-85999944D01*
X176694591Y-86003277D01*
X176737667Y-86004400D01*
X176772233Y-86003611D01*
X176806075Y-86001265D01*
X176839182Y-85997390D01*
X176871546Y-85992018D01*
X176903155Y-85985177D01*
X176934001Y-85976897D01*
X176964072Y-85967208D01*
X176993360Y-85956140D01*
X177021854Y-85943723D01*
X177049544Y-85929986D01*
X177076421Y-85914959D01*
X177102474Y-85898673D01*
X177127694Y-85881156D01*
X177152070Y-85862438D01*
X177175593Y-85842550D01*
X177198253Y-85821520D01*
X177198253Y-86817200D01*
X177685933Y-86817200D01*
X177685933Y-85123867D01*
X177992554Y-85123867D01*
X177993474Y-85170502D01*
X177996223Y-85216393D01*
X178000786Y-85261494D01*
X178007145Y-85305755D01*
X178015286Y-85349128D01*
X178025192Y-85391564D01*
X178036846Y-85433016D01*
X178050233Y-85473434D01*
X178065336Y-85512772D01*
X178082140Y-85550979D01*
X178100628Y-85588008D01*
X178120784Y-85623810D01*
X178142592Y-85658338D01*
X178166036Y-85691542D01*
X178191099Y-85723375D01*
X178217767Y-85753787D01*
X178246022Y-85782731D01*
X178275848Y-85810158D01*
X178307229Y-85836020D01*
X178340150Y-85860269D01*
X178374593Y-85882855D01*
X178410544Y-85903731D01*
X178447985Y-85922849D01*
X178486901Y-85940160D01*
X178527275Y-85955615D01*
X178569092Y-85969166D01*
X178612335Y-85980766D01*
X178656988Y-85990364D01*
X178703036Y-85997914D01*
X178750461Y-86003367D01*
X178799248Y-86006674D01*
X178849380Y-86007787D01*
X178894859Y-86006780D01*
X178939205Y-86003777D01*
X178982400Y-85998807D01*
X179024422Y-85991899D01*
X179065251Y-85983081D01*
X179104866Y-85972381D01*
X179143247Y-85959828D01*
X179180374Y-85945451D01*
X179216226Y-85929278D01*
X179250782Y-85911338D01*
X179284022Y-85891659D01*
X179315926Y-85870270D01*
X179346474Y-85847199D01*
X179375644Y-85822475D01*
X179403416Y-85796126D01*
X179429770Y-85768181D01*
X179454685Y-85738668D01*
X179478142Y-85707616D01*
X179500118Y-85675053D01*
X179520595Y-85641009D01*
X179539551Y-85605510D01*
X179556966Y-85568587D01*
X179572820Y-85530267D01*
X179587091Y-85490580D01*
X179599761Y-85449553D01*
X179610807Y-85407215D01*
X179620210Y-85363594D01*
X179627950Y-85318720D01*
X179634005Y-85272620D01*
X179638355Y-85225323D01*
X179640980Y-85176859D01*
X179641860Y-85127254D01*
X179641701Y-85109467D01*
X179641225Y-85091641D01*
X179640431Y-85073735D01*
X179639320Y-85055710D01*
X179637891Y-85037527D01*
X179636145Y-85019145D01*
X179634081Y-85000525D01*
X179631700Y-84981627D01*
X178483620Y-84981627D01*
X178489701Y-84940760D01*
X178497821Y-84902027D01*
X178508035Y-84865496D01*
X178513944Y-84848079D01*
X178520397Y-84831238D01*
X178527401Y-84814982D01*
X178534962Y-84799321D01*
X178543087Y-84784262D01*
X178551783Y-84769815D01*
X178561058Y-84755987D01*
X178570917Y-84742789D01*
X178581368Y-84730228D01*
X178592417Y-84718313D01*
X178604071Y-84707054D01*
X178616337Y-84696457D01*
X178629223Y-84686533D01*
X178642734Y-84677290D01*
X178656877Y-84668736D01*
X178671660Y-84660881D01*
X178687089Y-84653732D01*
X178703171Y-84647299D01*
X178719913Y-84641591D01*
X178737322Y-84636615D01*
X178755403Y-84632381D01*
X178774166Y-84628897D01*
X178793615Y-84626173D01*
X178813758Y-84624216D01*
X178834602Y-84623035D01*
X178856153Y-84622640D01*
X178886610Y-84623330D01*
X178915817Y-84625458D01*
X178943873Y-84629114D01*
X178970877Y-84634388D01*
X178984015Y-84637659D01*
X178996928Y-84641368D01*
X179009628Y-84645526D01*
X179022126Y-84650144D01*
X179034437Y-84655233D01*
X179046571Y-84660805D01*
X179058541Y-84666870D01*
X179070360Y-84673440D01*
X179082040Y-84680526D01*
X179093594Y-84688139D01*
X179105033Y-84696291D01*
X179116371Y-84704992D01*
X179127619Y-84714253D01*
X179138791Y-84724086D01*
X179160953Y-84745513D01*
X179182957Y-84769360D01*
X179204901Y-84795717D01*
X179226884Y-84824674D01*
X179249007Y-84856320D01*
X179597833Y-84683600D01*
X179572689Y-84634008D01*
X179544315Y-84586895D01*
X179512815Y-84542363D01*
X179478294Y-84500509D01*
X179440857Y-84461433D01*
X179400606Y-84425235D01*
X179357647Y-84392013D01*
X179312083Y-84361867D01*
X179264019Y-84334896D01*
X179213559Y-84311200D01*
X179160807Y-84290876D01*
X179105867Y-84274026D01*
X179048844Y-84260747D01*
X178989841Y-84251139D01*
X178928963Y-84245302D01*
X178866313Y-84243334D01*
X178811663Y-84244428D01*
X178758832Y-84247679D01*
X178707816Y-84253042D01*
X178658609Y-84260472D01*
X178611205Y-84269924D01*
X178582168Y-84277200D01*
X178565599Y-84281352D01*
X178521785Y-84294711D01*
X178479757Y-84309956D01*
X178439510Y-84327041D01*
X178401039Y-84345922D01*
X178364338Y-84366552D01*
X178329401Y-84388888D01*
X178296222Y-84412882D01*
X178264797Y-84438491D01*
X178235119Y-84465669D01*
X178207183Y-84494370D01*
X178180984Y-84524550D01*
X178156515Y-84556163D01*
X178133771Y-84589164D01*
X178112747Y-84623507D01*
X178093437Y-84659147D01*
X178075835Y-84696040D01*
X178059936Y-84734139D01*
X178045735Y-84773400D01*
X178033225Y-84813777D01*
X178022401Y-84855225D01*
X178013258Y-84897698D01*
X178005789Y-84941152D01*
X177995855Y-85030820D01*
X177992554Y-85123867D01*
X177685933Y-85123867D01*
X177685933Y-84277200D01*
X177249053Y-84273814D01*
X177221960Y-84449920D01*
X177198587Y-84426392D01*
X177174203Y-84404095D01*
X177148826Y-84383067D01*
X177122477Y-84363349D01*
X177095175Y-84344980D01*
X177066940Y-84328001D01*
X177037793Y-84312450D01*
X177007753Y-84298367D01*
X176976840Y-84285793D01*
X176945073Y-84274766D01*
X176912473Y-84265327D01*
X176879060Y-84257516D01*
X176844852Y-84251371D01*
X176809871Y-84246932D01*
X176774136Y-84244240D01*
X176737667Y-84243334D01*
X176694591Y-84244457D01*
X176652382Y-84247791D01*
X176611072Y-84253285D01*
X176570695Y-84260889D01*
X176531282Y-84270552D01*
X176492867Y-84282223D01*
X176455482Y-84295851D01*
X176419161Y-84311385D01*
X176383937Y-84328774D01*
X176349841Y-84347968D01*
X176316908Y-84368916D01*
X176285170Y-84391567D01*
X176254659Y-84415869D01*
X176225409Y-84441773D01*
X176197453Y-84469227D01*
X176170823Y-84498180D01*
X176145553Y-84528582D01*
X176121674Y-84560382D01*
X176099221Y-84593529D01*
X176078226Y-84627972D01*
X176058721Y-84663660D01*
X176040740Y-84700542D01*
X176024315Y-84738568D01*
X176009480Y-84777686D01*
X175996267Y-84817846D01*
X175984709Y-84858997D01*
X175974840Y-84901089D01*
X175966690Y-84944069D01*
X175960295Y-84987888D01*
X175955686Y-85032495D01*
X175952897Y-85077838D01*
X175951960Y-85123867D01*
X175745331Y-85123867D01*
X175744246Y-85078136D01*
X175741022Y-85033053D01*
X175735701Y-84988670D01*
X175728325Y-84945042D01*
X175718937Y-84902219D01*
X175707580Y-84860255D01*
X175694298Y-84819203D01*
X175679132Y-84779115D01*
X175662125Y-84740044D01*
X175643321Y-84702043D01*
X175622762Y-84665164D01*
X175600491Y-84629460D01*
X175576551Y-84594984D01*
X175550983Y-84561789D01*
X175523832Y-84529927D01*
X175495141Y-84499450D01*
X175464950Y-84470413D01*
X175433305Y-84442867D01*
X175400247Y-84416865D01*
X175365819Y-84392460D01*
X175330064Y-84369704D01*
X175293024Y-84348650D01*
X175254744Y-84329352D01*
X175215264Y-84311861D01*
X175174629Y-84296230D01*
X175132880Y-84282513D01*
X175090062Y-84270761D01*
X175046215Y-84261028D01*
X175001384Y-84253366D01*
X174955611Y-84247828D01*
X174908939Y-84244466D01*
X174861410Y-84243334D01*
X174813584Y-84244466D01*
X174766652Y-84247828D01*
X174720654Y-84253366D01*
X174675633Y-84261028D01*
X174631629Y-84270761D01*
X174608099Y-84277200D01*
X174588683Y-84282513D01*
X174546836Y-84296230D01*
X174506128Y-84311861D01*
X174466601Y-84329352D01*
X174428296Y-84348650D01*
X174391253Y-84369704D01*
X174355514Y-84392460D01*
X174321119Y-84416865D01*
X174288110Y-84442867D01*
X174256527Y-84470413D01*
X174226411Y-84499450D01*
X174197803Y-84529927D01*
X174170744Y-84561789D01*
X174145275Y-84594984D01*
X174121437Y-84629460D01*
X174099271Y-84665164D01*
X174078818Y-84702043D01*
X174060118Y-84740044D01*
X174043213Y-84779115D01*
X174028144Y-84819203D01*
X174014951Y-84860255D01*
X174003675Y-84902219D01*
X173994358Y-84945042D01*
X173987040Y-84988670D01*
X173981762Y-85033053D01*
X173978565Y-85078136D01*
X173977491Y-85123867D01*
X173670616Y-85123867D01*
X173670616Y-84277200D01*
X173149071Y-84277200D01*
X171851977Y-86045040D01*
X171851977Y-84277200D01*
X171340590Y-84277200D01*
X171340590Y-86817200D01*
X166725664Y-86817200D01*
X166725664Y-85123867D01*
X167766408Y-85123867D01*
X167767483Y-85169896D01*
X167770680Y-85215239D01*
X167775958Y-85259846D01*
X167783276Y-85303664D01*
X167792593Y-85346645D01*
X167803868Y-85388736D01*
X167817061Y-85429887D01*
X167832131Y-85470048D01*
X167849036Y-85509166D01*
X167867735Y-85547192D01*
X167888189Y-85584074D01*
X167910355Y-85619762D01*
X167934193Y-85654205D01*
X167959662Y-85687352D01*
X167986720Y-85719151D01*
X168015328Y-85749554D01*
X168045444Y-85778507D01*
X168077027Y-85805961D01*
X168110037Y-85831865D01*
X168144432Y-85856167D01*
X168180171Y-85878818D01*
X168217213Y-85899766D01*
X168255519Y-85918960D01*
X168295045Y-85936349D01*
X168335753Y-85951883D01*
X168377600Y-85965511D01*
X168420546Y-85977182D01*
X168464550Y-85986845D01*
X168509571Y-85994449D01*
X168555568Y-85999944D01*
X168602501Y-86003277D01*
X168650327Y-86004400D01*
X168697856Y-86003277D01*
X168744528Y-85999944D01*
X168790301Y-85994449D01*
X168835132Y-85986845D01*
X168878979Y-85977182D01*
X168903369Y-85970534D01*
X169839069Y-85970534D01*
X170282722Y-85970534D01*
X170309815Y-85709760D01*
X170332072Y-85742649D01*
X170355628Y-85773955D01*
X170380434Y-85803604D01*
X170406441Y-85831521D01*
X170433599Y-85857633D01*
X170461858Y-85881865D01*
X170491169Y-85904142D01*
X170521482Y-85924390D01*
X170552748Y-85942535D01*
X170584916Y-85958501D01*
X170617938Y-85972216D01*
X170651763Y-85983604D01*
X170686343Y-85992591D01*
X170721626Y-85999102D01*
X170757565Y-86003063D01*
X170794109Y-86004400D01*
X170829965Y-86003844D01*
X170863946Y-86002171D01*
X170896161Y-85999377D01*
X170926719Y-85995457D01*
X170955729Y-85990406D01*
X170983300Y-85984219D01*
X171009542Y-85976891D01*
X171034563Y-85968417D01*
X171058473Y-85958792D01*
X171081381Y-85948011D01*
X171103396Y-85936069D01*
X171124627Y-85922962D01*
X171145184Y-85908683D01*
X171165174Y-85893229D01*
X171184709Y-85876594D01*
X171203896Y-85858774D01*
X170997309Y-85496400D01*
X170978180Y-85509471D01*
X170956034Y-85522859D01*
X170943681Y-85529473D01*
X170930396Y-85535929D01*
X170916118Y-85542147D01*
X170900789Y-85548047D01*
X170884348Y-85553550D01*
X170866737Y-85558577D01*
X170847895Y-85563049D01*
X170827764Y-85566885D01*
X170806283Y-85570007D01*
X170783393Y-85572336D01*
X170759035Y-85573791D01*
X170733149Y-85574294D01*
X170714124Y-85573799D01*
X170695175Y-85572323D01*
X170676334Y-85569876D01*
X170657637Y-85566469D01*
X170639118Y-85562111D01*
X170620813Y-85556814D01*
X170602756Y-85550588D01*
X170584982Y-85543443D01*
X170567526Y-85535391D01*
X170550421Y-85526441D01*
X170533704Y-85516605D01*
X170517408Y-85505892D01*
X170501568Y-85494314D01*
X170486220Y-85481880D01*
X170471398Y-85468602D01*
X170457136Y-85454490D01*
X170443469Y-85439555D01*
X170430433Y-85423806D01*
X170418061Y-85407255D01*
X170406389Y-85389912D01*
X170395451Y-85371788D01*
X170385282Y-85352893D01*
X170375916Y-85333237D01*
X170367389Y-85312832D01*
X170359735Y-85291688D01*
X170352989Y-85269815D01*
X170347186Y-85247224D01*
X170342360Y-85223926D01*
X170338546Y-85199930D01*
X170335778Y-85175248D01*
X170334092Y-85149890D01*
X170333523Y-85123867D01*
X170333523Y-84277200D01*
X169839069Y-84277200D01*
X169839069Y-85970534D01*
X168903369Y-85970534D01*
X168921798Y-85965511D01*
X168963546Y-85951883D01*
X169004181Y-85936349D01*
X169043661Y-85918960D01*
X169081942Y-85899766D01*
X169118981Y-85878818D01*
X169154736Y-85856167D01*
X169189164Y-85831865D01*
X169222222Y-85805961D01*
X169253868Y-85778507D01*
X169284058Y-85749554D01*
X169312750Y-85719151D01*
X169339901Y-85687352D01*
X169365468Y-85654205D01*
X169389409Y-85619762D01*
X169411680Y-85584074D01*
X169432239Y-85547192D01*
X169451043Y-85509166D01*
X169468049Y-85470048D01*
X169483215Y-85429887D01*
X169496498Y-85388736D01*
X169507854Y-85346645D01*
X169517242Y-85303664D01*
X169524618Y-85259846D01*
X169529940Y-85215239D01*
X169533164Y-85169896D01*
X169534248Y-85123867D01*
X169533164Y-85078136D01*
X169529940Y-85033053D01*
X169524618Y-84988670D01*
X169517242Y-84945042D01*
X169507854Y-84902219D01*
X169496498Y-84860255D01*
X169483215Y-84819203D01*
X169468049Y-84779115D01*
X169451043Y-84740044D01*
X169432239Y-84702043D01*
X169411680Y-84665164D01*
X169389409Y-84629460D01*
X169365468Y-84594984D01*
X169339901Y-84561789D01*
X169312750Y-84529927D01*
X169284058Y-84499450D01*
X169253868Y-84470413D01*
X169222222Y-84442867D01*
X169189164Y-84416865D01*
X169154736Y-84392460D01*
X169118981Y-84369704D01*
X169081942Y-84348650D01*
X169043661Y-84329352D01*
X169004181Y-84311861D01*
X168963546Y-84296230D01*
X168921798Y-84282513D01*
X168878979Y-84270761D01*
X168835132Y-84261028D01*
X168790301Y-84253366D01*
X168744528Y-84247828D01*
X168697856Y-84244466D01*
X168650327Y-84243334D01*
X168602501Y-84244466D01*
X168555568Y-84247828D01*
X168509571Y-84253366D01*
X168464550Y-84261028D01*
X168420546Y-84270761D01*
X168397016Y-84277200D01*
X168377600Y-84282513D01*
X168335753Y-84296230D01*
X168295045Y-84311861D01*
X168255519Y-84329352D01*
X168217213Y-84348650D01*
X168180171Y-84369704D01*
X168144432Y-84392460D01*
X168110037Y-84416865D01*
X168077027Y-84442867D01*
X168045444Y-84470413D01*
X168015328Y-84499450D01*
X167986720Y-84529927D01*
X167959662Y-84561789D01*
X167934193Y-84594984D01*
X167910355Y-84629460D01*
X167888189Y-84665164D01*
X167867735Y-84702043D01*
X167849036Y-84740044D01*
X167832131Y-84779115D01*
X167817061Y-84819203D01*
X167803868Y-84860255D01*
X167792593Y-84902219D01*
X167783276Y-84945042D01*
X167775958Y-84988670D01*
X167770680Y-85033053D01*
X167767483Y-85078136D01*
X167766408Y-85123867D01*
X166725664Y-85123867D01*
X166725664Y-84724240D01*
X167582491Y-84724240D01*
X167582491Y-84277200D01*
X166214278Y-84277200D01*
X165468682Y-84277200D01*
X165468682Y-83430533D01*
X180497014Y-83430533D01*
X180497014Y-87452200D01*
X165468682Y-87452200D01*
G37*
X165468682Y-87452200D02*
X165468682Y-84277200D01*
X166214278Y-84277200D01*
X166214278Y-86817200D01*
X166725664Y-86817200D01*
X171340590Y-86817200D01*
X171862137Y-86817200D01*
X173162617Y-85052747D01*
X173162617Y-86817200D01*
X173670616Y-86817200D01*
X173670616Y-85123867D01*
X173977491Y-85123867D01*
X173978565Y-85169896D01*
X173981762Y-85215239D01*
X173987040Y-85259846D01*
X173994358Y-85303664D01*
X174003675Y-85346645D01*
X174014951Y-85388736D01*
X174028144Y-85429887D01*
X174043213Y-85470048D01*
X174060118Y-85509166D01*
X174078818Y-85547192D01*
X174099271Y-85584074D01*
X174121437Y-85619762D01*
X174145275Y-85654205D01*
X174170744Y-85687352D01*
X174197803Y-85719151D01*
X174226411Y-85749554D01*
X174256527Y-85778507D01*
X174288110Y-85805961D01*
X174321119Y-85831865D01*
X174355514Y-85856167D01*
X174391253Y-85878818D01*
X174428296Y-85899766D01*
X174466601Y-85918960D01*
X174506128Y-85936349D01*
X174546836Y-85951883D01*
X174588683Y-85965511D01*
X174631629Y-85977182D01*
X174675633Y-85986845D01*
X174720654Y-85994449D01*
X174766652Y-85999944D01*
X174813584Y-86003277D01*
X174861410Y-86004400D01*
X174908939Y-86003277D01*
X174955611Y-85999944D01*
X175001384Y-85994449D01*
X175046215Y-85986845D01*
X175090062Y-85977182D01*
X175132880Y-85965511D01*
X175174629Y-85951883D01*
X175215264Y-85936349D01*
X175254744Y-85918960D01*
X175293024Y-85899766D01*
X175330064Y-85878818D01*
X175365819Y-85856167D01*
X175400247Y-85831865D01*
X175433305Y-85805961D01*
X175464950Y-85778507D01*
X175495141Y-85749554D01*
X175523832Y-85719151D01*
X175550983Y-85687352D01*
X175576551Y-85654205D01*
X175600491Y-85619762D01*
X175622762Y-85584074D01*
X175643321Y-85547192D01*
X175662125Y-85509166D01*
X175679132Y-85470048D01*
X175694298Y-85429887D01*
X175707580Y-85388736D01*
X175718937Y-85346645D01*
X175728325Y-85303664D01*
X175735701Y-85259846D01*
X175741022Y-85215239D01*
X175744246Y-85169896D01*
X175745331Y-85123867D01*
X175951960Y-85123867D01*
X175952897Y-85169896D01*
X175955686Y-85215239D01*
X175960295Y-85259846D01*
X175966690Y-85303664D01*
X175974840Y-85346645D01*
X175984709Y-85388736D01*
X175996267Y-85429887D01*
X176009480Y-85470048D01*
X176024315Y-85509166D01*
X176040740Y-85547192D01*
X176058721Y-85584074D01*
X176078226Y-85619762D01*
X176099221Y-85654205D01*
X176121674Y-85687352D01*
X176145553Y-85719151D01*
X176170823Y-85749554D01*
X176197453Y-85778507D01*
X176225409Y-85805961D01*
X176254659Y-85831865D01*
X176285170Y-85856167D01*
X176316908Y-85878818D01*
X176349841Y-85899766D01*
X176383937Y-85918960D01*
X176419161Y-85936349D01*
X176455482Y-85951883D01*
X176492867Y-85965511D01*
X176531282Y-85977182D01*
X176570695Y-85986845D01*
X176611072Y-85994449D01*
X176652382Y-85999944D01*
X176694591Y-86003277D01*
X176737667Y-86004400D01*
X176772233Y-86003611D01*
X176806075Y-86001265D01*
X176839182Y-85997390D01*
X176871546Y-85992018D01*
X176903155Y-85985177D01*
X176934001Y-85976897D01*
X176964072Y-85967208D01*
X176993360Y-85956140D01*
X177021854Y-85943723D01*
X177049544Y-85929986D01*
X177076421Y-85914959D01*
X177102474Y-85898673D01*
X177127694Y-85881156D01*
X177152070Y-85862438D01*
X177175593Y-85842550D01*
X177198253Y-85821520D01*
X177198253Y-86817200D01*
X177685933Y-86817200D01*
X177685933Y-85123867D01*
X177992554Y-85123867D01*
X177993474Y-85170502D01*
X177996223Y-85216393D01*
X178000786Y-85261494D01*
X178007145Y-85305755D01*
X178015286Y-85349128D01*
X178025192Y-85391564D01*
X178036846Y-85433016D01*
X178050233Y-85473434D01*
X178065336Y-85512772D01*
X178082140Y-85550979D01*
X178100628Y-85588008D01*
X178120784Y-85623810D01*
X178142592Y-85658338D01*
X178166036Y-85691542D01*
X178191099Y-85723375D01*
X178217767Y-85753787D01*
X178246022Y-85782731D01*
X178275848Y-85810158D01*
X178307229Y-85836020D01*
X178340150Y-85860269D01*
X178374593Y-85882855D01*
X178410544Y-85903731D01*
X178447985Y-85922849D01*
X178486901Y-85940160D01*
X178527275Y-85955615D01*
X178569092Y-85969166D01*
X178612335Y-85980766D01*
X178656988Y-85990364D01*
X178703036Y-85997914D01*
X178750461Y-86003367D01*
X178799248Y-86006674D01*
X178849380Y-86007787D01*
X178894859Y-86006780D01*
X178939205Y-86003777D01*
X178982400Y-85998807D01*
X179024422Y-85991899D01*
X179065251Y-85983081D01*
X179104866Y-85972381D01*
X179143247Y-85959828D01*
X179180374Y-85945451D01*
X179216226Y-85929278D01*
X179250782Y-85911338D01*
X179284022Y-85891659D01*
X179315926Y-85870270D01*
X179346474Y-85847199D01*
X179375644Y-85822475D01*
X179403416Y-85796126D01*
X179429770Y-85768181D01*
X179454685Y-85738668D01*
X179478142Y-85707616D01*
X179500118Y-85675053D01*
X179520595Y-85641009D01*
X179539551Y-85605510D01*
X179556966Y-85568587D01*
X179572820Y-85530267D01*
X179587091Y-85490580D01*
X179599761Y-85449553D01*
X179610807Y-85407215D01*
X179620210Y-85363594D01*
X179627950Y-85318720D01*
X179634005Y-85272620D01*
X179638355Y-85225323D01*
X179640980Y-85176859D01*
X179641860Y-85127254D01*
X179641701Y-85109467D01*
X179641225Y-85091641D01*
X179640431Y-85073735D01*
X179639320Y-85055710D01*
X179637891Y-85037527D01*
X179636145Y-85019145D01*
X179634081Y-85000525D01*
X179631700Y-84981627D01*
X178483620Y-84981627D01*
X178489701Y-84940760D01*
X178497821Y-84902027D01*
X178508035Y-84865496D01*
X178513944Y-84848079D01*
X178520397Y-84831238D01*
X178527401Y-84814982D01*
X178534962Y-84799321D01*
X178543087Y-84784262D01*
X178551783Y-84769815D01*
X178561058Y-84755987D01*
X178570917Y-84742789D01*
X178581368Y-84730228D01*
X178592417Y-84718313D01*
X178604071Y-84707054D01*
X178616337Y-84696457D01*
X178629223Y-84686533D01*
X178642734Y-84677290D01*
X178656877Y-84668736D01*
X178671660Y-84660881D01*
X178687089Y-84653732D01*
X178703171Y-84647299D01*
X178719913Y-84641591D01*
X178737322Y-84636615D01*
X178755403Y-84632381D01*
X178774166Y-84628897D01*
X178793615Y-84626173D01*
X178813758Y-84624216D01*
X178834602Y-84623035D01*
X178856153Y-84622640D01*
X178886610Y-84623330D01*
X178915817Y-84625458D01*
X178943873Y-84629114D01*
X178970877Y-84634388D01*
X178984015Y-84637659D01*
X178996928Y-84641368D01*
X179009628Y-84645526D01*
X179022126Y-84650144D01*
X179034437Y-84655233D01*
X179046571Y-84660805D01*
X179058541Y-84666870D01*
X179070360Y-84673440D01*
X179082040Y-84680526D01*
X179093594Y-84688139D01*
X179105033Y-84696291D01*
X179116371Y-84704992D01*
X179127619Y-84714253D01*
X179138791Y-84724086D01*
X179160953Y-84745513D01*
X179182957Y-84769360D01*
X179204901Y-84795717D01*
X179226884Y-84824674D01*
X179249007Y-84856320D01*
X179597833Y-84683600D01*
X179572689Y-84634008D01*
X179544315Y-84586895D01*
X179512815Y-84542363D01*
X179478294Y-84500509D01*
X179440857Y-84461433D01*
X179400606Y-84425235D01*
X179357647Y-84392013D01*
X179312083Y-84361867D01*
X179264019Y-84334896D01*
X179213559Y-84311200D01*
X179160807Y-84290876D01*
X179105867Y-84274026D01*
X179048844Y-84260747D01*
X178989841Y-84251139D01*
X178928963Y-84245302D01*
X178866313Y-84243334D01*
X178811663Y-84244428D01*
X178758832Y-84247679D01*
X178707816Y-84253042D01*
X178658609Y-84260472D01*
X178611205Y-84269924D01*
X178582168Y-84277200D01*
X178565599Y-84281352D01*
X178521785Y-84294711D01*
X178479757Y-84309956D01*
X178439510Y-84327041D01*
X178401039Y-84345922D01*
X178364338Y-84366552D01*
X178329401Y-84388888D01*
X178296222Y-84412882D01*
X178264797Y-84438491D01*
X178235119Y-84465669D01*
X178207183Y-84494370D01*
X178180984Y-84524550D01*
X178156515Y-84556163D01*
X178133771Y-84589164D01*
X178112747Y-84623507D01*
X178093437Y-84659147D01*
X178075835Y-84696040D01*
X178059936Y-84734139D01*
X178045735Y-84773400D01*
X178033225Y-84813777D01*
X178022401Y-84855225D01*
X178013258Y-84897698D01*
X178005789Y-84941152D01*
X177995855Y-85030820D01*
X177992554Y-85123867D01*
X177685933Y-85123867D01*
X177685933Y-84277200D01*
X177249053Y-84273814D01*
X177221960Y-84449920D01*
X177198587Y-84426392D01*
X177174203Y-84404095D01*
X177148826Y-84383067D01*
X177122477Y-84363349D01*
X177095175Y-84344980D01*
X177066940Y-84328001D01*
X177037793Y-84312450D01*
X177007753Y-84298367D01*
X176976840Y-84285793D01*
X176945073Y-84274766D01*
X176912473Y-84265327D01*
X176879060Y-84257516D01*
X176844852Y-84251371D01*
X176809871Y-84246932D01*
X176774136Y-84244240D01*
X176737667Y-84243334D01*
X176694591Y-84244457D01*
X176652382Y-84247791D01*
X176611072Y-84253285D01*
X176570695Y-84260889D01*
X176531282Y-84270552D01*
X176492867Y-84282223D01*
X176455482Y-84295851D01*
X176419161Y-84311385D01*
X176383937Y-84328774D01*
X176349841Y-84347968D01*
X176316908Y-84368916D01*
X176285170Y-84391567D01*
X176254659Y-84415869D01*
X176225409Y-84441773D01*
X176197453Y-84469227D01*
X176170823Y-84498180D01*
X176145553Y-84528582D01*
X176121674Y-84560382D01*
X176099221Y-84593529D01*
X176078226Y-84627972D01*
X176058721Y-84663660D01*
X176040740Y-84700542D01*
X176024315Y-84738568D01*
X176009480Y-84777686D01*
X175996267Y-84817846D01*
X175984709Y-84858997D01*
X175974840Y-84901089D01*
X175966690Y-84944069D01*
X175960295Y-84987888D01*
X175955686Y-85032495D01*
X175952897Y-85077838D01*
X175951960Y-85123867D01*
X175745331Y-85123867D01*
X175744246Y-85078136D01*
X175741022Y-85033053D01*
X175735701Y-84988670D01*
X175728325Y-84945042D01*
X175718937Y-84902219D01*
X175707580Y-84860255D01*
X175694298Y-84819203D01*
X175679132Y-84779115D01*
X175662125Y-84740044D01*
X175643321Y-84702043D01*
X175622762Y-84665164D01*
X175600491Y-84629460D01*
X175576551Y-84594984D01*
X175550983Y-84561789D01*
X175523832Y-84529927D01*
X175495141Y-84499450D01*
X175464950Y-84470413D01*
X175433305Y-84442867D01*
X175400247Y-84416865D01*
X175365819Y-84392460D01*
X175330064Y-84369704D01*
X175293024Y-84348650D01*
X175254744Y-84329352D01*
X175215264Y-84311861D01*
X175174629Y-84296230D01*
X175132880Y-84282513D01*
X175090062Y-84270761D01*
X175046215Y-84261028D01*
X175001384Y-84253366D01*
X174955611Y-84247828D01*
X174908939Y-84244466D01*
X174861410Y-84243334D01*
X174813584Y-84244466D01*
X174766652Y-84247828D01*
X174720654Y-84253366D01*
X174675633Y-84261028D01*
X174631629Y-84270761D01*
X174608099Y-84277200D01*
X174588683Y-84282513D01*
X174546836Y-84296230D01*
X174506128Y-84311861D01*
X174466601Y-84329352D01*
X174428296Y-84348650D01*
X174391253Y-84369704D01*
X174355514Y-84392460D01*
X174321119Y-84416865D01*
X174288110Y-84442867D01*
X174256527Y-84470413D01*
X174226411Y-84499450D01*
X174197803Y-84529927D01*
X174170744Y-84561789D01*
X174145275Y-84594984D01*
X174121437Y-84629460D01*
X174099271Y-84665164D01*
X174078818Y-84702043D01*
X174060118Y-84740044D01*
X174043213Y-84779115D01*
X174028144Y-84819203D01*
X174014951Y-84860255D01*
X174003675Y-84902219D01*
X173994358Y-84945042D01*
X173987040Y-84988670D01*
X173981762Y-85033053D01*
X173978565Y-85078136D01*
X173977491Y-85123867D01*
X173670616Y-85123867D01*
X173670616Y-84277200D01*
X173149071Y-84277200D01*
X171851977Y-86045040D01*
X171851977Y-84277200D01*
X171340590Y-84277200D01*
X171340590Y-86817200D01*
X166725664Y-86817200D01*
X166725664Y-85123867D01*
X167766408Y-85123867D01*
X167767483Y-85169896D01*
X167770680Y-85215239D01*
X167775958Y-85259846D01*
X167783276Y-85303664D01*
X167792593Y-85346645D01*
X167803868Y-85388736D01*
X167817061Y-85429887D01*
X167832131Y-85470048D01*
X167849036Y-85509166D01*
X167867735Y-85547192D01*
X167888189Y-85584074D01*
X167910355Y-85619762D01*
X167934193Y-85654205D01*
X167959662Y-85687352D01*
X167986720Y-85719151D01*
X168015328Y-85749554D01*
X168045444Y-85778507D01*
X168077027Y-85805961D01*
X168110037Y-85831865D01*
X168144432Y-85856167D01*
X168180171Y-85878818D01*
X168217213Y-85899766D01*
X168255519Y-85918960D01*
X168295045Y-85936349D01*
X168335753Y-85951883D01*
X168377600Y-85965511D01*
X168420546Y-85977182D01*
X168464550Y-85986845D01*
X168509571Y-85994449D01*
X168555568Y-85999944D01*
X168602501Y-86003277D01*
X168650327Y-86004400D01*
X168697856Y-86003277D01*
X168744528Y-85999944D01*
X168790301Y-85994449D01*
X168835132Y-85986845D01*
X168878979Y-85977182D01*
X168903369Y-85970534D01*
X169839069Y-85970534D01*
X170282722Y-85970534D01*
X170309815Y-85709760D01*
X170332072Y-85742649D01*
X170355628Y-85773955D01*
X170380434Y-85803604D01*
X170406441Y-85831521D01*
X170433599Y-85857633D01*
X170461858Y-85881865D01*
X170491169Y-85904142D01*
X170521482Y-85924390D01*
X170552748Y-85942535D01*
X170584916Y-85958501D01*
X170617938Y-85972216D01*
X170651763Y-85983604D01*
X170686343Y-85992591D01*
X170721626Y-85999102D01*
X170757565Y-86003063D01*
X170794109Y-86004400D01*
X170829965Y-86003844D01*
X170863946Y-86002171D01*
X170896161Y-85999377D01*
X170926719Y-85995457D01*
X170955729Y-85990406D01*
X170983300Y-85984219D01*
X171009542Y-85976891D01*
X171034563Y-85968417D01*
X171058473Y-85958792D01*
X171081381Y-85948011D01*
X171103396Y-85936069D01*
X171124627Y-85922962D01*
X171145184Y-85908683D01*
X171165174Y-85893229D01*
X171184709Y-85876594D01*
X171203896Y-85858774D01*
X170997309Y-85496400D01*
X170978180Y-85509471D01*
X170956034Y-85522859D01*
X170943681Y-85529473D01*
X170930396Y-85535929D01*
X170916118Y-85542147D01*
X170900789Y-85548047D01*
X170884348Y-85553550D01*
X170866737Y-85558577D01*
X170847895Y-85563049D01*
X170827764Y-85566885D01*
X170806283Y-85570007D01*
X170783393Y-85572336D01*
X170759035Y-85573791D01*
X170733149Y-85574294D01*
X170714124Y-85573799D01*
X170695175Y-85572323D01*
X170676334Y-85569876D01*
X170657637Y-85566469D01*
X170639118Y-85562111D01*
X170620813Y-85556814D01*
X170602756Y-85550588D01*
X170584982Y-85543443D01*
X170567526Y-85535391D01*
X170550421Y-85526441D01*
X170533704Y-85516605D01*
X170517408Y-85505892D01*
X170501568Y-85494314D01*
X170486220Y-85481880D01*
X170471398Y-85468602D01*
X170457136Y-85454490D01*
X170443469Y-85439555D01*
X170430433Y-85423806D01*
X170418061Y-85407255D01*
X170406389Y-85389912D01*
X170395451Y-85371788D01*
X170385282Y-85352893D01*
X170375916Y-85333237D01*
X170367389Y-85312832D01*
X170359735Y-85291688D01*
X170352989Y-85269815D01*
X170347186Y-85247224D01*
X170342360Y-85223926D01*
X170338546Y-85199930D01*
X170335778Y-85175248D01*
X170334092Y-85149890D01*
X170333523Y-85123867D01*
X170333523Y-84277200D01*
X169839069Y-84277200D01*
X169839069Y-85970534D01*
X168903369Y-85970534D01*
X168921798Y-85965511D01*
X168963546Y-85951883D01*
X169004181Y-85936349D01*
X169043661Y-85918960D01*
X169081942Y-85899766D01*
X169118981Y-85878818D01*
X169154736Y-85856167D01*
X169189164Y-85831865D01*
X169222222Y-85805961D01*
X169253868Y-85778507D01*
X169284058Y-85749554D01*
X169312750Y-85719151D01*
X169339901Y-85687352D01*
X169365468Y-85654205D01*
X169389409Y-85619762D01*
X169411680Y-85584074D01*
X169432239Y-85547192D01*
X169451043Y-85509166D01*
X169468049Y-85470048D01*
X169483215Y-85429887D01*
X169496498Y-85388736D01*
X169507854Y-85346645D01*
X169517242Y-85303664D01*
X169524618Y-85259846D01*
X169529940Y-85215239D01*
X169533164Y-85169896D01*
X169534248Y-85123867D01*
X169533164Y-85078136D01*
X169529940Y-85033053D01*
X169524618Y-84988670D01*
X169517242Y-84945042D01*
X169507854Y-84902219D01*
X169496498Y-84860255D01*
X169483215Y-84819203D01*
X169468049Y-84779115D01*
X169451043Y-84740044D01*
X169432239Y-84702043D01*
X169411680Y-84665164D01*
X169389409Y-84629460D01*
X169365468Y-84594984D01*
X169339901Y-84561789D01*
X169312750Y-84529927D01*
X169284058Y-84499450D01*
X169253868Y-84470413D01*
X169222222Y-84442867D01*
X169189164Y-84416865D01*
X169154736Y-84392460D01*
X169118981Y-84369704D01*
X169081942Y-84348650D01*
X169043661Y-84329352D01*
X169004181Y-84311861D01*
X168963546Y-84296230D01*
X168921798Y-84282513D01*
X168878979Y-84270761D01*
X168835132Y-84261028D01*
X168790301Y-84253366D01*
X168744528Y-84247828D01*
X168697856Y-84244466D01*
X168650327Y-84243334D01*
X168602501Y-84244466D01*
X168555568Y-84247828D01*
X168509571Y-84253366D01*
X168464550Y-84261028D01*
X168420546Y-84270761D01*
X168397016Y-84277200D01*
X168377600Y-84282513D01*
X168335753Y-84296230D01*
X168295045Y-84311861D01*
X168255519Y-84329352D01*
X168217213Y-84348650D01*
X168180171Y-84369704D01*
X168144432Y-84392460D01*
X168110037Y-84416865D01*
X168077027Y-84442867D01*
X168045444Y-84470413D01*
X168015328Y-84499450D01*
X167986720Y-84529927D01*
X167959662Y-84561789D01*
X167934193Y-84594984D01*
X167910355Y-84629460D01*
X167888189Y-84665164D01*
X167867735Y-84702043D01*
X167849036Y-84740044D01*
X167832131Y-84779115D01*
X167817061Y-84819203D01*
X167803868Y-84860255D01*
X167792593Y-84902219D01*
X167783276Y-84945042D01*
X167775958Y-84988670D01*
X167770680Y-85033053D01*
X167767483Y-85078136D01*
X167766408Y-85123867D01*
X166725664Y-85123867D01*
X166725664Y-84724240D01*
X167582491Y-84724240D01*
X167582491Y-84277200D01*
X166214278Y-84277200D01*
X165468682Y-84277200D01*
X165468682Y-83430533D01*
X180497014Y-83430533D01*
X180497014Y-87452200D01*
X165468682Y-87452200D01*
D11*
X162776838Y-94202468D02*
X163967714Y-92639932D01*
X167639330Y-93005955D02*
X167313651Y-92969685D01*
D10*
G36*
X179509305Y-89007233D02*
G01*
X179537206Y-89008883D01*
X179564233Y-89011614D01*
X179590387Y-89015411D01*
X179615668Y-89020261D01*
X179640076Y-89026147D01*
X179663611Y-89033055D01*
X179686272Y-89040970D01*
X179708061Y-89049877D01*
X179728976Y-89059762D01*
X179749018Y-89070609D01*
X179768187Y-89082404D01*
X179786483Y-89095131D01*
X179803906Y-89108776D01*
X179820456Y-89123324D01*
X179836132Y-89138760D01*
X179670185Y-89341960D01*
X179660578Y-89332156D01*
X179650798Y-89323056D01*
X179640829Y-89314650D01*
X179630657Y-89306929D01*
X179620266Y-89299883D01*
X179609642Y-89293502D01*
X179598770Y-89287775D01*
X179587636Y-89282693D01*
X179576223Y-89278247D01*
X179564518Y-89274425D01*
X179552505Y-89271219D01*
X179540169Y-89268618D01*
X179527497Y-89266612D01*
X179514472Y-89265191D01*
X179501080Y-89264346D01*
X179487306Y-89264067D01*
X179474448Y-89264315D01*
X179461913Y-89265058D01*
X179449707Y-89266296D01*
X179437835Y-89268029D01*
X179426303Y-89270255D01*
X179415117Y-89272974D01*
X179404281Y-89276186D01*
X179393802Y-89279889D01*
X179383685Y-89284083D01*
X179373936Y-89288768D01*
X179364560Y-89293943D01*
X179355563Y-89299607D01*
X179346950Y-89305760D01*
X179338728Y-89312400D01*
X179330901Y-89319529D01*
X179323476Y-89327143D01*
X179316457Y-89335245D01*
X179309850Y-89343831D01*
X179303662Y-89352903D01*
X179297897Y-89362459D01*
X179292561Y-89372498D01*
X179287660Y-89383021D01*
X179283199Y-89394026D01*
X179279184Y-89405513D01*
X179275621Y-89417481D01*
X179272514Y-89429930D01*
X179269871Y-89442859D01*
X179267695Y-89456267D01*
X179265993Y-89470154D01*
X179264770Y-89484519D01*
X179264033Y-89499361D01*
X179263786Y-89514680D01*
X179263786Y-90500200D01*
X179720986Y-90500200D01*
X179720986Y-90733880D01*
X179260399Y-90733880D01*
X179260399Y-91309613D01*
X178962372Y-91309613D01*
X178962372Y-90733880D01*
X178742239Y-90733880D01*
X178742239Y-90500200D01*
X178962372Y-90500200D01*
X178962372Y-89514680D01*
X178962965Y-89486704D01*
X178964731Y-89459304D01*
X178967654Y-89432500D01*
X178971718Y-89406313D01*
X178976906Y-89380764D01*
X178983201Y-89355873D01*
X178990585Y-89331660D01*
X178999043Y-89308146D01*
X179008558Y-89285352D01*
X179019113Y-89263297D01*
X179030691Y-89242003D01*
X179043275Y-89221489D01*
X179056849Y-89201776D01*
X179071396Y-89182885D01*
X179086899Y-89164836D01*
X179103342Y-89147650D01*
X179120708Y-89131347D01*
X179138979Y-89115947D01*
X179158140Y-89101472D01*
X179178173Y-89087940D01*
X179199062Y-89075374D01*
X179220790Y-89063793D01*
X179243340Y-89053218D01*
X179266696Y-89043669D01*
X179290840Y-89035167D01*
X179315757Y-89027732D01*
X179341429Y-89021385D01*
X179367839Y-89016146D01*
X179394972Y-89012035D01*
X179422809Y-89009074D01*
X179451335Y-89007282D01*
X179480532Y-89006680D01*
X179509305Y-89007233D01*
G37*
X179509305Y-89007233D02*
X179537206Y-89008883D01*
X179564233Y-89011614D01*
X179590387Y-89015411D01*
X179615668Y-89020261D01*
X179640076Y-89026147D01*
X179663611Y-89033055D01*
X179686272Y-89040970D01*
X179708061Y-89049877D01*
X179728976Y-89059762D01*
X179749018Y-89070609D01*
X179768187Y-89082404D01*
X179786483Y-89095131D01*
X179803906Y-89108776D01*
X179820456Y-89123324D01*
X179836132Y-89138760D01*
X179670185Y-89341960D01*
X179660578Y-89332156D01*
X179650798Y-89323056D01*
X179640829Y-89314650D01*
X179630657Y-89306929D01*
X179620266Y-89299883D01*
X179609642Y-89293502D01*
X179598770Y-89287775D01*
X179587636Y-89282693D01*
X179576223Y-89278247D01*
X179564518Y-89274425D01*
X179552505Y-89271219D01*
X179540169Y-89268618D01*
X179527497Y-89266612D01*
X179514472Y-89265191D01*
X179501080Y-89264346D01*
X179487306Y-89264067D01*
X179474448Y-89264315D01*
X179461913Y-89265058D01*
X179449707Y-89266296D01*
X179437835Y-89268029D01*
X179426303Y-89270255D01*
X179415117Y-89272974D01*
X179404281Y-89276186D01*
X179393802Y-89279889D01*
X179383685Y-89284083D01*
X179373936Y-89288768D01*
X179364560Y-89293943D01*
X179355563Y-89299607D01*
X179346950Y-89305760D01*
X179338728Y-89312400D01*
X179330901Y-89319529D01*
X179323476Y-89327143D01*
X179316457Y-89335245D01*
X179309850Y-89343831D01*
X179303662Y-89352903D01*
X179297897Y-89362459D01*
X179292561Y-89372498D01*
X179287660Y-89383021D01*
X179283199Y-89394026D01*
X179279184Y-89405513D01*
X179275621Y-89417481D01*
X179272514Y-89429930D01*
X179269871Y-89442859D01*
X179267695Y-89456267D01*
X179265993Y-89470154D01*
X179264770Y-89484519D01*
X179264033Y-89499361D01*
X179263786Y-89514680D01*
X179263786Y-90500200D01*
X179720986Y-90500200D01*
X179720986Y-90733880D01*
X179260399Y-90733880D01*
X179260399Y-91309613D01*
X178962372Y-91309613D01*
X178962372Y-90733880D01*
X178742239Y-90733880D01*
X178742239Y-90500200D01*
X178962372Y-90500200D01*
X178962372Y-89514680D01*
X178962965Y-89486704D01*
X178964731Y-89459304D01*
X178967654Y-89432500D01*
X178971718Y-89406313D01*
X178976906Y-89380764D01*
X178983201Y-89355873D01*
X178990585Y-89331660D01*
X178999043Y-89308146D01*
X179008558Y-89285352D01*
X179019113Y-89263297D01*
X179030691Y-89242003D01*
X179043275Y-89221489D01*
X179056849Y-89201776D01*
X179071396Y-89182885D01*
X179086899Y-89164836D01*
X179103342Y-89147650D01*
X179120708Y-89131347D01*
X179138979Y-89115947D01*
X179158140Y-89101472D01*
X179178173Y-89087940D01*
X179199062Y-89075374D01*
X179220790Y-89063793D01*
X179243340Y-89053218D01*
X179266696Y-89043669D01*
X179290840Y-89035167D01*
X179315757Y-89027732D01*
X179341429Y-89021385D01*
X179367839Y-89016146D01*
X179394972Y-89012035D01*
X179422809Y-89009074D01*
X179451335Y-89007282D01*
X179480532Y-89006680D01*
X179509305Y-89007233D01*
G36*
X171484592Y-90500200D02*
G01*
X171928245Y-90500200D01*
X171928245Y-90733880D01*
X171484592Y-90733880D01*
X171484592Y-91096253D01*
X171485651Y-91124373D01*
X171488779Y-91151505D01*
X171491095Y-91164665D01*
X171493901Y-91177536D01*
X171497187Y-91190103D01*
X171500943Y-91202351D01*
X171505161Y-91214268D01*
X171509831Y-91225837D01*
X171514943Y-91237046D01*
X171520489Y-91247879D01*
X171526459Y-91258324D01*
X171532844Y-91268364D01*
X171539635Y-91277986D01*
X171546822Y-91287177D01*
X171554396Y-91295920D01*
X171562347Y-91304203D01*
X171570667Y-91312011D01*
X171579346Y-91319330D01*
X171588374Y-91326145D01*
X171597743Y-91332443D01*
X171607443Y-91338208D01*
X171617465Y-91343427D01*
X171627800Y-91348086D01*
X171638438Y-91352169D01*
X171649370Y-91355664D01*
X171660586Y-91358555D01*
X171672078Y-91360828D01*
X171683835Y-91362470D01*
X171695850Y-91363465D01*
X171708112Y-91363800D01*
X171724498Y-91363290D01*
X171740616Y-91361783D01*
X171756436Y-91359313D01*
X171771929Y-91355915D01*
X171787065Y-91351625D01*
X171801814Y-91346476D01*
X171816146Y-91340504D01*
X171830032Y-91333743D01*
X171843441Y-91326228D01*
X171856345Y-91317994D01*
X171868712Y-91309075D01*
X171880514Y-91299506D01*
X171891721Y-91289322D01*
X171902303Y-91278558D01*
X171912229Y-91267248D01*
X171921472Y-91255427D01*
X172090804Y-91438307D01*
X172079316Y-91451922D01*
X172067716Y-91464841D01*
X172056012Y-91477080D01*
X172044211Y-91488657D01*
X172020349Y-91509893D01*
X171996189Y-91528688D01*
X171971792Y-91545182D01*
X171947215Y-91559512D01*
X171922520Y-91571819D01*
X171897764Y-91582240D01*
X171873009Y-91590915D01*
X171848314Y-91597983D01*
X171823737Y-91603582D01*
X171799340Y-91607852D01*
X171775180Y-91610931D01*
X171751318Y-91612958D01*
X171727813Y-91614073D01*
X171704725Y-91614413D01*
X171677902Y-91613773D01*
X171651429Y-91611873D01*
X171625339Y-91608740D01*
X171599666Y-91604405D01*
X171574441Y-91598898D01*
X171549698Y-91592245D01*
X171525470Y-91584478D01*
X171501789Y-91575625D01*
X171478689Y-91565716D01*
X171456203Y-91554779D01*
X171434362Y-91542843D01*
X171413200Y-91529939D01*
X171392751Y-91516094D01*
X171373046Y-91501338D01*
X171354118Y-91485700D01*
X171336001Y-91469210D01*
X171318728Y-91451896D01*
X171302331Y-91433788D01*
X171286843Y-91414915D01*
X171272296Y-91395305D01*
X171258725Y-91374989D01*
X171246161Y-91353995D01*
X171234638Y-91332352D01*
X171224189Y-91310090D01*
X171214845Y-91287237D01*
X171206641Y-91263823D01*
X171199609Y-91239877D01*
X171193781Y-91215428D01*
X171189192Y-91190506D01*
X171185873Y-91165138D01*
X171183857Y-91139356D01*
X171183178Y-91113187D01*
X171183178Y-90733880D01*
X170898698Y-90733880D01*
X170898698Y-90500200D01*
X171183178Y-90500200D01*
X171183178Y-89040547D01*
X171484592Y-89040547D01*
X171484592Y-90500200D01*
G37*
X171484592Y-90500200D02*
X171928245Y-90500200D01*
X171928245Y-90733880D01*
X171484592Y-90733880D01*
X171484592Y-91096253D01*
X171485651Y-91124373D01*
X171488779Y-91151505D01*
X171491095Y-91164665D01*
X171493901Y-91177536D01*
X171497187Y-91190103D01*
X171500943Y-91202351D01*
X171505161Y-91214268D01*
X171509831Y-91225837D01*
X171514943Y-91237046D01*
X171520489Y-91247879D01*
X171526459Y-91258324D01*
X171532844Y-91268364D01*
X171539635Y-91277986D01*
X171546822Y-91287177D01*
X171554396Y-91295920D01*
X171562347Y-91304203D01*
X171570667Y-91312011D01*
X171579346Y-91319330D01*
X171588374Y-91326145D01*
X171597743Y-91332443D01*
X171607443Y-91338208D01*
X171617465Y-91343427D01*
X171627800Y-91348086D01*
X171638438Y-91352169D01*
X171649370Y-91355664D01*
X171660586Y-91358555D01*
X171672078Y-91360828D01*
X171683835Y-91362470D01*
X171695850Y-91363465D01*
X171708112Y-91363800D01*
X171724498Y-91363290D01*
X171740616Y-91361783D01*
X171756436Y-91359313D01*
X171771929Y-91355915D01*
X171787065Y-91351625D01*
X171801814Y-91346476D01*
X171816146Y-91340504D01*
X171830032Y-91333743D01*
X171843441Y-91326228D01*
X171856345Y-91317994D01*
X171868712Y-91309075D01*
X171880514Y-91299506D01*
X171891721Y-91289322D01*
X171902303Y-91278558D01*
X171912229Y-91267248D01*
X171921472Y-91255427D01*
X172090804Y-91438307D01*
X172079316Y-91451922D01*
X172067716Y-91464841D01*
X172056012Y-91477080D01*
X172044211Y-91488657D01*
X172020349Y-91509893D01*
X171996189Y-91528688D01*
X171971792Y-91545182D01*
X171947215Y-91559512D01*
X171922520Y-91571819D01*
X171897764Y-91582240D01*
X171873009Y-91590915D01*
X171848314Y-91597983D01*
X171823737Y-91603582D01*
X171799340Y-91607852D01*
X171775180Y-91610931D01*
X171751318Y-91612958D01*
X171727813Y-91614073D01*
X171704725Y-91614413D01*
X171677902Y-91613773D01*
X171651429Y-91611873D01*
X171625339Y-91608740D01*
X171599666Y-91604405D01*
X171574441Y-91598898D01*
X171549698Y-91592245D01*
X171525470Y-91584478D01*
X171501789Y-91575625D01*
X171478689Y-91565716D01*
X171456203Y-91554779D01*
X171434362Y-91542843D01*
X171413200Y-91529939D01*
X171392751Y-91516094D01*
X171373046Y-91501338D01*
X171354118Y-91485700D01*
X171336001Y-91469210D01*
X171318728Y-91451896D01*
X171302331Y-91433788D01*
X171286843Y-91414915D01*
X171272296Y-91395305D01*
X171258725Y-91374989D01*
X171246161Y-91353995D01*
X171234638Y-91332352D01*
X171224189Y-91310090D01*
X171214845Y-91287237D01*
X171206641Y-91263823D01*
X171199609Y-91239877D01*
X171193781Y-91215428D01*
X171189192Y-91190506D01*
X171185873Y-91165138D01*
X171183857Y-91139356D01*
X171183178Y-91113187D01*
X171183178Y-90733880D01*
X170898698Y-90733880D01*
X170898698Y-90500200D01*
X171183178Y-90500200D01*
X171183178Y-89040547D01*
X171484592Y-89040547D01*
X171484592Y-90500200D01*
D11*
X164669842Y-90367685D02*
X164669691Y-90251558D01*
D10*
G36*
X183160336Y-91580547D02*
G01*
X183160336Y-90503587D01*
X183134862Y-90533342D01*
X183107995Y-90561610D01*
X183079768Y-90588329D01*
X183050216Y-90613442D01*
X183019375Y-90636887D01*
X182987279Y-90658606D01*
X182953962Y-90678539D01*
X182919459Y-90696627D01*
X182883806Y-90712809D01*
X182847036Y-90727027D01*
X182809185Y-90739221D01*
X182770287Y-90749332D01*
X182730377Y-90757299D01*
X182689490Y-90763064D01*
X182647660Y-90766566D01*
X182604923Y-90767747D01*
X182560675Y-90766614D01*
X182517482Y-90763253D01*
X182475367Y-90757715D01*
X182434352Y-90750053D01*
X182394462Y-90740319D01*
X182355717Y-90728568D01*
X182318143Y-90714850D01*
X182281761Y-90699220D01*
X182246594Y-90681729D01*
X182212665Y-90662430D01*
X182179998Y-90641377D01*
X182148616Y-90618621D01*
X182118540Y-90594216D01*
X182089795Y-90568214D01*
X182062402Y-90540668D01*
X182036386Y-90511630D01*
X182011769Y-90481154D01*
X181988573Y-90449292D01*
X181966823Y-90416096D01*
X181946540Y-90381620D01*
X181927748Y-90345917D01*
X181910470Y-90309038D01*
X181894728Y-90271037D01*
X181880546Y-90231966D01*
X181867947Y-90191878D01*
X181856953Y-90150825D01*
X181847588Y-90108861D01*
X181839873Y-90066039D01*
X181833834Y-90022410D01*
X181829491Y-89978028D01*
X181826869Y-89932944D01*
X181825989Y-89887213D01*
X182120629Y-89887213D01*
X182122954Y-89950504D01*
X182129863Y-90011905D01*
X182141257Y-90071113D01*
X182157036Y-90127826D01*
X182166539Y-90155151D01*
X182177101Y-90181740D01*
X182188710Y-90207554D01*
X182201354Y-90232554D01*
X182215019Y-90256704D01*
X182229694Y-90279965D01*
X182245366Y-90302300D01*
X182262023Y-90323670D01*
X182279652Y-90344038D01*
X182298241Y-90363367D01*
X182317777Y-90381617D01*
X182338249Y-90398752D01*
X182359644Y-90414734D01*
X182381948Y-90429524D01*
X182405151Y-90443085D01*
X182429239Y-90455380D01*
X182454201Y-90466369D01*
X182480023Y-90476016D01*
X182506693Y-90484283D01*
X182534199Y-90491131D01*
X182562529Y-90496524D01*
X182591670Y-90500422D01*
X182621610Y-90502789D01*
X182652336Y-90503587D01*
X182675064Y-90503054D01*
X182697518Y-90501472D01*
X182719680Y-90498860D01*
X182741534Y-90495239D01*
X182763062Y-90490631D01*
X182784250Y-90485058D01*
X182805079Y-90478539D01*
X182825532Y-90471096D01*
X182845594Y-90462750D01*
X182865247Y-90453523D01*
X182884475Y-90443434D01*
X182903260Y-90432506D01*
X182921587Y-90420760D01*
X182939438Y-90408216D01*
X182956796Y-90394896D01*
X182973646Y-90380820D01*
X182989970Y-90366010D01*
X183005751Y-90350487D01*
X183035618Y-90317386D01*
X183063114Y-90281686D01*
X183088105Y-90243554D01*
X183110456Y-90203161D01*
X183130034Y-90160674D01*
X183146706Y-90116262D01*
X183160336Y-90070093D01*
X183160336Y-89704333D01*
X183153909Y-89681050D01*
X183146706Y-89658203D01*
X183138742Y-89635813D01*
X183130034Y-89613899D01*
X183120600Y-89592481D01*
X183110456Y-89571579D01*
X183099619Y-89551212D01*
X183088105Y-89531402D01*
X183075931Y-89512167D01*
X183063114Y-89493527D01*
X183049671Y-89475502D01*
X183035618Y-89458112D01*
X183020972Y-89441377D01*
X183005751Y-89425317D01*
X182989970Y-89409951D01*
X182973646Y-89395300D01*
X182956796Y-89381383D01*
X182939438Y-89368220D01*
X182921587Y-89355831D01*
X182903260Y-89344236D01*
X182884475Y-89333454D01*
X182865247Y-89323505D01*
X182845594Y-89314410D01*
X182825532Y-89306188D01*
X182805079Y-89298860D01*
X182784250Y-89292443D01*
X182763062Y-89286960D01*
X182741534Y-89282429D01*
X182719680Y-89278870D01*
X182697518Y-89276304D01*
X182675064Y-89274749D01*
X182652336Y-89274227D01*
X182621610Y-89275014D01*
X182591670Y-89277353D01*
X182562529Y-89281206D01*
X182534199Y-89286537D01*
X182506693Y-89293308D01*
X182480023Y-89301485D01*
X182454201Y-89311029D01*
X182429239Y-89321905D01*
X182405151Y-89334075D01*
X182381948Y-89347504D01*
X182359644Y-89362154D01*
X182338249Y-89377990D01*
X182317777Y-89394974D01*
X182298241Y-89413069D01*
X182279652Y-89432240D01*
X182262023Y-89452450D01*
X182245366Y-89473662D01*
X182229694Y-89495839D01*
X182215019Y-89518946D01*
X182201354Y-89542944D01*
X182188710Y-89567799D01*
X182177101Y-89593472D01*
X182166539Y-89619928D01*
X182157036Y-89647131D01*
X182148604Y-89675042D01*
X182141257Y-89703627D01*
X182135006Y-89732847D01*
X182129863Y-89762667D01*
X182125842Y-89793051D01*
X182122954Y-89823961D01*
X182121213Y-89855360D01*
X182120629Y-89887213D01*
X181825989Y-89887213D01*
X181826869Y-89841482D01*
X181829491Y-89796399D01*
X181833834Y-89752017D01*
X181839873Y-89708388D01*
X181847588Y-89665565D01*
X181856953Y-89623602D01*
X181867947Y-89582549D01*
X181880546Y-89542461D01*
X181894728Y-89503390D01*
X181910470Y-89465389D01*
X181927748Y-89428510D01*
X181946540Y-89392806D01*
X181966823Y-89358331D01*
X181988573Y-89325135D01*
X182011769Y-89293273D01*
X182036386Y-89262797D01*
X182062402Y-89233759D01*
X182089795Y-89206213D01*
X182118540Y-89180211D01*
X182148616Y-89155806D01*
X182179998Y-89133050D01*
X182212665Y-89111997D01*
X182246594Y-89092698D01*
X182281761Y-89075207D01*
X182318143Y-89059577D01*
X182355717Y-89045859D01*
X182394462Y-89034107D01*
X182434352Y-89024374D01*
X182475367Y-89016712D01*
X182517482Y-89011174D01*
X182560675Y-89007812D01*
X182604923Y-89006680D01*
X182648853Y-89007901D01*
X182691732Y-89011529D01*
X182733540Y-89017507D01*
X182774256Y-89025783D01*
X182813861Y-89036301D01*
X182852334Y-89049007D01*
X182889657Y-89063846D01*
X182925809Y-89080764D01*
X182960771Y-89099705D01*
X182994522Y-89120616D01*
X183027042Y-89143443D01*
X183058313Y-89168129D01*
X183088313Y-89194621D01*
X183117024Y-89222865D01*
X183144425Y-89252805D01*
X183170496Y-89284387D01*
X183184043Y-89040547D01*
X183451589Y-89040547D01*
X183451589Y-91580547D01*
X183160336Y-91580547D01*
G37*
X183160336Y-91580547D02*
X183160336Y-90503587D01*
X183134862Y-90533342D01*
X183107995Y-90561610D01*
X183079768Y-90588329D01*
X183050216Y-90613442D01*
X183019375Y-90636887D01*
X182987279Y-90658606D01*
X182953962Y-90678539D01*
X182919459Y-90696627D01*
X182883806Y-90712809D01*
X182847036Y-90727027D01*
X182809185Y-90739221D01*
X182770287Y-90749332D01*
X182730377Y-90757299D01*
X182689490Y-90763064D01*
X182647660Y-90766566D01*
X182604923Y-90767747D01*
X182560675Y-90766614D01*
X182517482Y-90763253D01*
X182475367Y-90757715D01*
X182434352Y-90750053D01*
X182394462Y-90740319D01*
X182355717Y-90728568D01*
X182318143Y-90714850D01*
X182281761Y-90699220D01*
X182246594Y-90681729D01*
X182212665Y-90662430D01*
X182179998Y-90641377D01*
X182148616Y-90618621D01*
X182118540Y-90594216D01*
X182089795Y-90568214D01*
X182062402Y-90540668D01*
X182036386Y-90511630D01*
X182011769Y-90481154D01*
X181988573Y-90449292D01*
X181966823Y-90416096D01*
X181946540Y-90381620D01*
X181927748Y-90345917D01*
X181910470Y-90309038D01*
X181894728Y-90271037D01*
X181880546Y-90231966D01*
X181867947Y-90191878D01*
X181856953Y-90150825D01*
X181847588Y-90108861D01*
X181839873Y-90066039D01*
X181833834Y-90022410D01*
X181829491Y-89978028D01*
X181826869Y-89932944D01*
X181825989Y-89887213D01*
X182120629Y-89887213D01*
X182122954Y-89950504D01*
X182129863Y-90011905D01*
X182141257Y-90071113D01*
X182157036Y-90127826D01*
X182166539Y-90155151D01*
X182177101Y-90181740D01*
X182188710Y-90207554D01*
X182201354Y-90232554D01*
X182215019Y-90256704D01*
X182229694Y-90279965D01*
X182245366Y-90302300D01*
X182262023Y-90323670D01*
X182279652Y-90344038D01*
X182298241Y-90363367D01*
X182317777Y-90381617D01*
X182338249Y-90398752D01*
X182359644Y-90414734D01*
X182381948Y-90429524D01*
X182405151Y-90443085D01*
X182429239Y-90455380D01*
X182454201Y-90466369D01*
X182480023Y-90476016D01*
X182506693Y-90484283D01*
X182534199Y-90491131D01*
X182562529Y-90496524D01*
X182591670Y-90500422D01*
X182621610Y-90502789D01*
X182652336Y-90503587D01*
X182675064Y-90503054D01*
X182697518Y-90501472D01*
X182719680Y-90498860D01*
X182741534Y-90495239D01*
X182763062Y-90490631D01*
X182784250Y-90485058D01*
X182805079Y-90478539D01*
X182825532Y-90471096D01*
X182845594Y-90462750D01*
X182865247Y-90453523D01*
X182884475Y-90443434D01*
X182903260Y-90432506D01*
X182921587Y-90420760D01*
X182939438Y-90408216D01*
X182956796Y-90394896D01*
X182973646Y-90380820D01*
X182989970Y-90366010D01*
X183005751Y-90350487D01*
X183035618Y-90317386D01*
X183063114Y-90281686D01*
X183088105Y-90243554D01*
X183110456Y-90203161D01*
X183130034Y-90160674D01*
X183146706Y-90116262D01*
X183160336Y-90070093D01*
X183160336Y-89704333D01*
X183153909Y-89681050D01*
X183146706Y-89658203D01*
X183138742Y-89635813D01*
X183130034Y-89613899D01*
X183120600Y-89592481D01*
X183110456Y-89571579D01*
X183099619Y-89551212D01*
X183088105Y-89531402D01*
X183075931Y-89512167D01*
X183063114Y-89493527D01*
X183049671Y-89475502D01*
X183035618Y-89458112D01*
X183020972Y-89441377D01*
X183005751Y-89425317D01*
X182989970Y-89409951D01*
X182973646Y-89395300D01*
X182956796Y-89381383D01*
X182939438Y-89368220D01*
X182921587Y-89355831D01*
X182903260Y-89344236D01*
X182884475Y-89333454D01*
X182865247Y-89323505D01*
X182845594Y-89314410D01*
X182825532Y-89306188D01*
X182805079Y-89298860D01*
X182784250Y-89292443D01*
X182763062Y-89286960D01*
X182741534Y-89282429D01*
X182719680Y-89278870D01*
X182697518Y-89276304D01*
X182675064Y-89274749D01*
X182652336Y-89274227D01*
X182621610Y-89275014D01*
X182591670Y-89277353D01*
X182562529Y-89281206D01*
X182534199Y-89286537D01*
X182506693Y-89293308D01*
X182480023Y-89301485D01*
X182454201Y-89311029D01*
X182429239Y-89321905D01*
X182405151Y-89334075D01*
X182381948Y-89347504D01*
X182359644Y-89362154D01*
X182338249Y-89377990D01*
X182317777Y-89394974D01*
X182298241Y-89413069D01*
X182279652Y-89432240D01*
X182262023Y-89452450D01*
X182245366Y-89473662D01*
X182229694Y-89495839D01*
X182215019Y-89518946D01*
X182201354Y-89542944D01*
X182188710Y-89567799D01*
X182177101Y-89593472D01*
X182166539Y-89619928D01*
X182157036Y-89647131D01*
X182148604Y-89675042D01*
X182141257Y-89703627D01*
X182135006Y-89732847D01*
X182129863Y-89762667D01*
X182125842Y-89793051D01*
X182122954Y-89823961D01*
X182121213Y-89855360D01*
X182120629Y-89887213D01*
X181825989Y-89887213D01*
X181826869Y-89841482D01*
X181829491Y-89796399D01*
X181833834Y-89752017D01*
X181839873Y-89708388D01*
X181847588Y-89665565D01*
X181856953Y-89623602D01*
X181867947Y-89582549D01*
X181880546Y-89542461D01*
X181894728Y-89503390D01*
X181910470Y-89465389D01*
X181927748Y-89428510D01*
X181946540Y-89392806D01*
X181966823Y-89358331D01*
X181988573Y-89325135D01*
X182011769Y-89293273D01*
X182036386Y-89262797D01*
X182062402Y-89233759D01*
X182089795Y-89206213D01*
X182118540Y-89180211D01*
X182148616Y-89155806D01*
X182179998Y-89133050D01*
X182212665Y-89111997D01*
X182246594Y-89092698D01*
X182281761Y-89075207D01*
X182318143Y-89059577D01*
X182355717Y-89045859D01*
X182394462Y-89034107D01*
X182434352Y-89024374D01*
X182475367Y-89016712D01*
X182517482Y-89011174D01*
X182560675Y-89007812D01*
X182604923Y-89006680D01*
X182648853Y-89007901D01*
X182691732Y-89011529D01*
X182733540Y-89017507D01*
X182774256Y-89025783D01*
X182813861Y-89036301D01*
X182852334Y-89049007D01*
X182889657Y-89063846D01*
X182925809Y-89080764D01*
X182960771Y-89099705D01*
X182994522Y-89120616D01*
X183027042Y-89143443D01*
X183058313Y-89168129D01*
X183088313Y-89194621D01*
X183117024Y-89222865D01*
X183144425Y-89252805D01*
X183170496Y-89284387D01*
X183184043Y-89040547D01*
X183451589Y-89040547D01*
X183451589Y-91580547D01*
X183160336Y-91580547D01*
D11*
X168295307Y-93040828D02*
X168194219Y-93041646D01*
X162402545Y-89370000D02*
X162776838Y-94202468D01*
D10*
G36*
X170469206Y-89007233D02*
G01*
X170496692Y-89008883D01*
X170523434Y-89011614D01*
X170549417Y-89015411D01*
X170574626Y-89020261D01*
X170599046Y-89026147D01*
X170622663Y-89033055D01*
X170645461Y-89040970D01*
X170667425Y-89049877D01*
X170688541Y-89059762D01*
X170708794Y-89070609D01*
X170728169Y-89082404D01*
X170746651Y-89095131D01*
X170764225Y-89108776D01*
X170780877Y-89123324D01*
X170796591Y-89138760D01*
X170630644Y-89341960D01*
X170621037Y-89332156D01*
X170611256Y-89323056D01*
X170601287Y-89314650D01*
X170591114Y-89306929D01*
X170580724Y-89299883D01*
X170570100Y-89293502D01*
X170559228Y-89287775D01*
X170548093Y-89282693D01*
X170536680Y-89278247D01*
X170524975Y-89274425D01*
X170512962Y-89271219D01*
X170500627Y-89268618D01*
X170487955Y-89266612D01*
X170474930Y-89265191D01*
X170461538Y-89264346D01*
X170447764Y-89264067D01*
X170434906Y-89264315D01*
X170422371Y-89265058D01*
X170410165Y-89266296D01*
X170398293Y-89268029D01*
X170386761Y-89270255D01*
X170375575Y-89272974D01*
X170364739Y-89276186D01*
X170354260Y-89279889D01*
X170344143Y-89284083D01*
X170334394Y-89288768D01*
X170325018Y-89293943D01*
X170316021Y-89299607D01*
X170307408Y-89305760D01*
X170299186Y-89312400D01*
X170291359Y-89319529D01*
X170283933Y-89327143D01*
X170276914Y-89335245D01*
X170270308Y-89343831D01*
X170264119Y-89352903D01*
X170258354Y-89362459D01*
X170253019Y-89372498D01*
X170248117Y-89383021D01*
X170243657Y-89394026D01*
X170239642Y-89405513D01*
X170236078Y-89417481D01*
X170232971Y-89429930D01*
X170230328Y-89442859D01*
X170228152Y-89456267D01*
X170226450Y-89470154D01*
X170225227Y-89484519D01*
X170224490Y-89499361D01*
X170224243Y-89514680D01*
X170220857Y-91580547D01*
X169922831Y-91580547D01*
X169922831Y-89514680D01*
X169923414Y-89486704D01*
X169925153Y-89459304D01*
X169928033Y-89432500D01*
X169932039Y-89406313D01*
X169937156Y-89380764D01*
X169943369Y-89355873D01*
X169950664Y-89331660D01*
X169959026Y-89308146D01*
X169968439Y-89285352D01*
X169978890Y-89263297D01*
X169990362Y-89242003D01*
X170002841Y-89221489D01*
X170016312Y-89201776D01*
X170030761Y-89182885D01*
X170046172Y-89164836D01*
X170062531Y-89147650D01*
X170079822Y-89131347D01*
X170098031Y-89115947D01*
X170117143Y-89101472D01*
X170137143Y-89087940D01*
X170158016Y-89075374D01*
X170179748Y-89063793D01*
X170202322Y-89053218D01*
X170225726Y-89043669D01*
X170249942Y-89035167D01*
X170274958Y-89027732D01*
X170300757Y-89021385D01*
X170327326Y-89016146D01*
X170354648Y-89012035D01*
X170382709Y-89009074D01*
X170411495Y-89007282D01*
X170440991Y-89006680D01*
X170469206Y-89007233D01*
G37*
X170469206Y-89007233D02*
X170496692Y-89008883D01*
X170523434Y-89011614D01*
X170549417Y-89015411D01*
X170574626Y-89020261D01*
X170599046Y-89026147D01*
X170622663Y-89033055D01*
X170645461Y-89040970D01*
X170667425Y-89049877D01*
X170688541Y-89059762D01*
X170708794Y-89070609D01*
X170728169Y-89082404D01*
X170746651Y-89095131D01*
X170764225Y-89108776D01*
X170780877Y-89123324D01*
X170796591Y-89138760D01*
X170630644Y-89341960D01*
X170621037Y-89332156D01*
X170611256Y-89323056D01*
X170601287Y-89314650D01*
X170591114Y-89306929D01*
X170580724Y-89299883D01*
X170570100Y-89293502D01*
X170559228Y-89287775D01*
X170548093Y-89282693D01*
X170536680Y-89278247D01*
X170524975Y-89274425D01*
X170512962Y-89271219D01*
X170500627Y-89268618D01*
X170487955Y-89266612D01*
X170474930Y-89265191D01*
X170461538Y-89264346D01*
X170447764Y-89264067D01*
X170434906Y-89264315D01*
X170422371Y-89265058D01*
X170410165Y-89266296D01*
X170398293Y-89268029D01*
X170386761Y-89270255D01*
X170375575Y-89272974D01*
X170364739Y-89276186D01*
X170354260Y-89279889D01*
X170344143Y-89284083D01*
X170334394Y-89288768D01*
X170325018Y-89293943D01*
X170316021Y-89299607D01*
X170307408Y-89305760D01*
X170299186Y-89312400D01*
X170291359Y-89319529D01*
X170283933Y-89327143D01*
X170276914Y-89335245D01*
X170270308Y-89343831D01*
X170264119Y-89352903D01*
X170258354Y-89362459D01*
X170253019Y-89372498D01*
X170248117Y-89383021D01*
X170243657Y-89394026D01*
X170239642Y-89405513D01*
X170236078Y-89417481D01*
X170232971Y-89429930D01*
X170230328Y-89442859D01*
X170228152Y-89456267D01*
X170226450Y-89470154D01*
X170225227Y-89484519D01*
X170224490Y-89499361D01*
X170224243Y-89514680D01*
X170220857Y-91580547D01*
X169922831Y-91580547D01*
X169922831Y-89514680D01*
X169923414Y-89486704D01*
X169925153Y-89459304D01*
X169928033Y-89432500D01*
X169932039Y-89406313D01*
X169937156Y-89380764D01*
X169943369Y-89355873D01*
X169950664Y-89331660D01*
X169959026Y-89308146D01*
X169968439Y-89285352D01*
X169978890Y-89263297D01*
X169990362Y-89242003D01*
X170002841Y-89221489D01*
X170016312Y-89201776D01*
X170030761Y-89182885D01*
X170046172Y-89164836D01*
X170062531Y-89147650D01*
X170079822Y-89131347D01*
X170098031Y-89115947D01*
X170117143Y-89101472D01*
X170137143Y-89087940D01*
X170158016Y-89075374D01*
X170179748Y-89063793D01*
X170202322Y-89053218D01*
X170225726Y-89043669D01*
X170249942Y-89035167D01*
X170274958Y-89027732D01*
X170300757Y-89021385D01*
X170327326Y-89016146D01*
X170354648Y-89012035D01*
X170382709Y-89009074D01*
X170411495Y-89007282D01*
X170440991Y-89006680D01*
X170469206Y-89007233D01*
D11*
X165838898Y-92549953D02*
X165742993Y-92480116D01*
X168194219Y-93041646D02*
X167940869Y-93030886D01*
D10*
G36*
X176851049Y-84677143D02*
G01*
X176866069Y-84678083D01*
X176880930Y-84679637D01*
X176895623Y-84681795D01*
X176910137Y-84684545D01*
X176924462Y-84687878D01*
X176938589Y-84691782D01*
X176952508Y-84696247D01*
X176966208Y-84701264D01*
X176979681Y-84706820D01*
X176992915Y-84712906D01*
X177005901Y-84719511D01*
X177018629Y-84726624D01*
X177031089Y-84734236D01*
X177043272Y-84742335D01*
X177055166Y-84750910D01*
X177066763Y-84759952D01*
X177078053Y-84769450D01*
X177089025Y-84779393D01*
X177099669Y-84789771D01*
X177109976Y-84800573D01*
X177119936Y-84811789D01*
X177138775Y-84835418D01*
X177156105Y-84860576D01*
X177171848Y-84887178D01*
X177185923Y-84915138D01*
X177198253Y-84944374D01*
X177198253Y-85303360D01*
X177185923Y-85332634D01*
X177171848Y-85360702D01*
X177156105Y-85387471D01*
X177138775Y-85412845D01*
X177119936Y-85436731D01*
X177099669Y-85459035D01*
X177078053Y-85479661D01*
X177055166Y-85498517D01*
X177031089Y-85515507D01*
X177005901Y-85530538D01*
X176979681Y-85543515D01*
X176952508Y-85554344D01*
X176938589Y-85558924D01*
X176924462Y-85562931D01*
X176910137Y-85566354D01*
X176895623Y-85569181D01*
X176880930Y-85571400D01*
X176866069Y-85573000D01*
X176851049Y-85573968D01*
X176835880Y-85574294D01*
X176813587Y-85573713D01*
X176791804Y-85571989D01*
X176770543Y-85569148D01*
X176749817Y-85565219D01*
X176729640Y-85560227D01*
X176710023Y-85554202D01*
X176690981Y-85547169D01*
X176672526Y-85539157D01*
X176654671Y-85530192D01*
X176637430Y-85520302D01*
X176620815Y-85509514D01*
X176604839Y-85497856D01*
X176589516Y-85485354D01*
X176574858Y-85472036D01*
X176560878Y-85457929D01*
X176547590Y-85443060D01*
X176535006Y-85427458D01*
X176523140Y-85411148D01*
X176512004Y-85394159D01*
X176501612Y-85376518D01*
X176491976Y-85358251D01*
X176483110Y-85339387D01*
X176475027Y-85319952D01*
X176467739Y-85299974D01*
X176461259Y-85279480D01*
X176455602Y-85258497D01*
X176450779Y-85237053D01*
X176446803Y-85215175D01*
X176443689Y-85192890D01*
X176441448Y-85170225D01*
X176440094Y-85147208D01*
X176439640Y-85123867D01*
X176440094Y-85100535D01*
X176441448Y-85077547D01*
X176443689Y-85054928D01*
X176446803Y-85032705D01*
X176450779Y-85010903D01*
X176455602Y-84989550D01*
X176461259Y-84968670D01*
X176467739Y-84948290D01*
X176475027Y-84928435D01*
X176483110Y-84909133D01*
X176491976Y-84890408D01*
X176501612Y-84872288D01*
X176512004Y-84854798D01*
X176523140Y-84837963D01*
X176535006Y-84821811D01*
X176547590Y-84806367D01*
X176560878Y-84791657D01*
X176574858Y-84777708D01*
X176589516Y-84764545D01*
X176604839Y-84752194D01*
X176620815Y-84740681D01*
X176637430Y-84730033D01*
X176654671Y-84720276D01*
X176672526Y-84711435D01*
X176690981Y-84703536D01*
X176710023Y-84696606D01*
X176729640Y-84690671D01*
X176749817Y-84685757D01*
X176770543Y-84681889D01*
X176791804Y-84679094D01*
X176813587Y-84677398D01*
X176835880Y-84676827D01*
X176851049Y-84677143D01*
G37*
X176851049Y-84677143D02*
X176866069Y-84678083D01*
X176880930Y-84679637D01*
X176895623Y-84681795D01*
X176910137Y-84684545D01*
X176924462Y-84687878D01*
X176938589Y-84691782D01*
X176952508Y-84696247D01*
X176966208Y-84701264D01*
X176979681Y-84706820D01*
X176992915Y-84712906D01*
X177005901Y-84719511D01*
X177018629Y-84726624D01*
X177031089Y-84734236D01*
X177043272Y-84742335D01*
X177055166Y-84750910D01*
X177066763Y-84759952D01*
X177078053Y-84769450D01*
X177089025Y-84779393D01*
X177099669Y-84789771D01*
X177109976Y-84800573D01*
X177119936Y-84811789D01*
X177138775Y-84835418D01*
X177156105Y-84860576D01*
X177171848Y-84887178D01*
X177185923Y-84915138D01*
X177198253Y-84944374D01*
X177198253Y-85303360D01*
X177185923Y-85332634D01*
X177171848Y-85360702D01*
X177156105Y-85387471D01*
X177138775Y-85412845D01*
X177119936Y-85436731D01*
X177099669Y-85459035D01*
X177078053Y-85479661D01*
X177055166Y-85498517D01*
X177031089Y-85515507D01*
X177005901Y-85530538D01*
X176979681Y-85543515D01*
X176952508Y-85554344D01*
X176938589Y-85558924D01*
X176924462Y-85562931D01*
X176910137Y-85566354D01*
X176895623Y-85569181D01*
X176880930Y-85571400D01*
X176866069Y-85573000D01*
X176851049Y-85573968D01*
X176835880Y-85574294D01*
X176813587Y-85573713D01*
X176791804Y-85571989D01*
X176770543Y-85569148D01*
X176749817Y-85565219D01*
X176729640Y-85560227D01*
X176710023Y-85554202D01*
X176690981Y-85547169D01*
X176672526Y-85539157D01*
X176654671Y-85530192D01*
X176637430Y-85520302D01*
X176620815Y-85509514D01*
X176604839Y-85497856D01*
X176589516Y-85485354D01*
X176574858Y-85472036D01*
X176560878Y-85457929D01*
X176547590Y-85443060D01*
X176535006Y-85427458D01*
X176523140Y-85411148D01*
X176512004Y-85394159D01*
X176501612Y-85376518D01*
X176491976Y-85358251D01*
X176483110Y-85339387D01*
X176475027Y-85319952D01*
X176467739Y-85299974D01*
X176461259Y-85279480D01*
X176455602Y-85258497D01*
X176450779Y-85237053D01*
X176446803Y-85215175D01*
X176443689Y-85192890D01*
X176441448Y-85170225D01*
X176440094Y-85147208D01*
X176439640Y-85123867D01*
X176440094Y-85100535D01*
X176441448Y-85077547D01*
X176443689Y-85054928D01*
X176446803Y-85032705D01*
X176450779Y-85010903D01*
X176455602Y-84989550D01*
X176461259Y-84968670D01*
X176467739Y-84948290D01*
X176475027Y-84928435D01*
X176483110Y-84909133D01*
X176491976Y-84890408D01*
X176501612Y-84872288D01*
X176512004Y-84854798D01*
X176523140Y-84837963D01*
X176535006Y-84821811D01*
X176547590Y-84806367D01*
X176560878Y-84791657D01*
X176574858Y-84777708D01*
X176589516Y-84764545D01*
X176604839Y-84752194D01*
X176620815Y-84740681D01*
X176637430Y-84730033D01*
X176654671Y-84720276D01*
X176672526Y-84711435D01*
X176690981Y-84703536D01*
X176710023Y-84696606D01*
X176729640Y-84690671D01*
X176749817Y-84685757D01*
X176770543Y-84681889D01*
X176791804Y-84679094D01*
X176813587Y-84677398D01*
X176835880Y-84676827D01*
X176851049Y-84677143D01*
D11*
X163825673Y-90300791D02*
X162402545Y-89370000D01*
D10*
G36*
X173470369Y-89007705D02*
G01*
X173517981Y-89010755D01*
X173565108Y-89015788D01*
X173611703Y-89022767D01*
X173657724Y-89031650D01*
X173703124Y-89042399D01*
X173747859Y-89054973D01*
X173791885Y-89069333D01*
X173835156Y-89085440D01*
X173877630Y-89103253D01*
X173919259Y-89122733D01*
X173960001Y-89143840D01*
X173999810Y-89166535D01*
X174038642Y-89190777D01*
X174076451Y-89216528D01*
X174113194Y-89243747D01*
X174113194Y-89616280D01*
X174077084Y-89578141D01*
X174039892Y-89542461D01*
X174001648Y-89509243D01*
X173962382Y-89478485D01*
X173922124Y-89450188D01*
X173880904Y-89424351D01*
X173838751Y-89400975D01*
X173795695Y-89380060D01*
X173751766Y-89361605D01*
X173706993Y-89345611D01*
X173661407Y-89332078D01*
X173615037Y-89321005D01*
X173567913Y-89312393D01*
X173520065Y-89306241D01*
X173471522Y-89302550D01*
X173422315Y-89301320D01*
X173369834Y-89302610D01*
X173318462Y-89306441D01*
X173268234Y-89312753D01*
X173219187Y-89321488D01*
X173171359Y-89332587D01*
X173124785Y-89345991D01*
X173079502Y-89361641D01*
X173035547Y-89379478D01*
X172992956Y-89399443D01*
X172951766Y-89421478D01*
X172912013Y-89445523D01*
X172873734Y-89471520D01*
X172836966Y-89499409D01*
X172801745Y-89529132D01*
X172768108Y-89560630D01*
X172736091Y-89593843D01*
X172705732Y-89628714D01*
X172677065Y-89665183D01*
X172650129Y-89703190D01*
X172624960Y-89742678D01*
X172601594Y-89783587D01*
X172580067Y-89825859D01*
X172560418Y-89869434D01*
X172542681Y-89914254D01*
X172526894Y-89960259D01*
X172513093Y-90007391D01*
X172501315Y-90055591D01*
X172491597Y-90104800D01*
X172483974Y-90154959D01*
X172478484Y-90206009D01*
X172475163Y-90257891D01*
X172474048Y-90310547D01*
X172475163Y-90363202D01*
X172478484Y-90415084D01*
X172483974Y-90466134D01*
X172491597Y-90516293D01*
X172501315Y-90565502D01*
X172513093Y-90613702D01*
X172526894Y-90660834D01*
X172542681Y-90706840D01*
X172560418Y-90751659D01*
X172580067Y-90795234D01*
X172601594Y-90837506D01*
X172624960Y-90878415D01*
X172650129Y-90917903D01*
X172677065Y-90955911D01*
X172705732Y-90992380D01*
X172736091Y-91027250D01*
X172768108Y-91060464D01*
X172801745Y-91091961D01*
X172836966Y-91121684D01*
X172873734Y-91149574D01*
X172912013Y-91175570D01*
X172951766Y-91199615D01*
X172992956Y-91221650D01*
X173035547Y-91241615D01*
X173079502Y-91259453D01*
X173124785Y-91275103D01*
X173171359Y-91288507D01*
X173219187Y-91299605D01*
X173268234Y-91308341D01*
X173318462Y-91314653D01*
X173369834Y-91318483D01*
X173422315Y-91319773D01*
X173470927Y-91318543D01*
X173518954Y-91314852D01*
X173566366Y-91308701D01*
X173613133Y-91300088D01*
X173659225Y-91289016D01*
X173704612Y-91275482D01*
X173749266Y-91259488D01*
X173793155Y-91241033D01*
X173836251Y-91220118D01*
X173878523Y-91196742D01*
X173919942Y-91170906D01*
X173960477Y-91142608D01*
X174000100Y-91111851D01*
X174038781Y-91078632D01*
X174076489Y-91042953D01*
X174113194Y-91004813D01*
X174113194Y-91377347D01*
X174076451Y-91404566D01*
X174038642Y-91430316D01*
X173999810Y-91454559D01*
X173960001Y-91477253D01*
X173919259Y-91498360D01*
X173877630Y-91517840D01*
X173835156Y-91535654D01*
X173791885Y-91551760D01*
X173747859Y-91566120D01*
X173703124Y-91578695D01*
X173657724Y-91589443D01*
X173611703Y-91598327D01*
X173565108Y-91605305D01*
X173517981Y-91610339D01*
X173470369Y-91613388D01*
X173422315Y-91614413D01*
X173355292Y-91612720D01*
X173289518Y-91607695D01*
X173225049Y-91599420D01*
X173161945Y-91587975D01*
X173100261Y-91573442D01*
X173040057Y-91555902D01*
X172981389Y-91535436D01*
X172924316Y-91512125D01*
X172868895Y-91486052D01*
X172815183Y-91457296D01*
X172763238Y-91425940D01*
X172713119Y-91392064D01*
X172664882Y-91355750D01*
X172618586Y-91317079D01*
X172574288Y-91276132D01*
X172532045Y-91232990D01*
X172491916Y-91187735D01*
X172453957Y-91140448D01*
X172418228Y-91091210D01*
X172384785Y-91040102D01*
X172353685Y-90987206D01*
X172324988Y-90932603D01*
X172298750Y-90876374D01*
X172275029Y-90818600D01*
X172253883Y-90759362D01*
X172235369Y-90698743D01*
X172219545Y-90636822D01*
X172206469Y-90573681D01*
X172196198Y-90509402D01*
X172188790Y-90444066D01*
X172184304Y-90377754D01*
X172182795Y-90310547D01*
X172184304Y-90243340D01*
X172188790Y-90177027D01*
X172196198Y-90111691D01*
X172206469Y-90047412D01*
X172219545Y-89984272D01*
X172235369Y-89922351D01*
X172253883Y-89861731D01*
X172275029Y-89802494D01*
X172298750Y-89744720D01*
X172324988Y-89688491D01*
X172353685Y-89633887D01*
X172384785Y-89580991D01*
X172418228Y-89529884D01*
X172453957Y-89480646D01*
X172491916Y-89433358D01*
X172532045Y-89388103D01*
X172574288Y-89344962D01*
X172618586Y-89304015D01*
X172664882Y-89265344D01*
X172713119Y-89229029D01*
X172763238Y-89195154D01*
X172815183Y-89163797D01*
X172868895Y-89135042D01*
X172924316Y-89108968D01*
X172981389Y-89085658D01*
X173040057Y-89065192D01*
X173100261Y-89047652D01*
X173161945Y-89033119D01*
X173225049Y-89021674D01*
X173289518Y-89013398D01*
X173355292Y-89008373D01*
X173422315Y-89006680D01*
X173470369Y-89007705D01*
G37*
X173470369Y-89007705D02*
X173517981Y-89010755D01*
X173565108Y-89015788D01*
X173611703Y-89022767D01*
X173657724Y-89031650D01*
X173703124Y-89042399D01*
X173747859Y-89054973D01*
X173791885Y-89069333D01*
X173835156Y-89085440D01*
X173877630Y-89103253D01*
X173919259Y-89122733D01*
X173960001Y-89143840D01*
X173999810Y-89166535D01*
X174038642Y-89190777D01*
X174076451Y-89216528D01*
X174113194Y-89243747D01*
X174113194Y-89616280D01*
X174077084Y-89578141D01*
X174039892Y-89542461D01*
X174001648Y-89509243D01*
X173962382Y-89478485D01*
X173922124Y-89450188D01*
X173880904Y-89424351D01*
X173838751Y-89400975D01*
X173795695Y-89380060D01*
X173751766Y-89361605D01*
X173706993Y-89345611D01*
X173661407Y-89332078D01*
X173615037Y-89321005D01*
X173567913Y-89312393D01*
X173520065Y-89306241D01*
X173471522Y-89302550D01*
X173422315Y-89301320D01*
X173369834Y-89302610D01*
X173318462Y-89306441D01*
X173268234Y-89312753D01*
X173219187Y-89321488D01*
X173171359Y-89332587D01*
X173124785Y-89345991D01*
X173079502Y-89361641D01*
X173035547Y-89379478D01*
X172992956Y-89399443D01*
X172951766Y-89421478D01*
X172912013Y-89445523D01*
X172873734Y-89471520D01*
X172836966Y-89499409D01*
X172801745Y-89529132D01*
X172768108Y-89560630D01*
X172736091Y-89593843D01*
X172705732Y-89628714D01*
X172677065Y-89665183D01*
X172650129Y-89703190D01*
X172624960Y-89742678D01*
X172601594Y-89783587D01*
X172580067Y-89825859D01*
X172560418Y-89869434D01*
X172542681Y-89914254D01*
X172526894Y-89960259D01*
X172513093Y-90007391D01*
X172501315Y-90055591D01*
X172491597Y-90104800D01*
X172483974Y-90154959D01*
X172478484Y-90206009D01*
X172475163Y-90257891D01*
X172474048Y-90310547D01*
X172475163Y-90363202D01*
X172478484Y-90415084D01*
X172483974Y-90466134D01*
X172491597Y-90516293D01*
X172501315Y-90565502D01*
X172513093Y-90613702D01*
X172526894Y-90660834D01*
X172542681Y-90706840D01*
X172560418Y-90751659D01*
X172580067Y-90795234D01*
X172601594Y-90837506D01*
X172624960Y-90878415D01*
X172650129Y-90917903D01*
X172677065Y-90955911D01*
X172705732Y-90992380D01*
X172736091Y-91027250D01*
X172768108Y-91060464D01*
X172801745Y-91091961D01*
X172836966Y-91121684D01*
X172873734Y-91149574D01*
X172912013Y-91175570D01*
X172951766Y-91199615D01*
X172992956Y-91221650D01*
X173035547Y-91241615D01*
X173079502Y-91259453D01*
X173124785Y-91275103D01*
X173171359Y-91288507D01*
X173219187Y-91299605D01*
X173268234Y-91308341D01*
X173318462Y-91314653D01*
X173369834Y-91318483D01*
X173422315Y-91319773D01*
X173470927Y-91318543D01*
X173518954Y-91314852D01*
X173566366Y-91308701D01*
X173613133Y-91300088D01*
X173659225Y-91289016D01*
X173704612Y-91275482D01*
X173749266Y-91259488D01*
X173793155Y-91241033D01*
X173836251Y-91220118D01*
X173878523Y-91196742D01*
X173919942Y-91170906D01*
X173960477Y-91142608D01*
X174000100Y-91111851D01*
X174038781Y-91078632D01*
X174076489Y-91042953D01*
X174113194Y-91004813D01*
X174113194Y-91377347D01*
X174076451Y-91404566D01*
X174038642Y-91430316D01*
X173999810Y-91454559D01*
X173960001Y-91477253D01*
X173919259Y-91498360D01*
X173877630Y-91517840D01*
X173835156Y-91535654D01*
X173791885Y-91551760D01*
X173747859Y-91566120D01*
X173703124Y-91578695D01*
X173657724Y-91589443D01*
X173611703Y-91598327D01*
X173565108Y-91605305D01*
X173517981Y-91610339D01*
X173470369Y-91613388D01*
X173422315Y-91614413D01*
X173355292Y-91612720D01*
X173289518Y-91607695D01*
X173225049Y-91599420D01*
X173161945Y-91587975D01*
X173100261Y-91573442D01*
X173040057Y-91555902D01*
X172981389Y-91535436D01*
X172924316Y-91512125D01*
X172868895Y-91486052D01*
X172815183Y-91457296D01*
X172763238Y-91425940D01*
X172713119Y-91392064D01*
X172664882Y-91355750D01*
X172618586Y-91317079D01*
X172574288Y-91276132D01*
X172532045Y-91232990D01*
X172491916Y-91187735D01*
X172453957Y-91140448D01*
X172418228Y-91091210D01*
X172384785Y-91040102D01*
X172353685Y-90987206D01*
X172324988Y-90932603D01*
X172298750Y-90876374D01*
X172275029Y-90818600D01*
X172253883Y-90759362D01*
X172235369Y-90698743D01*
X172219545Y-90636822D01*
X172206469Y-90573681D01*
X172196198Y-90509402D01*
X172188790Y-90444066D01*
X172184304Y-90377754D01*
X172182795Y-90310547D01*
X172184304Y-90243340D01*
X172188790Y-90177027D01*
X172196198Y-90111691D01*
X172206469Y-90047412D01*
X172219545Y-89984272D01*
X172235369Y-89922351D01*
X172253883Y-89861731D01*
X172275029Y-89802494D01*
X172298750Y-89744720D01*
X172324988Y-89688491D01*
X172353685Y-89633887D01*
X172384785Y-89580991D01*
X172418228Y-89529884D01*
X172453957Y-89480646D01*
X172491916Y-89433358D01*
X172532045Y-89388103D01*
X172574288Y-89344962D01*
X172618586Y-89304015D01*
X172664882Y-89265344D01*
X172713119Y-89229029D01*
X172763238Y-89195154D01*
X172815183Y-89163797D01*
X172868895Y-89135042D01*
X172924316Y-89108968D01*
X172981389Y-89085658D01*
X173040057Y-89065192D01*
X173100261Y-89047652D01*
X173161945Y-89033119D01*
X173225049Y-89021674D01*
X173289518Y-89013398D01*
X173355292Y-89008373D01*
X173422315Y-89006680D01*
X173470369Y-89007705D01*
G36*
X174883107Y-84677398D02*
G01*
X174904370Y-84679094D01*
X174925182Y-84681889D01*
X174945528Y-84685757D01*
X174965390Y-84690671D01*
X174984752Y-84696606D01*
X175003596Y-84703536D01*
X175021907Y-84711435D01*
X175039667Y-84720276D01*
X175056859Y-84730033D01*
X175073468Y-84740681D01*
X175089475Y-84752194D01*
X175104865Y-84764545D01*
X175119620Y-84777708D01*
X175133725Y-84791657D01*
X175147161Y-84806367D01*
X175159913Y-84821811D01*
X175171963Y-84837963D01*
X175183296Y-84854798D01*
X175193893Y-84872288D01*
X175203739Y-84890408D01*
X175212817Y-84909133D01*
X175221109Y-84928435D01*
X175228600Y-84948290D01*
X175235272Y-84968670D01*
X175241109Y-84989550D01*
X175246094Y-85010903D01*
X175250210Y-85032705D01*
X175253440Y-85054928D01*
X175255769Y-85077547D01*
X175257178Y-85100535D01*
X175257651Y-85123867D01*
X175257178Y-85147208D01*
X175255769Y-85170225D01*
X175253440Y-85192890D01*
X175250210Y-85215175D01*
X175246094Y-85237053D01*
X175241109Y-85258497D01*
X175235272Y-85279480D01*
X175228600Y-85299974D01*
X175221109Y-85319952D01*
X175212817Y-85339387D01*
X175203739Y-85358251D01*
X175193893Y-85376518D01*
X175183296Y-85394159D01*
X175171963Y-85411148D01*
X175159913Y-85427458D01*
X175147161Y-85443060D01*
X175133725Y-85457929D01*
X175119620Y-85472036D01*
X175104865Y-85485354D01*
X175089475Y-85497856D01*
X175073468Y-85509514D01*
X175056859Y-85520302D01*
X175039667Y-85530192D01*
X175021907Y-85539157D01*
X175003596Y-85547169D01*
X174984752Y-85554202D01*
X174965390Y-85560227D01*
X174945528Y-85565219D01*
X174925182Y-85569148D01*
X174904370Y-85571989D01*
X174883107Y-85573713D01*
X174861410Y-85574294D01*
X174839118Y-85573713D01*
X174817335Y-85571989D01*
X174796074Y-85569148D01*
X174775348Y-85565219D01*
X174755171Y-85560227D01*
X174735554Y-85554202D01*
X174716512Y-85547169D01*
X174698057Y-85539157D01*
X174680202Y-85530192D01*
X174662961Y-85520302D01*
X174646346Y-85509514D01*
X174630370Y-85497856D01*
X174615047Y-85485354D01*
X174600389Y-85472036D01*
X174586409Y-85457929D01*
X174573121Y-85443060D01*
X174560537Y-85427458D01*
X174548671Y-85411148D01*
X174537535Y-85394159D01*
X174527143Y-85376518D01*
X174517507Y-85358251D01*
X174508641Y-85339387D01*
X174500558Y-85319952D01*
X174493270Y-85299974D01*
X174486790Y-85279480D01*
X174481133Y-85258497D01*
X174476310Y-85237053D01*
X174472334Y-85215175D01*
X174469220Y-85192890D01*
X174466979Y-85170225D01*
X174465625Y-85147208D01*
X174465171Y-85123867D01*
X174465625Y-85100535D01*
X174466979Y-85077547D01*
X174469220Y-85054928D01*
X174472334Y-85032705D01*
X174476310Y-85010903D01*
X174481133Y-84989550D01*
X174486790Y-84968670D01*
X174493270Y-84948290D01*
X174500558Y-84928435D01*
X174508641Y-84909133D01*
X174517507Y-84890408D01*
X174527143Y-84872288D01*
X174537535Y-84854798D01*
X174548671Y-84837963D01*
X174560537Y-84821811D01*
X174573121Y-84806367D01*
X174586409Y-84791657D01*
X174600389Y-84777708D01*
X174615047Y-84764545D01*
X174630370Y-84752194D01*
X174646346Y-84740681D01*
X174662961Y-84730033D01*
X174680202Y-84720276D01*
X174698057Y-84711435D01*
X174716512Y-84703536D01*
X174735554Y-84696606D01*
X174755171Y-84690671D01*
X174775348Y-84685757D01*
X174796074Y-84681889D01*
X174817335Y-84679094D01*
X174839118Y-84677398D01*
X174861410Y-84676827D01*
X174883107Y-84677398D01*
G37*
X174883107Y-84677398D02*
X174904370Y-84679094D01*
X174925182Y-84681889D01*
X174945528Y-84685757D01*
X174965390Y-84690671D01*
X174984752Y-84696606D01*
X175003596Y-84703536D01*
X175021907Y-84711435D01*
X175039667Y-84720276D01*
X175056859Y-84730033D01*
X175073468Y-84740681D01*
X175089475Y-84752194D01*
X175104865Y-84764545D01*
X175119620Y-84777708D01*
X175133725Y-84791657D01*
X175147161Y-84806367D01*
X175159913Y-84821811D01*
X175171963Y-84837963D01*
X175183296Y-84854798D01*
X175193893Y-84872288D01*
X175203739Y-84890408D01*
X175212817Y-84909133D01*
X175221109Y-84928435D01*
X175228600Y-84948290D01*
X175235272Y-84968670D01*
X175241109Y-84989550D01*
X175246094Y-85010903D01*
X175250210Y-85032705D01*
X175253440Y-85054928D01*
X175255769Y-85077547D01*
X175257178Y-85100535D01*
X175257651Y-85123867D01*
X175257178Y-85147208D01*
X175255769Y-85170225D01*
X175253440Y-85192890D01*
X175250210Y-85215175D01*
X175246094Y-85237053D01*
X175241109Y-85258497D01*
X175235272Y-85279480D01*
X175228600Y-85299974D01*
X175221109Y-85319952D01*
X175212817Y-85339387D01*
X175203739Y-85358251D01*
X175193893Y-85376518D01*
X175183296Y-85394159D01*
X175171963Y-85411148D01*
X175159913Y-85427458D01*
X175147161Y-85443060D01*
X175133725Y-85457929D01*
X175119620Y-85472036D01*
X175104865Y-85485354D01*
X175089475Y-85497856D01*
X175073468Y-85509514D01*
X175056859Y-85520302D01*
X175039667Y-85530192D01*
X175021907Y-85539157D01*
X175003596Y-85547169D01*
X174984752Y-85554202D01*
X174965390Y-85560227D01*
X174945528Y-85565219D01*
X174925182Y-85569148D01*
X174904370Y-85571989D01*
X174883107Y-85573713D01*
X174861410Y-85574294D01*
X174839118Y-85573713D01*
X174817335Y-85571989D01*
X174796074Y-85569148D01*
X174775348Y-85565219D01*
X174755171Y-85560227D01*
X174735554Y-85554202D01*
X174716512Y-85547169D01*
X174698057Y-85539157D01*
X174680202Y-85530192D01*
X174662961Y-85520302D01*
X174646346Y-85509514D01*
X174630370Y-85497856D01*
X174615047Y-85485354D01*
X174600389Y-85472036D01*
X174586409Y-85457929D01*
X174573121Y-85443060D01*
X174560537Y-85427458D01*
X174548671Y-85411148D01*
X174537535Y-85394159D01*
X174527143Y-85376518D01*
X174517507Y-85358251D01*
X174508641Y-85339387D01*
X174500558Y-85319952D01*
X174493270Y-85299974D01*
X174486790Y-85279480D01*
X174481133Y-85258497D01*
X174476310Y-85237053D01*
X174472334Y-85215175D01*
X174469220Y-85192890D01*
X174466979Y-85170225D01*
X174465625Y-85147208D01*
X174465171Y-85123867D01*
X174465625Y-85100535D01*
X174466979Y-85077547D01*
X174469220Y-85054928D01*
X174472334Y-85032705D01*
X174476310Y-85010903D01*
X174481133Y-84989550D01*
X174486790Y-84968670D01*
X174493270Y-84948290D01*
X174500558Y-84928435D01*
X174508641Y-84909133D01*
X174517507Y-84890408D01*
X174527143Y-84872288D01*
X174537535Y-84854798D01*
X174548671Y-84837963D01*
X174560537Y-84821811D01*
X174573121Y-84806367D01*
X174586409Y-84791657D01*
X174600389Y-84777708D01*
X174615047Y-84764545D01*
X174630370Y-84752194D01*
X174646346Y-84740681D01*
X174662961Y-84730033D01*
X174680202Y-84720276D01*
X174698057Y-84711435D01*
X174716512Y-84703536D01*
X174735554Y-84696606D01*
X174755171Y-84690671D01*
X174775348Y-84685757D01*
X174796074Y-84681889D01*
X174817335Y-84679094D01*
X174839118Y-84677398D01*
X174861410Y-84676827D01*
X174883107Y-84677398D01*
D11*
X165036782Y-91644053D02*
X164924641Y-91421975D01*
X164706834Y-89912932D02*
X164732234Y-89804403D01*
D10*
G36*
X169490647Y-90159628D02*
G01*
X169480140Y-90201373D01*
X169468075Y-90241967D01*
X169454467Y-90281370D01*
X169439332Y-90319543D01*
X169422685Y-90356445D01*
X169404542Y-90392038D01*
X169384918Y-90426282D01*
X169363828Y-90459137D01*
X169341289Y-90490563D01*
X169317315Y-90520520D01*
X169291923Y-90548969D01*
X169265127Y-90575871D01*
X169236944Y-90601185D01*
X169207388Y-90624872D01*
X169176475Y-90646892D01*
X169144221Y-90667205D01*
X169110641Y-90685772D01*
X169075751Y-90702553D01*
X169039566Y-90717509D01*
X169002102Y-90730599D01*
X168963374Y-90741784D01*
X168923397Y-90751025D01*
X168882188Y-90758281D01*
X168839762Y-90763513D01*
X168796134Y-90766682D01*
X168751319Y-90767747D01*
X168705206Y-90766643D01*
X168660226Y-90763364D01*
X168616400Y-90757955D01*
X168573751Y-90750463D01*
X168532299Y-90740934D01*
X168492068Y-90729416D01*
X168453078Y-90715954D01*
X168415351Y-90700595D01*
X168378909Y-90683386D01*
X168343774Y-90664373D01*
X168309967Y-90643603D01*
X168277510Y-90621121D01*
X168246424Y-90596975D01*
X168216732Y-90571212D01*
X168188455Y-90543877D01*
X168161615Y-90515017D01*
X168136234Y-90484678D01*
X168112333Y-90452908D01*
X168089933Y-90419753D01*
X168069057Y-90385258D01*
X168049727Y-90349472D01*
X168031964Y-90312439D01*
X168015789Y-90274208D01*
X168001225Y-90234823D01*
X167988293Y-90194332D01*
X167977015Y-90152782D01*
X167967412Y-90110218D01*
X167959507Y-90066687D01*
X167953382Y-90022680D01*
X168243319Y-90022680D01*
X168253119Y-90076154D01*
X168265994Y-90127257D01*
X168281925Y-90175839D01*
X168300892Y-90221753D01*
X168311508Y-90243662D01*
X168322876Y-90264848D01*
X168334993Y-90285293D01*
X168347856Y-90304977D01*
X168361463Y-90323883D01*
X168375813Y-90341991D01*
X168390901Y-90359283D01*
X168406726Y-90375740D01*
X168423285Y-90391344D01*
X168440576Y-90406076D01*
X168458596Y-90419918D01*
X168477343Y-90432850D01*
X168496815Y-90444855D01*
X168517008Y-90455914D01*
X168537920Y-90466007D01*
X168559549Y-90475118D01*
X168581893Y-90483226D01*
X168604949Y-90490313D01*
X168628714Y-90496361D01*
X168653185Y-90501351D01*
X168678362Y-90505265D01*
X168704240Y-90508083D01*
X168730818Y-90509788D01*
X168758093Y-90510360D01*
X168784742Y-90509807D01*
X168810712Y-90508157D01*
X168835997Y-90505426D01*
X168860592Y-90501629D01*
X168884493Y-90496779D01*
X168907695Y-90490893D01*
X168930192Y-90483985D01*
X168951979Y-90476070D01*
X168973052Y-90467163D01*
X168993406Y-90457278D01*
X169013036Y-90446431D01*
X169031936Y-90434636D01*
X169050102Y-90421909D01*
X169067529Y-90408264D01*
X169084212Y-90393716D01*
X169100146Y-90378280D01*
X169115325Y-90361971D01*
X169129746Y-90344804D01*
X169143403Y-90326793D01*
X169156290Y-90307954D01*
X169168404Y-90288301D01*
X169179739Y-90267850D01*
X169190290Y-90246614D01*
X169200052Y-90224610D01*
X169209021Y-90201852D01*
X169217191Y-90178354D01*
X169224557Y-90154133D01*
X169231114Y-90129201D01*
X169236858Y-90103576D01*
X169241783Y-90077270D01*
X169249159Y-90022680D01*
X168243319Y-90022680D01*
X167953382Y-90022680D01*
X167953320Y-90022236D01*
X167948875Y-89976911D01*
X167946191Y-89930760D01*
X167945292Y-89883827D01*
X167946182Y-89836914D01*
X167948838Y-89790818D01*
X167953240Y-89745585D01*
X167959368Y-89701258D01*
X167967203Y-89657880D01*
X167976725Y-89615497D01*
X167987913Y-89574152D01*
X168000749Y-89533889D01*
X168015212Y-89494752D01*
X168031282Y-89456785D01*
X168048939Y-89420033D01*
X168068165Y-89384538D01*
X168088938Y-89350346D01*
X168111239Y-89317500D01*
X168135048Y-89286045D01*
X168160346Y-89256024D01*
X168187112Y-89227481D01*
X168215326Y-89200460D01*
X168244969Y-89175006D01*
X168276022Y-89151163D01*
X168308463Y-89128973D01*
X168342273Y-89108483D01*
X168377433Y-89089735D01*
X168413922Y-89072773D01*
X168451722Y-89057642D01*
X168490810Y-89044386D01*
X168531169Y-89033048D01*
X168572778Y-89023673D01*
X168615618Y-89016305D01*
X168659668Y-89010987D01*
X168704908Y-89007764D01*
X168751319Y-89006680D01*
X168809977Y-89008377D01*
X168866565Y-89013427D01*
X168921080Y-89021771D01*
X168973516Y-89033350D01*
X169023869Y-89048104D01*
X169072133Y-89065973D01*
X169118304Y-89086899D01*
X169162376Y-89110820D01*
X169204344Y-89137679D01*
X169244204Y-89167415D01*
X169281951Y-89199968D01*
X169317580Y-89235280D01*
X169351085Y-89273291D01*
X169382462Y-89313941D01*
X169411706Y-89357170D01*
X169438812Y-89402920D01*
X169228839Y-89548547D01*
X169203498Y-89510787D01*
X169178197Y-89476183D01*
X169152817Y-89444635D01*
X169127239Y-89416043D01*
X169114338Y-89402825D01*
X169101343Y-89390309D01*
X169088238Y-89378483D01*
X169075010Y-89367334D01*
X169061643Y-89356849D01*
X169048122Y-89347017D01*
X169034432Y-89337825D01*
X169020559Y-89329260D01*
X169006487Y-89321311D01*
X168992202Y-89313964D01*
X168977689Y-89307208D01*
X168962932Y-89301029D01*
X168947918Y-89295416D01*
X168932631Y-89290356D01*
X168917056Y-89285837D01*
X168901179Y-89281847D01*
X168868456Y-89275401D01*
X168834345Y-89270920D01*
X168798725Y-89268303D01*
X168761479Y-89267453D01*
X168732348Y-89268065D01*
X168704014Y-89269888D01*
X168676479Y-89272901D01*
X168649745Y-89277084D01*
X168623815Y-89282419D01*
X168598691Y-89288885D01*
X168574375Y-89296462D01*
X168550870Y-89305130D01*
X168528179Y-89314870D01*
X168506305Y-89325662D01*
X168485248Y-89337485D01*
X168465013Y-89350321D01*
X168445601Y-89364149D01*
X168427016Y-89378949D01*
X168409258Y-89394702D01*
X168392332Y-89411387D01*
X168376239Y-89428985D01*
X168360982Y-89447476D01*
X168346563Y-89466840D01*
X168332986Y-89487058D01*
X168320251Y-89508109D01*
X168308363Y-89529973D01*
X168297323Y-89552631D01*
X168287133Y-89576063D01*
X168277797Y-89600250D01*
X168269317Y-89625170D01*
X168261695Y-89650805D01*
X168254933Y-89677134D01*
X168244002Y-89731797D01*
X168236544Y-89789000D01*
X169516706Y-89789000D01*
X169517824Y-89801694D01*
X169518664Y-89814347D01*
X169519266Y-89826922D01*
X169519669Y-89839377D01*
X169520039Y-89863771D01*
X169520092Y-89887213D01*
X169516779Y-89981934D01*
X169512361Y-90022680D01*
X169506923Y-90072845D01*
X169490647Y-90159628D01*
G37*
X169490647Y-90159628D02*
X169480140Y-90201373D01*
X169468075Y-90241967D01*
X169454467Y-90281370D01*
X169439332Y-90319543D01*
X169422685Y-90356445D01*
X169404542Y-90392038D01*
X169384918Y-90426282D01*
X169363828Y-90459137D01*
X169341289Y-90490563D01*
X169317315Y-90520520D01*
X169291923Y-90548969D01*
X169265127Y-90575871D01*
X169236944Y-90601185D01*
X169207388Y-90624872D01*
X169176475Y-90646892D01*
X169144221Y-90667205D01*
X169110641Y-90685772D01*
X169075751Y-90702553D01*
X169039566Y-90717509D01*
X169002102Y-90730599D01*
X168963374Y-90741784D01*
X168923397Y-90751025D01*
X168882188Y-90758281D01*
X168839762Y-90763513D01*
X168796134Y-90766682D01*
X168751319Y-90767747D01*
X168705206Y-90766643D01*
X168660226Y-90763364D01*
X168616400Y-90757955D01*
X168573751Y-90750463D01*
X168532299Y-90740934D01*
X168492068Y-90729416D01*
X168453078Y-90715954D01*
X168415351Y-90700595D01*
X168378909Y-90683386D01*
X168343774Y-90664373D01*
X168309967Y-90643603D01*
X168277510Y-90621121D01*
X168246424Y-90596975D01*
X168216732Y-90571212D01*
X168188455Y-90543877D01*
X168161615Y-90515017D01*
X168136234Y-90484678D01*
X168112333Y-90452908D01*
X168089933Y-90419753D01*
X168069057Y-90385258D01*
X168049727Y-90349472D01*
X168031964Y-90312439D01*
X168015789Y-90274208D01*
X168001225Y-90234823D01*
X167988293Y-90194332D01*
X167977015Y-90152782D01*
X167967412Y-90110218D01*
X167959507Y-90066687D01*
X167953382Y-90022680D01*
X168243319Y-90022680D01*
X168253119Y-90076154D01*
X168265994Y-90127257D01*
X168281925Y-90175839D01*
X168300892Y-90221753D01*
X168311508Y-90243662D01*
X168322876Y-90264848D01*
X168334993Y-90285293D01*
X168347856Y-90304977D01*
X168361463Y-90323883D01*
X168375813Y-90341991D01*
X168390901Y-90359283D01*
X168406726Y-90375740D01*
X168423285Y-90391344D01*
X168440576Y-90406076D01*
X168458596Y-90419918D01*
X168477343Y-90432850D01*
X168496815Y-90444855D01*
X168517008Y-90455914D01*
X168537920Y-90466007D01*
X168559549Y-90475118D01*
X168581893Y-90483226D01*
X168604949Y-90490313D01*
X168628714Y-90496361D01*
X168653185Y-90501351D01*
X168678362Y-90505265D01*
X168704240Y-90508083D01*
X168730818Y-90509788D01*
X168758093Y-90510360D01*
X168784742Y-90509807D01*
X168810712Y-90508157D01*
X168835997Y-90505426D01*
X168860592Y-90501629D01*
X168884493Y-90496779D01*
X168907695Y-90490893D01*
X168930192Y-90483985D01*
X168951979Y-90476070D01*
X168973052Y-90467163D01*
X168993406Y-90457278D01*
X169013036Y-90446431D01*
X169031936Y-90434636D01*
X169050102Y-90421909D01*
X169067529Y-90408264D01*
X169084212Y-90393716D01*
X169100146Y-90378280D01*
X169115325Y-90361971D01*
X169129746Y-90344804D01*
X169143403Y-90326793D01*
X169156290Y-90307954D01*
X169168404Y-90288301D01*
X169179739Y-90267850D01*
X169190290Y-90246614D01*
X169200052Y-90224610D01*
X169209021Y-90201852D01*
X169217191Y-90178354D01*
X169224557Y-90154133D01*
X169231114Y-90129201D01*
X169236858Y-90103576D01*
X169241783Y-90077270D01*
X169249159Y-90022680D01*
X168243319Y-90022680D01*
X167953382Y-90022680D01*
X167953320Y-90022236D01*
X167948875Y-89976911D01*
X167946191Y-89930760D01*
X167945292Y-89883827D01*
X167946182Y-89836914D01*
X167948838Y-89790818D01*
X167953240Y-89745585D01*
X167959368Y-89701258D01*
X167967203Y-89657880D01*
X167976725Y-89615497D01*
X167987913Y-89574152D01*
X168000749Y-89533889D01*
X168015212Y-89494752D01*
X168031282Y-89456785D01*
X168048939Y-89420033D01*
X168068165Y-89384538D01*
X168088938Y-89350346D01*
X168111239Y-89317500D01*
X168135048Y-89286045D01*
X168160346Y-89256024D01*
X168187112Y-89227481D01*
X168215326Y-89200460D01*
X168244969Y-89175006D01*
X168276022Y-89151163D01*
X168308463Y-89128973D01*
X168342273Y-89108483D01*
X168377433Y-89089735D01*
X168413922Y-89072773D01*
X168451722Y-89057642D01*
X168490810Y-89044386D01*
X168531169Y-89033048D01*
X168572778Y-89023673D01*
X168615618Y-89016305D01*
X168659668Y-89010987D01*
X168704908Y-89007764D01*
X168751319Y-89006680D01*
X168809977Y-89008377D01*
X168866565Y-89013427D01*
X168921080Y-89021771D01*
X168973516Y-89033350D01*
X169023869Y-89048104D01*
X169072133Y-89065973D01*
X169118304Y-89086899D01*
X169162376Y-89110820D01*
X169204344Y-89137679D01*
X169244204Y-89167415D01*
X169281951Y-89199968D01*
X169317580Y-89235280D01*
X169351085Y-89273291D01*
X169382462Y-89313941D01*
X169411706Y-89357170D01*
X169438812Y-89402920D01*
X169228839Y-89548547D01*
X169203498Y-89510787D01*
X169178197Y-89476183D01*
X169152817Y-89444635D01*
X169127239Y-89416043D01*
X169114338Y-89402825D01*
X169101343Y-89390309D01*
X169088238Y-89378483D01*
X169075010Y-89367334D01*
X169061643Y-89356849D01*
X169048122Y-89347017D01*
X169034432Y-89337825D01*
X169020559Y-89329260D01*
X169006487Y-89321311D01*
X168992202Y-89313964D01*
X168977689Y-89307208D01*
X168962932Y-89301029D01*
X168947918Y-89295416D01*
X168932631Y-89290356D01*
X168917056Y-89285837D01*
X168901179Y-89281847D01*
X168868456Y-89275401D01*
X168834345Y-89270920D01*
X168798725Y-89268303D01*
X168761479Y-89267453D01*
X168732348Y-89268065D01*
X168704014Y-89269888D01*
X168676479Y-89272901D01*
X168649745Y-89277084D01*
X168623815Y-89282419D01*
X168598691Y-89288885D01*
X168574375Y-89296462D01*
X168550870Y-89305130D01*
X168528179Y-89314870D01*
X168506305Y-89325662D01*
X168485248Y-89337485D01*
X168465013Y-89350321D01*
X168445601Y-89364149D01*
X168427016Y-89378949D01*
X168409258Y-89394702D01*
X168392332Y-89411387D01*
X168376239Y-89428985D01*
X168360982Y-89447476D01*
X168346563Y-89466840D01*
X168332986Y-89487058D01*
X168320251Y-89508109D01*
X168308363Y-89529973D01*
X168297323Y-89552631D01*
X168287133Y-89576063D01*
X168277797Y-89600250D01*
X168269317Y-89625170D01*
X168261695Y-89650805D01*
X168254933Y-89677134D01*
X168244002Y-89731797D01*
X168236544Y-89789000D01*
X169516706Y-89789000D01*
X169517824Y-89801694D01*
X169518664Y-89814347D01*
X169519266Y-89826922D01*
X169519669Y-89839377D01*
X169520039Y-89863771D01*
X169520092Y-89887213D01*
X169516779Y-89981934D01*
X169512361Y-90022680D01*
X169506923Y-90072845D01*
X169490647Y-90159628D01*
D11*
X166432291Y-92821164D02*
X166330917Y-92794335D01*
X163825673Y-90300791D02*
X162776838Y-94202468D01*
X165560623Y-92324310D02*
X165474449Y-92238996D01*
X166330917Y-92794335D02*
X166250565Y-92767858D01*
X165650186Y-92404792D02*
X165560623Y-92324310D01*
X167313651Y-92969685D02*
X166987885Y-92924909D01*
X165474449Y-92238996D02*
X165391811Y-92149180D01*
X162402545Y-89370000D02*
X162402545Y-89370000D01*
X166143734Y-92723254D02*
X166039414Y-92671850D01*
X167940869Y-93030886D02*
X167639330Y-93005955D01*
X165166577Y-91856000D02*
X165036782Y-91644053D01*
X164842030Y-89468517D02*
X164842030Y-89468517D01*
X165312856Y-92055190D02*
X165166577Y-91856000D01*
D10*
G36*
X166870104Y-89009348D02*
G01*
X166956749Y-89017383D01*
X167040130Y-89030835D01*
X167119845Y-89049754D01*
X167195491Y-89074190D01*
X167231664Y-89088492D01*
X167266668Y-89104192D01*
X167300455Y-89121296D01*
X167332974Y-89139810D01*
X167364174Y-89159741D01*
X167394005Y-89181093D01*
X167422418Y-89203875D01*
X167449362Y-89228092D01*
X167474786Y-89253749D01*
X167498641Y-89280855D01*
X167520877Y-89309413D01*
X167541442Y-89339432D01*
X167560287Y-89370916D01*
X167577361Y-89403873D01*
X167592615Y-89438307D01*
X167605998Y-89474227D01*
X167617460Y-89511637D01*
X167626951Y-89550544D01*
X167634420Y-89590955D01*
X167639817Y-89632874D01*
X167643092Y-89676310D01*
X167644195Y-89721267D01*
X167642979Y-89765121D01*
X167639389Y-89807183D01*
X167633510Y-89847510D01*
X167625430Y-89886155D01*
X167615233Y-89923173D01*
X167603007Y-89958618D01*
X167588837Y-89992545D01*
X167572811Y-90025008D01*
X167555013Y-90056063D01*
X167535530Y-90085763D01*
X167514449Y-90114164D01*
X167491855Y-90141319D01*
X167467835Y-90167284D01*
X167442475Y-90192113D01*
X167415861Y-90215860D01*
X167388079Y-90238580D01*
X167359216Y-90260328D01*
X167329358Y-90281158D01*
X167267000Y-90320283D01*
X167201695Y-90356392D01*
X167134133Y-90389922D01*
X167065003Y-90421308D01*
X166994995Y-90450988D01*
X166855103Y-90506973D01*
X166746499Y-90549009D01*
X166694124Y-90570441D01*
X166643490Y-90592434D01*
X166594940Y-90615200D01*
X166548815Y-90638954D01*
X166505459Y-90663909D01*
X166465214Y-90690277D01*
X166428421Y-90718272D01*
X166395423Y-90748108D01*
X166380455Y-90763783D01*
X166366563Y-90779998D01*
X166353791Y-90796779D01*
X166342183Y-90814155D01*
X166331779Y-90832150D01*
X166322624Y-90850792D01*
X166314760Y-90870107D01*
X166308230Y-90890123D01*
X166303076Y-90910866D01*
X166299342Y-90932361D01*
X166297071Y-90954637D01*
X166296304Y-90977720D01*
X166296943Y-91001126D01*
X166298839Y-91023724D01*
X166301957Y-91045516D01*
X166306265Y-91066508D01*
X166311729Y-91086703D01*
X166318315Y-91106107D01*
X166325991Y-91124723D01*
X166334721Y-91142555D01*
X166344474Y-91159609D01*
X166355215Y-91175889D01*
X166366911Y-91191398D01*
X166379528Y-91206141D01*
X166393034Y-91220123D01*
X166407394Y-91233348D01*
X166422575Y-91245820D01*
X166438543Y-91257543D01*
X166455266Y-91268523D01*
X166472709Y-91278762D01*
X166490840Y-91288266D01*
X166509623Y-91297039D01*
X166529028Y-91305085D01*
X166549018Y-91312409D01*
X166569562Y-91319014D01*
X166590626Y-91324906D01*
X166612175Y-91330089D01*
X166634178Y-91334566D01*
X166656599Y-91338343D01*
X166679406Y-91341423D01*
X166726044Y-91345512D01*
X166773823Y-91346867D01*
X166831726Y-91345455D01*
X166887323Y-91341291D01*
X166940608Y-91334477D01*
X166991576Y-91325118D01*
X167040222Y-91313318D01*
X167086541Y-91299182D01*
X167130529Y-91282814D01*
X167172180Y-91264317D01*
X167211489Y-91243796D01*
X167248452Y-91221355D01*
X167283064Y-91197098D01*
X167315319Y-91171130D01*
X167345212Y-91143555D01*
X167372740Y-91114477D01*
X167397895Y-91083999D01*
X167420675Y-91052227D01*
X167627264Y-91262200D01*
X167594014Y-91299642D01*
X167557797Y-91335675D01*
X167518664Y-91370160D01*
X167476663Y-91402958D01*
X167431844Y-91433931D01*
X167384257Y-91462939D01*
X167333951Y-91489844D01*
X167280977Y-91514507D01*
X167225383Y-91536788D01*
X167167219Y-91556549D01*
X167106535Y-91573651D01*
X167043381Y-91587955D01*
X166977805Y-91599322D01*
X166909859Y-91607614D01*
X166839590Y-91612690D01*
X166767050Y-91614413D01*
X166687943Y-91611722D01*
X166610919Y-91603678D01*
X166536396Y-91590326D01*
X166464790Y-91571710D01*
X166396517Y-91547875D01*
X166363762Y-91534014D01*
X166331995Y-91518866D01*
X166301271Y-91502435D01*
X166271641Y-91484727D01*
X166243156Y-91465748D01*
X166215870Y-91445503D01*
X166189834Y-91423999D01*
X166165100Y-91401239D01*
X166141720Y-91377231D01*
X166119747Y-91351980D01*
X166099232Y-91325491D01*
X166080228Y-91297769D01*
X166062787Y-91268821D01*
X166046960Y-91238652D01*
X166032800Y-91207268D01*
X166020359Y-91174673D01*
X166009690Y-91140875D01*
X166000843Y-91105878D01*
X165993872Y-91069687D01*
X165988828Y-91032309D01*
X165985763Y-90993750D01*
X165984730Y-90954013D01*
X165985800Y-90916382D01*
X165988962Y-90880289D01*
X165994145Y-90845687D01*
X166001280Y-90812527D01*
X166010294Y-90780762D01*
X166021118Y-90750342D01*
X166033681Y-90721220D01*
X166047912Y-90693346D01*
X166063741Y-90666673D01*
X166081096Y-90641152D01*
X166099907Y-90616735D01*
X166120104Y-90593373D01*
X166141615Y-90571018D01*
X166164370Y-90549623D01*
X166188299Y-90529137D01*
X166213330Y-90509513D01*
X166239393Y-90490703D01*
X166266417Y-90472659D01*
X166323066Y-90438671D01*
X166382711Y-90407164D01*
X166444787Y-90377751D01*
X166508729Y-90350044D01*
X166573970Y-90323657D01*
X166706089Y-90273294D01*
X166825523Y-90227316D01*
X166883671Y-90203664D01*
X166940193Y-90179155D01*
X166994651Y-90153474D01*
X167046609Y-90126311D01*
X167095630Y-90097351D01*
X167141277Y-90066283D01*
X167183114Y-90032795D01*
X167202467Y-90015045D01*
X167220705Y-89996572D01*
X167237771Y-89977338D01*
X167253612Y-89957304D01*
X167268173Y-89936430D01*
X167281400Y-89914677D01*
X167293237Y-89892007D01*
X167303631Y-89868379D01*
X167312527Y-89843756D01*
X167319870Y-89818098D01*
X167325606Y-89791365D01*
X167329679Y-89763520D01*
X167332037Y-89734522D01*
X167332623Y-89704333D01*
X167331626Y-89678148D01*
X167329291Y-89652926D01*
X167325648Y-89628660D01*
X167320730Y-89605340D01*
X167314566Y-89582957D01*
X167307188Y-89561503D01*
X167298627Y-89540970D01*
X167288913Y-89521348D01*
X167278079Y-89502629D01*
X167266154Y-89484804D01*
X167253170Y-89467864D01*
X167239158Y-89451802D01*
X167224149Y-89436608D01*
X167208174Y-89422273D01*
X167191264Y-89408789D01*
X167173449Y-89396147D01*
X167154762Y-89384338D01*
X167135232Y-89373355D01*
X167114891Y-89363187D01*
X167093770Y-89353827D01*
X167071900Y-89345265D01*
X167049312Y-89337494D01*
X167026037Y-89330503D01*
X167002105Y-89324286D01*
X166977549Y-89318832D01*
X166952398Y-89314134D01*
X166900439Y-89306969D01*
X166846475Y-89302721D01*
X166790756Y-89301320D01*
X166726020Y-89303284D01*
X166662757Y-89309092D01*
X166601171Y-89318621D01*
X166541465Y-89331747D01*
X166483843Y-89348346D01*
X166428508Y-89368293D01*
X166375664Y-89391465D01*
X166325513Y-89417737D01*
X166278259Y-89446986D01*
X166234106Y-89479087D01*
X166193257Y-89513917D01*
X166155915Y-89551351D01*
X166122284Y-89591266D01*
X166092568Y-89633538D01*
X166066968Y-89678041D01*
X166045690Y-89724653D01*
X165822170Y-89497747D01*
X165839232Y-89471011D01*
X165857379Y-89444793D01*
X165876587Y-89419114D01*
X165896829Y-89393997D01*
X165918081Y-89369463D01*
X165940317Y-89345533D01*
X165963512Y-89322229D01*
X165987641Y-89299574D01*
X166012677Y-89277588D01*
X166038595Y-89256294D01*
X166065371Y-89235713D01*
X166092978Y-89215866D01*
X166150585Y-89178465D01*
X166211213Y-89144263D01*
X166274659Y-89113435D01*
X166340720Y-89086154D01*
X166374667Y-89073898D01*
X166409192Y-89062594D01*
X166444268Y-89052263D01*
X166479871Y-89042928D01*
X166515975Y-89034610D01*
X166552554Y-89027330D01*
X166589584Y-89021111D01*
X166627039Y-89015974D01*
X166664893Y-89011940D01*
X166703121Y-89009032D01*
X166741697Y-89007272D01*
X166780596Y-89006680D01*
X166870104Y-89009348D01*
G37*
X166870104Y-89009348D02*
X166956749Y-89017383D01*
X167040130Y-89030835D01*
X167119845Y-89049754D01*
X167195491Y-89074190D01*
X167231664Y-89088492D01*
X167266668Y-89104192D01*
X167300455Y-89121296D01*
X167332974Y-89139810D01*
X167364174Y-89159741D01*
X167394005Y-89181093D01*
X167422418Y-89203875D01*
X167449362Y-89228092D01*
X167474786Y-89253749D01*
X167498641Y-89280855D01*
X167520877Y-89309413D01*
X167541442Y-89339432D01*
X167560287Y-89370916D01*
X167577361Y-89403873D01*
X167592615Y-89438307D01*
X167605998Y-89474227D01*
X167617460Y-89511637D01*
X167626951Y-89550544D01*
X167634420Y-89590955D01*
X167639817Y-89632874D01*
X167643092Y-89676310D01*
X167644195Y-89721267D01*
X167642979Y-89765121D01*
X167639389Y-89807183D01*
X167633510Y-89847510D01*
X167625430Y-89886155D01*
X167615233Y-89923173D01*
X167603007Y-89958618D01*
X167588837Y-89992545D01*
X167572811Y-90025008D01*
X167555013Y-90056063D01*
X167535530Y-90085763D01*
X167514449Y-90114164D01*
X167491855Y-90141319D01*
X167467835Y-90167284D01*
X167442475Y-90192113D01*
X167415861Y-90215860D01*
X167388079Y-90238580D01*
X167359216Y-90260328D01*
X167329358Y-90281158D01*
X167267000Y-90320283D01*
X167201695Y-90356392D01*
X167134133Y-90389922D01*
X167065003Y-90421308D01*
X166994995Y-90450988D01*
X166855103Y-90506973D01*
X166746499Y-90549009D01*
X166694124Y-90570441D01*
X166643490Y-90592434D01*
X166594940Y-90615200D01*
X166548815Y-90638954D01*
X166505459Y-90663909D01*
X166465214Y-90690277D01*
X166428421Y-90718272D01*
X166395423Y-90748108D01*
X166380455Y-90763783D01*
X166366563Y-90779998D01*
X166353791Y-90796779D01*
X166342183Y-90814155D01*
X166331779Y-90832150D01*
X166322624Y-90850792D01*
X166314760Y-90870107D01*
X166308230Y-90890123D01*
X166303076Y-90910866D01*
X166299342Y-90932361D01*
X166297071Y-90954637D01*
X166296304Y-90977720D01*
X166296943Y-91001126D01*
X166298839Y-91023724D01*
X166301957Y-91045516D01*
X166306265Y-91066508D01*
X166311729Y-91086703D01*
X166318315Y-91106107D01*
X166325991Y-91124723D01*
X166334721Y-91142555D01*
X166344474Y-91159609D01*
X166355215Y-91175889D01*
X166366911Y-91191398D01*
X166379528Y-91206141D01*
X166393034Y-91220123D01*
X166407394Y-91233348D01*
X166422575Y-91245820D01*
X166438543Y-91257543D01*
X166455266Y-91268523D01*
X166472709Y-91278762D01*
X166490840Y-91288266D01*
X166509623Y-91297039D01*
X166529028Y-91305085D01*
X166549018Y-91312409D01*
X166569562Y-91319014D01*
X166590626Y-91324906D01*
X166612175Y-91330089D01*
X166634178Y-91334566D01*
X166656599Y-91338343D01*
X166679406Y-91341423D01*
X166726044Y-91345512D01*
X166773823Y-91346867D01*
X166831726Y-91345455D01*
X166887323Y-91341291D01*
X166940608Y-91334477D01*
X166991576Y-91325118D01*
X167040222Y-91313318D01*
X167086541Y-91299182D01*
X167130529Y-91282814D01*
X167172180Y-91264317D01*
X167211489Y-91243796D01*
X167248452Y-91221355D01*
X167283064Y-91197098D01*
X167315319Y-91171130D01*
X167345212Y-91143555D01*
X167372740Y-91114477D01*
X167397895Y-91083999D01*
X167420675Y-91052227D01*
X167627264Y-91262200D01*
X167594014Y-91299642D01*
X167557797Y-91335675D01*
X167518664Y-91370160D01*
X167476663Y-91402958D01*
X167431844Y-91433931D01*
X167384257Y-91462939D01*
X167333951Y-91489844D01*
X167280977Y-91514507D01*
X167225383Y-91536788D01*
X167167219Y-91556549D01*
X167106535Y-91573651D01*
X167043381Y-91587955D01*
X166977805Y-91599322D01*
X166909859Y-91607614D01*
X166839590Y-91612690D01*
X166767050Y-91614413D01*
X166687943Y-91611722D01*
X166610919Y-91603678D01*
X166536396Y-91590326D01*
X166464790Y-91571710D01*
X166396517Y-91547875D01*
X166363762Y-91534014D01*
X166331995Y-91518866D01*
X166301271Y-91502435D01*
X166271641Y-91484727D01*
X166243156Y-91465748D01*
X166215870Y-91445503D01*
X166189834Y-91423999D01*
X166165100Y-91401239D01*
X166141720Y-91377231D01*
X166119747Y-91351980D01*
X166099232Y-91325491D01*
X166080228Y-91297769D01*
X166062787Y-91268821D01*
X166046960Y-91238652D01*
X166032800Y-91207268D01*
X166020359Y-91174673D01*
X166009690Y-91140875D01*
X166000843Y-91105878D01*
X165993872Y-91069687D01*
X165988828Y-91032309D01*
X165985763Y-90993750D01*
X165984730Y-90954013D01*
X165985800Y-90916382D01*
X165988962Y-90880289D01*
X165994145Y-90845687D01*
X166001280Y-90812527D01*
X166010294Y-90780762D01*
X166021118Y-90750342D01*
X166033681Y-90721220D01*
X166047912Y-90693346D01*
X166063741Y-90666673D01*
X166081096Y-90641152D01*
X166099907Y-90616735D01*
X166120104Y-90593373D01*
X166141615Y-90571018D01*
X166164370Y-90549623D01*
X166188299Y-90529137D01*
X166213330Y-90509513D01*
X166239393Y-90490703D01*
X166266417Y-90472659D01*
X166323066Y-90438671D01*
X166382711Y-90407164D01*
X166444787Y-90377751D01*
X166508729Y-90350044D01*
X166573970Y-90323657D01*
X166706089Y-90273294D01*
X166825523Y-90227316D01*
X166883671Y-90203664D01*
X166940193Y-90179155D01*
X166994651Y-90153474D01*
X167046609Y-90126311D01*
X167095630Y-90097351D01*
X167141277Y-90066283D01*
X167183114Y-90032795D01*
X167202467Y-90015045D01*
X167220705Y-89996572D01*
X167237771Y-89977338D01*
X167253612Y-89957304D01*
X167268173Y-89936430D01*
X167281400Y-89914677D01*
X167293237Y-89892007D01*
X167303631Y-89868379D01*
X167312527Y-89843756D01*
X167319870Y-89818098D01*
X167325606Y-89791365D01*
X167329679Y-89763520D01*
X167332037Y-89734522D01*
X167332623Y-89704333D01*
X167331626Y-89678148D01*
X167329291Y-89652926D01*
X167325648Y-89628660D01*
X167320730Y-89605340D01*
X167314566Y-89582957D01*
X167307188Y-89561503D01*
X167298627Y-89540970D01*
X167288913Y-89521348D01*
X167278079Y-89502629D01*
X167266154Y-89484804D01*
X167253170Y-89467864D01*
X167239158Y-89451802D01*
X167224149Y-89436608D01*
X167208174Y-89422273D01*
X167191264Y-89408789D01*
X167173449Y-89396147D01*
X167154762Y-89384338D01*
X167135232Y-89373355D01*
X167114891Y-89363187D01*
X167093770Y-89353827D01*
X167071900Y-89345265D01*
X167049312Y-89337494D01*
X167026037Y-89330503D01*
X167002105Y-89324286D01*
X166977549Y-89318832D01*
X166952398Y-89314134D01*
X166900439Y-89306969D01*
X166846475Y-89302721D01*
X166790756Y-89301320D01*
X166726020Y-89303284D01*
X166662757Y-89309092D01*
X166601171Y-89318621D01*
X166541465Y-89331747D01*
X166483843Y-89348346D01*
X166428508Y-89368293D01*
X166375664Y-89391465D01*
X166325513Y-89417737D01*
X166278259Y-89446986D01*
X166234106Y-89479087D01*
X166193257Y-89513917D01*
X166155915Y-89551351D01*
X166122284Y-89591266D01*
X166092568Y-89633538D01*
X166066968Y-89678041D01*
X166045690Y-89724653D01*
X165822170Y-89497747D01*
X165839232Y-89471011D01*
X165857379Y-89444793D01*
X165876587Y-89419114D01*
X165896829Y-89393997D01*
X165918081Y-89369463D01*
X165940317Y-89345533D01*
X165963512Y-89322229D01*
X165987641Y-89299574D01*
X166012677Y-89277588D01*
X166038595Y-89256294D01*
X166065371Y-89235713D01*
X166092978Y-89215866D01*
X166150585Y-89178465D01*
X166211213Y-89144263D01*
X166274659Y-89113435D01*
X166340720Y-89086154D01*
X166374667Y-89073898D01*
X166409192Y-89062594D01*
X166444268Y-89052263D01*
X166479871Y-89042928D01*
X166515975Y-89034610D01*
X166552554Y-89027330D01*
X166589584Y-89021111D01*
X166627039Y-89015974D01*
X166664893Y-89011940D01*
X166703121Y-89009032D01*
X166741697Y-89007272D01*
X166780596Y-89006680D01*
X166870104Y-89009348D01*
D11*
X165742993Y-92480116D02*
X165650186Y-92404792D01*
X163825673Y-90300791D02*
X164842030Y-89468517D01*
X164758001Y-90957935D02*
X164705841Y-90721225D01*
X164842030Y-89468517D02*
X163967714Y-92639932D01*
X168375341Y-93035404D02*
X168375341Y-93035404D01*
X164705841Y-90721225D02*
X164688063Y-90602847D01*
X164675709Y-90136838D02*
X164688041Y-90023853D01*
X164669691Y-90251558D02*
X164675709Y-90136838D01*
D10*
G36*
X178138862Y-90500200D02*
G01*
X178582515Y-90500200D01*
X178582515Y-90733880D01*
X178138862Y-90733880D01*
X178138862Y-91096253D01*
X178139921Y-91124373D01*
X178143049Y-91151505D01*
X178145366Y-91164665D01*
X178148171Y-91177536D01*
X178151457Y-91190103D01*
X178155213Y-91202351D01*
X178159431Y-91214268D01*
X178164101Y-91225837D01*
X178169213Y-91237046D01*
X178174759Y-91247879D01*
X178180730Y-91258324D01*
X178187115Y-91268364D01*
X178193905Y-91277986D01*
X178201092Y-91287177D01*
X178208666Y-91295920D01*
X178216617Y-91304203D01*
X178224937Y-91312011D01*
X178233616Y-91319330D01*
X178242644Y-91326145D01*
X178252013Y-91332443D01*
X178261714Y-91338208D01*
X178271736Y-91343427D01*
X178282070Y-91348086D01*
X178292708Y-91352169D01*
X178303640Y-91355664D01*
X178314856Y-91358555D01*
X178326348Y-91360828D01*
X178338106Y-91362470D01*
X178350120Y-91363465D01*
X178362382Y-91363800D01*
X178378768Y-91363290D01*
X178394886Y-91361783D01*
X178410706Y-91359313D01*
X178426199Y-91355915D01*
X178441335Y-91351625D01*
X178456084Y-91346476D01*
X178470416Y-91340504D01*
X178484302Y-91333743D01*
X178497711Y-91326228D01*
X178510615Y-91317994D01*
X178522982Y-91309075D01*
X178534784Y-91299506D01*
X178545991Y-91289322D01*
X178556573Y-91278558D01*
X178566500Y-91267248D01*
X178575742Y-91255427D01*
X178745075Y-91438307D01*
X178733587Y-91451922D01*
X178721987Y-91464841D01*
X178710283Y-91477080D01*
X178698482Y-91488657D01*
X178674620Y-91509893D01*
X178650460Y-91528688D01*
X178626062Y-91545182D01*
X178601486Y-91559512D01*
X178576790Y-91571819D01*
X178552035Y-91582240D01*
X178527280Y-91590915D01*
X178502585Y-91597983D01*
X178478008Y-91603582D01*
X178453610Y-91607852D01*
X178429450Y-91610931D01*
X178405588Y-91612958D01*
X178382083Y-91614073D01*
X178358995Y-91614413D01*
X178332172Y-91613773D01*
X178305699Y-91611873D01*
X178279609Y-91608740D01*
X178253936Y-91604405D01*
X178228711Y-91598898D01*
X178203968Y-91592245D01*
X178179740Y-91584478D01*
X178156060Y-91575625D01*
X178132960Y-91565716D01*
X178110473Y-91554779D01*
X178088632Y-91542843D01*
X178067471Y-91529939D01*
X178047021Y-91516094D01*
X178027316Y-91501338D01*
X178008389Y-91485700D01*
X177990272Y-91469210D01*
X177972998Y-91451896D01*
X177956601Y-91433788D01*
X177941113Y-91414915D01*
X177926567Y-91395305D01*
X177912995Y-91374989D01*
X177900432Y-91353995D01*
X177888908Y-91332352D01*
X177878459Y-91310090D01*
X177869115Y-91287237D01*
X177860911Y-91263823D01*
X177853879Y-91239877D01*
X177848051Y-91215428D01*
X177843462Y-91190506D01*
X177840143Y-91165138D01*
X177838127Y-91139356D01*
X177837448Y-91113187D01*
X177837448Y-90733880D01*
X177552968Y-90733880D01*
X177552968Y-90500200D01*
X177837448Y-90500200D01*
X177837448Y-89040547D01*
X178138862Y-89040547D01*
X178138862Y-90500200D01*
G37*
X178138862Y-90500200D02*
X178582515Y-90500200D01*
X178582515Y-90733880D01*
X178138862Y-90733880D01*
X178138862Y-91096253D01*
X178139921Y-91124373D01*
X178143049Y-91151505D01*
X178145366Y-91164665D01*
X178148171Y-91177536D01*
X178151457Y-91190103D01*
X178155213Y-91202351D01*
X178159431Y-91214268D01*
X178164101Y-91225837D01*
X178169213Y-91237046D01*
X178174759Y-91247879D01*
X178180730Y-91258324D01*
X178187115Y-91268364D01*
X178193905Y-91277986D01*
X178201092Y-91287177D01*
X178208666Y-91295920D01*
X178216617Y-91304203D01*
X178224937Y-91312011D01*
X178233616Y-91319330D01*
X178242644Y-91326145D01*
X178252013Y-91332443D01*
X178261714Y-91338208D01*
X178271736Y-91343427D01*
X178282070Y-91348086D01*
X178292708Y-91352169D01*
X178303640Y-91355664D01*
X178314856Y-91358555D01*
X178326348Y-91360828D01*
X178338106Y-91362470D01*
X178350120Y-91363465D01*
X178362382Y-91363800D01*
X178378768Y-91363290D01*
X178394886Y-91361783D01*
X178410706Y-91359313D01*
X178426199Y-91355915D01*
X178441335Y-91351625D01*
X178456084Y-91346476D01*
X178470416Y-91340504D01*
X178484302Y-91333743D01*
X178497711Y-91326228D01*
X178510615Y-91317994D01*
X178522982Y-91309075D01*
X178534784Y-91299506D01*
X178545991Y-91289322D01*
X178556573Y-91278558D01*
X178566500Y-91267248D01*
X178575742Y-91255427D01*
X178745075Y-91438307D01*
X178733587Y-91451922D01*
X178721987Y-91464841D01*
X178710283Y-91477080D01*
X178698482Y-91488657D01*
X178674620Y-91509893D01*
X178650460Y-91528688D01*
X178626062Y-91545182D01*
X178601486Y-91559512D01*
X178576790Y-91571819D01*
X178552035Y-91582240D01*
X178527280Y-91590915D01*
X178502585Y-91597983D01*
X178478008Y-91603582D01*
X178453610Y-91607852D01*
X178429450Y-91610931D01*
X178405588Y-91612958D01*
X178382083Y-91614073D01*
X178358995Y-91614413D01*
X178332172Y-91613773D01*
X178305699Y-91611873D01*
X178279609Y-91608740D01*
X178253936Y-91604405D01*
X178228711Y-91598898D01*
X178203968Y-91592245D01*
X178179740Y-91584478D01*
X178156060Y-91575625D01*
X178132960Y-91565716D01*
X178110473Y-91554779D01*
X178088632Y-91542843D01*
X178067471Y-91529939D01*
X178047021Y-91516094D01*
X178027316Y-91501338D01*
X178008389Y-91485700D01*
X177990272Y-91469210D01*
X177972998Y-91451896D01*
X177956601Y-91433788D01*
X177941113Y-91414915D01*
X177926567Y-91395305D01*
X177912995Y-91374989D01*
X177900432Y-91353995D01*
X177888908Y-91332352D01*
X177878459Y-91310090D01*
X177869115Y-91287237D01*
X177860911Y-91263823D01*
X177853879Y-91239877D01*
X177848051Y-91215428D01*
X177843462Y-91190506D01*
X177840143Y-91165138D01*
X177838127Y-91139356D01*
X177837448Y-91113187D01*
X177837448Y-90733880D01*
X177552968Y-90733880D01*
X177552968Y-90500200D01*
X177837448Y-90500200D01*
X177837448Y-89040547D01*
X178138862Y-89040547D01*
X178138862Y-90500200D01*
D11*
X165391811Y-92149180D02*
X165312856Y-92055190D01*
X166686081Y-92874458D02*
X166432291Y-92821164D01*
X164732234Y-89804403D02*
X164764387Y-89698595D01*
D10*
G36*
X168672024Y-84677398D02*
G01*
X168693286Y-84679094D01*
X168714099Y-84681889D01*
X168734445Y-84685757D01*
X168754307Y-84690671D01*
X168773669Y-84696606D01*
X168792513Y-84703536D01*
X168810824Y-84711435D01*
X168828584Y-84720276D01*
X168845776Y-84730033D01*
X168862384Y-84740681D01*
X168878392Y-84752194D01*
X168893781Y-84764545D01*
X168908537Y-84777708D01*
X168922641Y-84791657D01*
X168936078Y-84806367D01*
X168948829Y-84821811D01*
X168960880Y-84837963D01*
X168972212Y-84854798D01*
X168982810Y-84872288D01*
X168992655Y-84890408D01*
X169001733Y-84909133D01*
X169010025Y-84928435D01*
X169017516Y-84948290D01*
X169024188Y-84968670D01*
X169030025Y-84989550D01*
X169035010Y-85010903D01*
X169039126Y-85032705D01*
X169042356Y-85054928D01*
X169044685Y-85077547D01*
X169046094Y-85100535D01*
X169046567Y-85123867D01*
X169046094Y-85147208D01*
X169044685Y-85170225D01*
X169042356Y-85192890D01*
X169039126Y-85215175D01*
X169035010Y-85237053D01*
X169030025Y-85258497D01*
X169024188Y-85279480D01*
X169017516Y-85299974D01*
X169010025Y-85319952D01*
X169001733Y-85339387D01*
X168992655Y-85358251D01*
X168982810Y-85376518D01*
X168972212Y-85394159D01*
X168960880Y-85411148D01*
X168948829Y-85427458D01*
X168936078Y-85443060D01*
X168922641Y-85457929D01*
X168908537Y-85472036D01*
X168893781Y-85485354D01*
X168878392Y-85497856D01*
X168862384Y-85509514D01*
X168845776Y-85520302D01*
X168828584Y-85530192D01*
X168810824Y-85539157D01*
X168792513Y-85547169D01*
X168773669Y-85554202D01*
X168754307Y-85560227D01*
X168734445Y-85565219D01*
X168714099Y-85569148D01*
X168693286Y-85571989D01*
X168672024Y-85573713D01*
X168650327Y-85574294D01*
X168628035Y-85573713D01*
X168606252Y-85571989D01*
X168584991Y-85569148D01*
X168564265Y-85565219D01*
X168544087Y-85560227D01*
X168524471Y-85554202D01*
X168505429Y-85547169D01*
X168486974Y-85539157D01*
X168469119Y-85530192D01*
X168451878Y-85520302D01*
X168435263Y-85509514D01*
X168419287Y-85497856D01*
X168403964Y-85485354D01*
X168389306Y-85472036D01*
X168375326Y-85457929D01*
X168362038Y-85443060D01*
X168349454Y-85427458D01*
X168337588Y-85411148D01*
X168326452Y-85394159D01*
X168316060Y-85376518D01*
X168306425Y-85358251D01*
X168297558Y-85339387D01*
X168289475Y-85319952D01*
X168282187Y-85299974D01*
X168275708Y-85279480D01*
X168270050Y-85258497D01*
X168265227Y-85237053D01*
X168261252Y-85215175D01*
X168258137Y-85192890D01*
X168255897Y-85170225D01*
X168254543Y-85147208D01*
X168254088Y-85123867D01*
X168254543Y-85100535D01*
X168255897Y-85077547D01*
X168258137Y-85054928D01*
X168261252Y-85032705D01*
X168265227Y-85010903D01*
X168270050Y-84989550D01*
X168275708Y-84968670D01*
X168282187Y-84948290D01*
X168289475Y-84928435D01*
X168297558Y-84909133D01*
X168306425Y-84890408D01*
X168316060Y-84872288D01*
X168326452Y-84854798D01*
X168337588Y-84837963D01*
X168349454Y-84821811D01*
X168362038Y-84806367D01*
X168375326Y-84791657D01*
X168389306Y-84777708D01*
X168403964Y-84764545D01*
X168419287Y-84752194D01*
X168435263Y-84740681D01*
X168451878Y-84730033D01*
X168469119Y-84720276D01*
X168486974Y-84711435D01*
X168505429Y-84703536D01*
X168524471Y-84696606D01*
X168544087Y-84690671D01*
X168564265Y-84685757D01*
X168584991Y-84681889D01*
X168606252Y-84679094D01*
X168628035Y-84677398D01*
X168650327Y-84676827D01*
X168672024Y-84677398D01*
G37*
X168672024Y-84677398D02*
X168693286Y-84679094D01*
X168714099Y-84681889D01*
X168734445Y-84685757D01*
X168754307Y-84690671D01*
X168773669Y-84696606D01*
X168792513Y-84703536D01*
X168810824Y-84711435D01*
X168828584Y-84720276D01*
X168845776Y-84730033D01*
X168862384Y-84740681D01*
X168878392Y-84752194D01*
X168893781Y-84764545D01*
X168908537Y-84777708D01*
X168922641Y-84791657D01*
X168936078Y-84806367D01*
X168948829Y-84821811D01*
X168960880Y-84837963D01*
X168972212Y-84854798D01*
X168982810Y-84872288D01*
X168992655Y-84890408D01*
X169001733Y-84909133D01*
X169010025Y-84928435D01*
X169017516Y-84948290D01*
X169024188Y-84968670D01*
X169030025Y-84989550D01*
X169035010Y-85010903D01*
X169039126Y-85032705D01*
X169042356Y-85054928D01*
X169044685Y-85077547D01*
X169046094Y-85100535D01*
X169046567Y-85123867D01*
X169046094Y-85147208D01*
X169044685Y-85170225D01*
X169042356Y-85192890D01*
X169039126Y-85215175D01*
X169035010Y-85237053D01*
X169030025Y-85258497D01*
X169024188Y-85279480D01*
X169017516Y-85299974D01*
X169010025Y-85319952D01*
X169001733Y-85339387D01*
X168992655Y-85358251D01*
X168982810Y-85376518D01*
X168972212Y-85394159D01*
X168960880Y-85411148D01*
X168948829Y-85427458D01*
X168936078Y-85443060D01*
X168922641Y-85457929D01*
X168908537Y-85472036D01*
X168893781Y-85485354D01*
X168878392Y-85497856D01*
X168862384Y-85509514D01*
X168845776Y-85520302D01*
X168828584Y-85530192D01*
X168810824Y-85539157D01*
X168792513Y-85547169D01*
X168773669Y-85554202D01*
X168754307Y-85560227D01*
X168734445Y-85565219D01*
X168714099Y-85569148D01*
X168693286Y-85571989D01*
X168672024Y-85573713D01*
X168650327Y-85574294D01*
X168628035Y-85573713D01*
X168606252Y-85571989D01*
X168584991Y-85569148D01*
X168564265Y-85565219D01*
X168544087Y-85560227D01*
X168524471Y-85554202D01*
X168505429Y-85547169D01*
X168486974Y-85539157D01*
X168469119Y-85530192D01*
X168451878Y-85520302D01*
X168435263Y-85509514D01*
X168419287Y-85497856D01*
X168403964Y-85485354D01*
X168389306Y-85472036D01*
X168375326Y-85457929D01*
X168362038Y-85443060D01*
X168349454Y-85427458D01*
X168337588Y-85411148D01*
X168326452Y-85394159D01*
X168316060Y-85376518D01*
X168306425Y-85358251D01*
X168297558Y-85339387D01*
X168289475Y-85319952D01*
X168282187Y-85299974D01*
X168275708Y-85279480D01*
X168270050Y-85258497D01*
X168265227Y-85237053D01*
X168261252Y-85215175D01*
X168258137Y-85192890D01*
X168255897Y-85170225D01*
X168254543Y-85147208D01*
X168254088Y-85123867D01*
X168254543Y-85100535D01*
X168255897Y-85077547D01*
X168258137Y-85054928D01*
X168261252Y-85032705D01*
X168265227Y-85010903D01*
X168270050Y-84989550D01*
X168275708Y-84968670D01*
X168282187Y-84948290D01*
X168289475Y-84928435D01*
X168297558Y-84909133D01*
X168306425Y-84890408D01*
X168316060Y-84872288D01*
X168326452Y-84854798D01*
X168337588Y-84837963D01*
X168349454Y-84821811D01*
X168362038Y-84806367D01*
X168375326Y-84791657D01*
X168389306Y-84777708D01*
X168403964Y-84764545D01*
X168419287Y-84752194D01*
X168435263Y-84740681D01*
X168451878Y-84730033D01*
X168469119Y-84720276D01*
X168486974Y-84711435D01*
X168505429Y-84703536D01*
X168524471Y-84696606D01*
X168544087Y-84690671D01*
X168564265Y-84685757D01*
X168584991Y-84681889D01*
X168606252Y-84679094D01*
X168628035Y-84677398D01*
X168650327Y-84676827D01*
X168672024Y-84677398D01*
D11*
X166987885Y-92924909D02*
X166686081Y-92874458D01*
X164831324Y-91192394D02*
X164758001Y-90957935D01*
%LPC*%
D12*
X157099000Y-61976000D03*
X154559000Y-61976000D03*
X157099000Y-59436000D03*
X154559000Y-59436000D03*
X157099000Y-56896000D03*
D13*
X154559000Y-56896000D03*
D14*
X156564000Y-50038000D03*
D15*
X170190000Y-48683500D03*
X178830000Y-48683500D03*
X170190000Y-52863500D03*
X178830000Y-52863500D03*
D16*
X171620000Y-52333500D03*
X177400000Y-52333500D03*
D17*
X188530000Y-56924000D03*
D18*
X188530000Y-60424000D03*
D12*
X154559000Y-108966000D03*
X154559000Y-106426000D03*
X154559000Y-103886000D03*
X154559000Y-101346000D03*
X154559000Y-98806000D03*
X154559000Y-96266000D03*
X154559000Y-93726000D03*
X154559000Y-91186000D03*
X154559000Y-88646000D03*
X154559000Y-86106000D03*
X154559000Y-83566000D03*
X154559000Y-81026000D03*
X154559000Y-78486000D03*
X154559000Y-75946000D03*
X154559000Y-73406000D03*
X154559000Y-70866000D03*
X154559000Y-68326000D03*
D13*
X154559000Y-65786000D03*
D14*
X189230000Y-115062000D03*
D17*
X163096000Y-50800000D03*
D18*
X166596000Y-50800000D03*
D14*
X189230000Y-50038000D03*
X156564000Y-115062000D03*
D12*
X190906400Y-108946000D03*
X190906400Y-106406000D03*
X190906400Y-103866000D03*
X190906400Y-101326000D03*
X190906400Y-98786000D03*
X190906400Y-96246000D03*
X190906400Y-93706000D03*
X190906400Y-91166000D03*
X190906400Y-88626000D03*
X190906400Y-86086000D03*
X190906400Y-83546000D03*
X190906400Y-81006000D03*
X190906400Y-78466000D03*
X190906400Y-75926000D03*
D13*
X190906400Y-73386000D03*
M02*
