G04 #@! TF.GenerationSoftware,KiCad,Pcbnew,(6.0.7)*
G04 #@! TF.CreationDate,2022-10-20T15:16:28+05:30*
G04 #@! TF.ProjectId,lornode,6c6f726e-6f64-4652-9e6b-696361645f70,rev?*
G04 #@! TF.SameCoordinates,Original*
G04 #@! TF.FileFunction,Legend,Top*
G04 #@! TF.FilePolarity,Positive*
%FSLAX46Y46*%
G04 Gerber Fmt 4.6, Leading zero omitted, Abs format (unit mm)*
G04 Created by KiCad (PCBNEW (6.0.7)) date 2022-10-20 15:16:28*
%MOMM*%
%LPD*%
G01*
G04 APERTURE LIST*
G04 Aperture macros list*
%AMRoundRect*
0 Rectangle with rounded corners*
0 $1 Rounding radius*
0 $2 $3 $4 $5 $6 $7 $8 $9 X,Y pos of 4 corners*
0 Add a 4 corners polygon primitive as box body*
4,1,4,$2,$3,$4,$5,$6,$7,$8,$9,$2,$3,0*
0 Add four circle primitives for the rounded corners*
1,1,$1+$1,$2,$3*
1,1,$1+$1,$4,$5*
1,1,$1+$1,$6,$7*
1,1,$1+$1,$8,$9*
0 Add four rect primitives between the rounded corners*
20,1,$1+$1,$2,$3,$4,$5,0*
20,1,$1+$1,$4,$5,$6,$7,0*
20,1,$1+$1,$6,$7,$8,$9,0*
20,1,$1+$1,$8,$9,$2,$3,0*%
G04 Aperture macros list end*
%ADD10C,0.396874*%
%ADD11C,0.060000*%
%ADD12C,0.150000*%
%ADD13C,0.200000*%
%ADD14C,0.120000*%
%ADD15C,0.100000*%
%ADD16C,0.127000*%
%ADD17R,0.600000X1.200000*%
%ADD18RoundRect,0.200000X-0.200000X-0.275000X0.200000X-0.275000X0.200000X0.275000X-0.200000X0.275000X0*%
%ADD19R,0.700000X0.450000*%
%ADD20RoundRect,0.200000X-0.275000X0.200000X-0.275000X-0.200000X0.275000X-0.200000X0.275000X0.200000X0*%
%ADD21RoundRect,0.243750X0.456250X-0.243750X0.456250X0.243750X-0.456250X0.243750X-0.456250X-0.243750X0*%
%ADD22RoundRect,0.200000X0.200000X0.275000X-0.200000X0.275000X-0.200000X-0.275000X0.200000X-0.275000X0*%
%ADD23R,1.000000X2.000000*%
%ADD24O,1.700000X1.700000*%
%ADD25R,1.700000X1.700000*%
%ADD26R,1.500000X2.000000*%
%ADD27RoundRect,0.200000X0.275000X-0.200000X0.275000X0.200000X-0.275000X0.200000X-0.275000X-0.200000X0*%
%ADD28RoundRect,0.225000X-0.250000X0.225000X-0.250000X-0.225000X0.250000X-0.225000X0.250000X0.225000X0*%
%ADD29R,0.450000X0.700000*%
%ADD30R,1.000000X1.500000*%
%ADD31C,6.400000*%
%ADD32RoundRect,0.250000X-0.250000X-0.475000X0.250000X-0.475000X0.250000X0.475000X-0.250000X0.475000X0*%
%ADD33RoundRect,0.150000X0.150000X-0.825000X0.150000X0.825000X-0.150000X0.825000X-0.150000X-0.825000X0*%
%ADD34O,1.050000X2.100000*%
%ADD35R,0.300000X1.450000*%
%ADD36R,0.600000X1.450000*%
%ADD37C,0.700000*%
%ADD38C,2.400000*%
%ADD39R,2.400000X2.400000*%
%ADD40RoundRect,0.225000X0.225000X0.250000X-0.225000X0.250000X-0.225000X-0.250000X0.225000X-0.250000X0*%
%ADD41R,0.558800X0.946899*%
%ADD42RoundRect,0.250000X0.250000X0.475000X-0.250000X0.475000X-0.250000X-0.475000X0.250000X-0.475000X0*%
%ADD43RoundRect,0.225000X0.250000X-0.225000X0.250000X0.225000X-0.250000X0.225000X-0.250000X-0.225000X0*%
%ADD44R,2.513000X3.402000*%
%ADD45R,1.525000X0.700000*%
%ADD46R,1.550000X2.200000*%
%ADD47RoundRect,0.150000X0.587500X0.150000X-0.587500X0.150000X-0.587500X-0.150000X0.587500X-0.150000X0*%
%ADD48RoundRect,0.225000X-0.225000X-0.250000X0.225000X-0.250000X0.225000X0.250000X-0.225000X0.250000X0*%
%ADD49R,5.000000X5.000000*%
%ADD50R,2.000000X0.900000*%
%ADD51R,0.900000X2.000000*%
%ADD52R,0.946899X0.558800*%
%ADD53RoundRect,0.250000X-0.475000X0.250000X-0.475000X-0.250000X0.475000X-0.250000X0.475000X0.250000X0*%
%ADD54R,0.450000X1.475000*%
%ADD55RoundRect,0.250000X0.475000X-0.250000X0.475000X0.250000X-0.475000X0.250000X-0.475000X-0.250000X0*%
G04 APERTURE END LIST*
D10*
X185423113Y-78221664D02*
X185276834Y-78420854D01*
X185901649Y-76389517D02*
X185913981Y-76502502D01*
X182395471Y-79407310D02*
X182294383Y-79406492D01*
X188187145Y-75735664D02*
X186764017Y-76666455D01*
X185919848Y-76733349D02*
X185913676Y-76850554D01*
X187812852Y-80568132D02*
X188187145Y-75735664D01*
X184445956Y-79088918D02*
X184339125Y-79133522D01*
D11*
G36*
X193149950Y-73399829D02*
G01*
X193155707Y-73400268D01*
X193161403Y-73400990D01*
X193167027Y-73401988D01*
X193172573Y-73403257D01*
X193178031Y-73404788D01*
X193183393Y-73406575D01*
X193188650Y-73408611D01*
X193193793Y-73410889D01*
X193198814Y-73413402D01*
X193203705Y-73416142D01*
X193208456Y-73419104D01*
X193213059Y-73422279D01*
X193217506Y-73425661D01*
X193221788Y-73429244D01*
X193225896Y-73433019D01*
X193229822Y-73436981D01*
X193233557Y-73441121D01*
X193237092Y-73445433D01*
X193240419Y-73449911D01*
X193243530Y-73454547D01*
X193246415Y-73459334D01*
X193249066Y-73464265D01*
X193251475Y-73469333D01*
X193253632Y-73474532D01*
X193255530Y-73479853D01*
X193257159Y-73485291D01*
X193258512Y-73490839D01*
X193259579Y-73496488D01*
X193260351Y-73502233D01*
X193260821Y-73508067D01*
X193260980Y-73513981D01*
X193260980Y-73656222D01*
X193028570Y-73656222D01*
X193028570Y-73513981D01*
X193028725Y-73508067D01*
X193029184Y-73502233D01*
X193029940Y-73496488D01*
X193030983Y-73490839D01*
X193032307Y-73485291D01*
X193033903Y-73479853D01*
X193035762Y-73474532D01*
X193037877Y-73469333D01*
X193040239Y-73464265D01*
X193042840Y-73459334D01*
X193045673Y-73454547D01*
X193048729Y-73449911D01*
X193051999Y-73445433D01*
X193055477Y-73441121D01*
X193059152Y-73436981D01*
X193063019Y-73433019D01*
X193067067Y-73429244D01*
X193071290Y-73425661D01*
X193075679Y-73422279D01*
X193080226Y-73419104D01*
X193084922Y-73416142D01*
X193089760Y-73413402D01*
X193094732Y-73410889D01*
X193099829Y-73408611D01*
X193105043Y-73406575D01*
X193110366Y-73404788D01*
X193115790Y-73403257D01*
X193121307Y-73401988D01*
X193126909Y-73400990D01*
X193132587Y-73400268D01*
X193138333Y-73399829D01*
X193144140Y-73399682D01*
X193149950Y-73399829D01*
G37*
X193149950Y-73399829D02*
X193155707Y-73400268D01*
X193161403Y-73400990D01*
X193167027Y-73401988D01*
X193172573Y-73403257D01*
X193178031Y-73404788D01*
X193183393Y-73406575D01*
X193188650Y-73408611D01*
X193193793Y-73410889D01*
X193198814Y-73413402D01*
X193203705Y-73416142D01*
X193208456Y-73419104D01*
X193213059Y-73422279D01*
X193217506Y-73425661D01*
X193221788Y-73429244D01*
X193225896Y-73433019D01*
X193229822Y-73436981D01*
X193233557Y-73441121D01*
X193237092Y-73445433D01*
X193240419Y-73449911D01*
X193243530Y-73454547D01*
X193246415Y-73459334D01*
X193249066Y-73464265D01*
X193251475Y-73469333D01*
X193253632Y-73474532D01*
X193255530Y-73479853D01*
X193257159Y-73485291D01*
X193258512Y-73490839D01*
X193259579Y-73496488D01*
X193260351Y-73502233D01*
X193260821Y-73508067D01*
X193260980Y-73513981D01*
X193260980Y-73656222D01*
X193028570Y-73656222D01*
X193028570Y-73513981D01*
X193028725Y-73508067D01*
X193029184Y-73502233D01*
X193029940Y-73496488D01*
X193030983Y-73490839D01*
X193032307Y-73485291D01*
X193033903Y-73479853D01*
X193035762Y-73474532D01*
X193037877Y-73469333D01*
X193040239Y-73464265D01*
X193042840Y-73459334D01*
X193045673Y-73454547D01*
X193048729Y-73449911D01*
X193051999Y-73445433D01*
X193055477Y-73441121D01*
X193059152Y-73436981D01*
X193063019Y-73433019D01*
X193067067Y-73429244D01*
X193071290Y-73425661D01*
X193075679Y-73422279D01*
X193080226Y-73419104D01*
X193084922Y-73416142D01*
X193089760Y-73413402D01*
X193094732Y-73410889D01*
X193099829Y-73408611D01*
X193105043Y-73406575D01*
X193110366Y-73404788D01*
X193115790Y-73403257D01*
X193121307Y-73401988D01*
X193126909Y-73400990D01*
X193132587Y-73400268D01*
X193138333Y-73399829D01*
X193144140Y-73399682D01*
X193149950Y-73399829D01*
D10*
X185197879Y-78514844D02*
X185115241Y-78604660D01*
D11*
G36*
X193537297Y-73329979D02*
G01*
X193543043Y-73330418D01*
X193548721Y-73331141D01*
X193554323Y-73332141D01*
X193559840Y-73333412D01*
X193565264Y-73334947D01*
X193570587Y-73336739D01*
X193575801Y-73338781D01*
X193580898Y-73341067D01*
X193585870Y-73343590D01*
X193590708Y-73346344D01*
X193595404Y-73349321D01*
X193599951Y-73352514D01*
X193604340Y-73355918D01*
X193608563Y-73359525D01*
X193612611Y-73363328D01*
X193616478Y-73367321D01*
X193620153Y-73371497D01*
X193623631Y-73375849D01*
X193626901Y-73380371D01*
X193629957Y-73385056D01*
X193632789Y-73389896D01*
X193635391Y-73394886D01*
X193637753Y-73400019D01*
X193639868Y-73405287D01*
X193641727Y-73410685D01*
X193643323Y-73416204D01*
X193644646Y-73421840D01*
X193645690Y-73427584D01*
X193646446Y-73433430D01*
X193646905Y-73439371D01*
X193647060Y-73445401D01*
X193647060Y-73656222D01*
X193415920Y-73656222D01*
X193415920Y-73445401D01*
X193416075Y-73439371D01*
X193416534Y-73433430D01*
X193417290Y-73427584D01*
X193418333Y-73421840D01*
X193419657Y-73416204D01*
X193421253Y-73410685D01*
X193423112Y-73405287D01*
X193425227Y-73400019D01*
X193427589Y-73394886D01*
X193430190Y-73389896D01*
X193433023Y-73385056D01*
X193436079Y-73380371D01*
X193439349Y-73375849D01*
X193442827Y-73371497D01*
X193446502Y-73367321D01*
X193450369Y-73363328D01*
X193454417Y-73359525D01*
X193458640Y-73355918D01*
X193463029Y-73352514D01*
X193467576Y-73349321D01*
X193472272Y-73346344D01*
X193477110Y-73343590D01*
X193482082Y-73341067D01*
X193487179Y-73338781D01*
X193492393Y-73336739D01*
X193497716Y-73334947D01*
X193503140Y-73333412D01*
X193508657Y-73332141D01*
X193514259Y-73331141D01*
X193519937Y-73330418D01*
X193525683Y-73329979D01*
X193531490Y-73329832D01*
X193537297Y-73329979D01*
G37*
X193537297Y-73329979D02*
X193543043Y-73330418D01*
X193548721Y-73331141D01*
X193554323Y-73332141D01*
X193559840Y-73333412D01*
X193565264Y-73334947D01*
X193570587Y-73336739D01*
X193575801Y-73338781D01*
X193580898Y-73341067D01*
X193585870Y-73343590D01*
X193590708Y-73346344D01*
X193595404Y-73349321D01*
X193599951Y-73352514D01*
X193604340Y-73355918D01*
X193608563Y-73359525D01*
X193612611Y-73363328D01*
X193616478Y-73367321D01*
X193620153Y-73371497D01*
X193623631Y-73375849D01*
X193626901Y-73380371D01*
X193629957Y-73385056D01*
X193632789Y-73389896D01*
X193635391Y-73394886D01*
X193637753Y-73400019D01*
X193639868Y-73405287D01*
X193641727Y-73410685D01*
X193643323Y-73416204D01*
X193644646Y-73421840D01*
X193645690Y-73427584D01*
X193646446Y-73433430D01*
X193646905Y-73439371D01*
X193647060Y-73445401D01*
X193647060Y-73656222D01*
X193415920Y-73656222D01*
X193415920Y-73445401D01*
X193416075Y-73439371D01*
X193416534Y-73433430D01*
X193417290Y-73427584D01*
X193418333Y-73421840D01*
X193419657Y-73416204D01*
X193421253Y-73410685D01*
X193423112Y-73405287D01*
X193425227Y-73400019D01*
X193427589Y-73394886D01*
X193430190Y-73389896D01*
X193433023Y-73385056D01*
X193436079Y-73380371D01*
X193439349Y-73375849D01*
X193442827Y-73371497D01*
X193446502Y-73367321D01*
X193450369Y-73363328D01*
X193454417Y-73359525D01*
X193458640Y-73355918D01*
X193463029Y-73352514D01*
X193467576Y-73349321D01*
X193472272Y-73346344D01*
X193477110Y-73343590D01*
X193482082Y-73341067D01*
X193487179Y-73338781D01*
X193492393Y-73336739D01*
X193497716Y-73334947D01*
X193503140Y-73333412D01*
X193508657Y-73332141D01*
X193514259Y-73331141D01*
X193519937Y-73330418D01*
X193525683Y-73329979D01*
X193531490Y-73329832D01*
X193537297Y-73329979D01*
D10*
X183276039Y-79335349D02*
X182950360Y-79371619D01*
X185919999Y-76617222D02*
X185919848Y-76733349D01*
X185747660Y-75834181D02*
X185747660Y-75834181D01*
X183903609Y-79240122D02*
X183601805Y-79290573D01*
X186621976Y-79005596D02*
X185747660Y-75834181D01*
X182648821Y-79396550D02*
X182395471Y-79407310D01*
X185831689Y-77323599D02*
X185758366Y-77558058D01*
X186621976Y-79005596D02*
X182214349Y-79401068D01*
X182294383Y-79406492D02*
X182214362Y-79401068D01*
X185665049Y-77787639D02*
X185552908Y-78009717D01*
X185857456Y-76170067D02*
X185882856Y-76278596D01*
X184846697Y-78845780D02*
X184750792Y-78915617D01*
X185758366Y-77558058D02*
X185665049Y-77787639D01*
X182214349Y-79401068D02*
X187812852Y-80568132D01*
X185029067Y-78689974D02*
X184939504Y-78770456D01*
D11*
G36*
X193476880Y-72796400D02*
G01*
X193056510Y-72638920D01*
X193476880Y-72482710D01*
X193476880Y-72796400D01*
G37*
X193476880Y-72796400D02*
X193056510Y-72638920D01*
X193476880Y-72482710D01*
X193476880Y-72796400D01*
D10*
X185883849Y-77086889D02*
X185831689Y-77323599D01*
X186621976Y-79005596D02*
X187812852Y-80568132D01*
X185747660Y-75834181D02*
X186764017Y-76666455D01*
X185552908Y-78009717D02*
X185423113Y-78221664D01*
X184157399Y-79186828D02*
X183903609Y-79240122D01*
X187812852Y-80568132D02*
X186764017Y-76666455D01*
X185115241Y-78604660D02*
X185029067Y-78689974D01*
X184550276Y-79037514D02*
X184445956Y-79088918D01*
X185913676Y-76850554D02*
X185901627Y-76968511D01*
X185825303Y-76064259D02*
X185857456Y-76170067D01*
X185913981Y-76502502D02*
X185919999Y-76617222D01*
X183601805Y-79290573D02*
X183276039Y-79335349D01*
D11*
G36*
X192624075Y-71364316D02*
G01*
X194132200Y-71364316D01*
X194132200Y-75094941D01*
X192624075Y-75094941D01*
X192624075Y-74434273D01*
X192849500Y-74434273D01*
X192850135Y-74459965D01*
X192852019Y-74485118D01*
X192855123Y-74509714D01*
X192859414Y-74533735D01*
X192864864Y-74557162D01*
X192871442Y-74579977D01*
X192879117Y-74602163D01*
X192887858Y-74623701D01*
X192897636Y-74644573D01*
X192908419Y-74664761D01*
X192920177Y-74684247D01*
X192932881Y-74703012D01*
X192946499Y-74721038D01*
X192961000Y-74738308D01*
X192976356Y-74754803D01*
X192992534Y-74770505D01*
X193009504Y-74785396D01*
X193027237Y-74799458D01*
X193045701Y-74812672D01*
X193064867Y-74825021D01*
X193084703Y-74836486D01*
X193105179Y-74847049D01*
X193126265Y-74856693D01*
X193147930Y-74865398D01*
X193170144Y-74873147D01*
X193192877Y-74879922D01*
X193216097Y-74885704D01*
X193239774Y-74890476D01*
X193263879Y-74894218D01*
X193288380Y-74896914D01*
X193313247Y-74898545D01*
X193338450Y-74899093D01*
X193363653Y-74898545D01*
X193388520Y-74896914D01*
X193413021Y-74894218D01*
X193437125Y-74890476D01*
X193460803Y-74885704D01*
X193484023Y-74879922D01*
X193506756Y-74873147D01*
X193528970Y-74865398D01*
X193550635Y-74856693D01*
X193571721Y-74847049D01*
X193592197Y-74836486D01*
X193612033Y-74825021D01*
X193631199Y-74812672D01*
X193649663Y-74799458D01*
X193667396Y-74785396D01*
X193684366Y-74770505D01*
X193700544Y-74754803D01*
X193715899Y-74738308D01*
X193730401Y-74721038D01*
X193744019Y-74703012D01*
X193756722Y-74684247D01*
X193768481Y-74664761D01*
X193779264Y-74644573D01*
X193789042Y-74623701D01*
X193797783Y-74602163D01*
X193805458Y-74579977D01*
X193812036Y-74557162D01*
X193817486Y-74533735D01*
X193821777Y-74509714D01*
X193824881Y-74485118D01*
X193826765Y-74459965D01*
X193827400Y-74434273D01*
X193826765Y-74408692D01*
X193824881Y-74383636D01*
X193821777Y-74359124D01*
X193817486Y-74335175D01*
X193814700Y-74323231D01*
X193812036Y-74311807D01*
X193805458Y-74289039D01*
X193797783Y-74266890D01*
X193789042Y-74245379D01*
X193779264Y-74224525D01*
X193768481Y-74204346D01*
X193756722Y-74184862D01*
X193744019Y-74166091D01*
X193730401Y-74148052D01*
X193715899Y-74130763D01*
X193700544Y-74114245D01*
X193684366Y-74098515D01*
X193667396Y-74083593D01*
X193649663Y-74069496D01*
X193631199Y-74056245D01*
X193612033Y-74043858D01*
X193592197Y-74032353D01*
X193571721Y-74021750D01*
X193550635Y-74012068D01*
X193528970Y-74003324D01*
X193506756Y-73995539D01*
X193484023Y-73988731D01*
X193460803Y-73982918D01*
X193437125Y-73978120D01*
X193413021Y-73974356D01*
X193388520Y-73971644D01*
X193363653Y-73970002D01*
X193338450Y-73969451D01*
X193313247Y-73970002D01*
X193288380Y-73971644D01*
X193263879Y-73974356D01*
X193239774Y-73978120D01*
X193216097Y-73982918D01*
X193192877Y-73988731D01*
X193170144Y-73995539D01*
X193147930Y-74003324D01*
X193126265Y-74012068D01*
X193105179Y-74021750D01*
X193084703Y-74032353D01*
X193064867Y-74043858D01*
X193045701Y-74056245D01*
X193027237Y-74069496D01*
X193009504Y-74083593D01*
X192992534Y-74098515D01*
X192976356Y-74114245D01*
X192961000Y-74130763D01*
X192946499Y-74148052D01*
X192932881Y-74166091D01*
X192920177Y-74184862D01*
X192908419Y-74204346D01*
X192897636Y-74224525D01*
X192887858Y-74245379D01*
X192879117Y-74266890D01*
X192871442Y-74289039D01*
X192864864Y-74311807D01*
X192859414Y-74335175D01*
X192855123Y-74359124D01*
X192852019Y-74383636D01*
X192850135Y-74408692D01*
X192849500Y-74434273D01*
X192624075Y-74434273D01*
X192624075Y-73846722D01*
X192862200Y-73846722D01*
X193814700Y-73846722D01*
X193814700Y-73417462D01*
X193814422Y-73402916D01*
X193813590Y-73388581D01*
X193812210Y-73374472D01*
X193810287Y-73360607D01*
X193807825Y-73347001D01*
X193804830Y-73333670D01*
X193801306Y-73320633D01*
X193797257Y-73307904D01*
X193792690Y-73295501D01*
X193787609Y-73283440D01*
X193782018Y-73271738D01*
X193775923Y-73260411D01*
X193769328Y-73249475D01*
X193762239Y-73238948D01*
X193754660Y-73228845D01*
X193746596Y-73219183D01*
X193738052Y-73209979D01*
X193729034Y-73201249D01*
X193719544Y-73193009D01*
X193709590Y-73185277D01*
X193699175Y-73178069D01*
X193688305Y-73171401D01*
X193676984Y-73165289D01*
X193665217Y-73159751D01*
X193653009Y-73154802D01*
X193640365Y-73150460D01*
X193627291Y-73146740D01*
X193613789Y-73143660D01*
X193599867Y-73141235D01*
X193585528Y-73139483D01*
X193570777Y-73138420D01*
X193555620Y-73138062D01*
X193543981Y-73138272D01*
X193532639Y-73138900D01*
X193521592Y-73139938D01*
X193510838Y-73141378D01*
X193500376Y-73143213D01*
X193490204Y-73145437D01*
X193480322Y-73148041D01*
X193470728Y-73151019D01*
X193461421Y-73154364D01*
X193452398Y-73158068D01*
X193443660Y-73162124D01*
X193435203Y-73166525D01*
X193427028Y-73171263D01*
X193419132Y-73176332D01*
X193411514Y-73181725D01*
X193404172Y-73187433D01*
X193397107Y-73193450D01*
X193390315Y-73199768D01*
X193377547Y-73213282D01*
X193365859Y-73227915D01*
X193355238Y-73243610D01*
X193345674Y-73260311D01*
X193337155Y-73277957D01*
X193329671Y-73296494D01*
X193323210Y-73315862D01*
X193315753Y-73303780D01*
X193311788Y-73297970D01*
X193307665Y-73292317D01*
X193303383Y-73286824D01*
X193298941Y-73281493D01*
X193294338Y-73276329D01*
X193289575Y-73271332D01*
X193284649Y-73266507D01*
X193279561Y-73261856D01*
X193274310Y-73257381D01*
X193268895Y-73253086D01*
X193263315Y-73248973D01*
X193257570Y-73245045D01*
X193251659Y-73241306D01*
X193245581Y-73237757D01*
X193239336Y-73234401D01*
X193232922Y-73231242D01*
X193226340Y-73228281D01*
X193219588Y-73225523D01*
X193212666Y-73222969D01*
X193205573Y-73220623D01*
X193198309Y-73218487D01*
X193190872Y-73216563D01*
X193183262Y-73214856D01*
X193175479Y-73213367D01*
X193167521Y-73212100D01*
X193159387Y-73211057D01*
X193151079Y-73210241D01*
X193142593Y-73209654D01*
X193133930Y-73209300D01*
X193125090Y-73209182D01*
X193109810Y-73209543D01*
X193094930Y-73210618D01*
X193080455Y-73212388D01*
X193066392Y-73214837D01*
X193052746Y-73217948D01*
X193039521Y-73221705D01*
X193026725Y-73226091D01*
X193014362Y-73231089D01*
X193002438Y-73236682D01*
X192990959Y-73242854D01*
X192979930Y-73249587D01*
X192969356Y-73256866D01*
X192959244Y-73264673D01*
X192949599Y-73272992D01*
X192940427Y-73281805D01*
X192931732Y-73291097D01*
X192923522Y-73300849D01*
X192915800Y-73311047D01*
X192908574Y-73321672D01*
X192901848Y-73332709D01*
X192895628Y-73344140D01*
X192889919Y-73355948D01*
X192884728Y-73368118D01*
X192880059Y-73380632D01*
X192875919Y-73393473D01*
X192872313Y-73406624D01*
X192869246Y-73420070D01*
X192866724Y-73433793D01*
X192864753Y-73447776D01*
X192863339Y-73462003D01*
X192862486Y-73476457D01*
X192862200Y-73491121D01*
X192862200Y-73846722D01*
X192624075Y-73846722D01*
X192624075Y-72746870D01*
X192862200Y-72746870D01*
X193814700Y-73129140D01*
X193814700Y-72922130D01*
X193634360Y-72854820D01*
X193634360Y-72424290D01*
X193814700Y-72356980D01*
X193814700Y-72149970D01*
X193028570Y-72465470D01*
X192862200Y-72532240D01*
X192862200Y-72746870D01*
X192624075Y-72746870D01*
X192624075Y-72219391D01*
X192862200Y-72219391D01*
X193028570Y-72219391D01*
X193028570Y-71974281D01*
X193814700Y-71974281D01*
X193814700Y-71785051D01*
X193028570Y-71785051D01*
X193028570Y-71541211D01*
X192862200Y-71541211D01*
X192862200Y-72219391D01*
X192624075Y-72219391D01*
X192624075Y-71364316D01*
G37*
X192624075Y-71364316D02*
X194132200Y-71364316D01*
X194132200Y-75094941D01*
X192624075Y-75094941D01*
X192624075Y-74434273D01*
X192849500Y-74434273D01*
X192850135Y-74459965D01*
X192852019Y-74485118D01*
X192855123Y-74509714D01*
X192859414Y-74533735D01*
X192864864Y-74557162D01*
X192871442Y-74579977D01*
X192879117Y-74602163D01*
X192887858Y-74623701D01*
X192897636Y-74644573D01*
X192908419Y-74664761D01*
X192920177Y-74684247D01*
X192932881Y-74703012D01*
X192946499Y-74721038D01*
X192961000Y-74738308D01*
X192976356Y-74754803D01*
X192992534Y-74770505D01*
X193009504Y-74785396D01*
X193027237Y-74799458D01*
X193045701Y-74812672D01*
X193064867Y-74825021D01*
X193084703Y-74836486D01*
X193105179Y-74847049D01*
X193126265Y-74856693D01*
X193147930Y-74865398D01*
X193170144Y-74873147D01*
X193192877Y-74879922D01*
X193216097Y-74885704D01*
X193239774Y-74890476D01*
X193263879Y-74894218D01*
X193288380Y-74896914D01*
X193313247Y-74898545D01*
X193338450Y-74899093D01*
X193363653Y-74898545D01*
X193388520Y-74896914D01*
X193413021Y-74894218D01*
X193437125Y-74890476D01*
X193460803Y-74885704D01*
X193484023Y-74879922D01*
X193506756Y-74873147D01*
X193528970Y-74865398D01*
X193550635Y-74856693D01*
X193571721Y-74847049D01*
X193592197Y-74836486D01*
X193612033Y-74825021D01*
X193631199Y-74812672D01*
X193649663Y-74799458D01*
X193667396Y-74785396D01*
X193684366Y-74770505D01*
X193700544Y-74754803D01*
X193715899Y-74738308D01*
X193730401Y-74721038D01*
X193744019Y-74703012D01*
X193756722Y-74684247D01*
X193768481Y-74664761D01*
X193779264Y-74644573D01*
X193789042Y-74623701D01*
X193797783Y-74602163D01*
X193805458Y-74579977D01*
X193812036Y-74557162D01*
X193817486Y-74533735D01*
X193821777Y-74509714D01*
X193824881Y-74485118D01*
X193826765Y-74459965D01*
X193827400Y-74434273D01*
X193826765Y-74408692D01*
X193824881Y-74383636D01*
X193821777Y-74359124D01*
X193817486Y-74335175D01*
X193814700Y-74323231D01*
X193812036Y-74311807D01*
X193805458Y-74289039D01*
X193797783Y-74266890D01*
X193789042Y-74245379D01*
X193779264Y-74224525D01*
X193768481Y-74204346D01*
X193756722Y-74184862D01*
X193744019Y-74166091D01*
X193730401Y-74148052D01*
X193715899Y-74130763D01*
X193700544Y-74114245D01*
X193684366Y-74098515D01*
X193667396Y-74083593D01*
X193649663Y-74069496D01*
X193631199Y-74056245D01*
X193612033Y-74043858D01*
X193592197Y-74032353D01*
X193571721Y-74021750D01*
X193550635Y-74012068D01*
X193528970Y-74003324D01*
X193506756Y-73995539D01*
X193484023Y-73988731D01*
X193460803Y-73982918D01*
X193437125Y-73978120D01*
X193413021Y-73974356D01*
X193388520Y-73971644D01*
X193363653Y-73970002D01*
X193338450Y-73969451D01*
X193313247Y-73970002D01*
X193288380Y-73971644D01*
X193263879Y-73974356D01*
X193239774Y-73978120D01*
X193216097Y-73982918D01*
X193192877Y-73988731D01*
X193170144Y-73995539D01*
X193147930Y-74003324D01*
X193126265Y-74012068D01*
X193105179Y-74021750D01*
X193084703Y-74032353D01*
X193064867Y-74043858D01*
X193045701Y-74056245D01*
X193027237Y-74069496D01*
X193009504Y-74083593D01*
X192992534Y-74098515D01*
X192976356Y-74114245D01*
X192961000Y-74130763D01*
X192946499Y-74148052D01*
X192932881Y-74166091D01*
X192920177Y-74184862D01*
X192908419Y-74204346D01*
X192897636Y-74224525D01*
X192887858Y-74245379D01*
X192879117Y-74266890D01*
X192871442Y-74289039D01*
X192864864Y-74311807D01*
X192859414Y-74335175D01*
X192855123Y-74359124D01*
X192852019Y-74383636D01*
X192850135Y-74408692D01*
X192849500Y-74434273D01*
X192624075Y-74434273D01*
X192624075Y-73846722D01*
X192862200Y-73846722D01*
X193814700Y-73846722D01*
X193814700Y-73417462D01*
X193814422Y-73402916D01*
X193813590Y-73388581D01*
X193812210Y-73374472D01*
X193810287Y-73360607D01*
X193807825Y-73347001D01*
X193804830Y-73333670D01*
X193801306Y-73320633D01*
X193797257Y-73307904D01*
X193792690Y-73295501D01*
X193787609Y-73283440D01*
X193782018Y-73271738D01*
X193775923Y-73260411D01*
X193769328Y-73249475D01*
X193762239Y-73238948D01*
X193754660Y-73228845D01*
X193746596Y-73219183D01*
X193738052Y-73209979D01*
X193729034Y-73201249D01*
X193719544Y-73193009D01*
X193709590Y-73185277D01*
X193699175Y-73178069D01*
X193688305Y-73171401D01*
X193676984Y-73165289D01*
X193665217Y-73159751D01*
X193653009Y-73154802D01*
X193640365Y-73150460D01*
X193627291Y-73146740D01*
X193613789Y-73143660D01*
X193599867Y-73141235D01*
X193585528Y-73139483D01*
X193570777Y-73138420D01*
X193555620Y-73138062D01*
X193543981Y-73138272D01*
X193532639Y-73138900D01*
X193521592Y-73139938D01*
X193510838Y-73141378D01*
X193500376Y-73143213D01*
X193490204Y-73145437D01*
X193480322Y-73148041D01*
X193470728Y-73151019D01*
X193461421Y-73154364D01*
X193452398Y-73158068D01*
X193443660Y-73162124D01*
X193435203Y-73166525D01*
X193427028Y-73171263D01*
X193419132Y-73176332D01*
X193411514Y-73181725D01*
X193404172Y-73187433D01*
X193397107Y-73193450D01*
X193390315Y-73199768D01*
X193377547Y-73213282D01*
X193365859Y-73227915D01*
X193355238Y-73243610D01*
X193345674Y-73260311D01*
X193337155Y-73277957D01*
X193329671Y-73296494D01*
X193323210Y-73315862D01*
X193315753Y-73303780D01*
X193311788Y-73297970D01*
X193307665Y-73292317D01*
X193303383Y-73286824D01*
X193298941Y-73281493D01*
X193294338Y-73276329D01*
X193289575Y-73271332D01*
X193284649Y-73266507D01*
X193279561Y-73261856D01*
X193274310Y-73257381D01*
X193268895Y-73253086D01*
X193263315Y-73248973D01*
X193257570Y-73245045D01*
X193251659Y-73241306D01*
X193245581Y-73237757D01*
X193239336Y-73234401D01*
X193232922Y-73231242D01*
X193226340Y-73228281D01*
X193219588Y-73225523D01*
X193212666Y-73222969D01*
X193205573Y-73220623D01*
X193198309Y-73218487D01*
X193190872Y-73216563D01*
X193183262Y-73214856D01*
X193175479Y-73213367D01*
X193167521Y-73212100D01*
X193159387Y-73211057D01*
X193151079Y-73210241D01*
X193142593Y-73209654D01*
X193133930Y-73209300D01*
X193125090Y-73209182D01*
X193109810Y-73209543D01*
X193094930Y-73210618D01*
X193080455Y-73212388D01*
X193066392Y-73214837D01*
X193052746Y-73217948D01*
X193039521Y-73221705D01*
X193026725Y-73226091D01*
X193014362Y-73231089D01*
X193002438Y-73236682D01*
X192990959Y-73242854D01*
X192979930Y-73249587D01*
X192969356Y-73256866D01*
X192959244Y-73264673D01*
X192949599Y-73272992D01*
X192940427Y-73281805D01*
X192931732Y-73291097D01*
X192923522Y-73300849D01*
X192915800Y-73311047D01*
X192908574Y-73321672D01*
X192901848Y-73332709D01*
X192895628Y-73344140D01*
X192889919Y-73355948D01*
X192884728Y-73368118D01*
X192880059Y-73380632D01*
X192875919Y-73393473D01*
X192872313Y-73406624D01*
X192869246Y-73420070D01*
X192866724Y-73433793D01*
X192864753Y-73447776D01*
X192863339Y-73462003D01*
X192862486Y-73476457D01*
X192862200Y-73491121D01*
X192862200Y-73846722D01*
X192624075Y-73846722D01*
X192624075Y-72746870D01*
X192862200Y-72746870D01*
X193814700Y-73129140D01*
X193814700Y-72922130D01*
X193634360Y-72854820D01*
X193634360Y-72424290D01*
X193814700Y-72356980D01*
X193814700Y-72149970D01*
X193028570Y-72465470D01*
X192862200Y-72532240D01*
X192862200Y-72746870D01*
X192624075Y-72746870D01*
X192624075Y-72219391D01*
X192862200Y-72219391D01*
X193028570Y-72219391D01*
X193028570Y-71974281D01*
X193814700Y-71974281D01*
X193814700Y-71785051D01*
X193028570Y-71785051D01*
X193028570Y-71541211D01*
X192862200Y-71541211D01*
X192862200Y-72219391D01*
X192624075Y-72219391D01*
X192624075Y-71364316D01*
D10*
X185901627Y-76968511D02*
X185883849Y-77086889D01*
X184258773Y-79159999D02*
X184157399Y-79186828D01*
X184651936Y-78979637D02*
X184550276Y-79037514D01*
X185882856Y-76278596D02*
X185901649Y-76389517D01*
X184750792Y-78915617D02*
X184651936Y-78979637D01*
D11*
G36*
X151254260Y-65826509D02*
G01*
X152762385Y-65826509D01*
X152762385Y-69557134D01*
X151254260Y-69557134D01*
X151254260Y-69081792D01*
X151479685Y-69081792D01*
X151480006Y-69096215D01*
X151480960Y-69110420D01*
X151482531Y-69124394D01*
X151484705Y-69138119D01*
X151487467Y-69151579D01*
X151490802Y-69164760D01*
X151494696Y-69177645D01*
X151499132Y-69190218D01*
X151504097Y-69202464D01*
X151509575Y-69214367D01*
X151515551Y-69225911D01*
X151522012Y-69237079D01*
X151528941Y-69247857D01*
X151536324Y-69258229D01*
X151544146Y-69268178D01*
X151552392Y-69277690D01*
X151561048Y-69286747D01*
X151570098Y-69295334D01*
X151579528Y-69303436D01*
X151589322Y-69311037D01*
X151599466Y-69318120D01*
X151609944Y-69324671D01*
X151620743Y-69330673D01*
X151631847Y-69336110D01*
X151643241Y-69340966D01*
X151654910Y-69345227D01*
X151666840Y-69348875D01*
X151679015Y-69351895D01*
X151691422Y-69354272D01*
X151704043Y-69355989D01*
X151716866Y-69357031D01*
X151729875Y-69357382D01*
X151733685Y-69179582D01*
X151729310Y-69179457D01*
X151725000Y-69179084D01*
X151720759Y-69178470D01*
X151716592Y-69177620D01*
X151712504Y-69176541D01*
X151708500Y-69175237D01*
X151704585Y-69173716D01*
X151700764Y-69171982D01*
X151697042Y-69170042D01*
X151693422Y-69167901D01*
X151689911Y-69165565D01*
X151686514Y-69163040D01*
X151683234Y-69160332D01*
X151680078Y-69157446D01*
X151677049Y-69154389D01*
X151674154Y-69151166D01*
X151671396Y-69147783D01*
X151668780Y-69144246D01*
X151666312Y-69140560D01*
X151663996Y-69136732D01*
X151661838Y-69132767D01*
X151659841Y-69128671D01*
X151658012Y-69124451D01*
X151656354Y-69120110D01*
X151654873Y-69115657D01*
X151653574Y-69111095D01*
X151652461Y-69106432D01*
X151651539Y-69101673D01*
X151650814Y-69096824D01*
X151650290Y-69091890D01*
X151649972Y-69086877D01*
X151649865Y-69081792D01*
X151649987Y-69076007D01*
X151650350Y-69070325D01*
X151650948Y-69064749D01*
X151651777Y-69059287D01*
X151652833Y-69053942D01*
X151654109Y-69048722D01*
X151655602Y-69043629D01*
X151657306Y-69038672D01*
X151659217Y-69033853D01*
X151661329Y-69029180D01*
X151663638Y-69024657D01*
X151666139Y-69020289D01*
X151668827Y-69016082D01*
X151671697Y-69012042D01*
X151674744Y-69008173D01*
X151677964Y-69004481D01*
X151681351Y-69000971D01*
X151684900Y-68997649D01*
X151688607Y-68994520D01*
X151692467Y-68991590D01*
X151696475Y-68988863D01*
X151700626Y-68986345D01*
X151704915Y-68984042D01*
X151709337Y-68981958D01*
X151713887Y-68980100D01*
X151718561Y-68978472D01*
X151723354Y-68977079D01*
X151728260Y-68975928D01*
X151733275Y-68975024D01*
X151738394Y-68974371D01*
X151743613Y-68973975D01*
X151748925Y-68973842D01*
X151754948Y-68973975D01*
X151760868Y-68974371D01*
X151766680Y-68975024D01*
X151772378Y-68975928D01*
X151777956Y-68977079D01*
X151783408Y-68978472D01*
X151788728Y-68980100D01*
X151793911Y-68981958D01*
X151798950Y-68984042D01*
X151803841Y-68986345D01*
X151808577Y-68988863D01*
X151813152Y-68991590D01*
X151817560Y-68994520D01*
X151821796Y-68997649D01*
X151825855Y-69000971D01*
X151829729Y-69004481D01*
X151833413Y-69008173D01*
X151836902Y-69012042D01*
X151840189Y-69016082D01*
X151843270Y-69020289D01*
X151846137Y-69024657D01*
X151848785Y-69029180D01*
X151851209Y-69033853D01*
X151853402Y-69038672D01*
X151855359Y-69043629D01*
X151857074Y-69048722D01*
X151858541Y-69053942D01*
X151859755Y-69059287D01*
X151860709Y-69064749D01*
X151861397Y-69070325D01*
X151861815Y-69076007D01*
X151861955Y-69081792D01*
X151861955Y-69146562D01*
X152008005Y-69145292D01*
X152008005Y-69070362D01*
X152008175Y-69063279D01*
X152008680Y-69056321D01*
X152009514Y-69049496D01*
X152010669Y-69042809D01*
X152012138Y-69036267D01*
X152013915Y-69029877D01*
X152015993Y-69023645D01*
X152018363Y-69017578D01*
X152021021Y-69011681D01*
X152023958Y-69005963D01*
X152027167Y-69000429D01*
X152030642Y-68995085D01*
X152034375Y-68989938D01*
X152038360Y-68984996D01*
X152042590Y-68980263D01*
X152047057Y-68975747D01*
X152051756Y-68971454D01*
X152056677Y-68967392D01*
X152061816Y-68963565D01*
X152067164Y-68959981D01*
X152072715Y-68956647D01*
X152078462Y-68953568D01*
X152084398Y-68950752D01*
X152090515Y-68948204D01*
X152096808Y-68945932D01*
X152103268Y-68943941D01*
X152109889Y-68942239D01*
X152116664Y-68940832D01*
X152123587Y-68939726D01*
X152130649Y-68938928D01*
X152137844Y-68938445D01*
X152145165Y-68938282D01*
X152152605Y-68938445D01*
X152159919Y-68938928D01*
X152167100Y-68939726D01*
X152174139Y-68940832D01*
X152181031Y-68942239D01*
X152187768Y-68943941D01*
X152194342Y-68945932D01*
X152200747Y-68948204D01*
X152206975Y-68950752D01*
X152213020Y-68953568D01*
X152218873Y-68956647D01*
X152224528Y-68959981D01*
X152229977Y-68963565D01*
X152235213Y-68967392D01*
X152240230Y-68971454D01*
X152245019Y-68975747D01*
X152249574Y-68980263D01*
X152253887Y-68984996D01*
X152257951Y-68989938D01*
X152261759Y-68995085D01*
X152265305Y-69000429D01*
X152268579Y-69005963D01*
X152271576Y-69011681D01*
X152274288Y-69017578D01*
X152276708Y-69023645D01*
X152278829Y-69029877D01*
X152280643Y-69036267D01*
X152282144Y-69042809D01*
X152283324Y-69049496D01*
X152284175Y-69056321D01*
X152284691Y-69063279D01*
X152284865Y-69070362D01*
X152284728Y-69077222D01*
X152284323Y-69083984D01*
X152283654Y-69090642D01*
X152282729Y-69097186D01*
X152281554Y-69103609D01*
X152280135Y-69109904D01*
X152276590Y-69122075D01*
X152272145Y-69133636D01*
X152266849Y-69144523D01*
X152263898Y-69149695D01*
X152260754Y-69154674D01*
X152257422Y-69159453D01*
X152253909Y-69164025D01*
X152250221Y-69168380D01*
X152246364Y-69172512D01*
X152242345Y-69176412D01*
X152238170Y-69180073D01*
X152233845Y-69183487D01*
X152229377Y-69186645D01*
X152224772Y-69189539D01*
X152220035Y-69192163D01*
X152215174Y-69194508D01*
X152210195Y-69196565D01*
X152205104Y-69198328D01*
X152199906Y-69199788D01*
X152194610Y-69200937D01*
X152189220Y-69201768D01*
X152183743Y-69202272D01*
X152178185Y-69202442D01*
X152180725Y-69384052D01*
X152195039Y-69383650D01*
X152209158Y-69382455D01*
X152223065Y-69380486D01*
X152236741Y-69377762D01*
X152250172Y-69374301D01*
X152263339Y-69370122D01*
X152276225Y-69365243D01*
X152288814Y-69359684D01*
X152301088Y-69353462D01*
X152313032Y-69346597D01*
X152324626Y-69339107D01*
X152335856Y-69331010D01*
X152346703Y-69322325D01*
X152357151Y-69313071D01*
X152367183Y-69303266D01*
X152376781Y-69292930D01*
X152385929Y-69282079D01*
X152394610Y-69270734D01*
X152402807Y-69258913D01*
X152410503Y-69246634D01*
X152417681Y-69233916D01*
X152424323Y-69220778D01*
X152430414Y-69207237D01*
X152435935Y-69193314D01*
X152440871Y-69179026D01*
X152445203Y-69164392D01*
X152448916Y-69149430D01*
X152451991Y-69134160D01*
X152454413Y-69118599D01*
X152456164Y-69102767D01*
X152457227Y-69086682D01*
X152457585Y-69070362D01*
X152457186Y-69053931D01*
X152456002Y-69037748D01*
X152454051Y-69021832D01*
X152451352Y-69006200D01*
X152447922Y-68990870D01*
X152443780Y-68975861D01*
X152438945Y-68961189D01*
X152433435Y-68946874D01*
X152427268Y-68932933D01*
X152420463Y-68919383D01*
X152413038Y-68906243D01*
X152405011Y-68893531D01*
X152396401Y-68881264D01*
X152387227Y-68869461D01*
X152377506Y-68858139D01*
X152367256Y-68847317D01*
X152356497Y-68837011D01*
X152353445Y-68834361D01*
X152345247Y-68827241D01*
X152333523Y-68818024D01*
X152321345Y-68809377D01*
X152308731Y-68801320D01*
X152295699Y-68793869D01*
X152282267Y-68787043D01*
X152268454Y-68780859D01*
X152254279Y-68775336D01*
X152239759Y-68770491D01*
X152224913Y-68766342D01*
X152209759Y-68762907D01*
X152194316Y-68760205D01*
X152180725Y-68758516D01*
X152178602Y-68758252D01*
X152162636Y-68757068D01*
X152146435Y-68756669D01*
X152126675Y-68757361D01*
X152107415Y-68759410D01*
X152088679Y-68762772D01*
X152070493Y-68767405D01*
X152052879Y-68773266D01*
X152035863Y-68780311D01*
X152019468Y-68788499D01*
X152003719Y-68797787D01*
X151988639Y-68808131D01*
X151974253Y-68819489D01*
X151960586Y-68831818D01*
X151947660Y-68845076D01*
X151935501Y-68859218D01*
X151924133Y-68874204D01*
X151913579Y-68889989D01*
X151903865Y-68906532D01*
X151896232Y-68895374D01*
X151888107Y-68884773D01*
X151879501Y-68874754D01*
X151870428Y-68865336D01*
X151860902Y-68856544D01*
X151850934Y-68848400D01*
X151840539Y-68840925D01*
X151835185Y-68837446D01*
X151829729Y-68834142D01*
X151824172Y-68831017D01*
X151818517Y-68828074D01*
X151812764Y-68825314D01*
X151806916Y-68822742D01*
X151800974Y-68820359D01*
X151794939Y-68818169D01*
X151788814Y-68816174D01*
X151782600Y-68814378D01*
X151776298Y-68812782D01*
X151769911Y-68811390D01*
X151763439Y-68810204D01*
X151756885Y-68809228D01*
X151750250Y-68808464D01*
X151743535Y-68807915D01*
X151736743Y-68807583D01*
X151729875Y-68807472D01*
X151716866Y-68807823D01*
X151704043Y-68808865D01*
X151691422Y-68810581D01*
X151679015Y-68812956D01*
X151666840Y-68815974D01*
X151654910Y-68819619D01*
X151643241Y-68823875D01*
X151631847Y-68828725D01*
X151620743Y-68834153D01*
X151609944Y-68840145D01*
X151599466Y-68846682D01*
X151589322Y-68853750D01*
X151579528Y-68861333D01*
X151570098Y-68869413D01*
X151561048Y-68877977D01*
X151552392Y-68887006D01*
X151544146Y-68896485D01*
X151536324Y-68906399D01*
X151528941Y-68916731D01*
X151522012Y-68927465D01*
X151515551Y-68938585D01*
X151509575Y-68950075D01*
X151504097Y-68961918D01*
X151499132Y-68974100D01*
X151494696Y-68986604D01*
X151490802Y-68999413D01*
X151487467Y-69012512D01*
X151484705Y-69025885D01*
X151482531Y-69039515D01*
X151480960Y-69053387D01*
X151480006Y-69067485D01*
X151479685Y-69081792D01*
X151254260Y-69081792D01*
X151254260Y-68546111D01*
X152248035Y-68546111D01*
X152248175Y-68551326D01*
X152248591Y-68556489D01*
X152249275Y-68561593D01*
X152250220Y-68566629D01*
X152251419Y-68571591D01*
X152252865Y-68576472D01*
X152254551Y-68581263D01*
X152256469Y-68585957D01*
X152258611Y-68590547D01*
X152260972Y-68595026D01*
X152263544Y-68599385D01*
X152266319Y-68603618D01*
X152269290Y-68607717D01*
X152272450Y-68611675D01*
X152275792Y-68615483D01*
X152279309Y-68619136D01*
X152282993Y-68622625D01*
X152286837Y-68625942D01*
X152290835Y-68629081D01*
X152294978Y-68632034D01*
X152299260Y-68634794D01*
X152303673Y-68637352D01*
X152308210Y-68639703D01*
X152312864Y-68641837D01*
X152317629Y-68643748D01*
X152322495Y-68645429D01*
X152327457Y-68646871D01*
X152332507Y-68648068D01*
X152337638Y-68649012D01*
X152342843Y-68649695D01*
X152348114Y-68650111D01*
X152353445Y-68650251D01*
X152358660Y-68650111D01*
X152363823Y-68649695D01*
X152368927Y-68649012D01*
X152373963Y-68648068D01*
X152378926Y-68646871D01*
X152383806Y-68645429D01*
X152388597Y-68643748D01*
X152393291Y-68641837D01*
X152397881Y-68639703D01*
X152402360Y-68637352D01*
X152406719Y-68634794D01*
X152410952Y-68632034D01*
X152415051Y-68629081D01*
X152419009Y-68625942D01*
X152422817Y-68622625D01*
X152426470Y-68619136D01*
X152429959Y-68615483D01*
X152433276Y-68611675D01*
X152436415Y-68607717D01*
X152439368Y-68603618D01*
X152442128Y-68599385D01*
X152444686Y-68595026D01*
X152447037Y-68590547D01*
X152449171Y-68585957D01*
X152451082Y-68581263D01*
X152452763Y-68576472D01*
X152454205Y-68571591D01*
X152455402Y-68566629D01*
X152456346Y-68561593D01*
X152457029Y-68556489D01*
X152457445Y-68551326D01*
X152457585Y-68546111D01*
X152457445Y-68540780D01*
X152457029Y-68535509D01*
X152456346Y-68530304D01*
X152455402Y-68525173D01*
X152454205Y-68520123D01*
X152452763Y-68515161D01*
X152451082Y-68510294D01*
X152449171Y-68505530D01*
X152447037Y-68500876D01*
X152444686Y-68496339D01*
X152442128Y-68491926D01*
X152439368Y-68487644D01*
X152436415Y-68483501D01*
X152433276Y-68479503D01*
X152429959Y-68475659D01*
X152426470Y-68471975D01*
X152422817Y-68468458D01*
X152419009Y-68465116D01*
X152415051Y-68461956D01*
X152410952Y-68458984D01*
X152406719Y-68456210D01*
X152402360Y-68453638D01*
X152397881Y-68451277D01*
X152393291Y-68449134D01*
X152388597Y-68447217D01*
X152383806Y-68445531D01*
X152378926Y-68444085D01*
X152373963Y-68442886D01*
X152368927Y-68441941D01*
X152363823Y-68441257D01*
X152358660Y-68440841D01*
X152353445Y-68440701D01*
X152348114Y-68440841D01*
X152342843Y-68441257D01*
X152337638Y-68441941D01*
X152332507Y-68442886D01*
X152327457Y-68444085D01*
X152322495Y-68445531D01*
X152317629Y-68447217D01*
X152312864Y-68449134D01*
X152308210Y-68451277D01*
X152303673Y-68453638D01*
X152299260Y-68456210D01*
X152294978Y-68458984D01*
X152290835Y-68461956D01*
X152286837Y-68465116D01*
X152282993Y-68468458D01*
X152279309Y-68471975D01*
X152275792Y-68475659D01*
X152272450Y-68479503D01*
X152269290Y-68483501D01*
X152266319Y-68487644D01*
X152263544Y-68491926D01*
X152260972Y-68496339D01*
X152258611Y-68500876D01*
X152256469Y-68505530D01*
X152254551Y-68510294D01*
X152252865Y-68515161D01*
X152251419Y-68520123D01*
X152250220Y-68525173D01*
X152249275Y-68530304D01*
X152248591Y-68535509D01*
X152248175Y-68540780D01*
X152248035Y-68546111D01*
X151254260Y-68546111D01*
X151254260Y-68044953D01*
X151479685Y-68044953D01*
X151480006Y-68059376D01*
X151480960Y-68073581D01*
X151482531Y-68087555D01*
X151484705Y-68101280D01*
X151487467Y-68114740D01*
X151490802Y-68127921D01*
X151494696Y-68140806D01*
X151499132Y-68153379D01*
X151504097Y-68165625D01*
X151509575Y-68177528D01*
X151515551Y-68189072D01*
X151522012Y-68200240D01*
X151528941Y-68211018D01*
X151536324Y-68221390D01*
X151544146Y-68231339D01*
X151552392Y-68240851D01*
X151561048Y-68249908D01*
X151570098Y-68258495D01*
X151579528Y-68266597D01*
X151589322Y-68274198D01*
X151599466Y-68281281D01*
X151609944Y-68287832D01*
X151620743Y-68293834D01*
X151631847Y-68299271D01*
X151643241Y-68304127D01*
X151654910Y-68308388D01*
X151666840Y-68312036D01*
X151679015Y-68315056D01*
X151691422Y-68317433D01*
X151704043Y-68319150D01*
X151716866Y-68320192D01*
X151729875Y-68320543D01*
X151733685Y-68142743D01*
X151729310Y-68142618D01*
X151725000Y-68142245D01*
X151720759Y-68141631D01*
X151716592Y-68140781D01*
X151712504Y-68139702D01*
X151708500Y-68138398D01*
X151704585Y-68136877D01*
X151700764Y-68135143D01*
X151697042Y-68133203D01*
X151693422Y-68131062D01*
X151689911Y-68128726D01*
X151686514Y-68126201D01*
X151683234Y-68123493D01*
X151680078Y-68120607D01*
X151677049Y-68117550D01*
X151674154Y-68114327D01*
X151671396Y-68110944D01*
X151668780Y-68107407D01*
X151666312Y-68103721D01*
X151663996Y-68099893D01*
X151661838Y-68095928D01*
X151659841Y-68091832D01*
X151658012Y-68087611D01*
X151656354Y-68083271D01*
X151654873Y-68078818D01*
X151653574Y-68074256D01*
X151652461Y-68069593D01*
X151651539Y-68064834D01*
X151650814Y-68059985D01*
X151650290Y-68055051D01*
X151649972Y-68050038D01*
X151649865Y-68044953D01*
X151649987Y-68039168D01*
X151650350Y-68033486D01*
X151650948Y-68027910D01*
X151651777Y-68022448D01*
X151652833Y-68017103D01*
X151654109Y-68011882D01*
X151655602Y-68006790D01*
X151657306Y-68001833D01*
X151659217Y-67997014D01*
X151661329Y-67992341D01*
X151663638Y-67987817D01*
X151666139Y-67983450D01*
X151668827Y-67979243D01*
X151671697Y-67975202D01*
X151674744Y-67971334D01*
X151677964Y-67967642D01*
X151681351Y-67964132D01*
X151684900Y-67960810D01*
X151688607Y-67957681D01*
X151692467Y-67954751D01*
X151696475Y-67952024D01*
X151700626Y-67949506D01*
X151704915Y-67947203D01*
X151709337Y-67945119D01*
X151713887Y-67943261D01*
X151718561Y-67941632D01*
X151723354Y-67940240D01*
X151728260Y-67939089D01*
X151733275Y-67938184D01*
X151738394Y-67937532D01*
X151743613Y-67937136D01*
X151748925Y-67937003D01*
X151754948Y-67937136D01*
X151760868Y-67937532D01*
X151766680Y-67938184D01*
X151772378Y-67939089D01*
X151777956Y-67940240D01*
X151783408Y-67941632D01*
X151788728Y-67943261D01*
X151793911Y-67945119D01*
X151798950Y-67947203D01*
X151803841Y-67949506D01*
X151808577Y-67952024D01*
X151813152Y-67954751D01*
X151817560Y-67957681D01*
X151821796Y-67960810D01*
X151825855Y-67964132D01*
X151829729Y-67967642D01*
X151833413Y-67971334D01*
X151836902Y-67975202D01*
X151840189Y-67979243D01*
X151843270Y-67983450D01*
X151846137Y-67987817D01*
X151848785Y-67992341D01*
X151851209Y-67997014D01*
X151853402Y-68001833D01*
X151855359Y-68006790D01*
X151857074Y-68011882D01*
X151858541Y-68017103D01*
X151859755Y-68022448D01*
X151860709Y-68027910D01*
X151861397Y-68033486D01*
X151861815Y-68039168D01*
X151861955Y-68044953D01*
X151861955Y-68109723D01*
X152008005Y-68108453D01*
X152008005Y-68033523D01*
X152008175Y-68026440D01*
X152008680Y-68019482D01*
X152009514Y-68012657D01*
X152010669Y-68005970D01*
X152012138Y-67999428D01*
X152013915Y-67993038D01*
X152015993Y-67986806D01*
X152018363Y-67980739D01*
X152021021Y-67974842D01*
X152023958Y-67969124D01*
X152027167Y-67963589D01*
X152030642Y-67958246D01*
X152034375Y-67953099D01*
X152038360Y-67948156D01*
X152042590Y-67943424D01*
X152047057Y-67938908D01*
X152051756Y-67934615D01*
X152056677Y-67930553D01*
X152061816Y-67926726D01*
X152067164Y-67923142D01*
X152072715Y-67919808D01*
X152078462Y-67916729D01*
X152084398Y-67913912D01*
X152090515Y-67911365D01*
X152096808Y-67909093D01*
X152103268Y-67907102D01*
X152109889Y-67905400D01*
X152116664Y-67903993D01*
X152123587Y-67902887D01*
X152130649Y-67902089D01*
X152137844Y-67901606D01*
X152145165Y-67901443D01*
X152152605Y-67901606D01*
X152159919Y-67902089D01*
X152167100Y-67902887D01*
X152174139Y-67903993D01*
X152181031Y-67905400D01*
X152187768Y-67907102D01*
X152194342Y-67909093D01*
X152200747Y-67911365D01*
X152206975Y-67913912D01*
X152213020Y-67916729D01*
X152218873Y-67919808D01*
X152224528Y-67923142D01*
X152229977Y-67926726D01*
X152235213Y-67930553D01*
X152240230Y-67934615D01*
X152245019Y-67938908D01*
X152249574Y-67943424D01*
X152253887Y-67948156D01*
X152257951Y-67953099D01*
X152261759Y-67958246D01*
X152265305Y-67963589D01*
X152268579Y-67969124D01*
X152271576Y-67974842D01*
X152274288Y-67980739D01*
X152276708Y-67986806D01*
X152278829Y-67993038D01*
X152280643Y-67999428D01*
X152282144Y-68005970D01*
X152283324Y-68012657D01*
X152284175Y-68019482D01*
X152284691Y-68026440D01*
X152284865Y-68033523D01*
X152284728Y-68040383D01*
X152284323Y-68047145D01*
X152283654Y-68053802D01*
X152282729Y-68060347D01*
X152281554Y-68066770D01*
X152280135Y-68073065D01*
X152276590Y-68085236D01*
X152272145Y-68096797D01*
X152266849Y-68107684D01*
X152263898Y-68112855D01*
X152260754Y-68117835D01*
X152257422Y-68122614D01*
X152253909Y-68127186D01*
X152250221Y-68131541D01*
X152246364Y-68135673D01*
X152242345Y-68139573D01*
X152238170Y-68143234D01*
X152233845Y-68146648D01*
X152229377Y-68149806D01*
X152224772Y-68152700D01*
X152220035Y-68155324D01*
X152215174Y-68157669D01*
X152210195Y-68159726D01*
X152205104Y-68161489D01*
X152199906Y-68162949D01*
X152194610Y-68164098D01*
X152189220Y-68164929D01*
X152183743Y-68165433D01*
X152178185Y-68165603D01*
X152180725Y-68347213D01*
X152195039Y-68346811D01*
X152209158Y-68345616D01*
X152223065Y-68343647D01*
X152236741Y-68340923D01*
X152250172Y-68337462D01*
X152263339Y-68333283D01*
X152276225Y-68328404D01*
X152288814Y-68322845D01*
X152301088Y-68316623D01*
X152313032Y-68309758D01*
X152324626Y-68302267D01*
X152335856Y-68294171D01*
X152346703Y-68285486D01*
X152357151Y-68276232D01*
X152367183Y-68266427D01*
X152376781Y-68256090D01*
X152385929Y-68245240D01*
X152394610Y-68233895D01*
X152402807Y-68222074D01*
X152410503Y-68209795D01*
X152417681Y-68197077D01*
X152424323Y-68183939D01*
X152430414Y-68170398D01*
X152435935Y-68156475D01*
X152440871Y-68142187D01*
X152445203Y-68127553D01*
X152448916Y-68112591D01*
X152451991Y-68097321D01*
X152454413Y-68081760D01*
X152456164Y-68065928D01*
X152457227Y-68049843D01*
X152457585Y-68033523D01*
X152457186Y-68017092D01*
X152456002Y-68000909D01*
X152454051Y-67984993D01*
X152451352Y-67969361D01*
X152447922Y-67954031D01*
X152443780Y-67939022D01*
X152438945Y-67924351D01*
X152433435Y-67910035D01*
X152427268Y-67896094D01*
X152420463Y-67882545D01*
X152413038Y-67869405D01*
X152405011Y-67856693D01*
X152396401Y-67844426D01*
X152387227Y-67832623D01*
X152377506Y-67821302D01*
X152367256Y-67810479D01*
X152356497Y-67800174D01*
X152345247Y-67790404D01*
X152333523Y-67781187D01*
X152321345Y-67772540D01*
X152308731Y-67764483D01*
X152295699Y-67757032D01*
X152282267Y-67750206D01*
X152268454Y-67744023D01*
X152254279Y-67738499D01*
X152239759Y-67733654D01*
X152224913Y-67729506D01*
X152209759Y-67726071D01*
X152194316Y-67723369D01*
X152178602Y-67721416D01*
X152162636Y-67720232D01*
X152146435Y-67719833D01*
X152126675Y-67720525D01*
X152107415Y-67722574D01*
X152088679Y-67725936D01*
X152070493Y-67730568D01*
X152052879Y-67736429D01*
X152035863Y-67743474D01*
X152019468Y-67751662D01*
X152003719Y-67760949D01*
X151988639Y-67771293D01*
X151974253Y-67782651D01*
X151960586Y-67794980D01*
X151947660Y-67808237D01*
X151935501Y-67822380D01*
X151924133Y-67837365D01*
X151913579Y-67853151D01*
X151903865Y-67869693D01*
X151896232Y-67858535D01*
X151888107Y-67847934D01*
X151879501Y-67837915D01*
X151870428Y-67828497D01*
X151860902Y-67819705D01*
X151850934Y-67811561D01*
X151840539Y-67804086D01*
X151835185Y-67800607D01*
X151829729Y-67797303D01*
X151824172Y-67794178D01*
X151818517Y-67791235D01*
X151812764Y-67788475D01*
X151806916Y-67785903D01*
X151800974Y-67783520D01*
X151794939Y-67781330D01*
X151788814Y-67779335D01*
X151782600Y-67777539D01*
X151776298Y-67775943D01*
X151769911Y-67774551D01*
X151763439Y-67773366D01*
X151756885Y-67772389D01*
X151750250Y-67771625D01*
X151743535Y-67771076D01*
X151736743Y-67770744D01*
X151729875Y-67770633D01*
X151716866Y-67770984D01*
X151704043Y-67772026D01*
X151691422Y-67773742D01*
X151679015Y-67776117D01*
X151666840Y-67779136D01*
X151654910Y-67782780D01*
X151643241Y-67787036D01*
X151631847Y-67791886D01*
X151620743Y-67797314D01*
X151609944Y-67803306D01*
X151599466Y-67809843D01*
X151589322Y-67816911D01*
X151579528Y-67824494D01*
X151570098Y-67832574D01*
X151561048Y-67841137D01*
X151552392Y-67850167D01*
X151544146Y-67859646D01*
X151536324Y-67869560D01*
X151528941Y-67879892D01*
X151522012Y-67890626D01*
X151515551Y-67901746D01*
X151509575Y-67913235D01*
X151504097Y-67925079D01*
X151499132Y-67937261D01*
X151494696Y-67949765D01*
X151492385Y-67957367D01*
X151490802Y-67962574D01*
X151487467Y-67975673D01*
X151484705Y-67989046D01*
X151482531Y-68002676D01*
X151480960Y-68016548D01*
X151480006Y-68030646D01*
X151479685Y-68044953D01*
X151254260Y-68044953D01*
X151254260Y-66671075D01*
X151492385Y-66671075D01*
X151492385Y-66885705D01*
X152222635Y-67160025D01*
X151492385Y-67435615D01*
X151492385Y-67650245D01*
X152444885Y-67267975D01*
X152444885Y-67053345D01*
X151492385Y-66671075D01*
X151254260Y-66671075D01*
X151254260Y-66299711D01*
X151478415Y-66299711D01*
X151478766Y-66315713D01*
X151479813Y-66331556D01*
X151481542Y-66347214D01*
X151483941Y-66362660D01*
X151487000Y-66377871D01*
X151490704Y-66392820D01*
X151495044Y-66407481D01*
X151500005Y-66421830D01*
X151505577Y-66435839D01*
X151511746Y-66449485D01*
X151518502Y-66462741D01*
X151525832Y-66475581D01*
X151533723Y-66487981D01*
X151542164Y-66499914D01*
X151551143Y-66511355D01*
X151560647Y-66522279D01*
X151570665Y-66532659D01*
X151581185Y-66542470D01*
X151592193Y-66551687D01*
X151603679Y-66560284D01*
X151615629Y-66568236D01*
X151628033Y-66575516D01*
X151640878Y-66582100D01*
X151654151Y-66587961D01*
X151667841Y-66593075D01*
X151681936Y-66597415D01*
X151696424Y-66600956D01*
X151711291Y-66603673D01*
X151726527Y-66605539D01*
X151742120Y-66606530D01*
X151758056Y-66606619D01*
X151774325Y-66605781D01*
X151775595Y-66427981D01*
X151767834Y-66428511D01*
X151760270Y-66428678D01*
X151752906Y-66428490D01*
X151745745Y-66427956D01*
X151738791Y-66427086D01*
X151732046Y-66425888D01*
X151725514Y-66424371D01*
X151719199Y-66422544D01*
X151713103Y-66420415D01*
X151707230Y-66417994D01*
X151701583Y-66415289D01*
X151696165Y-66412310D01*
X151690980Y-66409064D01*
X151686031Y-66405561D01*
X151681321Y-66401809D01*
X151676852Y-66397819D01*
X151672630Y-66393597D01*
X151668656Y-66389154D01*
X151664935Y-66384497D01*
X151661469Y-66379637D01*
X151658261Y-66374581D01*
X151655315Y-66369339D01*
X151652635Y-66363918D01*
X151650222Y-66358330D01*
X151648081Y-66352581D01*
X151646216Y-66346681D01*
X151644628Y-66340638D01*
X151643322Y-66334463D01*
X151642300Y-66328162D01*
X151641566Y-66321746D01*
X151641123Y-66315223D01*
X151640975Y-66308601D01*
X151641577Y-66297605D01*
X151642937Y-66286590D01*
X151645097Y-66275656D01*
X151648099Y-66264905D01*
X151651987Y-66254437D01*
X151654276Y-66249340D01*
X151656803Y-66244352D01*
X151659572Y-66239485D01*
X151662590Y-66234751D01*
X151665861Y-66230163D01*
X151669391Y-66225734D01*
X151673185Y-66221476D01*
X151677249Y-66217401D01*
X151681588Y-66213523D01*
X151686206Y-66209854D01*
X151691111Y-66206406D01*
X151696306Y-66203192D01*
X151701797Y-66200224D01*
X151707590Y-66197516D01*
X151713691Y-66195079D01*
X151720103Y-66192926D01*
X151726833Y-66191071D01*
X151733886Y-66189524D01*
X151741267Y-66188299D01*
X151748982Y-66187409D01*
X151757036Y-66186865D01*
X151765435Y-66186681D01*
X151779646Y-66187092D01*
X151786630Y-66187698D01*
X151793635Y-66188656D01*
X151800738Y-66190026D01*
X151808016Y-66191872D01*
X151815543Y-66194255D01*
X151823399Y-66197238D01*
X151831657Y-66200884D01*
X151840396Y-66205254D01*
X151849692Y-66210411D01*
X151859621Y-66216417D01*
X151870259Y-66223335D01*
X151881684Y-66231227D01*
X151893972Y-66240155D01*
X151907199Y-66250181D01*
X151921441Y-66261369D01*
X151936776Y-66273779D01*
X151971029Y-66302519D01*
X152010568Y-66336900D01*
X152056007Y-66377419D01*
X152107957Y-66424577D01*
X152167030Y-66478870D01*
X152233839Y-66540799D01*
X152308995Y-66610861D01*
X152444885Y-66610861D01*
X152444885Y-65988561D01*
X152282325Y-65988561D01*
X152282325Y-66370831D01*
X152175747Y-66269539D01*
X152087876Y-66188189D01*
X152049807Y-66154379D01*
X152015037Y-66124818D01*
X151983106Y-66099261D01*
X151953554Y-66077461D01*
X151925922Y-66059174D01*
X151899750Y-66044153D01*
X151874579Y-66032154D01*
X151849950Y-66022931D01*
X151825402Y-66016237D01*
X151800477Y-66011828D01*
X151774714Y-66009458D01*
X151747655Y-66008881D01*
X151732915Y-66009362D01*
X151718470Y-66010557D01*
X151704330Y-66012449D01*
X151690507Y-66015023D01*
X151677013Y-66018263D01*
X151663858Y-66022153D01*
X151651055Y-66026677D01*
X151638614Y-66031820D01*
X151626546Y-66037566D01*
X151614865Y-66043899D01*
X151603580Y-66050803D01*
X151592703Y-66058262D01*
X151582245Y-66066261D01*
X151572219Y-66074783D01*
X151562634Y-66083814D01*
X151553504Y-66093336D01*
X151544838Y-66103335D01*
X151536649Y-66113794D01*
X151528948Y-66124697D01*
X151521746Y-66136030D01*
X151515055Y-66147775D01*
X151508886Y-66159918D01*
X151503250Y-66172442D01*
X151498160Y-66185332D01*
X151493625Y-66198571D01*
X151489658Y-66212144D01*
X151486270Y-66226036D01*
X151483473Y-66240229D01*
X151481277Y-66254710D01*
X151479695Y-66269461D01*
X151478737Y-66284466D01*
X151478415Y-66299711D01*
X151254260Y-66299711D01*
X151254260Y-65826509D01*
G37*
X151254260Y-65826509D02*
X152762385Y-65826509D01*
X152762385Y-69557134D01*
X151254260Y-69557134D01*
X151254260Y-69081792D01*
X151479685Y-69081792D01*
X151480006Y-69096215D01*
X151480960Y-69110420D01*
X151482531Y-69124394D01*
X151484705Y-69138119D01*
X151487467Y-69151579D01*
X151490802Y-69164760D01*
X151494696Y-69177645D01*
X151499132Y-69190218D01*
X151504097Y-69202464D01*
X151509575Y-69214367D01*
X151515551Y-69225911D01*
X151522012Y-69237079D01*
X151528941Y-69247857D01*
X151536324Y-69258229D01*
X151544146Y-69268178D01*
X151552392Y-69277690D01*
X151561048Y-69286747D01*
X151570098Y-69295334D01*
X151579528Y-69303436D01*
X151589322Y-69311037D01*
X151599466Y-69318120D01*
X151609944Y-69324671D01*
X151620743Y-69330673D01*
X151631847Y-69336110D01*
X151643241Y-69340966D01*
X151654910Y-69345227D01*
X151666840Y-69348875D01*
X151679015Y-69351895D01*
X151691422Y-69354272D01*
X151704043Y-69355989D01*
X151716866Y-69357031D01*
X151729875Y-69357382D01*
X151733685Y-69179582D01*
X151729310Y-69179457D01*
X151725000Y-69179084D01*
X151720759Y-69178470D01*
X151716592Y-69177620D01*
X151712504Y-69176541D01*
X151708500Y-69175237D01*
X151704585Y-69173716D01*
X151700764Y-69171982D01*
X151697042Y-69170042D01*
X151693422Y-69167901D01*
X151689911Y-69165565D01*
X151686514Y-69163040D01*
X151683234Y-69160332D01*
X151680078Y-69157446D01*
X151677049Y-69154389D01*
X151674154Y-69151166D01*
X151671396Y-69147783D01*
X151668780Y-69144246D01*
X151666312Y-69140560D01*
X151663996Y-69136732D01*
X151661838Y-69132767D01*
X151659841Y-69128671D01*
X151658012Y-69124451D01*
X151656354Y-69120110D01*
X151654873Y-69115657D01*
X151653574Y-69111095D01*
X151652461Y-69106432D01*
X151651539Y-69101673D01*
X151650814Y-69096824D01*
X151650290Y-69091890D01*
X151649972Y-69086877D01*
X151649865Y-69081792D01*
X151649987Y-69076007D01*
X151650350Y-69070325D01*
X151650948Y-69064749D01*
X151651777Y-69059287D01*
X151652833Y-69053942D01*
X151654109Y-69048722D01*
X151655602Y-69043629D01*
X151657306Y-69038672D01*
X151659217Y-69033853D01*
X151661329Y-69029180D01*
X151663638Y-69024657D01*
X151666139Y-69020289D01*
X151668827Y-69016082D01*
X151671697Y-69012042D01*
X151674744Y-69008173D01*
X151677964Y-69004481D01*
X151681351Y-69000971D01*
X151684900Y-68997649D01*
X151688607Y-68994520D01*
X151692467Y-68991590D01*
X151696475Y-68988863D01*
X151700626Y-68986345D01*
X151704915Y-68984042D01*
X151709337Y-68981958D01*
X151713887Y-68980100D01*
X151718561Y-68978472D01*
X151723354Y-68977079D01*
X151728260Y-68975928D01*
X151733275Y-68975024D01*
X151738394Y-68974371D01*
X151743613Y-68973975D01*
X151748925Y-68973842D01*
X151754948Y-68973975D01*
X151760868Y-68974371D01*
X151766680Y-68975024D01*
X151772378Y-68975928D01*
X151777956Y-68977079D01*
X151783408Y-68978472D01*
X151788728Y-68980100D01*
X151793911Y-68981958D01*
X151798950Y-68984042D01*
X151803841Y-68986345D01*
X151808577Y-68988863D01*
X151813152Y-68991590D01*
X151817560Y-68994520D01*
X151821796Y-68997649D01*
X151825855Y-69000971D01*
X151829729Y-69004481D01*
X151833413Y-69008173D01*
X151836902Y-69012042D01*
X151840189Y-69016082D01*
X151843270Y-69020289D01*
X151846137Y-69024657D01*
X151848785Y-69029180D01*
X151851209Y-69033853D01*
X151853402Y-69038672D01*
X151855359Y-69043629D01*
X151857074Y-69048722D01*
X151858541Y-69053942D01*
X151859755Y-69059287D01*
X151860709Y-69064749D01*
X151861397Y-69070325D01*
X151861815Y-69076007D01*
X151861955Y-69081792D01*
X151861955Y-69146562D01*
X152008005Y-69145292D01*
X152008005Y-69070362D01*
X152008175Y-69063279D01*
X152008680Y-69056321D01*
X152009514Y-69049496D01*
X152010669Y-69042809D01*
X152012138Y-69036267D01*
X152013915Y-69029877D01*
X152015993Y-69023645D01*
X152018363Y-69017578D01*
X152021021Y-69011681D01*
X152023958Y-69005963D01*
X152027167Y-69000429D01*
X152030642Y-68995085D01*
X152034375Y-68989938D01*
X152038360Y-68984996D01*
X152042590Y-68980263D01*
X152047057Y-68975747D01*
X152051756Y-68971454D01*
X152056677Y-68967392D01*
X152061816Y-68963565D01*
X152067164Y-68959981D01*
X152072715Y-68956647D01*
X152078462Y-68953568D01*
X152084398Y-68950752D01*
X152090515Y-68948204D01*
X152096808Y-68945932D01*
X152103268Y-68943941D01*
X152109889Y-68942239D01*
X152116664Y-68940832D01*
X152123587Y-68939726D01*
X152130649Y-68938928D01*
X152137844Y-68938445D01*
X152145165Y-68938282D01*
X152152605Y-68938445D01*
X152159919Y-68938928D01*
X152167100Y-68939726D01*
X152174139Y-68940832D01*
X152181031Y-68942239D01*
X152187768Y-68943941D01*
X152194342Y-68945932D01*
X152200747Y-68948204D01*
X152206975Y-68950752D01*
X152213020Y-68953568D01*
X152218873Y-68956647D01*
X152224528Y-68959981D01*
X152229977Y-68963565D01*
X152235213Y-68967392D01*
X152240230Y-68971454D01*
X152245019Y-68975747D01*
X152249574Y-68980263D01*
X152253887Y-68984996D01*
X152257951Y-68989938D01*
X152261759Y-68995085D01*
X152265305Y-69000429D01*
X152268579Y-69005963D01*
X152271576Y-69011681D01*
X152274288Y-69017578D01*
X152276708Y-69023645D01*
X152278829Y-69029877D01*
X152280643Y-69036267D01*
X152282144Y-69042809D01*
X152283324Y-69049496D01*
X152284175Y-69056321D01*
X152284691Y-69063279D01*
X152284865Y-69070362D01*
X152284728Y-69077222D01*
X152284323Y-69083984D01*
X152283654Y-69090642D01*
X152282729Y-69097186D01*
X152281554Y-69103609D01*
X152280135Y-69109904D01*
X152276590Y-69122075D01*
X152272145Y-69133636D01*
X152266849Y-69144523D01*
X152263898Y-69149695D01*
X152260754Y-69154674D01*
X152257422Y-69159453D01*
X152253909Y-69164025D01*
X152250221Y-69168380D01*
X152246364Y-69172512D01*
X152242345Y-69176412D01*
X152238170Y-69180073D01*
X152233845Y-69183487D01*
X152229377Y-69186645D01*
X152224772Y-69189539D01*
X152220035Y-69192163D01*
X152215174Y-69194508D01*
X152210195Y-69196565D01*
X152205104Y-69198328D01*
X152199906Y-69199788D01*
X152194610Y-69200937D01*
X152189220Y-69201768D01*
X152183743Y-69202272D01*
X152178185Y-69202442D01*
X152180725Y-69384052D01*
X152195039Y-69383650D01*
X152209158Y-69382455D01*
X152223065Y-69380486D01*
X152236741Y-69377762D01*
X152250172Y-69374301D01*
X152263339Y-69370122D01*
X152276225Y-69365243D01*
X152288814Y-69359684D01*
X152301088Y-69353462D01*
X152313032Y-69346597D01*
X152324626Y-69339107D01*
X152335856Y-69331010D01*
X152346703Y-69322325D01*
X152357151Y-69313071D01*
X152367183Y-69303266D01*
X152376781Y-69292930D01*
X152385929Y-69282079D01*
X152394610Y-69270734D01*
X152402807Y-69258913D01*
X152410503Y-69246634D01*
X152417681Y-69233916D01*
X152424323Y-69220778D01*
X152430414Y-69207237D01*
X152435935Y-69193314D01*
X152440871Y-69179026D01*
X152445203Y-69164392D01*
X152448916Y-69149430D01*
X152451991Y-69134160D01*
X152454413Y-69118599D01*
X152456164Y-69102767D01*
X152457227Y-69086682D01*
X152457585Y-69070362D01*
X152457186Y-69053931D01*
X152456002Y-69037748D01*
X152454051Y-69021832D01*
X152451352Y-69006200D01*
X152447922Y-68990870D01*
X152443780Y-68975861D01*
X152438945Y-68961189D01*
X152433435Y-68946874D01*
X152427268Y-68932933D01*
X152420463Y-68919383D01*
X152413038Y-68906243D01*
X152405011Y-68893531D01*
X152396401Y-68881264D01*
X152387227Y-68869461D01*
X152377506Y-68858139D01*
X152367256Y-68847317D01*
X152356497Y-68837011D01*
X152353445Y-68834361D01*
X152345247Y-68827241D01*
X152333523Y-68818024D01*
X152321345Y-68809377D01*
X152308731Y-68801320D01*
X152295699Y-68793869D01*
X152282267Y-68787043D01*
X152268454Y-68780859D01*
X152254279Y-68775336D01*
X152239759Y-68770491D01*
X152224913Y-68766342D01*
X152209759Y-68762907D01*
X152194316Y-68760205D01*
X152180725Y-68758516D01*
X152178602Y-68758252D01*
X152162636Y-68757068D01*
X152146435Y-68756669D01*
X152126675Y-68757361D01*
X152107415Y-68759410D01*
X152088679Y-68762772D01*
X152070493Y-68767405D01*
X152052879Y-68773266D01*
X152035863Y-68780311D01*
X152019468Y-68788499D01*
X152003719Y-68797787D01*
X151988639Y-68808131D01*
X151974253Y-68819489D01*
X151960586Y-68831818D01*
X151947660Y-68845076D01*
X151935501Y-68859218D01*
X151924133Y-68874204D01*
X151913579Y-68889989D01*
X151903865Y-68906532D01*
X151896232Y-68895374D01*
X151888107Y-68884773D01*
X151879501Y-68874754D01*
X151870428Y-68865336D01*
X151860902Y-68856544D01*
X151850934Y-68848400D01*
X151840539Y-68840925D01*
X151835185Y-68837446D01*
X151829729Y-68834142D01*
X151824172Y-68831017D01*
X151818517Y-68828074D01*
X151812764Y-68825314D01*
X151806916Y-68822742D01*
X151800974Y-68820359D01*
X151794939Y-68818169D01*
X151788814Y-68816174D01*
X151782600Y-68814378D01*
X151776298Y-68812782D01*
X151769911Y-68811390D01*
X151763439Y-68810204D01*
X151756885Y-68809228D01*
X151750250Y-68808464D01*
X151743535Y-68807915D01*
X151736743Y-68807583D01*
X151729875Y-68807472D01*
X151716866Y-68807823D01*
X151704043Y-68808865D01*
X151691422Y-68810581D01*
X151679015Y-68812956D01*
X151666840Y-68815974D01*
X151654910Y-68819619D01*
X151643241Y-68823875D01*
X151631847Y-68828725D01*
X151620743Y-68834153D01*
X151609944Y-68840145D01*
X151599466Y-68846682D01*
X151589322Y-68853750D01*
X151579528Y-68861333D01*
X151570098Y-68869413D01*
X151561048Y-68877977D01*
X151552392Y-68887006D01*
X151544146Y-68896485D01*
X151536324Y-68906399D01*
X151528941Y-68916731D01*
X151522012Y-68927465D01*
X151515551Y-68938585D01*
X151509575Y-68950075D01*
X151504097Y-68961918D01*
X151499132Y-68974100D01*
X151494696Y-68986604D01*
X151490802Y-68999413D01*
X151487467Y-69012512D01*
X151484705Y-69025885D01*
X151482531Y-69039515D01*
X151480960Y-69053387D01*
X151480006Y-69067485D01*
X151479685Y-69081792D01*
X151254260Y-69081792D01*
X151254260Y-68546111D01*
X152248035Y-68546111D01*
X152248175Y-68551326D01*
X152248591Y-68556489D01*
X152249275Y-68561593D01*
X152250220Y-68566629D01*
X152251419Y-68571591D01*
X152252865Y-68576472D01*
X152254551Y-68581263D01*
X152256469Y-68585957D01*
X152258611Y-68590547D01*
X152260972Y-68595026D01*
X152263544Y-68599385D01*
X152266319Y-68603618D01*
X152269290Y-68607717D01*
X152272450Y-68611675D01*
X152275792Y-68615483D01*
X152279309Y-68619136D01*
X152282993Y-68622625D01*
X152286837Y-68625942D01*
X152290835Y-68629081D01*
X152294978Y-68632034D01*
X152299260Y-68634794D01*
X152303673Y-68637352D01*
X152308210Y-68639703D01*
X152312864Y-68641837D01*
X152317629Y-68643748D01*
X152322495Y-68645429D01*
X152327457Y-68646871D01*
X152332507Y-68648068D01*
X152337638Y-68649012D01*
X152342843Y-68649695D01*
X152348114Y-68650111D01*
X152353445Y-68650251D01*
X152358660Y-68650111D01*
X152363823Y-68649695D01*
X152368927Y-68649012D01*
X152373963Y-68648068D01*
X152378926Y-68646871D01*
X152383806Y-68645429D01*
X152388597Y-68643748D01*
X152393291Y-68641837D01*
X152397881Y-68639703D01*
X152402360Y-68637352D01*
X152406719Y-68634794D01*
X152410952Y-68632034D01*
X152415051Y-68629081D01*
X152419009Y-68625942D01*
X152422817Y-68622625D01*
X152426470Y-68619136D01*
X152429959Y-68615483D01*
X152433276Y-68611675D01*
X152436415Y-68607717D01*
X152439368Y-68603618D01*
X152442128Y-68599385D01*
X152444686Y-68595026D01*
X152447037Y-68590547D01*
X152449171Y-68585957D01*
X152451082Y-68581263D01*
X152452763Y-68576472D01*
X152454205Y-68571591D01*
X152455402Y-68566629D01*
X152456346Y-68561593D01*
X152457029Y-68556489D01*
X152457445Y-68551326D01*
X152457585Y-68546111D01*
X152457445Y-68540780D01*
X152457029Y-68535509D01*
X152456346Y-68530304D01*
X152455402Y-68525173D01*
X152454205Y-68520123D01*
X152452763Y-68515161D01*
X152451082Y-68510294D01*
X152449171Y-68505530D01*
X152447037Y-68500876D01*
X152444686Y-68496339D01*
X152442128Y-68491926D01*
X152439368Y-68487644D01*
X152436415Y-68483501D01*
X152433276Y-68479503D01*
X152429959Y-68475659D01*
X152426470Y-68471975D01*
X152422817Y-68468458D01*
X152419009Y-68465116D01*
X152415051Y-68461956D01*
X152410952Y-68458984D01*
X152406719Y-68456210D01*
X152402360Y-68453638D01*
X152397881Y-68451277D01*
X152393291Y-68449134D01*
X152388597Y-68447217D01*
X152383806Y-68445531D01*
X152378926Y-68444085D01*
X152373963Y-68442886D01*
X152368927Y-68441941D01*
X152363823Y-68441257D01*
X152358660Y-68440841D01*
X152353445Y-68440701D01*
X152348114Y-68440841D01*
X152342843Y-68441257D01*
X152337638Y-68441941D01*
X152332507Y-68442886D01*
X152327457Y-68444085D01*
X152322495Y-68445531D01*
X152317629Y-68447217D01*
X152312864Y-68449134D01*
X152308210Y-68451277D01*
X152303673Y-68453638D01*
X152299260Y-68456210D01*
X152294978Y-68458984D01*
X152290835Y-68461956D01*
X152286837Y-68465116D01*
X152282993Y-68468458D01*
X152279309Y-68471975D01*
X152275792Y-68475659D01*
X152272450Y-68479503D01*
X152269290Y-68483501D01*
X152266319Y-68487644D01*
X152263544Y-68491926D01*
X152260972Y-68496339D01*
X152258611Y-68500876D01*
X152256469Y-68505530D01*
X152254551Y-68510294D01*
X152252865Y-68515161D01*
X152251419Y-68520123D01*
X152250220Y-68525173D01*
X152249275Y-68530304D01*
X152248591Y-68535509D01*
X152248175Y-68540780D01*
X152248035Y-68546111D01*
X151254260Y-68546111D01*
X151254260Y-68044953D01*
X151479685Y-68044953D01*
X151480006Y-68059376D01*
X151480960Y-68073581D01*
X151482531Y-68087555D01*
X151484705Y-68101280D01*
X151487467Y-68114740D01*
X151490802Y-68127921D01*
X151494696Y-68140806D01*
X151499132Y-68153379D01*
X151504097Y-68165625D01*
X151509575Y-68177528D01*
X151515551Y-68189072D01*
X151522012Y-68200240D01*
X151528941Y-68211018D01*
X151536324Y-68221390D01*
X151544146Y-68231339D01*
X151552392Y-68240851D01*
X151561048Y-68249908D01*
X151570098Y-68258495D01*
X151579528Y-68266597D01*
X151589322Y-68274198D01*
X151599466Y-68281281D01*
X151609944Y-68287832D01*
X151620743Y-68293834D01*
X151631847Y-68299271D01*
X151643241Y-68304127D01*
X151654910Y-68308388D01*
X151666840Y-68312036D01*
X151679015Y-68315056D01*
X151691422Y-68317433D01*
X151704043Y-68319150D01*
X151716866Y-68320192D01*
X151729875Y-68320543D01*
X151733685Y-68142743D01*
X151729310Y-68142618D01*
X151725000Y-68142245D01*
X151720759Y-68141631D01*
X151716592Y-68140781D01*
X151712504Y-68139702D01*
X151708500Y-68138398D01*
X151704585Y-68136877D01*
X151700764Y-68135143D01*
X151697042Y-68133203D01*
X151693422Y-68131062D01*
X151689911Y-68128726D01*
X151686514Y-68126201D01*
X151683234Y-68123493D01*
X151680078Y-68120607D01*
X151677049Y-68117550D01*
X151674154Y-68114327D01*
X151671396Y-68110944D01*
X151668780Y-68107407D01*
X151666312Y-68103721D01*
X151663996Y-68099893D01*
X151661838Y-68095928D01*
X151659841Y-68091832D01*
X151658012Y-68087611D01*
X151656354Y-68083271D01*
X151654873Y-68078818D01*
X151653574Y-68074256D01*
X151652461Y-68069593D01*
X151651539Y-68064834D01*
X151650814Y-68059985D01*
X151650290Y-68055051D01*
X151649972Y-68050038D01*
X151649865Y-68044953D01*
X151649987Y-68039168D01*
X151650350Y-68033486D01*
X151650948Y-68027910D01*
X151651777Y-68022448D01*
X151652833Y-68017103D01*
X151654109Y-68011882D01*
X151655602Y-68006790D01*
X151657306Y-68001833D01*
X151659217Y-67997014D01*
X151661329Y-67992341D01*
X151663638Y-67987817D01*
X151666139Y-67983450D01*
X151668827Y-67979243D01*
X151671697Y-67975202D01*
X151674744Y-67971334D01*
X151677964Y-67967642D01*
X151681351Y-67964132D01*
X151684900Y-67960810D01*
X151688607Y-67957681D01*
X151692467Y-67954751D01*
X151696475Y-67952024D01*
X151700626Y-67949506D01*
X151704915Y-67947203D01*
X151709337Y-67945119D01*
X151713887Y-67943261D01*
X151718561Y-67941632D01*
X151723354Y-67940240D01*
X151728260Y-67939089D01*
X151733275Y-67938184D01*
X151738394Y-67937532D01*
X151743613Y-67937136D01*
X151748925Y-67937003D01*
X151754948Y-67937136D01*
X151760868Y-67937532D01*
X151766680Y-67938184D01*
X151772378Y-67939089D01*
X151777956Y-67940240D01*
X151783408Y-67941632D01*
X151788728Y-67943261D01*
X151793911Y-67945119D01*
X151798950Y-67947203D01*
X151803841Y-67949506D01*
X151808577Y-67952024D01*
X151813152Y-67954751D01*
X151817560Y-67957681D01*
X151821796Y-67960810D01*
X151825855Y-67964132D01*
X151829729Y-67967642D01*
X151833413Y-67971334D01*
X151836902Y-67975202D01*
X151840189Y-67979243D01*
X151843270Y-67983450D01*
X151846137Y-67987817D01*
X151848785Y-67992341D01*
X151851209Y-67997014D01*
X151853402Y-68001833D01*
X151855359Y-68006790D01*
X151857074Y-68011882D01*
X151858541Y-68017103D01*
X151859755Y-68022448D01*
X151860709Y-68027910D01*
X151861397Y-68033486D01*
X151861815Y-68039168D01*
X151861955Y-68044953D01*
X151861955Y-68109723D01*
X152008005Y-68108453D01*
X152008005Y-68033523D01*
X152008175Y-68026440D01*
X152008680Y-68019482D01*
X152009514Y-68012657D01*
X152010669Y-68005970D01*
X152012138Y-67999428D01*
X152013915Y-67993038D01*
X152015993Y-67986806D01*
X152018363Y-67980739D01*
X152021021Y-67974842D01*
X152023958Y-67969124D01*
X152027167Y-67963589D01*
X152030642Y-67958246D01*
X152034375Y-67953099D01*
X152038360Y-67948156D01*
X152042590Y-67943424D01*
X152047057Y-67938908D01*
X152051756Y-67934615D01*
X152056677Y-67930553D01*
X152061816Y-67926726D01*
X152067164Y-67923142D01*
X152072715Y-67919808D01*
X152078462Y-67916729D01*
X152084398Y-67913912D01*
X152090515Y-67911365D01*
X152096808Y-67909093D01*
X152103268Y-67907102D01*
X152109889Y-67905400D01*
X152116664Y-67903993D01*
X152123587Y-67902887D01*
X152130649Y-67902089D01*
X152137844Y-67901606D01*
X152145165Y-67901443D01*
X152152605Y-67901606D01*
X152159919Y-67902089D01*
X152167100Y-67902887D01*
X152174139Y-67903993D01*
X152181031Y-67905400D01*
X152187768Y-67907102D01*
X152194342Y-67909093D01*
X152200747Y-67911365D01*
X152206975Y-67913912D01*
X152213020Y-67916729D01*
X152218873Y-67919808D01*
X152224528Y-67923142D01*
X152229977Y-67926726D01*
X152235213Y-67930553D01*
X152240230Y-67934615D01*
X152245019Y-67938908D01*
X152249574Y-67943424D01*
X152253887Y-67948156D01*
X152257951Y-67953099D01*
X152261759Y-67958246D01*
X152265305Y-67963589D01*
X152268579Y-67969124D01*
X152271576Y-67974842D01*
X152274288Y-67980739D01*
X152276708Y-67986806D01*
X152278829Y-67993038D01*
X152280643Y-67999428D01*
X152282144Y-68005970D01*
X152283324Y-68012657D01*
X152284175Y-68019482D01*
X152284691Y-68026440D01*
X152284865Y-68033523D01*
X152284728Y-68040383D01*
X152284323Y-68047145D01*
X152283654Y-68053802D01*
X152282729Y-68060347D01*
X152281554Y-68066770D01*
X152280135Y-68073065D01*
X152276590Y-68085236D01*
X152272145Y-68096797D01*
X152266849Y-68107684D01*
X152263898Y-68112855D01*
X152260754Y-68117835D01*
X152257422Y-68122614D01*
X152253909Y-68127186D01*
X152250221Y-68131541D01*
X152246364Y-68135673D01*
X152242345Y-68139573D01*
X152238170Y-68143234D01*
X152233845Y-68146648D01*
X152229377Y-68149806D01*
X152224772Y-68152700D01*
X152220035Y-68155324D01*
X152215174Y-68157669D01*
X152210195Y-68159726D01*
X152205104Y-68161489D01*
X152199906Y-68162949D01*
X152194610Y-68164098D01*
X152189220Y-68164929D01*
X152183743Y-68165433D01*
X152178185Y-68165603D01*
X152180725Y-68347213D01*
X152195039Y-68346811D01*
X152209158Y-68345616D01*
X152223065Y-68343647D01*
X152236741Y-68340923D01*
X152250172Y-68337462D01*
X152263339Y-68333283D01*
X152276225Y-68328404D01*
X152288814Y-68322845D01*
X152301088Y-68316623D01*
X152313032Y-68309758D01*
X152324626Y-68302267D01*
X152335856Y-68294171D01*
X152346703Y-68285486D01*
X152357151Y-68276232D01*
X152367183Y-68266427D01*
X152376781Y-68256090D01*
X152385929Y-68245240D01*
X152394610Y-68233895D01*
X152402807Y-68222074D01*
X152410503Y-68209795D01*
X152417681Y-68197077D01*
X152424323Y-68183939D01*
X152430414Y-68170398D01*
X152435935Y-68156475D01*
X152440871Y-68142187D01*
X152445203Y-68127553D01*
X152448916Y-68112591D01*
X152451991Y-68097321D01*
X152454413Y-68081760D01*
X152456164Y-68065928D01*
X152457227Y-68049843D01*
X152457585Y-68033523D01*
X152457186Y-68017092D01*
X152456002Y-68000909D01*
X152454051Y-67984993D01*
X152451352Y-67969361D01*
X152447922Y-67954031D01*
X152443780Y-67939022D01*
X152438945Y-67924351D01*
X152433435Y-67910035D01*
X152427268Y-67896094D01*
X152420463Y-67882545D01*
X152413038Y-67869405D01*
X152405011Y-67856693D01*
X152396401Y-67844426D01*
X152387227Y-67832623D01*
X152377506Y-67821302D01*
X152367256Y-67810479D01*
X152356497Y-67800174D01*
X152345247Y-67790404D01*
X152333523Y-67781187D01*
X152321345Y-67772540D01*
X152308731Y-67764483D01*
X152295699Y-67757032D01*
X152282267Y-67750206D01*
X152268454Y-67744023D01*
X152254279Y-67738499D01*
X152239759Y-67733654D01*
X152224913Y-67729506D01*
X152209759Y-67726071D01*
X152194316Y-67723369D01*
X152178602Y-67721416D01*
X152162636Y-67720232D01*
X152146435Y-67719833D01*
X152126675Y-67720525D01*
X152107415Y-67722574D01*
X152088679Y-67725936D01*
X152070493Y-67730568D01*
X152052879Y-67736429D01*
X152035863Y-67743474D01*
X152019468Y-67751662D01*
X152003719Y-67760949D01*
X151988639Y-67771293D01*
X151974253Y-67782651D01*
X151960586Y-67794980D01*
X151947660Y-67808237D01*
X151935501Y-67822380D01*
X151924133Y-67837365D01*
X151913579Y-67853151D01*
X151903865Y-67869693D01*
X151896232Y-67858535D01*
X151888107Y-67847934D01*
X151879501Y-67837915D01*
X151870428Y-67828497D01*
X151860902Y-67819705D01*
X151850934Y-67811561D01*
X151840539Y-67804086D01*
X151835185Y-67800607D01*
X151829729Y-67797303D01*
X151824172Y-67794178D01*
X151818517Y-67791235D01*
X151812764Y-67788475D01*
X151806916Y-67785903D01*
X151800974Y-67783520D01*
X151794939Y-67781330D01*
X151788814Y-67779335D01*
X151782600Y-67777539D01*
X151776298Y-67775943D01*
X151769911Y-67774551D01*
X151763439Y-67773366D01*
X151756885Y-67772389D01*
X151750250Y-67771625D01*
X151743535Y-67771076D01*
X151736743Y-67770744D01*
X151729875Y-67770633D01*
X151716866Y-67770984D01*
X151704043Y-67772026D01*
X151691422Y-67773742D01*
X151679015Y-67776117D01*
X151666840Y-67779136D01*
X151654910Y-67782780D01*
X151643241Y-67787036D01*
X151631847Y-67791886D01*
X151620743Y-67797314D01*
X151609944Y-67803306D01*
X151599466Y-67809843D01*
X151589322Y-67816911D01*
X151579528Y-67824494D01*
X151570098Y-67832574D01*
X151561048Y-67841137D01*
X151552392Y-67850167D01*
X151544146Y-67859646D01*
X151536324Y-67869560D01*
X151528941Y-67879892D01*
X151522012Y-67890626D01*
X151515551Y-67901746D01*
X151509575Y-67913235D01*
X151504097Y-67925079D01*
X151499132Y-67937261D01*
X151494696Y-67949765D01*
X151492385Y-67957367D01*
X151490802Y-67962574D01*
X151487467Y-67975673D01*
X151484705Y-67989046D01*
X151482531Y-68002676D01*
X151480960Y-68016548D01*
X151480006Y-68030646D01*
X151479685Y-68044953D01*
X151254260Y-68044953D01*
X151254260Y-66671075D01*
X151492385Y-66671075D01*
X151492385Y-66885705D01*
X152222635Y-67160025D01*
X151492385Y-67435615D01*
X151492385Y-67650245D01*
X152444885Y-67267975D01*
X152444885Y-67053345D01*
X151492385Y-66671075D01*
X151254260Y-66671075D01*
X151254260Y-66299711D01*
X151478415Y-66299711D01*
X151478766Y-66315713D01*
X151479813Y-66331556D01*
X151481542Y-66347214D01*
X151483941Y-66362660D01*
X151487000Y-66377871D01*
X151490704Y-66392820D01*
X151495044Y-66407481D01*
X151500005Y-66421830D01*
X151505577Y-66435839D01*
X151511746Y-66449485D01*
X151518502Y-66462741D01*
X151525832Y-66475581D01*
X151533723Y-66487981D01*
X151542164Y-66499914D01*
X151551143Y-66511355D01*
X151560647Y-66522279D01*
X151570665Y-66532659D01*
X151581185Y-66542470D01*
X151592193Y-66551687D01*
X151603679Y-66560284D01*
X151615629Y-66568236D01*
X151628033Y-66575516D01*
X151640878Y-66582100D01*
X151654151Y-66587961D01*
X151667841Y-66593075D01*
X151681936Y-66597415D01*
X151696424Y-66600956D01*
X151711291Y-66603673D01*
X151726527Y-66605539D01*
X151742120Y-66606530D01*
X151758056Y-66606619D01*
X151774325Y-66605781D01*
X151775595Y-66427981D01*
X151767834Y-66428511D01*
X151760270Y-66428678D01*
X151752906Y-66428490D01*
X151745745Y-66427956D01*
X151738791Y-66427086D01*
X151732046Y-66425888D01*
X151725514Y-66424371D01*
X151719199Y-66422544D01*
X151713103Y-66420415D01*
X151707230Y-66417994D01*
X151701583Y-66415289D01*
X151696165Y-66412310D01*
X151690980Y-66409064D01*
X151686031Y-66405561D01*
X151681321Y-66401809D01*
X151676852Y-66397819D01*
X151672630Y-66393597D01*
X151668656Y-66389154D01*
X151664935Y-66384497D01*
X151661469Y-66379637D01*
X151658261Y-66374581D01*
X151655315Y-66369339D01*
X151652635Y-66363918D01*
X151650222Y-66358330D01*
X151648081Y-66352581D01*
X151646216Y-66346681D01*
X151644628Y-66340638D01*
X151643322Y-66334463D01*
X151642300Y-66328162D01*
X151641566Y-66321746D01*
X151641123Y-66315223D01*
X151640975Y-66308601D01*
X151641577Y-66297605D01*
X151642937Y-66286590D01*
X151645097Y-66275656D01*
X151648099Y-66264905D01*
X151651987Y-66254437D01*
X151654276Y-66249340D01*
X151656803Y-66244352D01*
X151659572Y-66239485D01*
X151662590Y-66234751D01*
X151665861Y-66230163D01*
X151669391Y-66225734D01*
X151673185Y-66221476D01*
X151677249Y-66217401D01*
X151681588Y-66213523D01*
X151686206Y-66209854D01*
X151691111Y-66206406D01*
X151696306Y-66203192D01*
X151701797Y-66200224D01*
X151707590Y-66197516D01*
X151713691Y-66195079D01*
X151720103Y-66192926D01*
X151726833Y-66191071D01*
X151733886Y-66189524D01*
X151741267Y-66188299D01*
X151748982Y-66187409D01*
X151757036Y-66186865D01*
X151765435Y-66186681D01*
X151779646Y-66187092D01*
X151786630Y-66187698D01*
X151793635Y-66188656D01*
X151800738Y-66190026D01*
X151808016Y-66191872D01*
X151815543Y-66194255D01*
X151823399Y-66197238D01*
X151831657Y-66200884D01*
X151840396Y-66205254D01*
X151849692Y-66210411D01*
X151859621Y-66216417D01*
X151870259Y-66223335D01*
X151881684Y-66231227D01*
X151893972Y-66240155D01*
X151907199Y-66250181D01*
X151921441Y-66261369D01*
X151936776Y-66273779D01*
X151971029Y-66302519D01*
X152010568Y-66336900D01*
X152056007Y-66377419D01*
X152107957Y-66424577D01*
X152167030Y-66478870D01*
X152233839Y-66540799D01*
X152308995Y-66610861D01*
X152444885Y-66610861D01*
X152444885Y-65988561D01*
X152282325Y-65988561D01*
X152282325Y-66370831D01*
X152175747Y-66269539D01*
X152087876Y-66188189D01*
X152049807Y-66154379D01*
X152015037Y-66124818D01*
X151983106Y-66099261D01*
X151953554Y-66077461D01*
X151925922Y-66059174D01*
X151899750Y-66044153D01*
X151874579Y-66032154D01*
X151849950Y-66022931D01*
X151825402Y-66016237D01*
X151800477Y-66011828D01*
X151774714Y-66009458D01*
X151747655Y-66008881D01*
X151732915Y-66009362D01*
X151718470Y-66010557D01*
X151704330Y-66012449D01*
X151690507Y-66015023D01*
X151677013Y-66018263D01*
X151663858Y-66022153D01*
X151651055Y-66026677D01*
X151638614Y-66031820D01*
X151626546Y-66037566D01*
X151614865Y-66043899D01*
X151603580Y-66050803D01*
X151592703Y-66058262D01*
X151582245Y-66066261D01*
X151572219Y-66074783D01*
X151562634Y-66083814D01*
X151553504Y-66093336D01*
X151544838Y-66103335D01*
X151536649Y-66113794D01*
X151528948Y-66124697D01*
X151521746Y-66136030D01*
X151515055Y-66147775D01*
X151508886Y-66159918D01*
X151503250Y-66172442D01*
X151498160Y-66185332D01*
X151493625Y-66198571D01*
X151489658Y-66212144D01*
X151486270Y-66226036D01*
X151483473Y-66240229D01*
X151481277Y-66254710D01*
X151479695Y-66269461D01*
X151478737Y-66284466D01*
X151478415Y-66299711D01*
X151254260Y-66299711D01*
X151254260Y-65826509D01*
D10*
X184939504Y-78770456D02*
X184846697Y-78845780D01*
X185786250Y-75961499D02*
X185825303Y-76064259D01*
X188187145Y-75735664D02*
X188187145Y-75735664D01*
X182214349Y-79401068D02*
X182214349Y-79401068D01*
X185276834Y-78420854D02*
X185197879Y-78514844D01*
X182950360Y-79371619D02*
X182648821Y-79396550D01*
X184339125Y-79133522D02*
X184339125Y-79133522D01*
X184339125Y-79133522D02*
X184258773Y-79159999D01*
D11*
G36*
X192624075Y-108585000D02*
G01*
X194132200Y-108585000D01*
X194132200Y-112236250D01*
X192624075Y-112236250D01*
X192624075Y-111711919D01*
X192849500Y-111711919D01*
X192849821Y-111726341D01*
X192850775Y-111740547D01*
X192852346Y-111754520D01*
X192854520Y-111768245D01*
X192857282Y-111781706D01*
X192860617Y-111794887D01*
X192864511Y-111807772D01*
X192868947Y-111820345D01*
X192873912Y-111832591D01*
X192879390Y-111844493D01*
X192885366Y-111856037D01*
X192891827Y-111867206D01*
X192898756Y-111877984D01*
X192906139Y-111888356D01*
X192913961Y-111898305D01*
X192922207Y-111907816D01*
X192930863Y-111916873D01*
X192939913Y-111925461D01*
X192949343Y-111933563D01*
X192959137Y-111941164D01*
X192969281Y-111948247D01*
X192979759Y-111954797D01*
X192990558Y-111960799D01*
X193001662Y-111966236D01*
X193013056Y-111971093D01*
X193024725Y-111975353D01*
X193036655Y-111979001D01*
X193048830Y-111982022D01*
X193061237Y-111984399D01*
X193073858Y-111986116D01*
X193086681Y-111987158D01*
X193099690Y-111987509D01*
X193103500Y-111809709D01*
X193099125Y-111809583D01*
X193094815Y-111809210D01*
X193090574Y-111808596D01*
X193086407Y-111807747D01*
X193082319Y-111806667D01*
X193078315Y-111805364D01*
X193074400Y-111803842D01*
X193070579Y-111802108D01*
X193066857Y-111800168D01*
X193063237Y-111798027D01*
X193059726Y-111795691D01*
X193056329Y-111793166D01*
X193053049Y-111790458D01*
X193049893Y-111787573D01*
X193046864Y-111784515D01*
X193043969Y-111781292D01*
X193041211Y-111777909D01*
X193038595Y-111774372D01*
X193036127Y-111770687D01*
X193033811Y-111766859D01*
X193031653Y-111762894D01*
X193029656Y-111758798D01*
X193027827Y-111754577D01*
X193026169Y-111750237D01*
X193024688Y-111745783D01*
X193023389Y-111741222D01*
X193022276Y-111736559D01*
X193021354Y-111731800D01*
X193020629Y-111726950D01*
X193020105Y-111722016D01*
X193019787Y-111717004D01*
X193019680Y-111711919D01*
X193019802Y-111706134D01*
X193020165Y-111700451D01*
X193020763Y-111694876D01*
X193021592Y-111689413D01*
X193022648Y-111684069D01*
X193023924Y-111678848D01*
X193025417Y-111673756D01*
X193027121Y-111668798D01*
X193029032Y-111663980D01*
X193031144Y-111659306D01*
X193033453Y-111654783D01*
X193035954Y-111650415D01*
X193038642Y-111646209D01*
X193041512Y-111642168D01*
X193044559Y-111638299D01*
X193047779Y-111634607D01*
X193051166Y-111631098D01*
X193054715Y-111627776D01*
X193058422Y-111624647D01*
X193062282Y-111621716D01*
X193066290Y-111618989D01*
X193070441Y-111616472D01*
X193074730Y-111614168D01*
X193079152Y-111612085D01*
X193083702Y-111610226D01*
X193088376Y-111608598D01*
X193093169Y-111607206D01*
X193098075Y-111606055D01*
X193103090Y-111605150D01*
X193108209Y-111604497D01*
X193113428Y-111604102D01*
X193118740Y-111603969D01*
X193124763Y-111604102D01*
X193130683Y-111604497D01*
X193136495Y-111605150D01*
X193142193Y-111606055D01*
X193147771Y-111607206D01*
X193153223Y-111608598D01*
X193158543Y-111610226D01*
X193163726Y-111612085D01*
X193168765Y-111614168D01*
X193173656Y-111616472D01*
X193178392Y-111618989D01*
X193182967Y-111621716D01*
X193187375Y-111624647D01*
X193191611Y-111627776D01*
X193195670Y-111631098D01*
X193199544Y-111634607D01*
X193203228Y-111638299D01*
X193206717Y-111642168D01*
X193210004Y-111646209D01*
X193213085Y-111650415D01*
X193215952Y-111654783D01*
X193218600Y-111659306D01*
X193221024Y-111663980D01*
X193223217Y-111668798D01*
X193225174Y-111673756D01*
X193226889Y-111678848D01*
X193228356Y-111684069D01*
X193229570Y-111689413D01*
X193230524Y-111694876D01*
X193231212Y-111700451D01*
X193231630Y-111706134D01*
X193231770Y-111711919D01*
X193231770Y-111776689D01*
X193377820Y-111775419D01*
X193377820Y-111700489D01*
X193377990Y-111693405D01*
X193378495Y-111686448D01*
X193379329Y-111679622D01*
X193380484Y-111672936D01*
X193381953Y-111666394D01*
X193383730Y-111660004D01*
X193385808Y-111653772D01*
X193388178Y-111647704D01*
X193390836Y-111641808D01*
X193393773Y-111636089D01*
X193396982Y-111630555D01*
X193400457Y-111625211D01*
X193404190Y-111620065D01*
X193408175Y-111615122D01*
X193412405Y-111610389D01*
X193416872Y-111605874D01*
X193421571Y-111601581D01*
X193426492Y-111597518D01*
X193431631Y-111593692D01*
X193436979Y-111590108D01*
X193442530Y-111586773D01*
X193448277Y-111583695D01*
X193454213Y-111580878D01*
X193460330Y-111578331D01*
X193466623Y-111576058D01*
X193473083Y-111574068D01*
X193479704Y-111572366D01*
X193486479Y-111570959D01*
X193493402Y-111569853D01*
X193500464Y-111569055D01*
X193507659Y-111568571D01*
X193514980Y-111568409D01*
X193522420Y-111568571D01*
X193529734Y-111569055D01*
X193536915Y-111569853D01*
X193543954Y-111570959D01*
X193550846Y-111572366D01*
X193557583Y-111574068D01*
X193564157Y-111576058D01*
X193570562Y-111578331D01*
X193576790Y-111580878D01*
X193582835Y-111583695D01*
X193588688Y-111586773D01*
X193594343Y-111590108D01*
X193599792Y-111593692D01*
X193605028Y-111597518D01*
X193610045Y-111601581D01*
X193614834Y-111605874D01*
X193619389Y-111610389D01*
X193623702Y-111615122D01*
X193627766Y-111620065D01*
X193631574Y-111625211D01*
X193635120Y-111630555D01*
X193638394Y-111636089D01*
X193641391Y-111641808D01*
X193644103Y-111647704D01*
X193646523Y-111653772D01*
X193648644Y-111660004D01*
X193650458Y-111666394D01*
X193651959Y-111672936D01*
X193653139Y-111679622D01*
X193653990Y-111686448D01*
X193654506Y-111693405D01*
X193654680Y-111700489D01*
X193654543Y-111707348D01*
X193654138Y-111714111D01*
X193653469Y-111720768D01*
X193652544Y-111727312D01*
X193651369Y-111733736D01*
X193649950Y-111740030D01*
X193646405Y-111752201D01*
X193641960Y-111763762D01*
X193636664Y-111774650D01*
X193633713Y-111779821D01*
X193630569Y-111784800D01*
X193627237Y-111789580D01*
X193623724Y-111794151D01*
X193620036Y-111798507D01*
X193616179Y-111802639D01*
X193612160Y-111806539D01*
X193607985Y-111810200D01*
X193603660Y-111813613D01*
X193599192Y-111816771D01*
X193594587Y-111819666D01*
X193589850Y-111822290D01*
X193584989Y-111824634D01*
X193580010Y-111826692D01*
X193574919Y-111828455D01*
X193569721Y-111829915D01*
X193564425Y-111831064D01*
X193559035Y-111831895D01*
X193553558Y-111832399D01*
X193548000Y-111832569D01*
X193550540Y-112014179D01*
X193564854Y-112013776D01*
X193578973Y-112012581D01*
X193592880Y-112010612D01*
X193606556Y-112007888D01*
X193619987Y-112004427D01*
X193633154Y-112000248D01*
X193646040Y-111995370D01*
X193658629Y-111989810D01*
X193670903Y-111983589D01*
X193682847Y-111976724D01*
X193694441Y-111969233D01*
X193705671Y-111961136D01*
X193716518Y-111952452D01*
X193726966Y-111943198D01*
X193736998Y-111933393D01*
X193746596Y-111923056D01*
X193755744Y-111912206D01*
X193764425Y-111900861D01*
X193772622Y-111889040D01*
X193780318Y-111876761D01*
X193787496Y-111864043D01*
X193794138Y-111850904D01*
X193800229Y-111837364D01*
X193805750Y-111823440D01*
X193810686Y-111809152D01*
X193815018Y-111794518D01*
X193818731Y-111779557D01*
X193821806Y-111764286D01*
X193824228Y-111748726D01*
X193825979Y-111732893D01*
X193827042Y-111716808D01*
X193827400Y-111700489D01*
X193827001Y-111684057D01*
X193825817Y-111667874D01*
X193823866Y-111651958D01*
X193821167Y-111636326D01*
X193817737Y-111620997D01*
X193813595Y-111605987D01*
X193808760Y-111591316D01*
X193803250Y-111577000D01*
X193797083Y-111563059D01*
X193790278Y-111549509D01*
X193782853Y-111536369D01*
X193774826Y-111523657D01*
X193766216Y-111511391D01*
X193757042Y-111499587D01*
X193747321Y-111488265D01*
X193737071Y-111477443D01*
X193726312Y-111467137D01*
X193723260Y-111464487D01*
X193715062Y-111457367D01*
X193703338Y-111448150D01*
X193691160Y-111439503D01*
X193678546Y-111431446D01*
X193665514Y-111423995D01*
X193652082Y-111417169D01*
X193638269Y-111410985D01*
X193624094Y-111405461D01*
X193609574Y-111400616D01*
X193594728Y-111396468D01*
X193579574Y-111393033D01*
X193564131Y-111390331D01*
X193550540Y-111388642D01*
X193548417Y-111388378D01*
X193532451Y-111387193D01*
X193516250Y-111386795D01*
X193496490Y-111387487D01*
X193477230Y-111389536D01*
X193458494Y-111392898D01*
X193440308Y-111397531D01*
X193422694Y-111403391D01*
X193405678Y-111410437D01*
X193389283Y-111418625D01*
X193373534Y-111427913D01*
X193358454Y-111438257D01*
X193344068Y-111449615D01*
X193330401Y-111461944D01*
X193317475Y-111475202D01*
X193305316Y-111489345D01*
X193293948Y-111504330D01*
X193283394Y-111520116D01*
X193273680Y-111536659D01*
X193266047Y-111525500D01*
X193257922Y-111514900D01*
X193249316Y-111504880D01*
X193240243Y-111495462D01*
X193230717Y-111486670D01*
X193220749Y-111478525D01*
X193210354Y-111471050D01*
X193205000Y-111467570D01*
X193199544Y-111464267D01*
X193193987Y-111461142D01*
X193188332Y-111458198D01*
X193182579Y-111455438D01*
X193176731Y-111452866D01*
X193170789Y-111450483D01*
X193164754Y-111448293D01*
X193158629Y-111446298D01*
X193152415Y-111444501D01*
X193146113Y-111442905D01*
X193139726Y-111441513D01*
X193133254Y-111440327D01*
X193126700Y-111439351D01*
X193120065Y-111438587D01*
X193113350Y-111438037D01*
X193106558Y-111437706D01*
X193099690Y-111437595D01*
X193086681Y-111437945D01*
X193073858Y-111438987D01*
X193061237Y-111440704D01*
X193048830Y-111443079D01*
X193036655Y-111446097D01*
X193024725Y-111449742D01*
X193013056Y-111453998D01*
X193001662Y-111458848D01*
X192990558Y-111464277D01*
X192979759Y-111470268D01*
X192969281Y-111476806D01*
X192959137Y-111483874D01*
X192949343Y-111491457D01*
X192939913Y-111499538D01*
X192930863Y-111508101D01*
X192922207Y-111517130D01*
X192913961Y-111526610D01*
X192906139Y-111536524D01*
X192898756Y-111546856D01*
X192891827Y-111557590D01*
X192885366Y-111568710D01*
X192879390Y-111580200D01*
X192873912Y-111592044D01*
X192868947Y-111604226D01*
X192864511Y-111616730D01*
X192860617Y-111629539D01*
X192857282Y-111642638D01*
X192854520Y-111656011D01*
X192852346Y-111669642D01*
X192850775Y-111683514D01*
X192849821Y-111697611D01*
X192849500Y-111711919D01*
X192624075Y-111711919D01*
X192624075Y-111176237D01*
X193617850Y-111176237D01*
X193617990Y-111181452D01*
X193618406Y-111186615D01*
X193619090Y-111191718D01*
X193620035Y-111196755D01*
X193621234Y-111201717D01*
X193622680Y-111206598D01*
X193624366Y-111211389D01*
X193626284Y-111216083D01*
X193628426Y-111220673D01*
X193630787Y-111225151D01*
X193633359Y-111229511D01*
X193636133Y-111233744D01*
X193639105Y-111237843D01*
X193642265Y-111241800D01*
X193645607Y-111245609D01*
X193649124Y-111249262D01*
X193652808Y-111252750D01*
X193656652Y-111256068D01*
X193660650Y-111259207D01*
X193664793Y-111262160D01*
X193669075Y-111264920D01*
X193673488Y-111267478D01*
X193678025Y-111269828D01*
X193682679Y-111271963D01*
X193687444Y-111273874D01*
X193692310Y-111275555D01*
X193697272Y-111276997D01*
X193702322Y-111278194D01*
X193707453Y-111279138D01*
X193712658Y-111279821D01*
X193717929Y-111280237D01*
X193723260Y-111280377D01*
X193728475Y-111280237D01*
X193733638Y-111279821D01*
X193738742Y-111279138D01*
X193743778Y-111278194D01*
X193748741Y-111276997D01*
X193753621Y-111275555D01*
X193758412Y-111273874D01*
X193763106Y-111271963D01*
X193767696Y-111269828D01*
X193772175Y-111267478D01*
X193776534Y-111264920D01*
X193780767Y-111262160D01*
X193784866Y-111259207D01*
X193788824Y-111256068D01*
X193792632Y-111252750D01*
X193796285Y-111249262D01*
X193799774Y-111245609D01*
X193803091Y-111241800D01*
X193806230Y-111237843D01*
X193809183Y-111233744D01*
X193811943Y-111229511D01*
X193814501Y-111225151D01*
X193816852Y-111220673D01*
X193818986Y-111216083D01*
X193820897Y-111211389D01*
X193822578Y-111206598D01*
X193824020Y-111201717D01*
X193825217Y-111196755D01*
X193826161Y-111191718D01*
X193826844Y-111186615D01*
X193827260Y-111181452D01*
X193827400Y-111176237D01*
X193827260Y-111170906D01*
X193826844Y-111165635D01*
X193826161Y-111160430D01*
X193825217Y-111155299D01*
X193824020Y-111150249D01*
X193822578Y-111145287D01*
X193820897Y-111140420D01*
X193818986Y-111135656D01*
X193816852Y-111131002D01*
X193814501Y-111126464D01*
X193811943Y-111122051D01*
X193809183Y-111117769D01*
X193806230Y-111113626D01*
X193803091Y-111109629D01*
X193799774Y-111105785D01*
X193796285Y-111102100D01*
X193792632Y-111098584D01*
X193788824Y-111095242D01*
X193784866Y-111092081D01*
X193780767Y-111089110D01*
X193776534Y-111086335D01*
X193772175Y-111083764D01*
X193767696Y-111081403D01*
X193763106Y-111079260D01*
X193758412Y-111077342D01*
X193753621Y-111075657D01*
X193748741Y-111074211D01*
X193743778Y-111073012D01*
X193738742Y-111072067D01*
X193733638Y-111071383D01*
X193728475Y-111070967D01*
X193723260Y-111070827D01*
X193717929Y-111070967D01*
X193712658Y-111071383D01*
X193707453Y-111072067D01*
X193702322Y-111073012D01*
X193697272Y-111074211D01*
X193692310Y-111075657D01*
X193687444Y-111077342D01*
X193682679Y-111079260D01*
X193678025Y-111081403D01*
X193673488Y-111083764D01*
X193669075Y-111086335D01*
X193664793Y-111089110D01*
X193660650Y-111092081D01*
X193656652Y-111095242D01*
X193652808Y-111098584D01*
X193649124Y-111102100D01*
X193645607Y-111105785D01*
X193642265Y-111109629D01*
X193639105Y-111113626D01*
X193636133Y-111117769D01*
X193633359Y-111122051D01*
X193630787Y-111126464D01*
X193628426Y-111131002D01*
X193626284Y-111135656D01*
X193624366Y-111140420D01*
X193622680Y-111145287D01*
X193621234Y-111150249D01*
X193620035Y-111155299D01*
X193619090Y-111160430D01*
X193618406Y-111165635D01*
X193617990Y-111170906D01*
X193617850Y-111176237D01*
X192624075Y-111176237D01*
X192624075Y-110675079D01*
X192849500Y-110675079D01*
X192849821Y-110689501D01*
X192850775Y-110703707D01*
X192852346Y-110717680D01*
X192854520Y-110731405D01*
X192857282Y-110744866D01*
X192860617Y-110758047D01*
X192864511Y-110770932D01*
X192868947Y-110783505D01*
X192873912Y-110795751D01*
X192879390Y-110807654D01*
X192885366Y-110819197D01*
X192891827Y-110830366D01*
X192898756Y-110841144D01*
X192906139Y-110851516D01*
X192913961Y-110861465D01*
X192922207Y-110870976D01*
X192930863Y-110880034D01*
X192939913Y-110888621D01*
X192949343Y-110896723D01*
X192959137Y-110904324D01*
X192969281Y-110911407D01*
X192979759Y-110917958D01*
X192990558Y-110923959D01*
X193001662Y-110929396D01*
X193013056Y-110934253D01*
X193024725Y-110938513D01*
X193036655Y-110942161D01*
X193048830Y-110945182D01*
X193061237Y-110947559D01*
X193073858Y-110949276D01*
X193086681Y-110950318D01*
X193099690Y-110950669D01*
X193103500Y-110772869D01*
X193099125Y-110772743D01*
X193094815Y-110772371D01*
X193090574Y-110771756D01*
X193086407Y-110770907D01*
X193082319Y-110769827D01*
X193078315Y-110768524D01*
X193074400Y-110767002D01*
X193070579Y-110765269D01*
X193066857Y-110763328D01*
X193063237Y-110761187D01*
X193059726Y-110758851D01*
X193056329Y-110756327D01*
X193053049Y-110753618D01*
X193049893Y-110750733D01*
X193046864Y-110747676D01*
X193043969Y-110744452D01*
X193041211Y-110741069D01*
X193038595Y-110737532D01*
X193036127Y-110733847D01*
X193033811Y-110730019D01*
X193031653Y-110726054D01*
X193029656Y-110721958D01*
X193027827Y-110717737D01*
X193026169Y-110713397D01*
X193024688Y-110708943D01*
X193023389Y-110704382D01*
X193022276Y-110699719D01*
X193021354Y-110694960D01*
X193020629Y-110690110D01*
X193020105Y-110685176D01*
X193019787Y-110680164D01*
X193019680Y-110675079D01*
X193019802Y-110669294D01*
X193020165Y-110663611D01*
X193020763Y-110658036D01*
X193021592Y-110652573D01*
X193022648Y-110647229D01*
X193023924Y-110642008D01*
X193025417Y-110636916D01*
X193027121Y-110631958D01*
X193029032Y-110627140D01*
X193031144Y-110622466D01*
X193033453Y-110617943D01*
X193035954Y-110613576D01*
X193038642Y-110609369D01*
X193041512Y-110605328D01*
X193044559Y-110601459D01*
X193047779Y-110597768D01*
X193051166Y-110594258D01*
X193054715Y-110590936D01*
X193058422Y-110587807D01*
X193062282Y-110584877D01*
X193066290Y-110582150D01*
X193070441Y-110579632D01*
X193074730Y-110577329D01*
X193079152Y-110575245D01*
X193083702Y-110573386D01*
X193088376Y-110571758D01*
X193093169Y-110570366D01*
X193098075Y-110569215D01*
X193103090Y-110568310D01*
X193108209Y-110567657D01*
X193113428Y-110567262D01*
X193118740Y-110567129D01*
X193124763Y-110567262D01*
X193130683Y-110567657D01*
X193136495Y-110568310D01*
X193142193Y-110569215D01*
X193147771Y-110570366D01*
X193153223Y-110571758D01*
X193158543Y-110573386D01*
X193163726Y-110575245D01*
X193168765Y-110577329D01*
X193173656Y-110579632D01*
X193178392Y-110582150D01*
X193182967Y-110584877D01*
X193187375Y-110587807D01*
X193191611Y-110590936D01*
X193195670Y-110594258D01*
X193199544Y-110597768D01*
X193203228Y-110601459D01*
X193206717Y-110605328D01*
X193210004Y-110609369D01*
X193213085Y-110613576D01*
X193215952Y-110617943D01*
X193218600Y-110622466D01*
X193221024Y-110627140D01*
X193223217Y-110631958D01*
X193225174Y-110636916D01*
X193226889Y-110642008D01*
X193228356Y-110647229D01*
X193229570Y-110652573D01*
X193230524Y-110658036D01*
X193231212Y-110663611D01*
X193231630Y-110669294D01*
X193231770Y-110675079D01*
X193231770Y-110739849D01*
X193377820Y-110738579D01*
X193377820Y-110663649D01*
X193377990Y-110656566D01*
X193378495Y-110649608D01*
X193379329Y-110642783D01*
X193380484Y-110636096D01*
X193381953Y-110629554D01*
X193383730Y-110623164D01*
X193385808Y-110616932D01*
X193388178Y-110610864D01*
X193390836Y-110604968D01*
X193393773Y-110599250D01*
X193396982Y-110593715D01*
X193400457Y-110588372D01*
X193404190Y-110583225D01*
X193408175Y-110578282D01*
X193412405Y-110573550D01*
X193416872Y-110569034D01*
X193421571Y-110564741D01*
X193426492Y-110560678D01*
X193431631Y-110556852D01*
X193436979Y-110553268D01*
X193442530Y-110549933D01*
X193448277Y-110546855D01*
X193454213Y-110544038D01*
X193460330Y-110541491D01*
X193466623Y-110539218D01*
X193473083Y-110537228D01*
X193479704Y-110535526D01*
X193486479Y-110534119D01*
X193493402Y-110533013D01*
X193500464Y-110532215D01*
X193507659Y-110531731D01*
X193514980Y-110531569D01*
X193522420Y-110531731D01*
X193529734Y-110532215D01*
X193536915Y-110533013D01*
X193543954Y-110534119D01*
X193550846Y-110535526D01*
X193557583Y-110537228D01*
X193564157Y-110539218D01*
X193570562Y-110541491D01*
X193576790Y-110544038D01*
X193582835Y-110546855D01*
X193588688Y-110549933D01*
X193594343Y-110553268D01*
X193599792Y-110556852D01*
X193605028Y-110560678D01*
X193610045Y-110564741D01*
X193614834Y-110569034D01*
X193619389Y-110573550D01*
X193623702Y-110578282D01*
X193627766Y-110583225D01*
X193631574Y-110588372D01*
X193635120Y-110593715D01*
X193638394Y-110599250D01*
X193641391Y-110604968D01*
X193644103Y-110610864D01*
X193646523Y-110616932D01*
X193648644Y-110623164D01*
X193650458Y-110629554D01*
X193651959Y-110636096D01*
X193653139Y-110642783D01*
X193653990Y-110649608D01*
X193654506Y-110656566D01*
X193654680Y-110663649D01*
X193654543Y-110670508D01*
X193654138Y-110677271D01*
X193653469Y-110683928D01*
X193652544Y-110690473D01*
X193651369Y-110696896D01*
X193649950Y-110703191D01*
X193646405Y-110715362D01*
X193641960Y-110726922D01*
X193636664Y-110737810D01*
X193633713Y-110742981D01*
X193630569Y-110747961D01*
X193627237Y-110752740D01*
X193623724Y-110757311D01*
X193620036Y-110761667D01*
X193616179Y-110765799D01*
X193612160Y-110769699D01*
X193607985Y-110773360D01*
X193603660Y-110776773D01*
X193599192Y-110779931D01*
X193594587Y-110782826D01*
X193589850Y-110785450D01*
X193584989Y-110787794D01*
X193580010Y-110789852D01*
X193574919Y-110791615D01*
X193569721Y-110793075D01*
X193564425Y-110794224D01*
X193559035Y-110795055D01*
X193553558Y-110795559D01*
X193548000Y-110795729D01*
X193550540Y-110977339D01*
X193564854Y-110976936D01*
X193578973Y-110975741D01*
X193592880Y-110973773D01*
X193606556Y-110971048D01*
X193619987Y-110967587D01*
X193633154Y-110963409D01*
X193646040Y-110958530D01*
X193658629Y-110952971D01*
X193670903Y-110946749D01*
X193682847Y-110939884D01*
X193694441Y-110932393D01*
X193705671Y-110924296D01*
X193716518Y-110915612D01*
X193726966Y-110906358D01*
X193736998Y-110896553D01*
X193746596Y-110886216D01*
X193755744Y-110875366D01*
X193764425Y-110864021D01*
X193772622Y-110852200D01*
X193780318Y-110839921D01*
X193787496Y-110827203D01*
X193794138Y-110814064D01*
X193800229Y-110800524D01*
X193805750Y-110786601D01*
X193810686Y-110772313D01*
X193815018Y-110757678D01*
X193818731Y-110742717D01*
X193821806Y-110727446D01*
X193824228Y-110711886D01*
X193825979Y-110696054D01*
X193827042Y-110679968D01*
X193827400Y-110663649D01*
X193827001Y-110647217D01*
X193825817Y-110631035D01*
X193823866Y-110615118D01*
X193821167Y-110599487D01*
X193817737Y-110584157D01*
X193813595Y-110569148D01*
X193808760Y-110554476D01*
X193803250Y-110540161D01*
X193797083Y-110526220D01*
X193790278Y-110512670D01*
X193782853Y-110499531D01*
X193774826Y-110486819D01*
X193766216Y-110474552D01*
X193757042Y-110462749D01*
X193747321Y-110451427D01*
X193737071Y-110440605D01*
X193726312Y-110430300D01*
X193715062Y-110420530D01*
X193703338Y-110411313D01*
X193691160Y-110402666D01*
X193678546Y-110394609D01*
X193665514Y-110387158D01*
X193652082Y-110380332D01*
X193638269Y-110374148D01*
X193624094Y-110368625D01*
X193609574Y-110363780D01*
X193594728Y-110359632D01*
X193579574Y-110356197D01*
X193564131Y-110353495D01*
X193548417Y-110351542D01*
X193532451Y-110350358D01*
X193516250Y-110349959D01*
X193496490Y-110350651D01*
X193477230Y-110352700D01*
X193458494Y-110356062D01*
X193440308Y-110360694D01*
X193422694Y-110366555D01*
X193405678Y-110373600D01*
X193389283Y-110381788D01*
X193373534Y-110391075D01*
X193358454Y-110401419D01*
X193344068Y-110412777D01*
X193330401Y-110425106D01*
X193317475Y-110438363D01*
X193305316Y-110452505D01*
X193293948Y-110467491D01*
X193283394Y-110483276D01*
X193273680Y-110499819D01*
X193266047Y-110488660D01*
X193257922Y-110478060D01*
X193249316Y-110468040D01*
X193240243Y-110458623D01*
X193230717Y-110449831D01*
X193220749Y-110441686D01*
X193210354Y-110434212D01*
X193205000Y-110430732D01*
X193199544Y-110427429D01*
X193193987Y-110424304D01*
X193188332Y-110421360D01*
X193182579Y-110418601D01*
X193176731Y-110416028D01*
X193170789Y-110413646D01*
X193164754Y-110411456D01*
X193158629Y-110409461D01*
X193152415Y-110407664D01*
X193146113Y-110406069D01*
X193139726Y-110404677D01*
X193133254Y-110403491D01*
X193126700Y-110402515D01*
X193120065Y-110401751D01*
X193113350Y-110401201D01*
X193106558Y-110400870D01*
X193099690Y-110400759D01*
X193086681Y-110401110D01*
X193073858Y-110402151D01*
X193061237Y-110403868D01*
X193048830Y-110406243D01*
X193036655Y-110409261D01*
X193024725Y-110412906D01*
X193013056Y-110417161D01*
X193001662Y-110422011D01*
X192990558Y-110427440D01*
X192979759Y-110433431D01*
X192969281Y-110439969D01*
X192959137Y-110447037D01*
X192949343Y-110454619D01*
X192939913Y-110462700D01*
X192930863Y-110471263D01*
X192922207Y-110480292D01*
X192913961Y-110489772D01*
X192906139Y-110499686D01*
X192898756Y-110510018D01*
X192891827Y-110520751D01*
X192885366Y-110531871D01*
X192879390Y-110543361D01*
X192873912Y-110555205D01*
X192868947Y-110567387D01*
X192864511Y-110579890D01*
X192862200Y-110587493D01*
X192860617Y-110592700D01*
X192857282Y-110605799D01*
X192854520Y-110619171D01*
X192852346Y-110632802D01*
X192850775Y-110646674D01*
X192849821Y-110660772D01*
X192849500Y-110675079D01*
X192624075Y-110675079D01*
X192624075Y-109301201D01*
X192862200Y-109301201D01*
X192862200Y-109515831D01*
X193592450Y-109790151D01*
X192862200Y-110065741D01*
X192862200Y-110280371D01*
X193814700Y-109898101D01*
X193814700Y-109683471D01*
X193224150Y-109446463D01*
X192862200Y-109301201D01*
X192624075Y-109301201D01*
X192624075Y-109056837D01*
X192862200Y-109056837D01*
X193020950Y-109266387D01*
X193224150Y-109266387D01*
X193071750Y-109068267D01*
X193814700Y-109068267D01*
X193814700Y-108882847D01*
X192862200Y-108882847D01*
X192862200Y-109056837D01*
X192624075Y-109056837D01*
X192624075Y-108585000D01*
G37*
X192624075Y-108585000D02*
X194132200Y-108585000D01*
X194132200Y-112236250D01*
X192624075Y-112236250D01*
X192624075Y-111711919D01*
X192849500Y-111711919D01*
X192849821Y-111726341D01*
X192850775Y-111740547D01*
X192852346Y-111754520D01*
X192854520Y-111768245D01*
X192857282Y-111781706D01*
X192860617Y-111794887D01*
X192864511Y-111807772D01*
X192868947Y-111820345D01*
X192873912Y-111832591D01*
X192879390Y-111844493D01*
X192885366Y-111856037D01*
X192891827Y-111867206D01*
X192898756Y-111877984D01*
X192906139Y-111888356D01*
X192913961Y-111898305D01*
X192922207Y-111907816D01*
X192930863Y-111916873D01*
X192939913Y-111925461D01*
X192949343Y-111933563D01*
X192959137Y-111941164D01*
X192969281Y-111948247D01*
X192979759Y-111954797D01*
X192990558Y-111960799D01*
X193001662Y-111966236D01*
X193013056Y-111971093D01*
X193024725Y-111975353D01*
X193036655Y-111979001D01*
X193048830Y-111982022D01*
X193061237Y-111984399D01*
X193073858Y-111986116D01*
X193086681Y-111987158D01*
X193099690Y-111987509D01*
X193103500Y-111809709D01*
X193099125Y-111809583D01*
X193094815Y-111809210D01*
X193090574Y-111808596D01*
X193086407Y-111807747D01*
X193082319Y-111806667D01*
X193078315Y-111805364D01*
X193074400Y-111803842D01*
X193070579Y-111802108D01*
X193066857Y-111800168D01*
X193063237Y-111798027D01*
X193059726Y-111795691D01*
X193056329Y-111793166D01*
X193053049Y-111790458D01*
X193049893Y-111787573D01*
X193046864Y-111784515D01*
X193043969Y-111781292D01*
X193041211Y-111777909D01*
X193038595Y-111774372D01*
X193036127Y-111770687D01*
X193033811Y-111766859D01*
X193031653Y-111762894D01*
X193029656Y-111758798D01*
X193027827Y-111754577D01*
X193026169Y-111750237D01*
X193024688Y-111745783D01*
X193023389Y-111741222D01*
X193022276Y-111736559D01*
X193021354Y-111731800D01*
X193020629Y-111726950D01*
X193020105Y-111722016D01*
X193019787Y-111717004D01*
X193019680Y-111711919D01*
X193019802Y-111706134D01*
X193020165Y-111700451D01*
X193020763Y-111694876D01*
X193021592Y-111689413D01*
X193022648Y-111684069D01*
X193023924Y-111678848D01*
X193025417Y-111673756D01*
X193027121Y-111668798D01*
X193029032Y-111663980D01*
X193031144Y-111659306D01*
X193033453Y-111654783D01*
X193035954Y-111650415D01*
X193038642Y-111646209D01*
X193041512Y-111642168D01*
X193044559Y-111638299D01*
X193047779Y-111634607D01*
X193051166Y-111631098D01*
X193054715Y-111627776D01*
X193058422Y-111624647D01*
X193062282Y-111621716D01*
X193066290Y-111618989D01*
X193070441Y-111616472D01*
X193074730Y-111614168D01*
X193079152Y-111612085D01*
X193083702Y-111610226D01*
X193088376Y-111608598D01*
X193093169Y-111607206D01*
X193098075Y-111606055D01*
X193103090Y-111605150D01*
X193108209Y-111604497D01*
X193113428Y-111604102D01*
X193118740Y-111603969D01*
X193124763Y-111604102D01*
X193130683Y-111604497D01*
X193136495Y-111605150D01*
X193142193Y-111606055D01*
X193147771Y-111607206D01*
X193153223Y-111608598D01*
X193158543Y-111610226D01*
X193163726Y-111612085D01*
X193168765Y-111614168D01*
X193173656Y-111616472D01*
X193178392Y-111618989D01*
X193182967Y-111621716D01*
X193187375Y-111624647D01*
X193191611Y-111627776D01*
X193195670Y-111631098D01*
X193199544Y-111634607D01*
X193203228Y-111638299D01*
X193206717Y-111642168D01*
X193210004Y-111646209D01*
X193213085Y-111650415D01*
X193215952Y-111654783D01*
X193218600Y-111659306D01*
X193221024Y-111663980D01*
X193223217Y-111668798D01*
X193225174Y-111673756D01*
X193226889Y-111678848D01*
X193228356Y-111684069D01*
X193229570Y-111689413D01*
X193230524Y-111694876D01*
X193231212Y-111700451D01*
X193231630Y-111706134D01*
X193231770Y-111711919D01*
X193231770Y-111776689D01*
X193377820Y-111775419D01*
X193377820Y-111700489D01*
X193377990Y-111693405D01*
X193378495Y-111686448D01*
X193379329Y-111679622D01*
X193380484Y-111672936D01*
X193381953Y-111666394D01*
X193383730Y-111660004D01*
X193385808Y-111653772D01*
X193388178Y-111647704D01*
X193390836Y-111641808D01*
X193393773Y-111636089D01*
X193396982Y-111630555D01*
X193400457Y-111625211D01*
X193404190Y-111620065D01*
X193408175Y-111615122D01*
X193412405Y-111610389D01*
X193416872Y-111605874D01*
X193421571Y-111601581D01*
X193426492Y-111597518D01*
X193431631Y-111593692D01*
X193436979Y-111590108D01*
X193442530Y-111586773D01*
X193448277Y-111583695D01*
X193454213Y-111580878D01*
X193460330Y-111578331D01*
X193466623Y-111576058D01*
X193473083Y-111574068D01*
X193479704Y-111572366D01*
X193486479Y-111570959D01*
X193493402Y-111569853D01*
X193500464Y-111569055D01*
X193507659Y-111568571D01*
X193514980Y-111568409D01*
X193522420Y-111568571D01*
X193529734Y-111569055D01*
X193536915Y-111569853D01*
X193543954Y-111570959D01*
X193550846Y-111572366D01*
X193557583Y-111574068D01*
X193564157Y-111576058D01*
X193570562Y-111578331D01*
X193576790Y-111580878D01*
X193582835Y-111583695D01*
X193588688Y-111586773D01*
X193594343Y-111590108D01*
X193599792Y-111593692D01*
X193605028Y-111597518D01*
X193610045Y-111601581D01*
X193614834Y-111605874D01*
X193619389Y-111610389D01*
X193623702Y-111615122D01*
X193627766Y-111620065D01*
X193631574Y-111625211D01*
X193635120Y-111630555D01*
X193638394Y-111636089D01*
X193641391Y-111641808D01*
X193644103Y-111647704D01*
X193646523Y-111653772D01*
X193648644Y-111660004D01*
X193650458Y-111666394D01*
X193651959Y-111672936D01*
X193653139Y-111679622D01*
X193653990Y-111686448D01*
X193654506Y-111693405D01*
X193654680Y-111700489D01*
X193654543Y-111707348D01*
X193654138Y-111714111D01*
X193653469Y-111720768D01*
X193652544Y-111727312D01*
X193651369Y-111733736D01*
X193649950Y-111740030D01*
X193646405Y-111752201D01*
X193641960Y-111763762D01*
X193636664Y-111774650D01*
X193633713Y-111779821D01*
X193630569Y-111784800D01*
X193627237Y-111789580D01*
X193623724Y-111794151D01*
X193620036Y-111798507D01*
X193616179Y-111802639D01*
X193612160Y-111806539D01*
X193607985Y-111810200D01*
X193603660Y-111813613D01*
X193599192Y-111816771D01*
X193594587Y-111819666D01*
X193589850Y-111822290D01*
X193584989Y-111824634D01*
X193580010Y-111826692D01*
X193574919Y-111828455D01*
X193569721Y-111829915D01*
X193564425Y-111831064D01*
X193559035Y-111831895D01*
X193553558Y-111832399D01*
X193548000Y-111832569D01*
X193550540Y-112014179D01*
X193564854Y-112013776D01*
X193578973Y-112012581D01*
X193592880Y-112010612D01*
X193606556Y-112007888D01*
X193619987Y-112004427D01*
X193633154Y-112000248D01*
X193646040Y-111995370D01*
X193658629Y-111989810D01*
X193670903Y-111983589D01*
X193682847Y-111976724D01*
X193694441Y-111969233D01*
X193705671Y-111961136D01*
X193716518Y-111952452D01*
X193726966Y-111943198D01*
X193736998Y-111933393D01*
X193746596Y-111923056D01*
X193755744Y-111912206D01*
X193764425Y-111900861D01*
X193772622Y-111889040D01*
X193780318Y-111876761D01*
X193787496Y-111864043D01*
X193794138Y-111850904D01*
X193800229Y-111837364D01*
X193805750Y-111823440D01*
X193810686Y-111809152D01*
X193815018Y-111794518D01*
X193818731Y-111779557D01*
X193821806Y-111764286D01*
X193824228Y-111748726D01*
X193825979Y-111732893D01*
X193827042Y-111716808D01*
X193827400Y-111700489D01*
X193827001Y-111684057D01*
X193825817Y-111667874D01*
X193823866Y-111651958D01*
X193821167Y-111636326D01*
X193817737Y-111620997D01*
X193813595Y-111605987D01*
X193808760Y-111591316D01*
X193803250Y-111577000D01*
X193797083Y-111563059D01*
X193790278Y-111549509D01*
X193782853Y-111536369D01*
X193774826Y-111523657D01*
X193766216Y-111511391D01*
X193757042Y-111499587D01*
X193747321Y-111488265D01*
X193737071Y-111477443D01*
X193726312Y-111467137D01*
X193723260Y-111464487D01*
X193715062Y-111457367D01*
X193703338Y-111448150D01*
X193691160Y-111439503D01*
X193678546Y-111431446D01*
X193665514Y-111423995D01*
X193652082Y-111417169D01*
X193638269Y-111410985D01*
X193624094Y-111405461D01*
X193609574Y-111400616D01*
X193594728Y-111396468D01*
X193579574Y-111393033D01*
X193564131Y-111390331D01*
X193550540Y-111388642D01*
X193548417Y-111388378D01*
X193532451Y-111387193D01*
X193516250Y-111386795D01*
X193496490Y-111387487D01*
X193477230Y-111389536D01*
X193458494Y-111392898D01*
X193440308Y-111397531D01*
X193422694Y-111403391D01*
X193405678Y-111410437D01*
X193389283Y-111418625D01*
X193373534Y-111427913D01*
X193358454Y-111438257D01*
X193344068Y-111449615D01*
X193330401Y-111461944D01*
X193317475Y-111475202D01*
X193305316Y-111489345D01*
X193293948Y-111504330D01*
X193283394Y-111520116D01*
X193273680Y-111536659D01*
X193266047Y-111525500D01*
X193257922Y-111514900D01*
X193249316Y-111504880D01*
X193240243Y-111495462D01*
X193230717Y-111486670D01*
X193220749Y-111478525D01*
X193210354Y-111471050D01*
X193205000Y-111467570D01*
X193199544Y-111464267D01*
X193193987Y-111461142D01*
X193188332Y-111458198D01*
X193182579Y-111455438D01*
X193176731Y-111452866D01*
X193170789Y-111450483D01*
X193164754Y-111448293D01*
X193158629Y-111446298D01*
X193152415Y-111444501D01*
X193146113Y-111442905D01*
X193139726Y-111441513D01*
X193133254Y-111440327D01*
X193126700Y-111439351D01*
X193120065Y-111438587D01*
X193113350Y-111438037D01*
X193106558Y-111437706D01*
X193099690Y-111437595D01*
X193086681Y-111437945D01*
X193073858Y-111438987D01*
X193061237Y-111440704D01*
X193048830Y-111443079D01*
X193036655Y-111446097D01*
X193024725Y-111449742D01*
X193013056Y-111453998D01*
X193001662Y-111458848D01*
X192990558Y-111464277D01*
X192979759Y-111470268D01*
X192969281Y-111476806D01*
X192959137Y-111483874D01*
X192949343Y-111491457D01*
X192939913Y-111499538D01*
X192930863Y-111508101D01*
X192922207Y-111517130D01*
X192913961Y-111526610D01*
X192906139Y-111536524D01*
X192898756Y-111546856D01*
X192891827Y-111557590D01*
X192885366Y-111568710D01*
X192879390Y-111580200D01*
X192873912Y-111592044D01*
X192868947Y-111604226D01*
X192864511Y-111616730D01*
X192860617Y-111629539D01*
X192857282Y-111642638D01*
X192854520Y-111656011D01*
X192852346Y-111669642D01*
X192850775Y-111683514D01*
X192849821Y-111697611D01*
X192849500Y-111711919D01*
X192624075Y-111711919D01*
X192624075Y-111176237D01*
X193617850Y-111176237D01*
X193617990Y-111181452D01*
X193618406Y-111186615D01*
X193619090Y-111191718D01*
X193620035Y-111196755D01*
X193621234Y-111201717D01*
X193622680Y-111206598D01*
X193624366Y-111211389D01*
X193626284Y-111216083D01*
X193628426Y-111220673D01*
X193630787Y-111225151D01*
X193633359Y-111229511D01*
X193636133Y-111233744D01*
X193639105Y-111237843D01*
X193642265Y-111241800D01*
X193645607Y-111245609D01*
X193649124Y-111249262D01*
X193652808Y-111252750D01*
X193656652Y-111256068D01*
X193660650Y-111259207D01*
X193664793Y-111262160D01*
X193669075Y-111264920D01*
X193673488Y-111267478D01*
X193678025Y-111269828D01*
X193682679Y-111271963D01*
X193687444Y-111273874D01*
X193692310Y-111275555D01*
X193697272Y-111276997D01*
X193702322Y-111278194D01*
X193707453Y-111279138D01*
X193712658Y-111279821D01*
X193717929Y-111280237D01*
X193723260Y-111280377D01*
X193728475Y-111280237D01*
X193733638Y-111279821D01*
X193738742Y-111279138D01*
X193743778Y-111278194D01*
X193748741Y-111276997D01*
X193753621Y-111275555D01*
X193758412Y-111273874D01*
X193763106Y-111271963D01*
X193767696Y-111269828D01*
X193772175Y-111267478D01*
X193776534Y-111264920D01*
X193780767Y-111262160D01*
X193784866Y-111259207D01*
X193788824Y-111256068D01*
X193792632Y-111252750D01*
X193796285Y-111249262D01*
X193799774Y-111245609D01*
X193803091Y-111241800D01*
X193806230Y-111237843D01*
X193809183Y-111233744D01*
X193811943Y-111229511D01*
X193814501Y-111225151D01*
X193816852Y-111220673D01*
X193818986Y-111216083D01*
X193820897Y-111211389D01*
X193822578Y-111206598D01*
X193824020Y-111201717D01*
X193825217Y-111196755D01*
X193826161Y-111191718D01*
X193826844Y-111186615D01*
X193827260Y-111181452D01*
X193827400Y-111176237D01*
X193827260Y-111170906D01*
X193826844Y-111165635D01*
X193826161Y-111160430D01*
X193825217Y-111155299D01*
X193824020Y-111150249D01*
X193822578Y-111145287D01*
X193820897Y-111140420D01*
X193818986Y-111135656D01*
X193816852Y-111131002D01*
X193814501Y-111126464D01*
X193811943Y-111122051D01*
X193809183Y-111117769D01*
X193806230Y-111113626D01*
X193803091Y-111109629D01*
X193799774Y-111105785D01*
X193796285Y-111102100D01*
X193792632Y-111098584D01*
X193788824Y-111095242D01*
X193784866Y-111092081D01*
X193780767Y-111089110D01*
X193776534Y-111086335D01*
X193772175Y-111083764D01*
X193767696Y-111081403D01*
X193763106Y-111079260D01*
X193758412Y-111077342D01*
X193753621Y-111075657D01*
X193748741Y-111074211D01*
X193743778Y-111073012D01*
X193738742Y-111072067D01*
X193733638Y-111071383D01*
X193728475Y-111070967D01*
X193723260Y-111070827D01*
X193717929Y-111070967D01*
X193712658Y-111071383D01*
X193707453Y-111072067D01*
X193702322Y-111073012D01*
X193697272Y-111074211D01*
X193692310Y-111075657D01*
X193687444Y-111077342D01*
X193682679Y-111079260D01*
X193678025Y-111081403D01*
X193673488Y-111083764D01*
X193669075Y-111086335D01*
X193664793Y-111089110D01*
X193660650Y-111092081D01*
X193656652Y-111095242D01*
X193652808Y-111098584D01*
X193649124Y-111102100D01*
X193645607Y-111105785D01*
X193642265Y-111109629D01*
X193639105Y-111113626D01*
X193636133Y-111117769D01*
X193633359Y-111122051D01*
X193630787Y-111126464D01*
X193628426Y-111131002D01*
X193626284Y-111135656D01*
X193624366Y-111140420D01*
X193622680Y-111145287D01*
X193621234Y-111150249D01*
X193620035Y-111155299D01*
X193619090Y-111160430D01*
X193618406Y-111165635D01*
X193617990Y-111170906D01*
X193617850Y-111176237D01*
X192624075Y-111176237D01*
X192624075Y-110675079D01*
X192849500Y-110675079D01*
X192849821Y-110689501D01*
X192850775Y-110703707D01*
X192852346Y-110717680D01*
X192854520Y-110731405D01*
X192857282Y-110744866D01*
X192860617Y-110758047D01*
X192864511Y-110770932D01*
X192868947Y-110783505D01*
X192873912Y-110795751D01*
X192879390Y-110807654D01*
X192885366Y-110819197D01*
X192891827Y-110830366D01*
X192898756Y-110841144D01*
X192906139Y-110851516D01*
X192913961Y-110861465D01*
X192922207Y-110870976D01*
X192930863Y-110880034D01*
X192939913Y-110888621D01*
X192949343Y-110896723D01*
X192959137Y-110904324D01*
X192969281Y-110911407D01*
X192979759Y-110917958D01*
X192990558Y-110923959D01*
X193001662Y-110929396D01*
X193013056Y-110934253D01*
X193024725Y-110938513D01*
X193036655Y-110942161D01*
X193048830Y-110945182D01*
X193061237Y-110947559D01*
X193073858Y-110949276D01*
X193086681Y-110950318D01*
X193099690Y-110950669D01*
X193103500Y-110772869D01*
X193099125Y-110772743D01*
X193094815Y-110772371D01*
X193090574Y-110771756D01*
X193086407Y-110770907D01*
X193082319Y-110769827D01*
X193078315Y-110768524D01*
X193074400Y-110767002D01*
X193070579Y-110765269D01*
X193066857Y-110763328D01*
X193063237Y-110761187D01*
X193059726Y-110758851D01*
X193056329Y-110756327D01*
X193053049Y-110753618D01*
X193049893Y-110750733D01*
X193046864Y-110747676D01*
X193043969Y-110744452D01*
X193041211Y-110741069D01*
X193038595Y-110737532D01*
X193036127Y-110733847D01*
X193033811Y-110730019D01*
X193031653Y-110726054D01*
X193029656Y-110721958D01*
X193027827Y-110717737D01*
X193026169Y-110713397D01*
X193024688Y-110708943D01*
X193023389Y-110704382D01*
X193022276Y-110699719D01*
X193021354Y-110694960D01*
X193020629Y-110690110D01*
X193020105Y-110685176D01*
X193019787Y-110680164D01*
X193019680Y-110675079D01*
X193019802Y-110669294D01*
X193020165Y-110663611D01*
X193020763Y-110658036D01*
X193021592Y-110652573D01*
X193022648Y-110647229D01*
X193023924Y-110642008D01*
X193025417Y-110636916D01*
X193027121Y-110631958D01*
X193029032Y-110627140D01*
X193031144Y-110622466D01*
X193033453Y-110617943D01*
X193035954Y-110613576D01*
X193038642Y-110609369D01*
X193041512Y-110605328D01*
X193044559Y-110601459D01*
X193047779Y-110597768D01*
X193051166Y-110594258D01*
X193054715Y-110590936D01*
X193058422Y-110587807D01*
X193062282Y-110584877D01*
X193066290Y-110582150D01*
X193070441Y-110579632D01*
X193074730Y-110577329D01*
X193079152Y-110575245D01*
X193083702Y-110573386D01*
X193088376Y-110571758D01*
X193093169Y-110570366D01*
X193098075Y-110569215D01*
X193103090Y-110568310D01*
X193108209Y-110567657D01*
X193113428Y-110567262D01*
X193118740Y-110567129D01*
X193124763Y-110567262D01*
X193130683Y-110567657D01*
X193136495Y-110568310D01*
X193142193Y-110569215D01*
X193147771Y-110570366D01*
X193153223Y-110571758D01*
X193158543Y-110573386D01*
X193163726Y-110575245D01*
X193168765Y-110577329D01*
X193173656Y-110579632D01*
X193178392Y-110582150D01*
X193182967Y-110584877D01*
X193187375Y-110587807D01*
X193191611Y-110590936D01*
X193195670Y-110594258D01*
X193199544Y-110597768D01*
X193203228Y-110601459D01*
X193206717Y-110605328D01*
X193210004Y-110609369D01*
X193213085Y-110613576D01*
X193215952Y-110617943D01*
X193218600Y-110622466D01*
X193221024Y-110627140D01*
X193223217Y-110631958D01*
X193225174Y-110636916D01*
X193226889Y-110642008D01*
X193228356Y-110647229D01*
X193229570Y-110652573D01*
X193230524Y-110658036D01*
X193231212Y-110663611D01*
X193231630Y-110669294D01*
X193231770Y-110675079D01*
X193231770Y-110739849D01*
X193377820Y-110738579D01*
X193377820Y-110663649D01*
X193377990Y-110656566D01*
X193378495Y-110649608D01*
X193379329Y-110642783D01*
X193380484Y-110636096D01*
X193381953Y-110629554D01*
X193383730Y-110623164D01*
X193385808Y-110616932D01*
X193388178Y-110610864D01*
X193390836Y-110604968D01*
X193393773Y-110599250D01*
X193396982Y-110593715D01*
X193400457Y-110588372D01*
X193404190Y-110583225D01*
X193408175Y-110578282D01*
X193412405Y-110573550D01*
X193416872Y-110569034D01*
X193421571Y-110564741D01*
X193426492Y-110560678D01*
X193431631Y-110556852D01*
X193436979Y-110553268D01*
X193442530Y-110549933D01*
X193448277Y-110546855D01*
X193454213Y-110544038D01*
X193460330Y-110541491D01*
X193466623Y-110539218D01*
X193473083Y-110537228D01*
X193479704Y-110535526D01*
X193486479Y-110534119D01*
X193493402Y-110533013D01*
X193500464Y-110532215D01*
X193507659Y-110531731D01*
X193514980Y-110531569D01*
X193522420Y-110531731D01*
X193529734Y-110532215D01*
X193536915Y-110533013D01*
X193543954Y-110534119D01*
X193550846Y-110535526D01*
X193557583Y-110537228D01*
X193564157Y-110539218D01*
X193570562Y-110541491D01*
X193576790Y-110544038D01*
X193582835Y-110546855D01*
X193588688Y-110549933D01*
X193594343Y-110553268D01*
X193599792Y-110556852D01*
X193605028Y-110560678D01*
X193610045Y-110564741D01*
X193614834Y-110569034D01*
X193619389Y-110573550D01*
X193623702Y-110578282D01*
X193627766Y-110583225D01*
X193631574Y-110588372D01*
X193635120Y-110593715D01*
X193638394Y-110599250D01*
X193641391Y-110604968D01*
X193644103Y-110610864D01*
X193646523Y-110616932D01*
X193648644Y-110623164D01*
X193650458Y-110629554D01*
X193651959Y-110636096D01*
X193653139Y-110642783D01*
X193653990Y-110649608D01*
X193654506Y-110656566D01*
X193654680Y-110663649D01*
X193654543Y-110670508D01*
X193654138Y-110677271D01*
X193653469Y-110683928D01*
X193652544Y-110690473D01*
X193651369Y-110696896D01*
X193649950Y-110703191D01*
X193646405Y-110715362D01*
X193641960Y-110726922D01*
X193636664Y-110737810D01*
X193633713Y-110742981D01*
X193630569Y-110747961D01*
X193627237Y-110752740D01*
X193623724Y-110757311D01*
X193620036Y-110761667D01*
X193616179Y-110765799D01*
X193612160Y-110769699D01*
X193607985Y-110773360D01*
X193603660Y-110776773D01*
X193599192Y-110779931D01*
X193594587Y-110782826D01*
X193589850Y-110785450D01*
X193584989Y-110787794D01*
X193580010Y-110789852D01*
X193574919Y-110791615D01*
X193569721Y-110793075D01*
X193564425Y-110794224D01*
X193559035Y-110795055D01*
X193553558Y-110795559D01*
X193548000Y-110795729D01*
X193550540Y-110977339D01*
X193564854Y-110976936D01*
X193578973Y-110975741D01*
X193592880Y-110973773D01*
X193606556Y-110971048D01*
X193619987Y-110967587D01*
X193633154Y-110963409D01*
X193646040Y-110958530D01*
X193658629Y-110952971D01*
X193670903Y-110946749D01*
X193682847Y-110939884D01*
X193694441Y-110932393D01*
X193705671Y-110924296D01*
X193716518Y-110915612D01*
X193726966Y-110906358D01*
X193736998Y-110896553D01*
X193746596Y-110886216D01*
X193755744Y-110875366D01*
X193764425Y-110864021D01*
X193772622Y-110852200D01*
X193780318Y-110839921D01*
X193787496Y-110827203D01*
X193794138Y-110814064D01*
X193800229Y-110800524D01*
X193805750Y-110786601D01*
X193810686Y-110772313D01*
X193815018Y-110757678D01*
X193818731Y-110742717D01*
X193821806Y-110727446D01*
X193824228Y-110711886D01*
X193825979Y-110696054D01*
X193827042Y-110679968D01*
X193827400Y-110663649D01*
X193827001Y-110647217D01*
X193825817Y-110631035D01*
X193823866Y-110615118D01*
X193821167Y-110599487D01*
X193817737Y-110584157D01*
X193813595Y-110569148D01*
X193808760Y-110554476D01*
X193803250Y-110540161D01*
X193797083Y-110526220D01*
X193790278Y-110512670D01*
X193782853Y-110499531D01*
X193774826Y-110486819D01*
X193766216Y-110474552D01*
X193757042Y-110462749D01*
X193747321Y-110451427D01*
X193737071Y-110440605D01*
X193726312Y-110430300D01*
X193715062Y-110420530D01*
X193703338Y-110411313D01*
X193691160Y-110402666D01*
X193678546Y-110394609D01*
X193665514Y-110387158D01*
X193652082Y-110380332D01*
X193638269Y-110374148D01*
X193624094Y-110368625D01*
X193609574Y-110363780D01*
X193594728Y-110359632D01*
X193579574Y-110356197D01*
X193564131Y-110353495D01*
X193548417Y-110351542D01*
X193532451Y-110350358D01*
X193516250Y-110349959D01*
X193496490Y-110350651D01*
X193477230Y-110352700D01*
X193458494Y-110356062D01*
X193440308Y-110360694D01*
X193422694Y-110366555D01*
X193405678Y-110373600D01*
X193389283Y-110381788D01*
X193373534Y-110391075D01*
X193358454Y-110401419D01*
X193344068Y-110412777D01*
X193330401Y-110425106D01*
X193317475Y-110438363D01*
X193305316Y-110452505D01*
X193293948Y-110467491D01*
X193283394Y-110483276D01*
X193273680Y-110499819D01*
X193266047Y-110488660D01*
X193257922Y-110478060D01*
X193249316Y-110468040D01*
X193240243Y-110458623D01*
X193230717Y-110449831D01*
X193220749Y-110441686D01*
X193210354Y-110434212D01*
X193205000Y-110430732D01*
X193199544Y-110427429D01*
X193193987Y-110424304D01*
X193188332Y-110421360D01*
X193182579Y-110418601D01*
X193176731Y-110416028D01*
X193170789Y-110413646D01*
X193164754Y-110411456D01*
X193158629Y-110409461D01*
X193152415Y-110407664D01*
X193146113Y-110406069D01*
X193139726Y-110404677D01*
X193133254Y-110403491D01*
X193126700Y-110402515D01*
X193120065Y-110401751D01*
X193113350Y-110401201D01*
X193106558Y-110400870D01*
X193099690Y-110400759D01*
X193086681Y-110401110D01*
X193073858Y-110402151D01*
X193061237Y-110403868D01*
X193048830Y-110406243D01*
X193036655Y-110409261D01*
X193024725Y-110412906D01*
X193013056Y-110417161D01*
X193001662Y-110422011D01*
X192990558Y-110427440D01*
X192979759Y-110433431D01*
X192969281Y-110439969D01*
X192959137Y-110447037D01*
X192949343Y-110454619D01*
X192939913Y-110462700D01*
X192930863Y-110471263D01*
X192922207Y-110480292D01*
X192913961Y-110489772D01*
X192906139Y-110499686D01*
X192898756Y-110510018D01*
X192891827Y-110520751D01*
X192885366Y-110531871D01*
X192879390Y-110543361D01*
X192873912Y-110555205D01*
X192868947Y-110567387D01*
X192864511Y-110579890D01*
X192862200Y-110587493D01*
X192860617Y-110592700D01*
X192857282Y-110605799D01*
X192854520Y-110619171D01*
X192852346Y-110632802D01*
X192850775Y-110646674D01*
X192849821Y-110660772D01*
X192849500Y-110675079D01*
X192624075Y-110675079D01*
X192624075Y-109301201D01*
X192862200Y-109301201D01*
X192862200Y-109515831D01*
X193592450Y-109790151D01*
X192862200Y-110065741D01*
X192862200Y-110280371D01*
X193814700Y-109898101D01*
X193814700Y-109683471D01*
X193224150Y-109446463D01*
X192862200Y-109301201D01*
X192624075Y-109301201D01*
X192624075Y-109056837D01*
X192862200Y-109056837D01*
X193020950Y-109266387D01*
X193224150Y-109266387D01*
X193071750Y-109068267D01*
X193814700Y-109068267D01*
X193814700Y-108882847D01*
X192862200Y-108882847D01*
X192862200Y-109056837D01*
X192624075Y-109056837D01*
X192624075Y-108585000D01*
G36*
X193370113Y-74156056D02*
G01*
X193385556Y-74157529D01*
X193400717Y-74159584D01*
X193415580Y-74162216D01*
X193430127Y-74165419D01*
X193444342Y-74169190D01*
X193458207Y-74173524D01*
X193471706Y-74178416D01*
X193484821Y-74183862D01*
X193497536Y-74189856D01*
X193509833Y-74196394D01*
X193521696Y-74203472D01*
X193533108Y-74211085D01*
X193544051Y-74219228D01*
X193554509Y-74227896D01*
X193564464Y-74237086D01*
X193573901Y-74246791D01*
X193582801Y-74257009D01*
X193591148Y-74267733D01*
X193598924Y-74278959D01*
X193606114Y-74290684D01*
X193612699Y-74302901D01*
X193618664Y-74315606D01*
X193623990Y-74328795D01*
X193628661Y-74342464D01*
X193632660Y-74356606D01*
X193635970Y-74371219D01*
X193638574Y-74386296D01*
X193640455Y-74401834D01*
X193641596Y-74417828D01*
X193641980Y-74434273D01*
X193641596Y-74450725D01*
X193640455Y-74466740D01*
X193638574Y-74482312D01*
X193635970Y-74497436D01*
X193632660Y-74512105D01*
X193628661Y-74526316D01*
X193623990Y-74540061D01*
X193618664Y-74553336D01*
X193612699Y-74566134D01*
X193606114Y-74578450D01*
X193598924Y-74590279D01*
X193591148Y-74601615D01*
X193582801Y-74612453D01*
X193573901Y-74622786D01*
X193564464Y-74632610D01*
X193554509Y-74641918D01*
X193544051Y-74650705D01*
X193533108Y-74658966D01*
X193521696Y-74666695D01*
X193509833Y-74673886D01*
X193497536Y-74680534D01*
X193484821Y-74686633D01*
X193471706Y-74692178D01*
X193458207Y-74697163D01*
X193444342Y-74701582D01*
X193430127Y-74705430D01*
X193415580Y-74708702D01*
X193400717Y-74711391D01*
X193385556Y-74713492D01*
X193370113Y-74715000D01*
X193354405Y-74715909D01*
X193338450Y-74716213D01*
X193322379Y-74715909D01*
X193306564Y-74715000D01*
X193291019Y-74713492D01*
X193275764Y-74711391D01*
X193260813Y-74708702D01*
X193246184Y-74705430D01*
X193231894Y-74701582D01*
X193217959Y-74697163D01*
X193204396Y-74692178D01*
X193191222Y-74686633D01*
X193178453Y-74680534D01*
X193166107Y-74673886D01*
X193154200Y-74666695D01*
X193142748Y-74658966D01*
X193131770Y-74650705D01*
X193121280Y-74641918D01*
X193111296Y-74632610D01*
X193101836Y-74622786D01*
X193092914Y-74612453D01*
X193084549Y-74601615D01*
X193076757Y-74590279D01*
X193069555Y-74578450D01*
X193062959Y-74566134D01*
X193056986Y-74553336D01*
X193051654Y-74540061D01*
X193046978Y-74526316D01*
X193042975Y-74512105D01*
X193039663Y-74497436D01*
X193037057Y-74482312D01*
X193035175Y-74466740D01*
X193034034Y-74450725D01*
X193033650Y-74434273D01*
X193034034Y-74417828D01*
X193035175Y-74401834D01*
X193037057Y-74386296D01*
X193039663Y-74371219D01*
X193042975Y-74356606D01*
X193046978Y-74342464D01*
X193051654Y-74328795D01*
X193056986Y-74315606D01*
X193062959Y-74302901D01*
X193069555Y-74290684D01*
X193076757Y-74278959D01*
X193084549Y-74267733D01*
X193092914Y-74257009D01*
X193101836Y-74246791D01*
X193111296Y-74237086D01*
X193121280Y-74227896D01*
X193131770Y-74219228D01*
X193142748Y-74211085D01*
X193154200Y-74203472D01*
X193166107Y-74196394D01*
X193178453Y-74189856D01*
X193191222Y-74183862D01*
X193204396Y-74178416D01*
X193217959Y-74173524D01*
X193231894Y-74169190D01*
X193246184Y-74165419D01*
X193260813Y-74162216D01*
X193275764Y-74159584D01*
X193291019Y-74157529D01*
X193306564Y-74156056D01*
X193322379Y-74155168D01*
X193338450Y-74154871D01*
X193370113Y-74156056D01*
G37*
X193370113Y-74156056D02*
X193385556Y-74157529D01*
X193400717Y-74159584D01*
X193415580Y-74162216D01*
X193430127Y-74165419D01*
X193444342Y-74169190D01*
X193458207Y-74173524D01*
X193471706Y-74178416D01*
X193484821Y-74183862D01*
X193497536Y-74189856D01*
X193509833Y-74196394D01*
X193521696Y-74203472D01*
X193533108Y-74211085D01*
X193544051Y-74219228D01*
X193554509Y-74227896D01*
X193564464Y-74237086D01*
X193573901Y-74246791D01*
X193582801Y-74257009D01*
X193591148Y-74267733D01*
X193598924Y-74278959D01*
X193606114Y-74290684D01*
X193612699Y-74302901D01*
X193618664Y-74315606D01*
X193623990Y-74328795D01*
X193628661Y-74342464D01*
X193632660Y-74356606D01*
X193635970Y-74371219D01*
X193638574Y-74386296D01*
X193640455Y-74401834D01*
X193641596Y-74417828D01*
X193641980Y-74434273D01*
X193641596Y-74450725D01*
X193640455Y-74466740D01*
X193638574Y-74482312D01*
X193635970Y-74497436D01*
X193632660Y-74512105D01*
X193628661Y-74526316D01*
X193623990Y-74540061D01*
X193618664Y-74553336D01*
X193612699Y-74566134D01*
X193606114Y-74578450D01*
X193598924Y-74590279D01*
X193591148Y-74601615D01*
X193582801Y-74612453D01*
X193573901Y-74622786D01*
X193564464Y-74632610D01*
X193554509Y-74641918D01*
X193544051Y-74650705D01*
X193533108Y-74658966D01*
X193521696Y-74666695D01*
X193509833Y-74673886D01*
X193497536Y-74680534D01*
X193484821Y-74686633D01*
X193471706Y-74692178D01*
X193458207Y-74697163D01*
X193444342Y-74701582D01*
X193430127Y-74705430D01*
X193415580Y-74708702D01*
X193400717Y-74711391D01*
X193385556Y-74713492D01*
X193370113Y-74715000D01*
X193354405Y-74715909D01*
X193338450Y-74716213D01*
X193322379Y-74715909D01*
X193306564Y-74715000D01*
X193291019Y-74713492D01*
X193275764Y-74711391D01*
X193260813Y-74708702D01*
X193246184Y-74705430D01*
X193231894Y-74701582D01*
X193217959Y-74697163D01*
X193204396Y-74692178D01*
X193191222Y-74686633D01*
X193178453Y-74680534D01*
X193166107Y-74673886D01*
X193154200Y-74666695D01*
X193142748Y-74658966D01*
X193131770Y-74650705D01*
X193121280Y-74641918D01*
X193111296Y-74632610D01*
X193101836Y-74622786D01*
X193092914Y-74612453D01*
X193084549Y-74601615D01*
X193076757Y-74590279D01*
X193069555Y-74578450D01*
X193062959Y-74566134D01*
X193056986Y-74553336D01*
X193051654Y-74540061D01*
X193046978Y-74526316D01*
X193042975Y-74512105D01*
X193039663Y-74497436D01*
X193037057Y-74482312D01*
X193035175Y-74466740D01*
X193034034Y-74450725D01*
X193033650Y-74434273D01*
X193034034Y-74417828D01*
X193035175Y-74401834D01*
X193037057Y-74386296D01*
X193039663Y-74371219D01*
X193042975Y-74356606D01*
X193046978Y-74342464D01*
X193051654Y-74328795D01*
X193056986Y-74315606D01*
X193062959Y-74302901D01*
X193069555Y-74290684D01*
X193076757Y-74278959D01*
X193084549Y-74267733D01*
X193092914Y-74257009D01*
X193101836Y-74246791D01*
X193111296Y-74237086D01*
X193121280Y-74227896D01*
X193131770Y-74219228D01*
X193142748Y-74211085D01*
X193154200Y-74203472D01*
X193166107Y-74196394D01*
X193178453Y-74189856D01*
X193191222Y-74183862D01*
X193204396Y-74178416D01*
X193217959Y-74173524D01*
X193231894Y-74169190D01*
X193246184Y-74165419D01*
X193260813Y-74162216D01*
X193275764Y-74159584D01*
X193291019Y-74157529D01*
X193306564Y-74156056D01*
X193322379Y-74155168D01*
X193338450Y-74154871D01*
X193370113Y-74156056D01*
D12*
X156565695Y-53881400D02*
X156470457Y-53833780D01*
X156327600Y-53833780D01*
X156184742Y-53881400D01*
X156089504Y-53976638D01*
X156041885Y-54071876D01*
X155994266Y-54262352D01*
X155994266Y-54405209D01*
X156041885Y-54595685D01*
X156089504Y-54690923D01*
X156184742Y-54786161D01*
X156327600Y-54833780D01*
X156422838Y-54833780D01*
X156565695Y-54786161D01*
X156613314Y-54738542D01*
X156613314Y-54405209D01*
X156422838Y-54405209D01*
X157041885Y-54833780D02*
X157041885Y-53833780D01*
X157613314Y-54833780D01*
X157613314Y-53833780D01*
X158089504Y-54833780D02*
X158089504Y-53833780D01*
X158327600Y-53833780D01*
X158470457Y-53881400D01*
X158565695Y-53976638D01*
X158613314Y-54071876D01*
X158660933Y-54262352D01*
X158660933Y-54405209D01*
X158613314Y-54595685D01*
X158565695Y-54690923D01*
X158470457Y-54786161D01*
X158327600Y-54833780D01*
X158089504Y-54833780D01*
X151710676Y-104381219D02*
X151670200Y-104340742D01*
X151629723Y-104259790D01*
X151629723Y-104057409D01*
X151670200Y-103976457D01*
X151710676Y-103935980D01*
X151791628Y-103895504D01*
X151872580Y-103895504D01*
X151994009Y-103935980D01*
X152479723Y-104421695D01*
X152479723Y-103895504D01*
X151710676Y-103571695D02*
X151670200Y-103531219D01*
X151629723Y-103450266D01*
X151629723Y-103247885D01*
X151670200Y-103166933D01*
X151710676Y-103126457D01*
X151791628Y-103085980D01*
X151872580Y-103085980D01*
X151994009Y-103126457D01*
X152479723Y-103612171D01*
X152479723Y-103085980D01*
X159396133Y-63698380D02*
X158919942Y-63698380D01*
X158919942Y-62698380D01*
X159681847Y-62793619D02*
X159729466Y-62746000D01*
X159824704Y-62698380D01*
X160062800Y-62698380D01*
X160158038Y-62746000D01*
X160205657Y-62793619D01*
X160253276Y-62888857D01*
X160253276Y-62984095D01*
X160205657Y-63126952D01*
X159634228Y-63698380D01*
X160253276Y-63698380D01*
X193334885Y-104462580D02*
X193334885Y-104179247D01*
X193780123Y-104057819D02*
X193780123Y-104462580D01*
X192930123Y-104462580D01*
X192930123Y-104057819D01*
X193780123Y-103693533D02*
X192930123Y-103693533D01*
X193780123Y-103207819D01*
X192930123Y-103207819D01*
X151670200Y-72072419D02*
X151629723Y-72153371D01*
X151629723Y-72274800D01*
X151670200Y-72396228D01*
X151751152Y-72477180D01*
X151832104Y-72517657D01*
X151994009Y-72558133D01*
X152115438Y-72558133D01*
X152277342Y-72517657D01*
X152358295Y-72477180D01*
X152439247Y-72396228D01*
X152479723Y-72274800D01*
X152479723Y-72193847D01*
X152439247Y-72072419D01*
X152398771Y-72031942D01*
X152115438Y-72031942D01*
X152115438Y-72193847D01*
X152479723Y-71667657D02*
X151629723Y-71667657D01*
X152479723Y-71181942D01*
X151629723Y-71181942D01*
X152479723Y-70777180D02*
X151629723Y-70777180D01*
X151629723Y-70574800D01*
X151670200Y-70453371D01*
X151751152Y-70372419D01*
X151832104Y-70331942D01*
X151994009Y-70291466D01*
X152115438Y-70291466D01*
X152277342Y-70331942D01*
X152358295Y-70372419D01*
X152439247Y-70453371D01*
X152479723Y-70574800D01*
X152479723Y-70777180D01*
X166246276Y-54798980D02*
X165770085Y-54798980D01*
X165722466Y-55275171D01*
X165770085Y-55227552D01*
X165865323Y-55179933D01*
X166103419Y-55179933D01*
X166198657Y-55227552D01*
X166246276Y-55275171D01*
X166293895Y-55370409D01*
X166293895Y-55608504D01*
X166246276Y-55703742D01*
X166198657Y-55751361D01*
X166103419Y-55798980D01*
X165865323Y-55798980D01*
X165770085Y-55751361D01*
X165722466Y-55703742D01*
X166579609Y-54798980D02*
X166912942Y-55798980D01*
X167246276Y-54798980D01*
X167579609Y-55418028D02*
X168341514Y-55418028D01*
X167960561Y-55798980D02*
X167960561Y-55037076D01*
X193780123Y-83524704D02*
X193780123Y-84010419D01*
X193780123Y-83767561D02*
X192930123Y-83767561D01*
X193051552Y-83848514D01*
X193132504Y-83929466D01*
X193172980Y-84010419D01*
X193213457Y-82796133D02*
X193780123Y-82796133D01*
X192889647Y-82998514D02*
X193496790Y-83200895D01*
X193496790Y-82674704D01*
X152579230Y-56656266D02*
X152579230Y-57132457D01*
X151579230Y-57132457D01*
X151579230Y-56418171D02*
X151579230Y-55799123D01*
X151960183Y-56132457D01*
X151960183Y-55989600D01*
X152007802Y-55894361D01*
X152055421Y-55846742D01*
X152150659Y-55799123D01*
X152388754Y-55799123D01*
X152483992Y-55846742D01*
X152531611Y-55894361D01*
X152579230Y-55989600D01*
X152579230Y-56275314D01*
X152531611Y-56370552D01*
X152483992Y-56418171D01*
X193780123Y-79333704D02*
X193780123Y-79819419D01*
X193780123Y-79576561D02*
X192930123Y-79576561D01*
X193051552Y-79657514D01*
X193132504Y-79738466D01*
X193172980Y-79819419D01*
X192930123Y-79050371D02*
X192930123Y-78524180D01*
X193253933Y-78807514D01*
X193253933Y-78686085D01*
X193294409Y-78605133D01*
X193334885Y-78564657D01*
X193415838Y-78524180D01*
X193618219Y-78524180D01*
X193699171Y-78564657D01*
X193739647Y-78605133D01*
X193780123Y-78686085D01*
X193780123Y-78928942D01*
X193739647Y-79009895D01*
X193699171Y-79050371D01*
X151710676Y-96862819D02*
X151670200Y-96822342D01*
X151629723Y-96741390D01*
X151629723Y-96539009D01*
X151670200Y-96458057D01*
X151710676Y-96417580D01*
X151791628Y-96377104D01*
X151872580Y-96377104D01*
X151994009Y-96417580D01*
X152479723Y-96903295D01*
X152479723Y-96377104D01*
X152479723Y-95567580D02*
X152479723Y-96053295D01*
X152479723Y-95810438D02*
X151629723Y-95810438D01*
X151751152Y-95891390D01*
X151832104Y-95972342D01*
X151872580Y-96053295D01*
X151913057Y-78324095D02*
X152479723Y-78324095D01*
X151589247Y-78526476D02*
X152196390Y-78728857D01*
X152196390Y-78202666D01*
X159791466Y-117404400D02*
X159724800Y-117371066D01*
X159624800Y-117371066D01*
X159524800Y-117404400D01*
X159458133Y-117471066D01*
X159424800Y-117537733D01*
X159391466Y-117671066D01*
X159391466Y-117771066D01*
X159424800Y-117904400D01*
X159458133Y-117971066D01*
X159524800Y-118037733D01*
X159624800Y-118071066D01*
X159691466Y-118071066D01*
X159791466Y-118037733D01*
X159824800Y-118004400D01*
X159824800Y-117771066D01*
X159691466Y-117771066D01*
X160124800Y-118071066D02*
X160124800Y-117371066D01*
X160524800Y-118071066D01*
X160524800Y-117371066D01*
X160858133Y-118071066D02*
X160858133Y-117371066D01*
X161024800Y-117371066D01*
X161124800Y-117404400D01*
X161191466Y-117471066D01*
X161224800Y-117537733D01*
X161258133Y-117671066D01*
X161258133Y-117771066D01*
X161224800Y-117904400D01*
X161191466Y-117971066D01*
X161124800Y-118037733D01*
X161024800Y-118071066D01*
X160858133Y-118071066D01*
X152479723Y-107205371D02*
X151629723Y-107205371D01*
X152236866Y-106922038D01*
X151629723Y-106638704D01*
X152479723Y-106638704D01*
X151629723Y-106072038D02*
X151629723Y-105910133D01*
X151670200Y-105829180D01*
X151751152Y-105748228D01*
X151913057Y-105707752D01*
X152196390Y-105707752D01*
X152358295Y-105748228D01*
X152439247Y-105829180D01*
X152479723Y-105910133D01*
X152479723Y-106072038D01*
X152439247Y-106152990D01*
X152358295Y-106233942D01*
X152196390Y-106274419D01*
X151913057Y-106274419D01*
X151751152Y-106233942D01*
X151670200Y-106152990D01*
X151629723Y-106072038D01*
X193011076Y-89242819D02*
X192970600Y-89202342D01*
X192930123Y-89121390D01*
X192930123Y-88919009D01*
X192970600Y-88838057D01*
X193011076Y-88797580D01*
X193092028Y-88757104D01*
X193172980Y-88757104D01*
X193294409Y-88797580D01*
X193780123Y-89283295D01*
X193780123Y-88757104D01*
X192930123Y-88028533D02*
X192930123Y-88190438D01*
X192970600Y-88271390D01*
X193011076Y-88311866D01*
X193132504Y-88392819D01*
X193294409Y-88433295D01*
X193618219Y-88433295D01*
X193699171Y-88392819D01*
X193739647Y-88352342D01*
X193780123Y-88271390D01*
X193780123Y-88109485D01*
X193739647Y-88028533D01*
X193699171Y-87988057D01*
X193618219Y-87947580D01*
X193415838Y-87947580D01*
X193334885Y-87988057D01*
X193294409Y-88028533D01*
X193253933Y-88109485D01*
X193253933Y-88271390D01*
X193294409Y-88352342D01*
X193334885Y-88392819D01*
X193415838Y-88433295D01*
X159672400Y-53873304D02*
X159624780Y-53968542D01*
X159624780Y-54111400D01*
X159672400Y-54254257D01*
X159767638Y-54349495D01*
X159862876Y-54397114D01*
X160053352Y-54444733D01*
X160196209Y-54444733D01*
X160386685Y-54397114D01*
X160481923Y-54349495D01*
X160577161Y-54254257D01*
X160624780Y-54111400D01*
X160624780Y-54016161D01*
X160577161Y-53873304D01*
X160529542Y-53825685D01*
X160196209Y-53825685D01*
X160196209Y-54016161D01*
X160624780Y-53397114D02*
X159624780Y-53397114D01*
X160624780Y-52825685D01*
X159624780Y-52825685D01*
X160624780Y-52349495D02*
X159624780Y-52349495D01*
X159624780Y-52111400D01*
X159672400Y-51968542D01*
X159767638Y-51873304D01*
X159862876Y-51825685D01*
X160053352Y-51778066D01*
X160196209Y-51778066D01*
X160386685Y-51825685D01*
X160481923Y-51873304D01*
X160577161Y-51968542D01*
X160624780Y-52111400D01*
X160624780Y-52349495D01*
X152479723Y-81391104D02*
X152479723Y-81876819D01*
X152479723Y-81633961D02*
X151629723Y-81633961D01*
X151751152Y-81714914D01*
X151832104Y-81795866D01*
X151872580Y-81876819D01*
X151629723Y-80662533D02*
X151629723Y-80824438D01*
X151670200Y-80905390D01*
X151710676Y-80945866D01*
X151832104Y-81026819D01*
X151994009Y-81067295D01*
X152317819Y-81067295D01*
X152398771Y-81026819D01*
X152439247Y-80986342D01*
X152479723Y-80905390D01*
X152479723Y-80743485D01*
X152439247Y-80662533D01*
X152398771Y-80622057D01*
X152317819Y-80581580D01*
X152115438Y-80581580D01*
X152034485Y-80622057D01*
X151994009Y-80662533D01*
X151953533Y-80743485D01*
X151953533Y-80905390D01*
X151994009Y-80986342D01*
X152034485Y-81026819D01*
X152115438Y-81067295D01*
X192970600Y-107276819D02*
X192930123Y-107357771D01*
X192930123Y-107479200D01*
X192970600Y-107600628D01*
X193051552Y-107681580D01*
X193132504Y-107722057D01*
X193294409Y-107762533D01*
X193415838Y-107762533D01*
X193577742Y-107722057D01*
X193658695Y-107681580D01*
X193739647Y-107600628D01*
X193780123Y-107479200D01*
X193780123Y-107398247D01*
X193739647Y-107276819D01*
X193699171Y-107236342D01*
X193415838Y-107236342D01*
X193415838Y-107398247D01*
X193780123Y-106872057D02*
X192930123Y-106872057D01*
X193780123Y-106386342D01*
X192930123Y-106386342D01*
X193780123Y-105981580D02*
X192930123Y-105981580D01*
X192930123Y-105779200D01*
X192970600Y-105657771D01*
X193051552Y-105576819D01*
X193132504Y-105536342D01*
X193294409Y-105495866D01*
X193415838Y-105495866D01*
X193577742Y-105536342D01*
X193658695Y-105576819D01*
X193739647Y-105657771D01*
X193780123Y-105779200D01*
X193780123Y-105981580D01*
X157322780Y-105881419D02*
X156846590Y-106214752D01*
X157322780Y-106452847D02*
X156322780Y-106452847D01*
X156322780Y-106071895D01*
X156370400Y-105976657D01*
X156418019Y-105929038D01*
X156513257Y-105881419D01*
X156656114Y-105881419D01*
X156751352Y-105929038D01*
X156798971Y-105976657D01*
X156846590Y-106071895D01*
X156846590Y-106452847D01*
X157275161Y-105500466D02*
X157322780Y-105357609D01*
X157322780Y-105119514D01*
X157275161Y-105024276D01*
X157227542Y-104976657D01*
X157132304Y-104929038D01*
X157037066Y-104929038D01*
X156941828Y-104976657D01*
X156894209Y-105024276D01*
X156846590Y-105119514D01*
X156798971Y-105309990D01*
X156751352Y-105405228D01*
X156703733Y-105452847D01*
X156608495Y-105500466D01*
X156513257Y-105500466D01*
X156418019Y-105452847D01*
X156370400Y-105405228D01*
X156322780Y-105309990D01*
X156322780Y-105071895D01*
X156370400Y-104929038D01*
X156322780Y-104643323D02*
X156322780Y-104071895D01*
X157322780Y-104357609D02*
X156322780Y-104357609D01*
X151528123Y-65026295D02*
X151528123Y-65431057D01*
X151932885Y-65471533D01*
X151892409Y-65431057D01*
X151851933Y-65350104D01*
X151851933Y-65147723D01*
X151892409Y-65066771D01*
X151932885Y-65026295D01*
X152013838Y-64985819D01*
X152216219Y-64985819D01*
X152297171Y-65026295D01*
X152337647Y-65066771D01*
X152378123Y-65147723D01*
X152378123Y-65350104D01*
X152337647Y-65431057D01*
X152297171Y-65471533D01*
X151528123Y-64742961D02*
X152378123Y-64459628D01*
X151528123Y-64176295D01*
X152459076Y-64095342D02*
X152459076Y-63447723D01*
X152378123Y-63245342D02*
X151528123Y-63245342D01*
X192970600Y-77330219D02*
X192930123Y-77411171D01*
X192930123Y-77532600D01*
X192970600Y-77654028D01*
X193051552Y-77734980D01*
X193132504Y-77775457D01*
X193294409Y-77815933D01*
X193415838Y-77815933D01*
X193577742Y-77775457D01*
X193658695Y-77734980D01*
X193739647Y-77654028D01*
X193780123Y-77532600D01*
X193780123Y-77451647D01*
X193739647Y-77330219D01*
X193699171Y-77289742D01*
X193415838Y-77289742D01*
X193415838Y-77451647D01*
X193780123Y-76925457D02*
X192930123Y-76925457D01*
X193780123Y-76439742D01*
X192930123Y-76439742D01*
X193780123Y-76034980D02*
X192930123Y-76034980D01*
X192930123Y-75832600D01*
X192970600Y-75711171D01*
X193051552Y-75630219D01*
X193132504Y-75589742D01*
X193294409Y-75549266D01*
X193415838Y-75549266D01*
X193577742Y-75589742D01*
X193658695Y-75630219D01*
X193739647Y-75711171D01*
X193780123Y-75832600D01*
X193780123Y-76034980D01*
X152479723Y-98998466D02*
X152074961Y-99281800D01*
X152479723Y-99484180D02*
X151629723Y-99484180D01*
X151629723Y-99160371D01*
X151670200Y-99079419D01*
X151710676Y-99038942D01*
X151791628Y-98998466D01*
X151913057Y-98998466D01*
X151994009Y-99038942D01*
X152034485Y-99079419D01*
X152074961Y-99160371D01*
X152074961Y-99484180D01*
X151629723Y-98715133D02*
X152479723Y-98148466D01*
X151629723Y-98148466D02*
X152479723Y-98715133D01*
X152479723Y-86064704D02*
X152479723Y-86550419D01*
X152479723Y-86307561D02*
X151629723Y-86307561D01*
X151751152Y-86388514D01*
X151832104Y-86469466D01*
X151872580Y-86550419D01*
X151629723Y-85781371D02*
X151629723Y-85214704D01*
X152479723Y-85578990D01*
X193334885Y-87138142D02*
X193334885Y-86854809D01*
X193780123Y-86733380D02*
X193780123Y-87138142D01*
X192930123Y-87138142D01*
X192930123Y-86733380D01*
X193780123Y-86369095D02*
X192930123Y-86369095D01*
X193780123Y-85883380D01*
X192930123Y-85883380D01*
X193011076Y-85519095D02*
X192970600Y-85478619D01*
X192930123Y-85397666D01*
X192930123Y-85195285D01*
X192970600Y-85114333D01*
X193011076Y-85073857D01*
X193092028Y-85033380D01*
X193172980Y-85033380D01*
X193294409Y-85073857D01*
X193780123Y-85559571D01*
X193780123Y-85033380D01*
X151710676Y-76442857D02*
X151670200Y-76402380D01*
X151629723Y-76321428D01*
X151629723Y-76119047D01*
X151670200Y-76038095D01*
X151710676Y-75997619D01*
X151791628Y-75957142D01*
X151872580Y-75957142D01*
X151994009Y-75997619D01*
X152479723Y-76483333D01*
X152479723Y-75957142D01*
X192930123Y-96954095D02*
X192930123Y-96427904D01*
X193253933Y-96711238D01*
X193253933Y-96589809D01*
X193294409Y-96508857D01*
X193334885Y-96468380D01*
X193415838Y-96427904D01*
X193618219Y-96427904D01*
X193699171Y-96468380D01*
X193739647Y-96508857D01*
X193780123Y-96589809D01*
X193780123Y-96832666D01*
X193739647Y-96913619D01*
X193699171Y-96954095D01*
X193011076Y-96104095D02*
X192970600Y-96063619D01*
X192930123Y-95982666D01*
X192930123Y-95780285D01*
X192970600Y-95699333D01*
X193011076Y-95658857D01*
X193092028Y-95618380D01*
X193172980Y-95618380D01*
X193294409Y-95658857D01*
X193780123Y-96144571D01*
X193780123Y-95618380D01*
X168929466Y-81900780D02*
X168929466Y-82615066D01*
X168881847Y-82757923D01*
X168786609Y-82853161D01*
X168643752Y-82900780D01*
X168548514Y-82900780D01*
X169881847Y-82900780D02*
X169405657Y-82900780D01*
X169405657Y-81900780D01*
X170786609Y-82805542D02*
X170738990Y-82853161D01*
X170596133Y-82900780D01*
X170500895Y-82900780D01*
X170358038Y-82853161D01*
X170262800Y-82757923D01*
X170215180Y-82662685D01*
X170167561Y-82472209D01*
X170167561Y-82329352D01*
X170215180Y-82138876D01*
X170262800Y-82043638D01*
X170358038Y-81948400D01*
X170500895Y-81900780D01*
X170596133Y-81900780D01*
X170738990Y-81948400D01*
X170786609Y-81996019D01*
X171500895Y-81900780D02*
X171500895Y-82615066D01*
X171453276Y-82757923D01*
X171358038Y-82853161D01*
X171215180Y-82900780D01*
X171119942Y-82900780D01*
X172453276Y-82900780D02*
X171977085Y-82900780D01*
X171977085Y-81900780D01*
X173358038Y-82805542D02*
X173310419Y-82853161D01*
X173167561Y-82900780D01*
X173072323Y-82900780D01*
X172929466Y-82853161D01*
X172834228Y-82757923D01*
X172786609Y-82662685D01*
X172738990Y-82472209D01*
X172738990Y-82329352D01*
X172786609Y-82138876D01*
X172834228Y-82043638D01*
X172929466Y-81948400D01*
X173072323Y-81900780D01*
X173167561Y-81900780D01*
X173310419Y-81948400D01*
X173358038Y-81996019D01*
X174072323Y-81900780D02*
X174072323Y-82615066D01*
X174024704Y-82757923D01*
X173929466Y-82853161D01*
X173786609Y-82900780D01*
X173691371Y-82900780D01*
X175024704Y-82900780D02*
X174548514Y-82900780D01*
X174548514Y-81900780D01*
X175929466Y-82805542D02*
X175881847Y-82853161D01*
X175738990Y-82900780D01*
X175643752Y-82900780D01*
X175500895Y-82853161D01*
X175405657Y-82757923D01*
X175358038Y-82662685D01*
X175310419Y-82472209D01*
X175310419Y-82329352D01*
X175358038Y-82138876D01*
X175405657Y-82043638D01*
X175500895Y-81948400D01*
X175643752Y-81900780D01*
X175738990Y-81900780D01*
X175881847Y-81948400D01*
X175929466Y-81996019D01*
X193780123Y-81441904D02*
X193780123Y-81927619D01*
X193780123Y-81684761D02*
X192930123Y-81684761D01*
X193051552Y-81765714D01*
X193132504Y-81846666D01*
X193172980Y-81927619D01*
X193011076Y-81118095D02*
X192970600Y-81077619D01*
X192930123Y-80996666D01*
X192930123Y-80794285D01*
X192970600Y-80713333D01*
X193011076Y-80672857D01*
X193092028Y-80632380D01*
X193172980Y-80632380D01*
X193294409Y-80672857D01*
X193780123Y-81158571D01*
X193780123Y-80632380D01*
X151629723Y-101942819D02*
X151629723Y-101457104D01*
X152479723Y-101699961D02*
X151629723Y-101699961D01*
X151629723Y-101254723D02*
X152479723Y-100688057D01*
X151629723Y-100688057D02*
X152479723Y-101254723D01*
X151670200Y-110274019D02*
X151629723Y-110354971D01*
X151629723Y-110476400D01*
X151670200Y-110597828D01*
X151751152Y-110678780D01*
X151832104Y-110719257D01*
X151994009Y-110759733D01*
X152115438Y-110759733D01*
X152277342Y-110719257D01*
X152358295Y-110678780D01*
X152439247Y-110597828D01*
X152479723Y-110476400D01*
X152479723Y-110395447D01*
X152439247Y-110274019D01*
X152398771Y-110233542D01*
X152115438Y-110233542D01*
X152115438Y-110395447D01*
X152479723Y-109869257D02*
X151629723Y-109869257D01*
X152479723Y-109383542D01*
X151629723Y-109383542D01*
X152479723Y-108978780D02*
X151629723Y-108978780D01*
X151629723Y-108776400D01*
X151670200Y-108654971D01*
X151751152Y-108574019D01*
X151832104Y-108533542D01*
X151994009Y-108493066D01*
X152115438Y-108493066D01*
X152277342Y-108533542D01*
X152358295Y-108574019D01*
X152439247Y-108654971D01*
X152479723Y-108776400D01*
X152479723Y-108978780D01*
X151629723Y-87986419D02*
X151629723Y-88391180D01*
X152034485Y-88431657D01*
X151994009Y-88391180D01*
X151953533Y-88310228D01*
X151953533Y-88107847D01*
X151994009Y-88026895D01*
X152034485Y-87986419D01*
X152115438Y-87945942D01*
X152317819Y-87945942D01*
X152398771Y-87986419D01*
X152439247Y-88026895D01*
X152479723Y-88107847D01*
X152479723Y-88310228D01*
X152439247Y-88391180D01*
X152398771Y-88431657D01*
X152579230Y-61380666D02*
X152579230Y-61856857D01*
X151579230Y-61856857D01*
X151579230Y-60571142D02*
X151579230Y-61047333D01*
X152055421Y-61094952D01*
X152007802Y-61047333D01*
X151960183Y-60952095D01*
X151960183Y-60714000D01*
X152007802Y-60618761D01*
X152055421Y-60571142D01*
X152150659Y-60523523D01*
X152388754Y-60523523D01*
X152483992Y-60571142D01*
X152531611Y-60618761D01*
X152579230Y-60714000D01*
X152579230Y-60952095D01*
X152531611Y-61047333D01*
X152483992Y-61094952D01*
X184988266Y-117556800D02*
X184921600Y-117523466D01*
X184821600Y-117523466D01*
X184721600Y-117556800D01*
X184654933Y-117623466D01*
X184621600Y-117690133D01*
X184588266Y-117823466D01*
X184588266Y-117923466D01*
X184621600Y-118056800D01*
X184654933Y-118123466D01*
X184721600Y-118190133D01*
X184821600Y-118223466D01*
X184888266Y-118223466D01*
X184988266Y-118190133D01*
X185021600Y-118156800D01*
X185021600Y-117923466D01*
X184888266Y-117923466D01*
X185321600Y-118223466D02*
X185321600Y-117523466D01*
X185721600Y-118223466D01*
X185721600Y-117523466D01*
X186054933Y-118223466D02*
X186054933Y-117523466D01*
X186221600Y-117523466D01*
X186321600Y-117556800D01*
X186388266Y-117623466D01*
X186421600Y-117690133D01*
X186454933Y-117823466D01*
X186454933Y-117923466D01*
X186421600Y-118056800D01*
X186388266Y-118123466D01*
X186321600Y-118190133D01*
X186221600Y-118223466D01*
X186054933Y-118223466D01*
X193011076Y-91884419D02*
X192970600Y-91843942D01*
X192930123Y-91762990D01*
X192930123Y-91560609D01*
X192970600Y-91479657D01*
X193011076Y-91439180D01*
X193092028Y-91398704D01*
X193172980Y-91398704D01*
X193294409Y-91439180D01*
X193780123Y-91924895D01*
X193780123Y-91398704D01*
X192930123Y-90629657D02*
X192930123Y-91034419D01*
X193334885Y-91074895D01*
X193294409Y-91034419D01*
X193253933Y-90953466D01*
X193253933Y-90751085D01*
X193294409Y-90670133D01*
X193334885Y-90629657D01*
X193415838Y-90589180D01*
X193618219Y-90589180D01*
X193699171Y-90629657D01*
X193739647Y-90670133D01*
X193780123Y-90751085D01*
X193780123Y-90953466D01*
X193739647Y-91034419D01*
X193699171Y-91074895D01*
X192930123Y-94515695D02*
X192930123Y-93989504D01*
X193253933Y-94272838D01*
X193253933Y-94151409D01*
X193294409Y-94070457D01*
X193334885Y-94029980D01*
X193415838Y-93989504D01*
X193618219Y-93989504D01*
X193699171Y-94029980D01*
X193739647Y-94070457D01*
X193780123Y-94151409D01*
X193780123Y-94394266D01*
X193739647Y-94475219D01*
X193699171Y-94515695D01*
X192930123Y-93706171D02*
X192930123Y-93179980D01*
X193253933Y-93463314D01*
X193253933Y-93341885D01*
X193294409Y-93260933D01*
X193334885Y-93220457D01*
X193415838Y-93179980D01*
X193618219Y-93179980D01*
X193699171Y-93220457D01*
X193739647Y-93260933D01*
X193780123Y-93341885D01*
X193780123Y-93584742D01*
X193739647Y-93665695D01*
X193699171Y-93706171D01*
X152579230Y-59043866D02*
X152579230Y-59520057D01*
X151579230Y-59520057D01*
X151912564Y-58281961D02*
X152579230Y-58281961D01*
X151531611Y-58520057D02*
X152245897Y-58758152D01*
X152245897Y-58139104D01*
X193780123Y-102104723D02*
X192930123Y-102104723D01*
X192930123Y-101780914D02*
X192930123Y-101254723D01*
X193253933Y-101538057D01*
X193253933Y-101416628D01*
X193294409Y-101335676D01*
X193334885Y-101295200D01*
X193415838Y-101254723D01*
X193618219Y-101254723D01*
X193699171Y-101295200D01*
X193739647Y-101335676D01*
X193780123Y-101416628D01*
X193780123Y-101659485D01*
X193739647Y-101740438D01*
X193699171Y-101780914D01*
X192930123Y-100526152D02*
X192930123Y-100688057D01*
X192970600Y-100769009D01*
X193011076Y-100809485D01*
X193132504Y-100890438D01*
X193294409Y-100930914D01*
X193618219Y-100930914D01*
X193699171Y-100890438D01*
X193739647Y-100849961D01*
X193780123Y-100769009D01*
X193780123Y-100607104D01*
X193739647Y-100526152D01*
X193699171Y-100485676D01*
X193618219Y-100445200D01*
X193415838Y-100445200D01*
X193334885Y-100485676D01*
X193294409Y-100526152D01*
X193253933Y-100607104D01*
X193253933Y-100769009D01*
X193294409Y-100849961D01*
X193334885Y-100890438D01*
X193415838Y-100930914D01*
X152439247Y-92024857D02*
X152479723Y-91903428D01*
X152479723Y-91701047D01*
X152439247Y-91620095D01*
X152398771Y-91579619D01*
X152317819Y-91539142D01*
X152236866Y-91539142D01*
X152155914Y-91579619D01*
X152115438Y-91620095D01*
X152074961Y-91701047D01*
X152034485Y-91862952D01*
X151994009Y-91943904D01*
X151953533Y-91984380D01*
X151872580Y-92024857D01*
X151791628Y-92024857D01*
X151710676Y-91984380D01*
X151670200Y-91943904D01*
X151629723Y-91862952D01*
X151629723Y-91660571D01*
X151670200Y-91539142D01*
X152398771Y-90689142D02*
X152439247Y-90729619D01*
X152479723Y-90851047D01*
X152479723Y-90932000D01*
X152439247Y-91053428D01*
X152358295Y-91134380D01*
X152277342Y-91174857D01*
X152115438Y-91215333D01*
X151994009Y-91215333D01*
X151832104Y-91174857D01*
X151751152Y-91134380D01*
X151670200Y-91053428D01*
X151629723Y-90932000D01*
X151629723Y-90851047D01*
X151670200Y-90729619D01*
X151710676Y-90689142D01*
X152479723Y-90324857D02*
X151629723Y-90324857D01*
X152479723Y-89839142D02*
X151994009Y-90203428D01*
X151629723Y-89839142D02*
X152115438Y-90324857D01*
X193780123Y-99564723D02*
X192930123Y-99564723D01*
X192930123Y-99240914D02*
X192930123Y-98714723D01*
X193253933Y-98998057D01*
X193253933Y-98876628D01*
X193294409Y-98795676D01*
X193334885Y-98755200D01*
X193415838Y-98714723D01*
X193618219Y-98714723D01*
X193699171Y-98755200D01*
X193739647Y-98795676D01*
X193780123Y-98876628D01*
X193780123Y-99119485D01*
X193739647Y-99200438D01*
X193699171Y-99240914D01*
X193780123Y-98309961D02*
X193780123Y-98148057D01*
X193739647Y-98067104D01*
X193699171Y-98026628D01*
X193577742Y-97945676D01*
X193415838Y-97905200D01*
X193092028Y-97905200D01*
X193011076Y-97945676D01*
X192970600Y-97986152D01*
X192930123Y-98067104D01*
X192930123Y-98229009D01*
X192970600Y-98309961D01*
X193011076Y-98350438D01*
X193092028Y-98390914D01*
X193294409Y-98390914D01*
X193375361Y-98350438D01*
X193415838Y-98309961D01*
X193456314Y-98229009D01*
X193456314Y-98067104D01*
X193415838Y-97986152D01*
X193375361Y-97945676D01*
X193294409Y-97905200D01*
X159862780Y-58942266D02*
X159862780Y-59418457D01*
X158862780Y-59418457D01*
X159862780Y-58085123D02*
X159862780Y-58656552D01*
X159862780Y-58370838D02*
X158862780Y-58370838D01*
X159005638Y-58466076D01*
X159100876Y-58561314D01*
X159148495Y-58656552D01*
X156798971Y-98029542D02*
X156846590Y-97886685D01*
X156894209Y-97839066D01*
X156989447Y-97791447D01*
X157132304Y-97791447D01*
X157227542Y-97839066D01*
X157275161Y-97886685D01*
X157322780Y-97981923D01*
X157322780Y-98362876D01*
X156322780Y-98362876D01*
X156322780Y-98029542D01*
X156370400Y-97934304D01*
X156418019Y-97886685D01*
X156513257Y-97839066D01*
X156608495Y-97839066D01*
X156703733Y-97886685D01*
X156751352Y-97934304D01*
X156798971Y-98029542D01*
X156798971Y-98362876D01*
X156322780Y-97172400D02*
X156322780Y-96981923D01*
X156370400Y-96886685D01*
X156465638Y-96791447D01*
X156656114Y-96743828D01*
X156989447Y-96743828D01*
X157179923Y-96791447D01*
X157275161Y-96886685D01*
X157322780Y-96981923D01*
X157322780Y-97172400D01*
X157275161Y-97267638D01*
X157179923Y-97362876D01*
X156989447Y-97410495D01*
X156656114Y-97410495D01*
X156465638Y-97362876D01*
X156370400Y-97267638D01*
X156322780Y-97172400D01*
X156322780Y-96124780D02*
X156322780Y-95934304D01*
X156370400Y-95839066D01*
X156465638Y-95743828D01*
X156656114Y-95696209D01*
X156989447Y-95696209D01*
X157179923Y-95743828D01*
X157275161Y-95839066D01*
X157322780Y-95934304D01*
X157322780Y-96124780D01*
X157275161Y-96220019D01*
X157179923Y-96315257D01*
X156989447Y-96362876D01*
X156656114Y-96362876D01*
X156465638Y-96315257D01*
X156370400Y-96220019D01*
X156322780Y-96124780D01*
X156322780Y-95410495D02*
X156322780Y-94839066D01*
X157322780Y-95124780D02*
X156322780Y-95124780D01*
X184450028Y-61694628D02*
X184450028Y-60932723D01*
X184830980Y-61313676D02*
X184069076Y-61313676D01*
X184307171Y-59361295D02*
X184354790Y-59218438D01*
X184402409Y-59170819D01*
X184497647Y-59123200D01*
X184640504Y-59123200D01*
X184735742Y-59170819D01*
X184783361Y-59218438D01*
X184830980Y-59313676D01*
X184830980Y-59694628D01*
X183830980Y-59694628D01*
X183830980Y-59361295D01*
X183878600Y-59266057D01*
X183926219Y-59218438D01*
X184021457Y-59170819D01*
X184116695Y-59170819D01*
X184211933Y-59218438D01*
X184259552Y-59266057D01*
X184307171Y-59361295D01*
X184307171Y-59694628D01*
X184545266Y-58742247D02*
X184545266Y-58266057D01*
X184830980Y-58837485D02*
X183830980Y-58504152D01*
X184830980Y-58170819D01*
X183830980Y-57980342D02*
X183830980Y-57408914D01*
X184830980Y-57694628D02*
X183830980Y-57694628D01*
X184450028Y-56313676D02*
X184450028Y-55551771D01*
X151629723Y-83403276D02*
X151629723Y-83322323D01*
X151670200Y-83241371D01*
X151710676Y-83200895D01*
X151791628Y-83160419D01*
X151953533Y-83119942D01*
X152155914Y-83119942D01*
X152317819Y-83160419D01*
X152398771Y-83200895D01*
X152439247Y-83241371D01*
X152479723Y-83322323D01*
X152479723Y-83403276D01*
X152439247Y-83484228D01*
X152398771Y-83524704D01*
X152317819Y-83565180D01*
X152155914Y-83605657D01*
X151953533Y-83605657D01*
X151791628Y-83565180D01*
X151710676Y-83524704D01*
X151670200Y-83484228D01*
X151629723Y-83403276D01*
X152479723Y-94516514D02*
X151629723Y-94516514D01*
X152236866Y-94233180D01*
X151629723Y-93949847D01*
X152479723Y-93949847D01*
X152479723Y-93545085D02*
X151629723Y-93545085D01*
X152479723Y-74126704D02*
X152479723Y-74612419D01*
X152479723Y-74369561D02*
X151629723Y-74369561D01*
X151751152Y-74450514D01*
X151832104Y-74531466D01*
X151872580Y-74612419D01*
X151629723Y-73357657D02*
X151629723Y-73762419D01*
X152034485Y-73802895D01*
X151994009Y-73762419D01*
X151953533Y-73681466D01*
X151953533Y-73479085D01*
X151994009Y-73398133D01*
X152034485Y-73357657D01*
X152115438Y-73317180D01*
X152317819Y-73317180D01*
X152398771Y-73357657D01*
X152439247Y-73398133D01*
X152479723Y-73479085D01*
X152479723Y-73681466D01*
X152439247Y-73762419D01*
X152398771Y-73802895D01*
X159786380Y-69833885D02*
X159786380Y-70405314D01*
X159786380Y-70119600D02*
X158786380Y-70119600D01*
X158929238Y-70214838D01*
X159024476Y-70310076D01*
X159072095Y-70405314D01*
D13*
X180541000Y-57993000D02*
X183441000Y-57993000D01*
X180541000Y-58593000D02*
X180541000Y-57993000D01*
X183441000Y-58593000D02*
X180541000Y-58593000D01*
X180391000Y-60143000D02*
X180391000Y-58943000D01*
X183441000Y-57993000D02*
X183441000Y-58593000D01*
D14*
X161611542Y-68565500D02*
X162086058Y-68565500D01*
X161611542Y-69610500D02*
X162086058Y-69610500D01*
X161800800Y-79104000D02*
X160390800Y-79104000D01*
X160390800Y-81424000D02*
X160390800Y-80764000D01*
X160390800Y-81424000D02*
X162420800Y-81424000D01*
X160390800Y-79764000D02*
X160390800Y-79104000D01*
X158227500Y-90123742D02*
X158227500Y-90598258D01*
X159272500Y-90123742D02*
X159272500Y-90598258D01*
X183317000Y-71535000D02*
X185237000Y-71535000D01*
X185237000Y-71535000D02*
X185237000Y-68850000D01*
X183317000Y-68850000D02*
X183317000Y-71535000D01*
X158225258Y-65165500D02*
X157750742Y-65165500D01*
X158225258Y-64120500D02*
X157750742Y-64120500D01*
X186153058Y-104306900D02*
X185678542Y-104306900D01*
X186153058Y-103261900D02*
X185678542Y-103261900D01*
X160923500Y-90123742D02*
X160923500Y-90598258D01*
X159878500Y-90123742D02*
X159878500Y-90598258D01*
X185690742Y-100010700D02*
X186165258Y-100010700D01*
X185690742Y-101055700D02*
X186165258Y-101055700D01*
D13*
X160569500Y-98589500D02*
G75*
G03*
X160569500Y-98789500I0J-100000D01*
G01*
X160569500Y-98789500D02*
G75*
G03*
X160569500Y-98589500I0J100000D01*
G01*
X160569500Y-98589500D02*
X160569500Y-98589500D01*
X160569500Y-98789500D02*
X160569500Y-98789500D01*
D15*
X157758500Y-99379500D02*
X157758500Y-93329500D01*
X161458500Y-99329500D02*
X161458500Y-93329500D01*
D14*
X153229000Y-63306000D02*
X158429000Y-63306000D01*
X155829000Y-55566000D02*
X158429000Y-55566000D01*
X153229000Y-58166000D02*
X155829000Y-58166000D01*
X158429000Y-55566000D02*
X158429000Y-63306000D01*
X155829000Y-58166000D02*
X155829000Y-55566000D01*
X153229000Y-56896000D02*
X153229000Y-55566000D01*
X153229000Y-55566000D02*
X154559000Y-55566000D01*
X153229000Y-58166000D02*
X153229000Y-63306000D01*
X188738742Y-69225900D02*
X189213258Y-69225900D01*
X188738742Y-70270900D02*
X189213258Y-70270900D01*
X187136300Y-70298542D02*
X187136300Y-70773058D01*
X186091300Y-70298542D02*
X186091300Y-70773058D01*
D12*
X181216000Y-90088800D02*
X180466000Y-90088800D01*
X163716000Y-90088800D02*
X164466000Y-90088800D01*
X181216000Y-73588800D02*
X181216000Y-90088800D01*
X163716000Y-73588800D02*
X163716000Y-90088800D01*
X180466000Y-73588800D02*
X181216000Y-73588800D01*
X164466000Y-73588800D02*
X163716000Y-73588800D01*
D14*
X187923700Y-109050858D02*
X187923700Y-108576342D01*
X186878700Y-109050858D02*
X186878700Y-108576342D01*
X160866858Y-111215700D02*
X160392342Y-111215700D01*
X160866858Y-110170700D02*
X160392342Y-110170700D01*
X184152000Y-111365420D02*
X184152000Y-111646580D01*
X183132000Y-111365420D02*
X183132000Y-111646580D01*
X164076000Y-65767200D02*
X164736000Y-65767200D01*
X164736000Y-67177200D02*
X164736000Y-65767200D01*
X162416000Y-65767200D02*
X162416000Y-67797200D01*
X162416000Y-65767200D02*
X163076000Y-65767200D01*
X157270000Y-77411600D02*
X158420000Y-77411600D01*
X157270000Y-70111600D02*
X157270000Y-77411600D01*
X162770000Y-70111600D02*
X162770000Y-77411600D01*
X167148742Y-71642500D02*
X167623258Y-71642500D01*
X167148742Y-70597500D02*
X167623258Y-70597500D01*
X186643742Y-64276500D02*
X187118258Y-64276500D01*
X186643742Y-63231500D02*
X187118258Y-63231500D01*
X187333658Y-99437700D02*
X186859142Y-99437700D01*
X187333658Y-98392700D02*
X186859142Y-98392700D01*
X179062748Y-71474000D02*
X179585252Y-71474000D01*
X179062748Y-70004000D02*
X179585252Y-70004000D01*
X161818000Y-60452000D02*
X161818000Y-58502000D01*
X171938000Y-60452000D02*
X171938000Y-58502000D01*
X161818000Y-60452000D02*
X161818000Y-63902000D01*
X171938000Y-60452000D02*
X171938000Y-62402000D01*
D13*
X178010000Y-55083500D02*
G75*
G03*
X178010000Y-55083500I-100000J0D01*
G01*
D16*
X170040000Y-47313500D02*
X170040000Y-46083500D01*
X178980000Y-46083500D02*
X178980000Y-47313500D01*
X170040000Y-51493500D02*
X170040000Y-50053500D01*
X178980000Y-51493500D02*
X178980000Y-50053500D01*
X170040000Y-46083500D02*
X178980000Y-46083500D01*
D14*
X190210000Y-56924000D02*
G75*
G03*
X190210000Y-56924000I-1680000J0D01*
G01*
X189421000Y-58999000D02*
G75*
G03*
X187639807Y-58998496I-891000J-1425003D01*
G01*
X189970000Y-61290000D02*
G75*
G03*
X190210099Y-60395326I-1440014J866003D01*
G01*
X187089999Y-59558000D02*
G75*
G03*
X187104642Y-61313894I1439999J-866000D01*
G01*
X187664000Y-61864001D02*
G75*
G03*
X189419894Y-61849358I866000J1439999D01*
G01*
X190210000Y-60424000D02*
G75*
G03*
X189954721Y-59533736I-1679990J3D01*
G01*
X192690000Y-62474000D02*
X193330000Y-62474000D01*
X193090000Y-62234000D02*
X193090000Y-55114000D01*
X189711000Y-57899000D02*
X189804000Y-57993000D01*
X191530000Y-62234000D02*
X191530000Y-55114000D01*
X185370000Y-55114000D02*
X193090000Y-55114000D01*
X192630000Y-62234000D02*
X192630000Y-55114000D01*
X185370000Y-62234000D02*
X193090000Y-62234000D01*
X187255000Y-55854000D02*
X187349000Y-55948000D01*
X185370000Y-62234000D02*
X185370000Y-55114000D01*
X187461000Y-55649000D02*
X187589000Y-55778000D01*
X193330000Y-62474000D02*
X193330000Y-62074000D01*
X189471000Y-58069000D02*
X189599000Y-58198000D01*
X155889000Y-67056000D02*
X155889000Y-110296000D01*
X153229000Y-67056000D02*
X155889000Y-67056000D01*
X153229000Y-67056000D02*
X153229000Y-110296000D01*
X153229000Y-110296000D02*
X155889000Y-110296000D01*
X153229000Y-65786000D02*
X153229000Y-64456000D01*
X153229000Y-64456000D02*
X154559000Y-64456000D01*
X163208580Y-56263000D02*
X162927420Y-56263000D01*
X163208580Y-55243000D02*
X162927420Y-55243000D01*
X192838800Y-66102620D02*
X192838800Y-66383780D01*
X191818800Y-66102620D02*
X191818800Y-66383780D01*
X161578058Y-78551300D02*
X161103542Y-78551300D01*
X161578058Y-77506300D02*
X161103542Y-77506300D01*
X183466740Y-88811100D02*
X184122060Y-88811100D01*
X185470800Y-88811100D02*
X185470800Y-86753700D01*
X182118000Y-86753700D02*
X182118000Y-88811100D01*
X157750742Y-65677500D02*
X158225258Y-65677500D01*
X157750742Y-66722500D02*
X158225258Y-66722500D01*
X182379252Y-52605000D02*
X181856748Y-52605000D01*
X182379252Y-54075000D02*
X181856748Y-54075000D01*
X181499742Y-49896500D02*
X181974258Y-49896500D01*
X181499742Y-50941500D02*
X181974258Y-50941500D01*
X187149200Y-87618180D02*
X187149200Y-87337020D01*
X186129200Y-87618180D02*
X186129200Y-87337020D01*
D13*
X166070000Y-64705000D02*
X167595000Y-64705000D01*
D14*
X161165000Y-57150580D02*
X161165000Y-56869420D01*
X160145000Y-57150580D02*
X160145000Y-56869420D01*
D13*
X183430000Y-66655000D02*
X183430000Y-61615000D01*
X180806000Y-61615000D02*
X180806000Y-66960000D01*
X158708500Y-103086500D02*
G75*
G03*
X158708500Y-102886500I0J100000D01*
G01*
X158708500Y-102886500D02*
G75*
G03*
X158708500Y-103086500I0J-100000D01*
G01*
X158708500Y-103086500D02*
X158708500Y-103086500D01*
X158708500Y-102886500D02*
X158708500Y-102886500D01*
D15*
X161519500Y-102296500D02*
X161519500Y-108346500D01*
X157819500Y-102346500D02*
X157819500Y-108346500D01*
D14*
X177292000Y-68047000D02*
X178967000Y-68047000D01*
X177292000Y-68047000D02*
X176642000Y-68047000D01*
X177292000Y-64927000D02*
X177942000Y-64927000D01*
X177292000Y-64927000D02*
X176642000Y-64927000D01*
X184644420Y-106551000D02*
X184925580Y-106551000D01*
X184644420Y-107571000D02*
X184925580Y-107571000D01*
X184055652Y-91870200D02*
X183533148Y-91870200D01*
X184055652Y-90400200D02*
X183533148Y-90400200D01*
X181158000Y-71408000D02*
X183078000Y-71408000D01*
X181158000Y-68723000D02*
X181158000Y-71408000D01*
X183078000Y-71408000D02*
X183078000Y-68723000D01*
X181983000Y-119250000D02*
X163743000Y-119250000D01*
X181983000Y-94285000D02*
X181983000Y-93505000D01*
X163743000Y-93505000D02*
X164743000Y-93505000D01*
X163743000Y-94285000D02*
X163743000Y-93505000D01*
X181983000Y-112830000D02*
X182363000Y-112830000D01*
X181983000Y-93505000D02*
X180983000Y-93505000D01*
X181983000Y-119250000D02*
X181983000Y-112830000D01*
X163743000Y-119250000D02*
X163743000Y-112830000D01*
X183607942Y-73014100D02*
X184082458Y-73014100D01*
X183607942Y-71969100D02*
X184082458Y-71969100D01*
X187820300Y-68478400D02*
X189877700Y-68478400D01*
X189877700Y-67129660D02*
X189877700Y-66474340D01*
X189877700Y-65125600D02*
X187820300Y-65125600D01*
X184650748Y-109701000D02*
X185173252Y-109701000D01*
X184650748Y-108231000D02*
X185173252Y-108231000D01*
X185690742Y-102681300D02*
X186165258Y-102681300D01*
X185690742Y-101636300D02*
X186165258Y-101636300D01*
X184258852Y-83643800D02*
X183736348Y-83643800D01*
X184258852Y-85113800D02*
X183736348Y-85113800D01*
X181877580Y-55755000D02*
X181596420Y-55755000D01*
X181877580Y-54735000D02*
X181596420Y-54735000D01*
X175614000Y-69969748D02*
X175614000Y-70492252D01*
X174144000Y-69969748D02*
X174144000Y-70492252D01*
D13*
X179646000Y-61667000D02*
X176716000Y-61667000D01*
X179646000Y-57967000D02*
X179646000Y-61667000D01*
X176716000Y-61667000D02*
X176716000Y-57967000D01*
X179731000Y-56142000D02*
X179731000Y-57617000D01*
X176716000Y-57967000D02*
X179646000Y-57967000D01*
D14*
X181499742Y-48245500D02*
X181974258Y-48245500D01*
X181499742Y-49290500D02*
X181974258Y-49290500D01*
X183785742Y-73518500D02*
X184260258Y-73518500D01*
X183785742Y-74563500D02*
X184260258Y-74563500D01*
X177294000Y-70612580D02*
X177294000Y-70331420D01*
X176274000Y-70612580D02*
X176274000Y-70331420D01*
X164776000Y-50800000D02*
G75*
G03*
X164776000Y-50800000I-1680000J0D01*
G01*
X167462000Y-49360000D02*
G75*
G03*
X166567326Y-49119901I-866003J-1440014D01*
G01*
X165171000Y-49909000D02*
G75*
G03*
X165170496Y-51690193I1425003J-891000D01*
G01*
X168036001Y-51666000D02*
G75*
G03*
X168021358Y-49910106I-1439999J866000D01*
G01*
X166596000Y-49120000D02*
G75*
G03*
X165705736Y-49375279I-3J-1679990D01*
G01*
X165730000Y-52240001D02*
G75*
G03*
X167485894Y-52225358I866000J1439999D01*
G01*
X162026000Y-52075000D02*
X162120000Y-51981000D01*
X168406000Y-47800000D02*
X161286000Y-47800000D01*
X168406000Y-53960000D02*
X168406000Y-46240000D01*
X161286000Y-53960000D02*
X161286000Y-46240000D01*
X168406000Y-46700000D02*
X161286000Y-46700000D01*
X164241000Y-49859000D02*
X164370000Y-49731000D01*
X168646000Y-46640000D02*
X168646000Y-46000000D01*
X168406000Y-46240000D02*
X161286000Y-46240000D01*
X161821000Y-51869000D02*
X161950000Y-51741000D01*
X168646000Y-46000000D02*
X168246000Y-46000000D01*
X164071000Y-49619000D02*
X164165000Y-49526000D01*
X168406000Y-53960000D02*
X161286000Y-53960000D01*
D13*
X175810000Y-61702000D02*
X175810000Y-56662000D01*
X173186000Y-56662000D02*
X173186000Y-62007000D01*
D14*
X183963542Y-82920100D02*
X184438058Y-82920100D01*
X183963542Y-81875100D02*
X184438058Y-81875100D01*
X163688500Y-69612742D02*
X163688500Y-70087258D01*
X164733500Y-69612742D02*
X164733500Y-70087258D01*
X193292400Y-69831852D02*
X193292400Y-69309348D01*
X191822400Y-69831852D02*
X191822400Y-69309348D01*
X161136000Y-60764748D02*
X161136000Y-61287252D01*
X159666000Y-60764748D02*
X159666000Y-61287252D01*
X161383600Y-65767200D02*
X162043600Y-65767200D01*
X162043600Y-67177200D02*
X162043600Y-65767200D01*
X159723600Y-65767200D02*
X159723600Y-67797200D01*
X159723600Y-65767200D02*
X160383600Y-65767200D01*
X189576400Y-74656000D02*
X189576400Y-110276000D01*
X189576400Y-73386000D02*
X189576400Y-72056000D01*
X189576400Y-74656000D02*
X192236400Y-74656000D01*
X189576400Y-110276000D02*
X192236400Y-110276000D01*
X192236400Y-74656000D02*
X192236400Y-110276000D01*
X189576400Y-72056000D02*
X190906400Y-72056000D01*
X189817742Y-64276500D02*
X190292258Y-64276500D01*
X189817742Y-63231500D02*
X190292258Y-63231500D01*
X185850200Y-66083548D02*
X185850200Y-66606052D01*
X184380200Y-66083548D02*
X184380200Y-66606052D01*
%LPC*%
D17*
X181041000Y-57043000D03*
X181991000Y-57043000D03*
X182941000Y-57043000D03*
X182941000Y-59543000D03*
X181991000Y-59543000D03*
X181041000Y-59543000D03*
D18*
X162673800Y-69088000D03*
X161023800Y-69088000D03*
D19*
X160120800Y-80264000D03*
X162120800Y-79614000D03*
X162120800Y-80914000D03*
D20*
X158750000Y-91186000D03*
X158750000Y-89536000D03*
D21*
X184277000Y-68912500D03*
X184277000Y-70787500D03*
D22*
X157163000Y-64643000D03*
X158813000Y-64643000D03*
X185090800Y-103784400D03*
X186740800Y-103784400D03*
D20*
X160401000Y-91186000D03*
X160401000Y-89536000D03*
D18*
X186753000Y-100533200D03*
X185103000Y-100533200D03*
D23*
X159553500Y-93281500D03*
X159553500Y-99250500D03*
D24*
X157099000Y-61976000D03*
X154559000Y-61976000D03*
X157099000Y-59436000D03*
X154559000Y-59436000D03*
X157099000Y-56896000D03*
D25*
X154559000Y-56896000D03*
D18*
X189801000Y-69748400D03*
X188151000Y-69748400D03*
D20*
X186613800Y-71360800D03*
X186613800Y-69710800D03*
D26*
X179466000Y-89838800D03*
X177466000Y-89838800D03*
X175466000Y-89838800D03*
X173466000Y-89838800D03*
X171466000Y-89838800D03*
X169466000Y-89838800D03*
X167466000Y-89838800D03*
X165466000Y-89838800D03*
X165466000Y-73838800D03*
X167466000Y-73838800D03*
X169466000Y-73838800D03*
X171466000Y-73838800D03*
X173466000Y-73838800D03*
X175466000Y-73838800D03*
X177466000Y-73838800D03*
X179466000Y-73838800D03*
D27*
X187401200Y-107988600D03*
X187401200Y-109638600D03*
D22*
X159804600Y-110693200D03*
X161454600Y-110693200D03*
D28*
X183642000Y-112281000D03*
X183642000Y-110731000D03*
D29*
X163576000Y-65497200D03*
X164226000Y-67497200D03*
X162926000Y-67497200D03*
D30*
X161620000Y-76211600D03*
X158420000Y-76211600D03*
X158420000Y-71311600D03*
X161620000Y-71311600D03*
D18*
X168211000Y-71120000D03*
X166561000Y-71120000D03*
D31*
X156564000Y-50038000D03*
D18*
X187706000Y-63754000D03*
X186056000Y-63754000D03*
D22*
X186271400Y-98915200D03*
X187921400Y-98915200D03*
D32*
X180274000Y-70739000D03*
X178374000Y-70739000D03*
D33*
X162433000Y-57977000D03*
X163703000Y-57977000D03*
X164973000Y-57977000D03*
X166243000Y-57977000D03*
X167513000Y-57977000D03*
X168783000Y-57977000D03*
X170053000Y-57977000D03*
X171323000Y-57977000D03*
X171323000Y-62927000D03*
X170053000Y-62927000D03*
X168783000Y-62927000D03*
X167513000Y-62927000D03*
X166243000Y-62927000D03*
X164973000Y-62927000D03*
X163703000Y-62927000D03*
X162433000Y-62927000D03*
D34*
X170190000Y-48683500D03*
X178830000Y-48683500D03*
X170190000Y-52863500D03*
X178830000Y-52863500D03*
D35*
X176260000Y-53778500D03*
X175260000Y-53778500D03*
X173760000Y-53778500D03*
X172760000Y-53778500D03*
D36*
X172060000Y-53778500D03*
X171260000Y-53778500D03*
D35*
X173260000Y-53778500D03*
X174260000Y-53778500D03*
X174760000Y-53778500D03*
X175760000Y-53778500D03*
D36*
X176960000Y-53778500D03*
X177760000Y-53778500D03*
D37*
X171620000Y-52333500D03*
X177400000Y-52333500D03*
D38*
X188530000Y-56924000D03*
D39*
X188530000Y-60424000D03*
D24*
X154559000Y-108966000D03*
X154559000Y-106426000D03*
X154559000Y-103886000D03*
X154559000Y-101346000D03*
X154559000Y-98806000D03*
X154559000Y-96266000D03*
X154559000Y-93726000D03*
X154559000Y-91186000D03*
X154559000Y-88646000D03*
X154559000Y-86106000D03*
X154559000Y-83566000D03*
X154559000Y-81026000D03*
X154559000Y-78486000D03*
X154559000Y-75946000D03*
X154559000Y-73406000D03*
X154559000Y-70866000D03*
X154559000Y-68326000D03*
D25*
X154559000Y-65786000D03*
D40*
X162293000Y-55753000D03*
X163843000Y-55753000D03*
D28*
X192328800Y-67018200D03*
X192328800Y-65468200D03*
D22*
X160515800Y-78028800D03*
X162165800Y-78028800D03*
D41*
X184734200Y-89157551D03*
X182854600Y-89157551D03*
X182854600Y-86407249D03*
X183794400Y-86407249D03*
X184734200Y-86407249D03*
D18*
X158813000Y-66200000D03*
X157163000Y-66200000D03*
D42*
X181168000Y-53340000D03*
X183068000Y-53340000D03*
D18*
X182562000Y-50419000D03*
X180912000Y-50419000D03*
D43*
X186639200Y-86702600D03*
X186639200Y-88252600D03*
D44*
X169545000Y-67310000D03*
D45*
X172257000Y-65405000D03*
X172257000Y-66675000D03*
X172257000Y-67945000D03*
X172257000Y-69215000D03*
X166833000Y-69215000D03*
X166833000Y-67945000D03*
X166833000Y-66675000D03*
X166833000Y-65405000D03*
D43*
X160655000Y-56235000D03*
X160655000Y-57785000D03*
D46*
X182118000Y-62085000D03*
X182118000Y-66185000D03*
D23*
X159724500Y-108394500D03*
X159724500Y-102425500D03*
D47*
X176354500Y-66487000D03*
X178229500Y-65537000D03*
X178229500Y-67437000D03*
D48*
X185560000Y-107061000D03*
X184010000Y-107061000D03*
D42*
X182844400Y-91135200D03*
X184744400Y-91135200D03*
D21*
X182118000Y-68785500D03*
X182118000Y-70660500D03*
D49*
X173863000Y-104140000D03*
D50*
X164363000Y-111640000D03*
X164363000Y-110370000D03*
X164363000Y-109100000D03*
X164363000Y-107830000D03*
X164363000Y-106560000D03*
X164363000Y-105290000D03*
X164363000Y-104020000D03*
X164363000Y-102750000D03*
X164363000Y-101480000D03*
X164363000Y-100210000D03*
X164363000Y-98940000D03*
X164363000Y-97670000D03*
X164363000Y-96400000D03*
X164363000Y-95130000D03*
D51*
X167148000Y-94130000D03*
X168418000Y-94130000D03*
X169688000Y-94130000D03*
X170958000Y-94130000D03*
X172228000Y-94130000D03*
X173498000Y-94130000D03*
X174768000Y-94130000D03*
X176038000Y-94130000D03*
X177308000Y-94130000D03*
X178578000Y-94130000D03*
D50*
X181363000Y-95130000D03*
X181363000Y-96400000D03*
X181363000Y-97670000D03*
X181363000Y-98940000D03*
X181363000Y-100210000D03*
X181363000Y-101480000D03*
X181363000Y-102750000D03*
X181363000Y-104020000D03*
X181363000Y-105290000D03*
X181363000Y-106560000D03*
X181363000Y-107830000D03*
X181363000Y-109100000D03*
X181363000Y-110370000D03*
X181363000Y-111640000D03*
D18*
X184670200Y-72491600D03*
X183020200Y-72491600D03*
D52*
X190224151Y-65862200D03*
X190224151Y-67741800D03*
X187473849Y-67741800D03*
X187473849Y-66802000D03*
X187473849Y-65862200D03*
D32*
X185862000Y-108966000D03*
X183962000Y-108966000D03*
D18*
X186753000Y-102158800D03*
X185103000Y-102158800D03*
D42*
X183047600Y-84378800D03*
X184947600Y-84378800D03*
D40*
X180962000Y-55245000D03*
X182512000Y-55245000D03*
D53*
X174879000Y-71181000D03*
X174879000Y-69281000D03*
D54*
X179156000Y-62755000D03*
X178506000Y-62755000D03*
X177856000Y-62755000D03*
X177206000Y-62755000D03*
X177206000Y-56879000D03*
X177856000Y-56879000D03*
X178506000Y-56879000D03*
X179156000Y-56879000D03*
D18*
X182562000Y-48768000D03*
X180912000Y-48768000D03*
D31*
X189230000Y-115062000D03*
D18*
X184848000Y-74041000D03*
X183198000Y-74041000D03*
D43*
X176784000Y-69697000D03*
X176784000Y-71247000D03*
D38*
X163096000Y-50800000D03*
D39*
X166596000Y-50800000D03*
D46*
X174498000Y-57132000D03*
X174498000Y-61232000D03*
D18*
X185025800Y-82397600D03*
X183375800Y-82397600D03*
D20*
X164211000Y-70675000D03*
X164211000Y-69025000D03*
D55*
X192557400Y-68620600D03*
X192557400Y-70520600D03*
D31*
X189230000Y-50038000D03*
D53*
X160401000Y-61976000D03*
X160401000Y-60076000D03*
D29*
X160883600Y-65497200D03*
X161533600Y-67497200D03*
X160233600Y-67497200D03*
D31*
X156564000Y-115062000D03*
D24*
X190906400Y-108946000D03*
X190906400Y-106406000D03*
X190906400Y-103866000D03*
X190906400Y-101326000D03*
X190906400Y-98786000D03*
X190906400Y-96246000D03*
X190906400Y-93706000D03*
X190906400Y-91166000D03*
X190906400Y-88626000D03*
X190906400Y-86086000D03*
X190906400Y-83546000D03*
X190906400Y-81006000D03*
X190906400Y-78466000D03*
X190906400Y-75926000D03*
D25*
X190906400Y-73386000D03*
D18*
X190880000Y-63754000D03*
X189230000Y-63754000D03*
D53*
X185115200Y-67294800D03*
X185115200Y-65394800D03*
M02*
