%TF.GenerationSoftware,KiCad,Pcbnew,(6.0.7)*%
%TF.CreationDate,2022-10-20T15:16:30+05:30*%
%TF.ProjectId,lornode,6c6f726e-6f64-4652-9e6b-696361645f70,rev?*%
%TF.SameCoordinates,Original*%
%TF.FileFunction,Drillmap*%
%TF.FilePolarity,Positive*%
%FSLAX45Y45*%
G04 Gerber Fmt 4.5, Leading zero omitted, Abs format (unit mm)*
G04 Created by KiCad (PCBNEW (6.0.7)) date 2022-10-20 15:16:30*
%MOMM*%
%LPD*%
G01*
G04 APERTURE LIST*
%ADD10C,0.200000*%
%ADD11C,0.070000*%
G04 APERTURE END LIST*
D10*
X15430500Y-4572000D02*
G75*
G03*
X15113000Y-4889500I0J-317500D01*
G01*
X15430500Y-4572000D02*
X19132834Y-4572986D01*
X15113986Y-11619514D02*
X15113000Y-4889500D01*
X15113986Y-11619514D02*
G75*
G03*
X15431486Y-11937014I317504J4D01*
G01*
X19450334Y-4890486D02*
G75*
G03*
X19132834Y-4572986I-317504J-4D01*
G01*
X19132834Y-11937014D02*
X15431486Y-11937014D01*
X19132834Y-11937014D02*
G75*
G03*
X19450334Y-11619514I-4J317504D01*
G01*
X19450334Y-4890486D02*
X19450334Y-11619514D01*
D11*
X17127000Y-5198350D02*
X17197000Y-5268350D01*
X17197000Y-5198350D02*
X17127000Y-5268350D01*
X17705000Y-5198350D02*
X17775000Y-5268350D01*
X17775000Y-5198350D02*
X17705000Y-5268350D01*
D10*
X15360619Y-12257490D02*
X15360619Y-12057490D01*
X15408238Y-12057490D01*
X15436809Y-12067014D01*
X15455857Y-12086061D01*
X15465381Y-12105109D01*
X15474905Y-12143204D01*
X15474905Y-12171775D01*
X15465381Y-12209871D01*
X15455857Y-12228918D01*
X15436809Y-12247966D01*
X15408238Y-12257490D01*
X15360619Y-12257490D01*
X15560619Y-12257490D02*
X15560619Y-12124156D01*
X15560619Y-12162252D02*
X15570143Y-12143204D01*
X15579667Y-12133680D01*
X15598714Y-12124156D01*
X15617762Y-12124156D01*
X15684428Y-12257490D02*
X15684428Y-12124156D01*
X15684428Y-12057490D02*
X15674905Y-12067014D01*
X15684428Y-12076537D01*
X15693952Y-12067014D01*
X15684428Y-12057490D01*
X15684428Y-12076537D01*
X15808238Y-12257490D02*
X15789190Y-12247966D01*
X15779667Y-12228918D01*
X15779667Y-12057490D01*
X15913000Y-12257490D02*
X15893952Y-12247966D01*
X15884428Y-12228918D01*
X15884428Y-12057490D01*
X16141571Y-12257490D02*
X16141571Y-12057490D01*
X16208238Y-12200347D01*
X16274905Y-12057490D01*
X16274905Y-12257490D01*
X16455857Y-12257490D02*
X16455857Y-12152728D01*
X16446333Y-12133680D01*
X16427286Y-12124156D01*
X16389190Y-12124156D01*
X16370143Y-12133680D01*
X16455857Y-12247966D02*
X16436809Y-12257490D01*
X16389190Y-12257490D01*
X16370143Y-12247966D01*
X16360619Y-12228918D01*
X16360619Y-12209871D01*
X16370143Y-12190823D01*
X16389190Y-12181299D01*
X16436809Y-12181299D01*
X16455857Y-12171775D01*
X16551095Y-12124156D02*
X16551095Y-12324156D01*
X16551095Y-12133680D02*
X16570143Y-12124156D01*
X16608238Y-12124156D01*
X16627286Y-12133680D01*
X16636809Y-12143204D01*
X16646333Y-12162252D01*
X16646333Y-12219394D01*
X16636809Y-12238442D01*
X16627286Y-12247966D01*
X16608238Y-12257490D01*
X16570143Y-12257490D01*
X16551095Y-12247966D01*
X16732048Y-12238442D02*
X16741571Y-12247966D01*
X16732048Y-12257490D01*
X16722524Y-12247966D01*
X16732048Y-12238442D01*
X16732048Y-12257490D01*
X16732048Y-12133680D02*
X16741571Y-12143204D01*
X16732048Y-12152728D01*
X16722524Y-12143204D01*
X16732048Y-12133680D01*
X16732048Y-12152728D01*
D11*
X15033000Y-12552014D02*
X15103000Y-12622014D01*
X15103000Y-12552014D02*
X15033000Y-12622014D01*
D10*
X15398714Y-12477490D02*
X15417762Y-12477490D01*
X15436809Y-12487014D01*
X15446333Y-12496537D01*
X15455857Y-12515585D01*
X15465381Y-12553680D01*
X15465381Y-12601299D01*
X15455857Y-12639394D01*
X15446333Y-12658442D01*
X15436809Y-12667966D01*
X15417762Y-12677490D01*
X15398714Y-12677490D01*
X15379667Y-12667966D01*
X15370143Y-12658442D01*
X15360619Y-12639394D01*
X15351095Y-12601299D01*
X15351095Y-12553680D01*
X15360619Y-12515585D01*
X15370143Y-12496537D01*
X15379667Y-12487014D01*
X15398714Y-12477490D01*
X15551095Y-12658442D02*
X15560619Y-12667966D01*
X15551095Y-12677490D01*
X15541571Y-12667966D01*
X15551095Y-12658442D01*
X15551095Y-12677490D01*
X15627286Y-12477490D02*
X15760619Y-12477490D01*
X15674905Y-12677490D01*
X15874905Y-12477490D02*
X15893952Y-12477490D01*
X15913000Y-12487014D01*
X15922524Y-12496537D01*
X15932048Y-12515585D01*
X15941571Y-12553680D01*
X15941571Y-12601299D01*
X15932048Y-12639394D01*
X15922524Y-12658442D01*
X15913000Y-12667966D01*
X15893952Y-12677490D01*
X15874905Y-12677490D01*
X15855857Y-12667966D01*
X15846333Y-12658442D01*
X15836809Y-12639394D01*
X15827286Y-12601299D01*
X15827286Y-12553680D01*
X15836809Y-12515585D01*
X15846333Y-12496537D01*
X15855857Y-12487014D01*
X15874905Y-12477490D01*
X16065381Y-12477490D02*
X16084428Y-12477490D01*
X16103476Y-12487014D01*
X16113000Y-12496537D01*
X16122524Y-12515585D01*
X16132048Y-12553680D01*
X16132048Y-12601299D01*
X16122524Y-12639394D01*
X16113000Y-12658442D01*
X16103476Y-12667966D01*
X16084428Y-12677490D01*
X16065381Y-12677490D01*
X16046333Y-12667966D01*
X16036809Y-12658442D01*
X16027286Y-12639394D01*
X16017762Y-12601299D01*
X16017762Y-12553680D01*
X16027286Y-12515585D01*
X16036809Y-12496537D01*
X16046333Y-12487014D01*
X16065381Y-12477490D01*
X16217762Y-12677490D02*
X16217762Y-12544156D01*
X16217762Y-12563204D02*
X16227286Y-12553680D01*
X16246333Y-12544156D01*
X16274905Y-12544156D01*
X16293952Y-12553680D01*
X16303476Y-12572728D01*
X16303476Y-12677490D01*
X16303476Y-12572728D02*
X16313000Y-12553680D01*
X16332048Y-12544156D01*
X16360619Y-12544156D01*
X16379667Y-12553680D01*
X16389190Y-12572728D01*
X16389190Y-12677490D01*
X16484428Y-12677490D02*
X16484428Y-12544156D01*
X16484428Y-12563204D02*
X16493952Y-12553680D01*
X16513000Y-12544156D01*
X16541571Y-12544156D01*
X16560619Y-12553680D01*
X16570143Y-12572728D01*
X16570143Y-12677490D01*
X16570143Y-12572728D02*
X16579667Y-12553680D01*
X16598714Y-12544156D01*
X16627286Y-12544156D01*
X16646333Y-12553680D01*
X16655857Y-12572728D01*
X16655857Y-12677490D01*
X17046333Y-12467966D02*
X16874905Y-12725109D01*
X17303476Y-12477490D02*
X17322524Y-12477490D01*
X17341571Y-12487014D01*
X17351095Y-12496537D01*
X17360619Y-12515585D01*
X17370143Y-12553680D01*
X17370143Y-12601299D01*
X17360619Y-12639394D01*
X17351095Y-12658442D01*
X17341571Y-12667966D01*
X17322524Y-12677490D01*
X17303476Y-12677490D01*
X17284429Y-12667966D01*
X17274905Y-12658442D01*
X17265381Y-12639394D01*
X17255857Y-12601299D01*
X17255857Y-12553680D01*
X17265381Y-12515585D01*
X17274905Y-12496537D01*
X17284429Y-12487014D01*
X17303476Y-12477490D01*
X17455857Y-12658442D02*
X17465381Y-12667966D01*
X17455857Y-12677490D01*
X17446333Y-12667966D01*
X17455857Y-12658442D01*
X17455857Y-12677490D01*
X17589190Y-12477490D02*
X17608238Y-12477490D01*
X17627286Y-12487014D01*
X17636810Y-12496537D01*
X17646333Y-12515585D01*
X17655857Y-12553680D01*
X17655857Y-12601299D01*
X17646333Y-12639394D01*
X17636810Y-12658442D01*
X17627286Y-12667966D01*
X17608238Y-12677490D01*
X17589190Y-12677490D01*
X17570143Y-12667966D01*
X17560619Y-12658442D01*
X17551095Y-12639394D01*
X17541571Y-12601299D01*
X17541571Y-12553680D01*
X17551095Y-12515585D01*
X17560619Y-12496537D01*
X17570143Y-12487014D01*
X17589190Y-12477490D01*
X17732048Y-12496537D02*
X17741571Y-12487014D01*
X17760619Y-12477490D01*
X17808238Y-12477490D01*
X17827286Y-12487014D01*
X17836810Y-12496537D01*
X17846333Y-12515585D01*
X17846333Y-12534633D01*
X17836810Y-12563204D01*
X17722524Y-12677490D01*
X17846333Y-12677490D01*
X17913000Y-12477490D02*
X18046333Y-12477490D01*
X17960619Y-12677490D01*
X18208238Y-12477490D02*
X18170143Y-12477490D01*
X18151095Y-12487014D01*
X18141571Y-12496537D01*
X18122524Y-12525109D01*
X18113000Y-12563204D01*
X18113000Y-12639394D01*
X18122524Y-12658442D01*
X18132048Y-12667966D01*
X18151095Y-12677490D01*
X18189190Y-12677490D01*
X18208238Y-12667966D01*
X18217762Y-12658442D01*
X18227286Y-12639394D01*
X18227286Y-12591775D01*
X18217762Y-12572728D01*
X18208238Y-12563204D01*
X18189190Y-12553680D01*
X18151095Y-12553680D01*
X18132048Y-12563204D01*
X18122524Y-12572728D01*
X18113000Y-12591775D01*
X18303476Y-12477490D02*
X18303476Y-12515585D01*
X18379667Y-12477490D02*
X18379667Y-12515585D01*
X18674905Y-12753680D02*
X18665381Y-12744156D01*
X18646333Y-12715585D01*
X18636810Y-12696537D01*
X18627286Y-12667966D01*
X18617762Y-12620347D01*
X18617762Y-12582252D01*
X18627286Y-12534633D01*
X18636810Y-12506061D01*
X18646333Y-12487014D01*
X18665381Y-12458442D01*
X18674905Y-12448918D01*
X18741571Y-12496537D02*
X18751095Y-12487014D01*
X18770143Y-12477490D01*
X18817762Y-12477490D01*
X18836810Y-12487014D01*
X18846333Y-12496537D01*
X18855857Y-12515585D01*
X18855857Y-12534633D01*
X18846333Y-12563204D01*
X18732048Y-12677490D01*
X18855857Y-12677490D01*
X19093952Y-12677490D02*
X19093952Y-12477490D01*
X19179667Y-12677490D02*
X19179667Y-12572728D01*
X19170143Y-12553680D01*
X19151095Y-12544156D01*
X19122524Y-12544156D01*
X19103476Y-12553680D01*
X19093952Y-12563204D01*
X19303476Y-12677490D02*
X19284429Y-12667966D01*
X19274905Y-12658442D01*
X19265381Y-12639394D01*
X19265381Y-12582252D01*
X19274905Y-12563204D01*
X19284429Y-12553680D01*
X19303476Y-12544156D01*
X19332048Y-12544156D01*
X19351095Y-12553680D01*
X19360619Y-12563204D01*
X19370143Y-12582252D01*
X19370143Y-12639394D01*
X19360619Y-12658442D01*
X19351095Y-12667966D01*
X19332048Y-12677490D01*
X19303476Y-12677490D01*
X19484429Y-12677490D02*
X19465381Y-12667966D01*
X19455857Y-12648918D01*
X19455857Y-12477490D01*
X19636810Y-12667966D02*
X19617762Y-12677490D01*
X19579667Y-12677490D01*
X19560619Y-12667966D01*
X19551095Y-12648918D01*
X19551095Y-12572728D01*
X19560619Y-12553680D01*
X19579667Y-12544156D01*
X19617762Y-12544156D01*
X19636810Y-12553680D01*
X19646333Y-12572728D01*
X19646333Y-12591775D01*
X19551095Y-12610823D01*
X19722524Y-12667966D02*
X19741571Y-12677490D01*
X19779667Y-12677490D01*
X19798714Y-12667966D01*
X19808238Y-12648918D01*
X19808238Y-12639394D01*
X19798714Y-12620347D01*
X19779667Y-12610823D01*
X19751095Y-12610823D01*
X19732048Y-12601299D01*
X19722524Y-12582252D01*
X19722524Y-12572728D01*
X19732048Y-12553680D01*
X19751095Y-12544156D01*
X19779667Y-12544156D01*
X19798714Y-12553680D01*
X19874905Y-12753680D02*
X19884429Y-12744156D01*
X19903476Y-12715585D01*
X19913000Y-12696537D01*
X19922524Y-12667966D01*
X19932048Y-12620347D01*
X19932048Y-12582252D01*
X19922524Y-12534633D01*
X19913000Y-12506061D01*
X19903476Y-12487014D01*
X19884429Y-12458442D01*
X19874905Y-12448918D01*
X20236810Y-12753680D02*
X20227286Y-12744156D01*
X20208238Y-12715585D01*
X20198714Y-12696537D01*
X20189190Y-12667966D01*
X20179667Y-12620347D01*
X20179667Y-12582252D01*
X20189190Y-12534633D01*
X20198714Y-12506061D01*
X20208238Y-12487014D01*
X20227286Y-12458442D01*
X20236810Y-12448918D01*
X20313000Y-12544156D02*
X20313000Y-12677490D01*
X20313000Y-12563204D02*
X20322524Y-12553680D01*
X20341571Y-12544156D01*
X20370143Y-12544156D01*
X20389190Y-12553680D01*
X20398714Y-12572728D01*
X20398714Y-12677490D01*
X20522524Y-12677490D02*
X20503476Y-12667966D01*
X20493952Y-12658442D01*
X20484429Y-12639394D01*
X20484429Y-12582252D01*
X20493952Y-12563204D01*
X20503476Y-12553680D01*
X20522524Y-12544156D01*
X20551095Y-12544156D01*
X20570143Y-12553680D01*
X20579667Y-12563204D01*
X20589190Y-12582252D01*
X20589190Y-12639394D01*
X20579667Y-12658442D01*
X20570143Y-12667966D01*
X20551095Y-12677490D01*
X20522524Y-12677490D01*
X20646333Y-12544156D02*
X20722524Y-12544156D01*
X20674905Y-12477490D02*
X20674905Y-12648918D01*
X20684429Y-12667966D01*
X20703476Y-12677490D01*
X20722524Y-12677490D01*
X20941571Y-12544156D02*
X20941571Y-12744156D01*
X20941571Y-12553680D02*
X20960619Y-12544156D01*
X20998714Y-12544156D01*
X21017762Y-12553680D01*
X21027286Y-12563204D01*
X21036810Y-12582252D01*
X21036810Y-12639394D01*
X21027286Y-12658442D01*
X21017762Y-12667966D01*
X20998714Y-12677490D01*
X20960619Y-12677490D01*
X20941571Y-12667966D01*
X21151095Y-12677490D02*
X21132048Y-12667966D01*
X21122524Y-12648918D01*
X21122524Y-12477490D01*
X21313000Y-12677490D02*
X21313000Y-12572728D01*
X21303476Y-12553680D01*
X21284429Y-12544156D01*
X21246333Y-12544156D01*
X21227286Y-12553680D01*
X21313000Y-12667966D02*
X21293952Y-12677490D01*
X21246333Y-12677490D01*
X21227286Y-12667966D01*
X21217762Y-12648918D01*
X21217762Y-12629871D01*
X21227286Y-12610823D01*
X21246333Y-12601299D01*
X21293952Y-12601299D01*
X21313000Y-12591775D01*
X21379667Y-12544156D02*
X21455857Y-12544156D01*
X21408238Y-12477490D02*
X21408238Y-12648918D01*
X21417762Y-12667966D01*
X21436810Y-12677490D01*
X21455857Y-12677490D01*
X21598714Y-12667966D02*
X21579667Y-12677490D01*
X21541571Y-12677490D01*
X21522524Y-12667966D01*
X21513000Y-12648918D01*
X21513000Y-12572728D01*
X21522524Y-12553680D01*
X21541571Y-12544156D01*
X21579667Y-12544156D01*
X21598714Y-12553680D01*
X21608238Y-12572728D01*
X21608238Y-12591775D01*
X21513000Y-12610823D01*
X21779667Y-12677490D02*
X21779667Y-12477490D01*
X21779667Y-12667966D02*
X21760619Y-12677490D01*
X21722524Y-12677490D01*
X21703476Y-12667966D01*
X21693952Y-12658442D01*
X21684429Y-12639394D01*
X21684429Y-12582252D01*
X21693952Y-12563204D01*
X21703476Y-12553680D01*
X21722524Y-12544156D01*
X21760619Y-12544156D01*
X21779667Y-12553680D01*
X21855857Y-12753680D02*
X21865381Y-12744156D01*
X21884429Y-12715585D01*
X21893952Y-12696537D01*
X21903476Y-12667966D01*
X21913000Y-12620347D01*
X21913000Y-12582252D01*
X21903476Y-12534633D01*
X21893952Y-12506061D01*
X21884429Y-12487014D01*
X21865381Y-12458442D01*
X21855857Y-12448918D01*
M02*
