M48
; DRILL file {KiCad (6.0.2)} date Mon May 30 23:42:19 2022
; FORMAT={-:-/ absolute / metric / decimal}
; #@! TF.CreationDate,2022-05-30T23:42:19+05:30
; #@! TF.GenerationSoftware,Kicad,Pcbnew,(6.0.2)
; #@! TF.FileFunction,Plated,1,4,PTH
FMAT,2
METRIC
; #@! TA.AperFunction,Plated,PTH,ViaDrill
T1C0.300
; #@! TA.AperFunction,Plated,PTH,ComponentDrill
T2C0.650
; #@! TA.AperFunction,Plated,PTH,ComponentDrill
T3C1.000
; #@! TA.AperFunction,Plated,PTH,ComponentDrill
T4C1.200
; #@! TA.AperFunction,Plated,PTH,ComponentDrill
T5C3.200
%
G90
G05
T1
X53.2Y-123.375
X53.225Y-125.175
X53.938Y-106.562
X54.1Y-108.225
X56.525Y-113.35
X56.65Y-119.175
X56.775Y-121.225
X56.8Y-116.475
X58.475Y-104.875
X59.025Y-103.975
X59.2Y-95.25
X59.375Y-96.875
X59.475Y-124.7
X59.575Y-68.125
X59.875Y-106.9
X59.925Y-114.55
X59.95Y-92.275
X60.175Y-103.075
X60.275Y-126.825
X60.275Y-129.175
X60.55Y-105.45
X60.675Y-89.325
X61.3Y-126.85
X61.3Y-129.2
X61.575Y-104.475
X61.675Y-105.375
X61.775Y-93.3
X62.0Y-91.45
X62.0Y-116.725
X62.05Y-114.55
X62.55Y-126.85
X62.55Y-129.2
X62.725Y-98.125
X62.825Y-124.75
X63.225Y-79.5
X63.275Y-80.5
X63.525Y-110.775
X63.55Y-107.725
X63.825Y-126.875
X63.825Y-129.225
X63.85Y-119.175
X64.125Y-79.5
X64.175Y-80.5
X64.525Y-74.9
X64.525Y-114.55
X64.55Y-108.625
X64.6Y-116.7
X64.875Y-92.275
X65.075Y-126.925
X65.075Y-129.275
X65.15Y-124.9
X65.35Y-105.725
X66.4Y-112.1
X66.45Y-114.25
X66.65Y-73.65
X66.725Y-105.275
X66.975Y-95.375
X67.0Y-97.85
X67.3Y-73.0
X67.9Y-72.4
X68.725Y-117.3
X68.775Y-115.2
X68.9Y-121.4
X68.95Y-119.35
X69.0Y-81.5
X69.15Y-123.25
X69.9Y-67.0
X70.675Y-97.05
X70.75Y-81.5
X70.8Y-67.0
X70.825Y-98.125
X71.175Y-94.3
X71.275Y-102.1
X71.35Y-84.475
X71.45Y-106.375
X71.8Y-67.0
X72.2Y-109.6
X72.275Y-107.3
X72.35Y-108.525
X72.5Y-116.025
X72.9Y-103.7
X73.1Y-102.0
X73.25Y-70.0
X73.5Y-69.0
X74.25Y-70.0
X74.3Y-102.0
X74.35Y-103.4
X74.8Y-95.425
X74.825Y-94.225
X75.275Y-97.375
X75.4Y-102.0
X75.5Y-81.5
X75.5Y-103.75
X75.725Y-96.4
X75.825Y-91.225
X76.1Y-105.75
X76.3Y-108.025
X76.35Y-115.4
X76.475Y-93.85
X76.5Y-110.125
X76.6Y-97.45
X77.0Y-81.5
X79.0Y-79.0
X79.625Y-84.925
X80.0Y-80.25
X80.1Y-76.575
X80.125Y-77.825
X80.175Y-79.1
X82.1Y-110.1
X83.475Y-119.85
X83.5Y-115.625
X83.7Y-89.85
X83.85Y-83.325
X83.925Y-95.25
X85.875Y-116.975
X85.95Y-118.975
X86.3Y-105.85
X86.375Y-111.749
X86.45Y-109.875
X86.525Y-113.9
X87.0Y-73.025
X87.15Y-107.125
X87.15Y-115.025
X87.375Y-109.075
X87.45Y-111.0
X87.7Y-100.7
X87.75Y-75.21
X87.8Y-98.4
X87.85Y-92.2
X88.775Y-102.675
X89.175Y-87.1
X89.5Y-78.725
X89.592Y-80.643
X90.0Y-91.85
X90.05Y-90.25
X93.57Y-79.79
X93.57Y-86.67
X93.85Y-75.325
X97.725Y-122.975
X97.925Y-90.825
T2
X82.54Y-99.325
X82.54Y-100.595
X83.81Y-99.325
X83.81Y-100.595
X85.08Y-99.325
X85.08Y-100.595
X86.35Y-99.325
X86.35Y-100.595
T3
X48.7Y-106.025
X48.7Y-108.565
X48.7Y-111.105
X48.7Y-113.645
X48.7Y-116.185
X48.7Y-118.725
X48.7Y-121.265
X48.7Y-123.805
X51.24Y-106.025
X51.24Y-108.565
X51.24Y-111.105
X51.24Y-113.645
X51.24Y-116.185
X51.24Y-118.725
X51.24Y-121.265
X51.24Y-123.805
X56.075Y-101.435
X56.075Y-103.975
X68.43Y-75.21
X68.43Y-77.75
X70.97Y-75.21
X70.97Y-77.75
X73.325Y-84.275
X73.51Y-75.21
X73.51Y-77.75
X75.865Y-84.275
X76.05Y-75.21
X76.05Y-77.75
X87.15Y-94.225
X89.69Y-94.225
X93.475Y-95.5
X93.475Y-98.04
X93.475Y-100.58
X93.475Y-103.12
X93.475Y-105.66
X93.475Y-108.2
X93.475Y-110.74
X93.475Y-113.28
X93.475Y-115.82
X93.475Y-118.36
X93.475Y-120.9
X93.475Y-123.44
X93.475Y-125.98
X96.015Y-95.5
X96.015Y-98.04
X96.015Y-100.58
X96.015Y-103.12
X96.015Y-105.66
X96.015Y-108.2
X96.015Y-110.74
X96.015Y-113.28
X96.015Y-115.82
X96.015Y-118.36
X96.015Y-120.9
X96.015Y-123.44
X96.015Y-125.98
T4
X51.125Y-78.17
X51.125Y-81.67
X93.5Y-68.35
X93.5Y-71.85
T5
X50.25Y-131.375
X50.475Y-68.85
X94.975Y-131.7
T2
X78.68Y-67.438G85X78.68Y-66.837
G05
X78.68Y-71.867G85X78.68Y-70.767
G05
X87.32Y-67.438G85X87.32Y-66.837
G05
X87.32Y-71.867G85X87.32Y-70.767
G05
T0
M30
