G04 #@! TF.GenerationSoftware,KiCad,Pcbnew,(6.0.2)*
G04 #@! TF.CreationDate,2022-05-30T23:42:17+05:30*
G04 #@! TF.ProjectId,esp_lora_iot,6573705f-6c6f-4726-915f-696f742e6b69,rev?*
G04 #@! TF.SameCoordinates,Original*
G04 #@! TF.FileFunction,Paste,Top*
G04 #@! TF.FilePolarity,Positive*
%FSLAX46Y46*%
G04 Gerber Fmt 4.6, Leading zero omitted, Abs format (unit mm)*
G04 Created by KiCad (PCBNEW (6.0.2)) date 2022-05-30 23:42:17*
%MOMM*%
%LPD*%
G01*
G04 APERTURE LIST*
G04 Aperture macros list*
%AMRoundRect*
0 Rectangle with rounded corners*
0 $1 Rounding radius*
0 $2 $3 $4 $5 $6 $7 $8 $9 X,Y pos of 4 corners*
0 Add a 4 corners polygon primitive as box body*
4,1,4,$2,$3,$4,$5,$6,$7,$8,$9,$2,$3,0*
0 Add four circle primitives for the rounded corners*
1,1,$1+$1,$2,$3*
1,1,$1+$1,$4,$5*
1,1,$1+$1,$6,$7*
1,1,$1+$1,$8,$9*
0 Add four rect primitives between the rounded corners*
20,1,$1+$1,$2,$3,$4,$5,0*
20,1,$1+$1,$4,$5,$6,$7,0*
20,1,$1+$1,$6,$7,$8,$9,0*
20,1,$1+$1,$8,$9,$2,$3,0*%
G04 Aperture macros list end*
%ADD10RoundRect,0.225000X-0.225000X-0.250000X0.225000X-0.250000X0.225000X0.250000X-0.225000X0.250000X0*%
%ADD11R,2.500000X1.000000*%
%ADD12R,1.000000X1.800000*%
%ADD13RoundRect,0.200000X0.275000X-0.200000X0.275000X0.200000X-0.275000X0.200000X-0.275000X-0.200000X0*%
%ADD14RoundRect,0.225000X0.225000X0.250000X-0.225000X0.250000X-0.225000X-0.250000X0.225000X-0.250000X0*%
%ADD15R,0.300000X0.850000*%
%ADD16R,1.600000X1.500000*%
%ADD17RoundRect,0.200000X-0.200000X-0.275000X0.200000X-0.275000X0.200000X0.275000X-0.200000X0.275000X0*%
%ADD18RoundRect,0.200000X0.200000X0.275000X-0.200000X0.275000X-0.200000X-0.275000X0.200000X-0.275000X0*%
%ADD19RoundRect,0.225000X0.250000X-0.225000X0.250000X0.225000X-0.250000X0.225000X-0.250000X-0.225000X0*%
%ADD20R,2.250000X1.600000*%
%ADD21RoundRect,0.250000X0.250000X0.475000X-0.250000X0.475000X-0.250000X-0.475000X0.250000X-0.475000X0*%
%ADD22RoundRect,0.243750X-0.243750X-0.456250X0.243750X-0.456250X0.243750X0.456250X-0.243750X0.456250X0*%
%ADD23R,1.200000X0.600000*%
%ADD24RoundRect,0.150000X-0.150000X0.512500X-0.150000X-0.512500X0.150000X-0.512500X0.150000X0.512500X0*%
%ADD25RoundRect,0.200000X-0.275000X0.200000X-0.275000X-0.200000X0.275000X-0.200000X0.275000X0.200000X0*%
%ADD26R,0.600000X1.450000*%
%ADD27R,0.300000X1.450000*%
%ADD28RoundRect,0.150000X-0.587500X-0.150000X0.587500X-0.150000X0.587500X0.150000X-0.587500X0.150000X0*%
%ADD29RoundRect,0.243750X0.243750X0.456250X-0.243750X0.456250X-0.243750X-0.456250X0.243750X-0.456250X0*%
%ADD30RoundRect,0.250000X-0.250000X-0.475000X0.250000X-0.475000X0.250000X0.475000X-0.250000X0.475000X0*%
%ADD31R,2.000000X1.500000*%
%ADD32RoundRect,0.150000X-0.825000X-0.150000X0.825000X-0.150000X0.825000X0.150000X-0.825000X0.150000X0*%
%ADD33R,1.550000X1.300000*%
%ADD34RoundRect,0.250000X-0.475000X0.250000X-0.475000X-0.250000X0.475000X-0.250000X0.475000X0.250000X0*%
%ADD35R,1.525000X0.700000*%
%ADD36R,2.513000X3.402000*%
%ADD37R,5.500000X2.150000*%
%ADD38R,0.450000X0.700000*%
%ADD39R,0.700000X0.450000*%
%ADD40R,1.475000X0.450000*%
G04 APERTURE END LIST*
D10*
X60575000Y-96875000D03*
X62125000Y-96875000D03*
D11*
X89425000Y-118975000D03*
X89425000Y-116975000D03*
X89425000Y-114975000D03*
X89425000Y-112975000D03*
X89425000Y-110975000D03*
X89425000Y-108975000D03*
X89425000Y-106975000D03*
X89425000Y-104975000D03*
D12*
X86825000Y-103475000D03*
X84825000Y-103475000D03*
X82825000Y-103475000D03*
X80825000Y-103475000D03*
X78825000Y-103475000D03*
X76825000Y-103475000D03*
D11*
X74225000Y-104975000D03*
X74225000Y-106975000D03*
X74225000Y-108975000D03*
X74225000Y-110975000D03*
X74225000Y-112975000D03*
X74225000Y-114975000D03*
X74225000Y-116975000D03*
X74225000Y-118975000D03*
D13*
X59475000Y-91075000D03*
X59475000Y-89425000D03*
D14*
X56800000Y-108225000D03*
X55250000Y-108225000D03*
D15*
X64175000Y-90650000D03*
X63675000Y-90650000D03*
X63175000Y-90650000D03*
X62675000Y-90650000D03*
X62675000Y-93550000D03*
X63175000Y-93550000D03*
X63675000Y-93550000D03*
X64175000Y-93550000D03*
D16*
X63425000Y-92100000D03*
D17*
X73850000Y-80500000D03*
X75500000Y-80500000D03*
D18*
X72325000Y-80500000D03*
X70675000Y-80500000D03*
D19*
X89000000Y-75550000D03*
X89000000Y-74000000D03*
D20*
X62500000Y-83900000D03*
X66600000Y-83900000D03*
D17*
X95675000Y-92525000D03*
X97325000Y-92525000D03*
D20*
X59550000Y-87000000D03*
X55450000Y-87000000D03*
D13*
X72225000Y-95300000D03*
X72225000Y-93650000D03*
D21*
X73700000Y-97075000D03*
X71800000Y-97075000D03*
D22*
X75412500Y-98800000D03*
X77287500Y-98800000D03*
D23*
X62750000Y-77200000D03*
X62750000Y-76250000D03*
X62750000Y-75300000D03*
X60250000Y-75300000D03*
X60250000Y-76250000D03*
X60250000Y-77200000D03*
D18*
X63950000Y-71600000D03*
X62300000Y-71600000D03*
D24*
X75750000Y-92787500D03*
X74800000Y-92787500D03*
X73850000Y-92787500D03*
X73850000Y-95062500D03*
X75750000Y-95062500D03*
D18*
X75325000Y-72000000D03*
X73675000Y-72000000D03*
D25*
X61125000Y-90600000D03*
X61125000Y-92250000D03*
D26*
X86250000Y-72232500D03*
X85450000Y-72232500D03*
D27*
X84250000Y-72232500D03*
X83250000Y-72232500D03*
X82750000Y-72232500D03*
X81750000Y-72232500D03*
D26*
X79750000Y-72232500D03*
X80550000Y-72232500D03*
D27*
X81250000Y-72232500D03*
X82250000Y-72232500D03*
X83750000Y-72232500D03*
X84750000Y-72232500D03*
D17*
X67425000Y-80500000D03*
X69075000Y-80500000D03*
D28*
X57862500Y-82650000D03*
X57862500Y-84550000D03*
X59737500Y-83600000D03*
D29*
X60437500Y-72425000D03*
X58562500Y-72425000D03*
D21*
X79600000Y-96650000D03*
X77700000Y-96650000D03*
D13*
X83775000Y-92725000D03*
X83775000Y-91075000D03*
D18*
X60625000Y-93650000D03*
X58975000Y-93650000D03*
D30*
X63925000Y-97675000D03*
X65825000Y-97675000D03*
D19*
X79650000Y-83750000D03*
X79650000Y-82200000D03*
D17*
X94975000Y-90875000D03*
X96625000Y-90875000D03*
D31*
X54850000Y-111300000D03*
X54850000Y-113300000D03*
X54850000Y-115300000D03*
X54850000Y-117300000D03*
X54850000Y-119300000D03*
X54850000Y-121300000D03*
X54850000Y-123300000D03*
X54850000Y-125300000D03*
X70850000Y-125300000D03*
X70850000Y-123300000D03*
X70850000Y-121300000D03*
X70850000Y-119300000D03*
X70850000Y-117300000D03*
X70850000Y-115300000D03*
X70850000Y-113300000D03*
X70850000Y-111300000D03*
D17*
X60525000Y-95250000D03*
X62175000Y-95250000D03*
D21*
X90425000Y-99650000D03*
X88525000Y-99650000D03*
D30*
X49650000Y-85000000D03*
X51550000Y-85000000D03*
D32*
X81925000Y-76580000D03*
X81925000Y-77850000D03*
X81925000Y-79120000D03*
X81925000Y-80390000D03*
X81925000Y-81660000D03*
X81925000Y-82930000D03*
X81925000Y-84200000D03*
X81925000Y-85470000D03*
X86875000Y-85470000D03*
X86875000Y-84200000D03*
X86875000Y-82930000D03*
X86875000Y-81660000D03*
X86875000Y-80390000D03*
X86875000Y-79120000D03*
X86875000Y-77850000D03*
X86875000Y-76580000D03*
D18*
X87575000Y-90920000D03*
X85925000Y-90920000D03*
D17*
X68775000Y-83000000D03*
X70425000Y-83000000D03*
D13*
X69725000Y-105125000D03*
X69725000Y-103475000D03*
D21*
X63025000Y-68175000D03*
X61125000Y-68175000D03*
D33*
X97475000Y-84150000D03*
X89525000Y-84150000D03*
X97475000Y-88650000D03*
X89525000Y-88650000D03*
D14*
X90375000Y-101450000D03*
X88825000Y-101450000D03*
D25*
X68050000Y-103450000D03*
X68050000Y-105100000D03*
D30*
X90675000Y-75300000D03*
X92575000Y-75300000D03*
D25*
X89575000Y-128550000D03*
X89575000Y-130200000D03*
D18*
X63950000Y-70025000D03*
X62300000Y-70025000D03*
D34*
X64150000Y-87000000D03*
X64150000Y-88900000D03*
D17*
X82250000Y-94275000D03*
X83900000Y-94275000D03*
D13*
X66325000Y-108225000D03*
X66325000Y-106575000D03*
D35*
X71912000Y-71805000D03*
X71912000Y-70535000D03*
X71912000Y-69265000D03*
X71912000Y-67995000D03*
X66488000Y-67995000D03*
X66488000Y-69265000D03*
X66488000Y-70535000D03*
X66488000Y-71805000D03*
D36*
X69200000Y-69900000D03*
D13*
X89550000Y-133275000D03*
X89550000Y-131625000D03*
X71425000Y-105150000D03*
X71425000Y-103500000D03*
D37*
X79800000Y-88225000D03*
X79800000Y-92075000D03*
D18*
X80425000Y-98575000D03*
X78775000Y-98575000D03*
D25*
X78750000Y-76175000D03*
X78750000Y-77825000D03*
D18*
X58450000Y-74225000D03*
X56800000Y-74225000D03*
D17*
X85050000Y-74250000D03*
X86700000Y-74250000D03*
D38*
X86300000Y-89000000D03*
X87600000Y-89000000D03*
X86950000Y-87000000D03*
D29*
X60462500Y-70350000D03*
X58587500Y-70350000D03*
D39*
X89050000Y-90400000D03*
X89050000Y-91700000D03*
X91050000Y-91050000D03*
D34*
X62050000Y-87000000D03*
X62050000Y-88900000D03*
D22*
X67712500Y-96600000D03*
X69587500Y-96600000D03*
D18*
X56850000Y-106600000D03*
X55200000Y-106600000D03*
D40*
X55812000Y-79025000D03*
X55812000Y-79675000D03*
X55812000Y-80325000D03*
X55812000Y-80975000D03*
X61688000Y-80975000D03*
X61688000Y-80325000D03*
X61688000Y-79675000D03*
X61688000Y-79025000D03*
D25*
X67950000Y-106550000D03*
X67950000Y-108200000D03*
D33*
X89525000Y-77525000D03*
X97475000Y-77525000D03*
X97475000Y-82025000D03*
X89525000Y-82025000D03*
D30*
X63925000Y-95450000D03*
X65825000Y-95450000D03*
D13*
X92650000Y-92750000D03*
X92650000Y-91100000D03*
D17*
X67400000Y-94225000D03*
X69050000Y-94225000D03*
D18*
X78750000Y-80500000D03*
X77100000Y-80500000D03*
D14*
X58400000Y-75775000D03*
X56850000Y-75775000D03*
D21*
X79575000Y-94550000D03*
X77675000Y-94550000D03*
D37*
X68500000Y-87625000D03*
X68500000Y-91475000D03*
D17*
X62275000Y-73600000D03*
X63925000Y-73600000D03*
D39*
X62550000Y-107125000D03*
X62550000Y-108425000D03*
X64550000Y-107775000D03*
D18*
X80650000Y-74250000D03*
X79000000Y-74250000D03*
D30*
X58925000Y-108100000D03*
X60825000Y-108100000D03*
M02*
