G04 #@! TF.GenerationSoftware,KiCad,Pcbnew,(6.0.7)*
G04 #@! TF.CreationDate,2022-10-10T16:15:31+05:30*
G04 #@! TF.ProjectId,esp_lora_iot,6573705f-6c6f-4726-915f-696f742e6b69,rev?*
G04 #@! TF.SameCoordinates,Original*
G04 #@! TF.FileFunction,Paste,Top*
G04 #@! TF.FilePolarity,Positive*
%FSLAX46Y46*%
G04 Gerber Fmt 4.6, Leading zero omitted, Abs format (unit mm)*
G04 Created by KiCad (PCBNEW (6.0.7)) date 2022-10-10 16:15:31*
%MOMM*%
%LPD*%
G01*
G04 APERTURE LIST*
G04 Aperture macros list*
%AMRoundRect*
0 Rectangle with rounded corners*
0 $1 Rounding radius*
0 $2 $3 $4 $5 $6 $7 $8 $9 X,Y pos of 4 corners*
0 Add a 4 corners polygon primitive as box body*
4,1,4,$2,$3,$4,$5,$6,$7,$8,$9,$2,$3,0*
0 Add four circle primitives for the rounded corners*
1,1,$1+$1,$2,$3*
1,1,$1+$1,$4,$5*
1,1,$1+$1,$6,$7*
1,1,$1+$1,$8,$9*
0 Add four rect primitives between the rounded corners*
20,1,$1+$1,$2,$3,$4,$5,0*
20,1,$1+$1,$4,$5,$6,$7,0*
20,1,$1+$1,$6,$7,$8,$9,0*
20,1,$1+$1,$8,$9,$2,$3,0*%
G04 Aperture macros list end*
%ADD10R,0.600000X1.200000*%
%ADD11RoundRect,0.200000X-0.200000X-0.275000X0.200000X-0.275000X0.200000X0.275000X-0.200000X0.275000X0*%
%ADD12R,0.700000X0.450000*%
%ADD13RoundRect,0.200000X-0.275000X0.200000X-0.275000X-0.200000X0.275000X-0.200000X0.275000X0.200000X0*%
%ADD14RoundRect,0.243750X0.456250X-0.243750X0.456250X0.243750X-0.456250X0.243750X-0.456250X-0.243750X0*%
%ADD15RoundRect,0.200000X0.200000X0.275000X-0.200000X0.275000X-0.200000X-0.275000X0.200000X-0.275000X0*%
%ADD16R,1.000000X2.000000*%
%ADD17R,1.500000X2.000000*%
%ADD18RoundRect,0.200000X0.275000X-0.200000X0.275000X0.200000X-0.275000X0.200000X-0.275000X-0.200000X0*%
%ADD19RoundRect,0.225000X-0.250000X0.225000X-0.250000X-0.225000X0.250000X-0.225000X0.250000X0.225000X0*%
%ADD20R,0.450000X0.700000*%
%ADD21R,1.000000X1.500000*%
%ADD22RoundRect,0.250000X-0.250000X-0.475000X0.250000X-0.475000X0.250000X0.475000X-0.250000X0.475000X0*%
%ADD23RoundRect,0.150000X0.150000X-0.825000X0.150000X0.825000X-0.150000X0.825000X-0.150000X-0.825000X0*%
%ADD24R,0.600000X1.450000*%
%ADD25R,0.300000X1.450000*%
%ADD26RoundRect,0.225000X0.225000X0.250000X-0.225000X0.250000X-0.225000X-0.250000X0.225000X-0.250000X0*%
%ADD27R,0.558800X0.946899*%
%ADD28RoundRect,0.250000X0.250000X0.475000X-0.250000X0.475000X-0.250000X-0.475000X0.250000X-0.475000X0*%
%ADD29RoundRect,0.225000X0.250000X-0.225000X0.250000X0.225000X-0.250000X0.225000X-0.250000X-0.225000X0*%
%ADD30R,1.525000X0.700000*%
%ADD31R,2.513000X3.402000*%
%ADD32R,1.550000X2.200000*%
%ADD33RoundRect,0.150000X0.587500X0.150000X-0.587500X0.150000X-0.587500X-0.150000X0.587500X-0.150000X0*%
%ADD34RoundRect,0.225000X-0.225000X-0.250000X0.225000X-0.250000X0.225000X0.250000X-0.225000X0.250000X0*%
%ADD35R,2.000000X0.900000*%
%ADD36R,0.900000X2.000000*%
%ADD37R,5.000000X5.000000*%
%ADD38R,0.946899X0.558800*%
%ADD39RoundRect,0.250000X-0.475000X0.250000X-0.475000X-0.250000X0.475000X-0.250000X0.475000X0.250000X0*%
%ADD40R,0.450000X1.475000*%
%ADD41RoundRect,0.250000X0.475000X-0.250000X0.475000X0.250000X-0.475000X0.250000X-0.475000X-0.250000X0*%
G04 APERTURE END LIST*
D10*
X181041000Y-59543000D03*
X181991000Y-59543000D03*
X182941000Y-59543000D03*
X182941000Y-57043000D03*
X181991000Y-57043000D03*
X181041000Y-57043000D03*
D11*
X161023800Y-69088000D03*
X162673800Y-69088000D03*
D12*
X162120800Y-80914000D03*
X162120800Y-79614000D03*
X160120800Y-80264000D03*
D13*
X158750000Y-89536000D03*
X158750000Y-91186000D03*
D14*
X184277000Y-70787500D03*
X184277000Y-68912500D03*
D15*
X158813000Y-64643000D03*
X157163000Y-64643000D03*
X186740800Y-103784400D03*
X185090800Y-103784400D03*
D13*
X160401000Y-89536000D03*
X160401000Y-91186000D03*
D11*
X185103000Y-100533200D03*
X186753000Y-100533200D03*
D16*
X159553500Y-99250500D03*
X159553500Y-93281500D03*
D11*
X188151000Y-69748400D03*
X189801000Y-69748400D03*
D13*
X186613800Y-69710800D03*
X186613800Y-71360800D03*
D17*
X179466000Y-73838800D03*
X177466000Y-73838800D03*
X175466000Y-73838800D03*
X173466000Y-73838800D03*
X171466000Y-73838800D03*
X169466000Y-73838800D03*
X167466000Y-73838800D03*
X165466000Y-73838800D03*
X165466000Y-89838800D03*
X167466000Y-89838800D03*
X169466000Y-89838800D03*
X171466000Y-89838800D03*
X173466000Y-89838800D03*
X175466000Y-89838800D03*
X177466000Y-89838800D03*
X179466000Y-89838800D03*
D18*
X187401200Y-109638600D03*
X187401200Y-107988600D03*
D15*
X161454600Y-110693200D03*
X159804600Y-110693200D03*
D19*
X183642000Y-110731000D03*
X183642000Y-112281000D03*
D20*
X162926000Y-67497200D03*
X164226000Y-67497200D03*
X163576000Y-65497200D03*
D21*
X161620000Y-71311600D03*
X158420000Y-71311600D03*
X158420000Y-76211600D03*
X161620000Y-76211600D03*
D11*
X166561000Y-71120000D03*
X168211000Y-71120000D03*
X186056000Y-63754000D03*
X187706000Y-63754000D03*
D15*
X187921400Y-98915200D03*
X186271400Y-98915200D03*
D22*
X178374000Y-70739000D03*
X180274000Y-70739000D03*
D23*
X162433000Y-62927000D03*
X163703000Y-62927000D03*
X164973000Y-62927000D03*
X166243000Y-62927000D03*
X167513000Y-62927000D03*
X168783000Y-62927000D03*
X170053000Y-62927000D03*
X171323000Y-62927000D03*
X171323000Y-57977000D03*
X170053000Y-57977000D03*
X168783000Y-57977000D03*
X167513000Y-57977000D03*
X166243000Y-57977000D03*
X164973000Y-57977000D03*
X163703000Y-57977000D03*
X162433000Y-57977000D03*
D24*
X177760000Y-53778500D03*
X176960000Y-53778500D03*
D25*
X175760000Y-53778500D03*
X174760000Y-53778500D03*
X174260000Y-53778500D03*
X173260000Y-53778500D03*
D24*
X171260000Y-53778500D03*
X172060000Y-53778500D03*
D25*
X172760000Y-53778500D03*
X173760000Y-53778500D03*
X175260000Y-53778500D03*
X176260000Y-53778500D03*
D26*
X163843000Y-55753000D03*
X162293000Y-55753000D03*
D19*
X192328800Y-65468200D03*
X192328800Y-67018200D03*
D15*
X162165800Y-78028800D03*
X160515800Y-78028800D03*
D27*
X184734200Y-86407249D03*
X183794400Y-86407249D03*
X182854600Y-86407249D03*
X182854600Y-89157551D03*
X184734200Y-89157551D03*
D11*
X157163000Y-66200000D03*
X158813000Y-66200000D03*
D28*
X183068000Y-53340000D03*
X181168000Y-53340000D03*
D11*
X180912000Y-50419000D03*
X182562000Y-50419000D03*
D29*
X186639200Y-88252600D03*
X186639200Y-86702600D03*
D30*
X166833000Y-65405000D03*
X166833000Y-66675000D03*
X166833000Y-67945000D03*
X166833000Y-69215000D03*
X172257000Y-69215000D03*
X172257000Y-67945000D03*
X172257000Y-66675000D03*
X172257000Y-65405000D03*
D31*
X169545000Y-67310000D03*
D29*
X160655000Y-57785000D03*
X160655000Y-56235000D03*
D32*
X182118000Y-66185000D03*
X182118000Y-62085000D03*
D16*
X159724500Y-102425500D03*
X159724500Y-108394500D03*
D33*
X178229500Y-67437000D03*
X178229500Y-65537000D03*
X176354500Y-66487000D03*
D34*
X184010000Y-107061000D03*
X185560000Y-107061000D03*
D28*
X184744400Y-91135200D03*
X182844400Y-91135200D03*
D14*
X182118000Y-70660500D03*
X182118000Y-68785500D03*
D35*
X181363000Y-111640000D03*
X181363000Y-110370000D03*
X181363000Y-109100000D03*
X181363000Y-107830000D03*
X181363000Y-106560000D03*
X181363000Y-105290000D03*
X181363000Y-104020000D03*
X181363000Y-102750000D03*
X181363000Y-101480000D03*
X181363000Y-100210000D03*
X181363000Y-98940000D03*
X181363000Y-97670000D03*
X181363000Y-96400000D03*
X181363000Y-95130000D03*
D36*
X178578000Y-94130000D03*
X177308000Y-94130000D03*
X176038000Y-94130000D03*
X174768000Y-94130000D03*
X173498000Y-94130000D03*
X172228000Y-94130000D03*
X170958000Y-94130000D03*
X169688000Y-94130000D03*
X168418000Y-94130000D03*
X167148000Y-94130000D03*
D35*
X164363000Y-95130000D03*
X164363000Y-96400000D03*
X164363000Y-97670000D03*
X164363000Y-98940000D03*
X164363000Y-100210000D03*
X164363000Y-101480000D03*
X164363000Y-102750000D03*
X164363000Y-104020000D03*
X164363000Y-105290000D03*
X164363000Y-106560000D03*
X164363000Y-107830000D03*
X164363000Y-109100000D03*
X164363000Y-110370000D03*
X164363000Y-111640000D03*
D37*
X173863000Y-104140000D03*
D11*
X183020200Y-72491600D03*
X184670200Y-72491600D03*
D38*
X187473849Y-65862200D03*
X187473849Y-66802000D03*
X187473849Y-67741800D03*
X190224151Y-67741800D03*
X190224151Y-65862200D03*
D22*
X183962000Y-108966000D03*
X185862000Y-108966000D03*
D11*
X185103000Y-102158800D03*
X186753000Y-102158800D03*
D28*
X184947600Y-84378800D03*
X183047600Y-84378800D03*
D26*
X182512000Y-55245000D03*
X180962000Y-55245000D03*
D39*
X174879000Y-69281000D03*
X174879000Y-71181000D03*
D40*
X179156000Y-56879000D03*
X178506000Y-56879000D03*
X177856000Y-56879000D03*
X177206000Y-56879000D03*
X177206000Y-62755000D03*
X177856000Y-62755000D03*
X178506000Y-62755000D03*
X179156000Y-62755000D03*
D11*
X180912000Y-48768000D03*
X182562000Y-48768000D03*
X183198000Y-74041000D03*
X184848000Y-74041000D03*
D29*
X176784000Y-71247000D03*
X176784000Y-69697000D03*
D32*
X174498000Y-61232000D03*
X174498000Y-57132000D03*
D11*
X183375800Y-82397600D03*
X185025800Y-82397600D03*
D13*
X164211000Y-69025000D03*
X164211000Y-70675000D03*
D41*
X192557400Y-70520600D03*
X192557400Y-68620600D03*
D39*
X160401000Y-60076000D03*
X160401000Y-61976000D03*
D20*
X160233600Y-67497200D03*
X161533600Y-67497200D03*
X160883600Y-65497200D03*
D11*
X189230000Y-63754000D03*
X190880000Y-63754000D03*
D39*
X185115200Y-65394800D03*
X185115200Y-67294800D03*
M02*
