M48
; DRILL file {KiCad (6.0.7)} date Mon Oct 10 16:15:34 2022
; FORMAT={-:-/ absolute / inch / decimal}
; #@! TF.CreationDate,2022-10-10T16:15:34+05:30
; #@! TF.GenerationSoftware,Kicad,Pcbnew,(6.0.7)
; #@! TF.FileFunction,Plated,1,2,PTH
FMAT,2
INCH
; #@! TA.AperFunction,Plated,PTH,ViaDrill
T1C0.0118
; #@! TA.AperFunction,Plated,PTH,ComponentDrill
T2C0.0256
; #@! TA.AperFunction,Plated,PTH,ComponentDrill
T3C0.0394
; #@! TA.AperFunction,Plated,PTH,ComponentDrill
T4C0.0472
; #@! TA.AperFunction,Plated,PTH,ComponentDrill
T5C0.1260
%
G90
G05
T1
X6.188Y-2.806
X6.1894Y-2.6526
X6.222Y-2.664
X6.246Y-4.032
X6.258Y-2.706
X6.266Y-2.866
X6.268Y-3.16
X6.282Y-3.0
X6.282Y-3.846
X6.308Y-3.2
X6.308Y-3.304
X6.318Y-2.948
X6.324Y-2.174
X6.356Y-2.95
X6.364Y-4.408
X6.3714Y-2.5668
X6.3799Y-4.6559
X6.38Y-4.48
X6.38Y-4.54
X6.38Y-4.6
X6.382Y-3.25
X6.382Y-3.3
X6.39Y-2.622
X6.395Y-2.415
X6.396Y-3.8
X6.4Y-4.42
X6.4134Y-3.2522
X6.42Y-3.652
X6.456Y-3.648
X6.47Y-2.56
X6.4723Y-2.6247
X6.49Y-2.194
X6.498Y-2.982
X6.5Y-2.345
X6.505Y-2.77
X6.514Y-3.264
X6.515Y-2.66
X6.515Y-2.695
X6.53Y-4.394
X6.5317Y-2.9816
X6.5401Y-2.765
X6.542Y-4.2
X6.542Y-4.248
X6.545Y-2.35
X6.56Y-3.352
X6.5644Y-3.7944
X6.57Y-2.978
X6.57Y-3.47
X6.5921Y-2.7672
X6.6Y-4.4
X6.62Y-3.464
X6.6275Y-2.3675
X6.65Y-3.302
X6.652Y-3.818
X6.6525Y-2.3925
X6.655Y-2.61
X6.655Y-2.645
X6.655Y-2.685
X6.662Y-3.77
X6.665Y-2.8
X6.68Y-4.4
X6.682Y-2.168
X6.686Y-3.302
X6.688Y-3.82
X6.69Y-2.545
X6.695Y-2.61
X6.695Y-2.645
X6.695Y-2.685
X6.72Y-2.555
X6.72Y-3.302
X6.722Y-3.82
X6.724Y-2.176
X6.754Y-2.97
X6.76Y-4.4
X6.82Y-2.535
X6.835Y-2.625
X6.835Y-2.665
X6.84Y-2.775
X6.84Y-4.4
X6.868Y-2.0415
X6.896Y-3.106
X6.9Y-4.4
X6.9034Y-2.0415
X6.98Y-3.772
X6.99Y-2.42
X7.0Y-2.73
X7.0Y-4.4
X7.01Y-2.178
X7.014Y-2.986
X7.025Y-2.42
X7.032Y-3.766
X7.05Y-2.174
X7.06Y-4.294
X7.066Y-2.732
X7.074Y-4.342
X7.08Y-2.6576
X7.08Y-4.396
X7.12Y-2.72
X7.136Y-3.646
X7.148Y-3.584
X7.164Y-3.324
X7.165Y-2.855
X7.17Y-2.915
X7.172Y-3.646
X7.205Y-2.53
X7.2123Y-2.7497
X7.22Y-4.48
X7.22Y-4.54
X7.22Y-4.6
X7.22Y-4.66
X7.225Y-1.92
X7.225Y-1.985
X7.228Y-2.622
X7.236Y-3.442
X7.27Y-4.42
X7.308Y-4.34
X7.328Y-2.686
X7.346Y-4.204
X7.362Y-3.372
X7.368Y-2.546
X7.37Y-3.8656
X7.388Y-4.082
X7.3945Y-4.022
X7.396Y-3.958
X7.4165Y-2.8015
X7.424Y-2.632
X7.436Y-2.586
X7.454Y-2.968
X7.475Y-2.792
X7.608Y-2.614
X7.608Y-2.661
T3
X6.085Y-2.24
X6.085Y-2.34
X6.085Y-2.44
X6.085Y-2.59
X6.085Y-2.69
X6.085Y-2.79
X6.085Y-2.89
X6.085Y-2.99
X6.085Y-3.09
X6.085Y-3.19
X6.085Y-3.29
X6.085Y-3.39
X6.085Y-3.49
X6.085Y-3.59
X6.085Y-3.69
X6.085Y-3.79
X6.085Y-3.89
X6.085Y-3.99
X6.085Y-4.09
X6.085Y-4.19
X6.085Y-4.29
X6.185Y-2.24
X6.185Y-2.34
X6.185Y-2.44
X7.516Y-2.8892
X7.516Y-2.9892
X7.516Y-3.0892
X7.516Y-3.1892
X7.516Y-3.2892
X7.516Y-3.3892
X7.516Y-3.4892
X7.516Y-3.5892
X7.516Y-3.6892
X7.516Y-3.7892
X7.516Y-3.8892
X7.516Y-3.9892
X7.516Y-4.0892
X7.516Y-4.1892
X7.516Y-4.2892
T4
X6.4211Y-2.0
X6.5589Y-2.0
X7.4224Y-2.2411
X7.4224Y-2.3789
T5
X6.1639Y-1.97
X6.1639Y-4.53
X7.45Y-1.97
X7.45Y-4.53
T2
G00X6.7004Y-1.9285
M15
G01X6.7004Y-1.9049
M16
G05
G00X6.7004Y-2.1029
M15
G01X6.7004Y-2.0596
M16
G05
G00X7.0406Y-1.9285
M15
G01X7.0406Y-1.9049
M16
G05
G00X7.0406Y-2.1029
M15
G01X7.0406Y-2.0596
M16
G05
T0
M30
